<svg width="597" height="436" viewBox="0 0 597 436" fill="none" xmlns="http://www.w3.org/2000/svg">
<path opacity="0.8" d="M545.806 412.014C515.989 389.386 464.988 333.233 532.149 245.093C615.198 136.09 515.74 91.3716 420.403 96.0379C343.706 99.7954 257.39 3.48957 171.283 20.6998C56.9917 43.5463 131.2 141.849 53.7109 194.808C-12.3783 239.977 15.9988 377.598 102.009 412.014H545.806Z" fill="#F2E4DE"/>
<path d="M319.238 76.3935C305.793 73.8501 297.883 85.1621 305.741 95.5832C310.245 101.565 317.212 107.849 327.672 111.028C351.083 118.141 348.739 95.794 337.69 85.2139C332.975 80.7039 326.034 77.68 319.238 76.3935Z" fill="#DCEDF9"/>
<path d="M596.779 415.852C596.779 426.979 463.187 436 298.39 436C133.593 436 0 426.979 0 415.852C0 404.724 133.593 395.703 298.39 395.703C463.187 395.703 596.779 404.724 596.779 415.852Z" fill="#EBE6E4"/>
<path d="M535.535 291.595C521.421 305.695 537.162 306.893 526.808 317.543C517.372 327.25 503.446 317.802 504.37 341.509C504.574 346.695 500.798 350.544 495.503 352.518C486.788 355.756 478.261 352.758 473.006 346.799C472.581 346.318 472.174 345.815 471.793 345.294C467.807 339.856 466.354 332.485 469.308 325.18C471.705 319.254 475.95 313.425 483.467 311.103C501.113 305.65 491.317 282.291 506.23 281.263C524.216 280.025 524.86 273.433 537.624 264.543C551.154 255.12 554.656 272.483 535.535 291.595Z" fill="#F0DDDB"/>
<path d="M529.21 283.888C528.814 284.294 496.096 318.02 473.008 346.799C472.582 346.318 472.176 345.816 471.795 345.294C494.943 316.497 527.46 282.978 527.856 282.572C528.219 282.198 528.818 282.191 529.191 282.553C529.565 282.919 529.572 283.514 529.21 283.888Z" fill="#F2F8FF"/>
<path d="M539.155 338.673C517.05 351.682 536.256 358.24 519.938 368.162C505.062 377.208 490.77 360.961 484.288 390.775C482.868 397.296 476.93 400.871 469.704 401.618C457.809 402.849 448.161 396.368 443.543 387.26C443.166 386.524 442.825 385.766 442.519 384.994C439.309 376.942 439.875 367.301 445.902 359.161C450.794 352.555 457.957 346.666 468.062 346.193C491.78 345.087 487.117 312.855 506.009 316.378C528.794 320.63 531.719 312.63 550.47 305.673C570.349 298.298 569.118 321.04 539.155 338.673Z" fill="#F3E7E6"/>
<path d="M533.763 327.044C533.142 327.424 481.547 358.869 443.542 387.26C443.165 386.524 442.824 385.766 442.518 384.994C480.608 356.603 531.877 325.35 532.502 324.97C533.075 324.622 533.822 324.803 534.17 325.376C534.517 325.949 534.336 326.696 533.763 327.044Z" fill="white"/>
<path d="M107.993 130.491C115.58 148.938 100.593 143.981 106.044 157.796C111.01 170.39 127.502 167.034 117.507 188.556C115.321 193.266 117.322 198.271 121.452 202.131C128.245 208.478 137.268 208.995 144.412 205.52C144.992 205.239 145.558 204.933 146.113 204.596C151.885 201.114 156.067 194.874 156.156 186.996C156.23 180.604 154.562 173.592 148.52 168.549C134.339 156.723 152.38 138.938 139.017 132.247C122.898 124.177 124.843 117.845 116.494 104.721C107.641 90.8144 97.7128 105.487 107.993 130.491Z" fill="#DCCECD"/>
<path d="M116.802 125.819C117.009 126.344 134.203 170.072 144.413 205.52C144.993 205.24 145.559 204.933 146.114 204.596C135.852 169.108 118.769 125.652 118.558 125.124C118.369 124.64 117.819 124.403 117.334 124.595C116.85 124.784 116.613 125.334 116.802 125.819Z" fill="white"/>
<path d="M86.3932 178.682C102.39 198.73 82.1075 197.994 93.8034 213.091C104.46 226.851 123.615 216.784 119.015 246.942C118.009 253.541 122.28 259.001 128.762 262.284C139.43 267.677 150.756 265.075 158.325 258.217C158.939 257.663 159.531 257.079 160.093 256.469C165.969 250.092 168.886 240.887 166.165 231.131C163.961 223.213 159.376 215.154 150.105 211.103C128.348 201.598 144.226 173.159 125.319 169.703C102.519 165.533 102.645 157.016 87.6208 143.818C71.6909 129.83 64.7096 151.511 86.3932 178.682Z" fill="#F0DDDB"/>
<path d="M95.5859 169.747C96.0296 170.324 132.977 218.126 158.325 258.218C158.939 257.663 159.531 257.079 160.093 256.469C134.667 216.345 97.9524 168.838 97.505 168.261C97.0945 167.733 96.3328 167.636 95.8003 168.047C95.2716 168.457 95.1754 169.219 95.5859 169.747Z" fill="white"/>
<path d="M194.293 161.23C200.738 156.816 216.878 167.699 225.32 180.915L217.832 159.943C215.122 157.596 210.378 154.299 202.964 151.67C191.434 147.585 179.879 141.186 186.335 136.765C192.384 132.625 206.983 141.963 215.728 154.055L206.114 127.128C204.325 125.752 201.603 124.081 197.713 122.703C190.447 120.126 183.162 116.093 187.234 113.309C190.765 110.891 198.915 115.76 204.476 122.544L201.363 113.816C199.935 111.28 197.909 107.657 194.714 104.352C187.311 96.696 181.713 88.0826 187.422 86.8331C193.139 85.5836 202.49 100.589 203.962 114.145L205.567 118.636C204.321 108.777 207.867 96.8402 212.811 96.415C217.725 95.9973 214.641 103.727 210.651 110.322C207.612 115.339 206.772 119.32 206.547 121.383L214.12 142.595C212.193 126.976 217.81 108.141 225.635 107.472C233.429 106.803 228.541 119.072 222.203 129.534C217.415 137.438 216.069 143.726 215.699 147.016L224.78 172.453C223.172 157.019 228.693 138.288 236.399 138.225C242.334 138.181 240.518 146.561 233.426 158.395C228.604 166.435 227.062 173.658 226.57 177.462L230.848 189.443C230.131 189.95 229.384 190.216 228.645 190.227L226.944 185.462C224.54 183.137 219.53 179.185 210.921 176.135C199.392 172.047 187.836 165.648 194.293 161.23Z" fill="#FAFAFA"/>
<path d="M137.589 338.947C130.978 343.106 134.55 362.237 143.325 375.234L127.055 360.03C125.975 356.606 124.832 350.947 125.368 343.099C126.204 330.899 124.925 317.754 118.298 321.92C112.094 325.824 114.863 342.929 122.484 355.76L101.588 336.234C101.037 334.045 100.586 330.885 100.867 326.766C101.392 319.077 100.586 310.793 96.4114 313.417C92.7913 315.698 94.0189 325.11 98.0347 332.91L91.2641 326.582C89.5003 324.267 86.9821 320.966 85.2183 316.722C81.1323 306.889 75.4526 298.331 72.0396 303.07C68.6191 307.817 78.6733 322.36 90.532 329.099L94.0152 332.356C85.4587 327.291 73.0934 325.802 70.7417 330.167C68.401 334.507 76.7246 334.755 84.3604 333.713C90.177 332.921 94.1632 333.735 96.1451 334.345L112.604 349.727C99.0331 341.749 79.5127 339.413 75.7891 346.326C72.0765 353.213 85.2812 353.605 97.4024 351.949C106.562 350.699 112.87 351.963 116.035 352.932L135.774 371.379C122.248 363.763 102.857 361.383 99.7394 368.425C97.3358 373.855 105.752 375.519 119.434 373.715C128.73 372.491 135.97 373.948 139.656 375.005L148.953 383.696C149.703 383.238 150.243 382.661 150.55 381.988L146.852 378.528C145.673 375.401 144.038 369.235 144.66 360.126C145.492 347.927 144.212 334.781 137.589 338.947Z" fill="white"/>
<path d="M471.255 167.507V411.189H118.386V167.507H471.255Z" fill="#492D21"/>
<path d="M471.243 167.514V183.137L294.82 339.464L118.386 183.137V167.514L294.809 324.378L471.243 167.514Z" fill="#A4877A"/>
<path d="M260.824 293.618L128.607 411.189H118.387V404.978L253.225 285.078L260.824 293.618Z" fill="#A4877A"/>
<path d="M471.255 405.803V411.189H460.11L327.89 293.618L335.489 285.078L471.255 405.803Z" fill="#A4877A"/>
<path d="M118.377 167.503L294.811 324.378L471.245 167.503H118.377Z" fill="#63473B"/>
<path d="M373.901 145.56L378.405 155.19L368.887 155.337L365.215 146.572L373.901 145.56Z" fill="#F9AF8B"/>
<path d="M375.404 154.587C376.71 152.838 377.878 151.999 378.914 152.077C380.467 152.188 392.444 161.707 396.548 162.494C400.649 163.282 400.268 167.459 398.552 167.459C395.254 167.459 384.508 167.474 366.315 167.503C365.764 160.997 365.838 156.776 366.533 154.835C367.58 151.925 372.198 155.278 375.404 154.587Z" fill="black"/>
<path d="M382.027 161.23C381.879 161.274 381.72 161.263 381.576 161.182C381.302 161.023 381.206 160.672 381.361 160.398C381.413 160.306 382.666 158.129 384.353 157.278C386.597 156.147 388.346 157.415 388.42 157.471C388.675 157.659 388.731 158.018 388.539 158.273C388.35 158.528 387.991 158.58 387.736 158.391C387.688 158.358 386.471 157.5 384.87 158.306C383.498 158.997 382.371 160.945 382.36 160.968C382.286 161.101 382.164 161.189 382.027 161.23Z" fill="white"/>
<path d="M380.312 159.615C380.167 159.655 380.005 159.644 379.864 159.563C379.587 159.404 379.491 159.056 379.65 158.779C379.701 158.687 380.955 156.509 382.641 155.659C384.886 154.528 386.635 155.796 386.709 155.851C386.964 156.04 387.016 156.398 386.827 156.654C386.638 156.909 386.276 156.964 386.025 156.772C385.977 156.739 384.756 155.885 383.159 156.687C381.78 157.382 380.659 159.326 380.648 159.349C380.57 159.482 380.448 159.574 380.312 159.615Z" fill="white"/>
<path d="M384.35 162.546C384.206 162.591 384.043 162.576 383.899 162.495C383.625 162.336 383.529 161.988 383.685 161.711C383.736 161.618 384.99 159.441 386.676 158.591C388.924 157.46 390.673 158.728 390.744 158.783C390.999 158.972 391.054 159.33 390.862 159.585C390.673 159.84 390.315 159.896 390.06 159.704C390.011 159.67 388.791 158.816 387.194 159.618C385.815 160.313 384.694 162.258 384.683 162.28C384.609 162.413 384.487 162.506 384.35 162.546Z" fill="white"/>
<path d="M376.613 148.698L372.394 150.073L370.05 150.214L366.023 150.45C360.698 146.24 346.336 133.571 343.541 126.104C331.224 154.742 316.547 169.06 299.516 169.06C297.859 169.06 302.241 147.685 306.404 143.242C322.101 113.993 335.04 100.921 345.216 104.023C352.053 106.112 358.968 116.06 376.613 148.698Z" fill="black"/>
<path d="M372.395 150.073L370.051 150.214C354.38 138.351 347.121 128.307 343.778 121.871C343.664 121.645 343.479 121.575 343.349 121.579C343.242 121.583 343.165 121.642 343.113 121.767C335.606 139.427 326.602 150.025 320.368 155.811C313.575 162.11 308.605 164.187 308.402 164.276L308.114 163.574L307.825 162.875C307.873 162.857 312.806 160.783 319.414 154.635C325.519 148.953 334.342 138.539 341.719 121.176C342 120.507 342.591 120.093 343.294 120.067C344.048 120.037 344.758 120.47 345.124 121.172C348.493 127.66 355.959 137.915 372.395 150.073Z" fill="#654A3F"/>
<path d="M373.608 85.9976C360.777 91.2211 350.519 93.8495 341.793 94.9289C341.789 94.9289 341.781 94.9252 341.774 94.9252C341.663 94.9289 339.611 95.099 338.82 95.0657C336.468 94.9844 333.284 94.452 330.06 92.9475C327.763 91.8754 324.483 89.1029 321.052 85.798C316.799 81.6983 312.318 76.7779 309.215 73.266C307.611 71.4435 306.279 69.9057 305.229 68.6525C307.367 65.4659 312.107 62.5714 316.23 61.0261C321.969 70.5748 329.183 77.6984 337.877 82.3859C338.587 82.774 339.308 83.1326 340.043 83.4616C343.016 82.9811 351.055 82.6151 354.539 82.3674C360.836 81.9201 366.553 81.1512 371.696 80.0569L373.608 85.9976Z" fill="#FCCC4F"/>
<path d="M371.372 79.5836C372.563 76.5782 373.968 74.6448 375.587 73.7834C378.02 72.497 384.939 67.9648 386.414 69.3215C387.89 70.6782 387.586 77.1918 381.385 82.6371C378.749 84.9513 376.109 86.0566 373.454 85.9605L371.372 79.5836Z" fill="#F9AF8B"/>
<path d="M386.856 73.4655L376.643 83.0031C376.262 83.3617 375.567 83.4652 375.094 83.236L368.834 80.2121C368.641 80.116 368.512 79.9829 368.46 79.8276L368.445 79.7759L368.138 78.7334L369.799 78.1012L385.865 72.0016L386.734 71.6726L387.06 72.7779L387.086 72.8556C387.093 72.863 387.093 72.874 387.089 72.8814C387.126 73.0774 387.049 73.2881 386.856 73.4655Z" fill="black"/>
<path d="M385.866 72.0019L369.799 78.1015L378.884 69.6138C379.269 69.2589 379.96 69.1517 380.434 69.3809L385.866 72.0019Z" fill="#1F2232"/>
<path d="M374.783 82.1789L368.523 79.1512C368.05 78.922 367.976 78.4489 368.36 78.0903L378.574 68.5527C378.955 68.1941 379.646 68.0906 380.119 68.3198L386.38 71.3437C386.853 71.5729 386.927 72.0498 386.542 72.4047L376.329 81.9423C375.948 82.3009 375.253 82.4044 374.783 82.1789Z" fill="black"/>
<g style="mix-blend-mode:screen">
<g style="mix-blend-mode:screen">
<path d="M375.541 80.4673L370.689 78.1235C370.22 77.8943 370.146 77.4212 370.53 77.0626L378.473 69.6469C378.854 69.2883 379.545 69.1848 380.019 69.4103L384.87 71.7578C385.34 71.9833 385.414 72.4601 385.033 72.815L377.09 80.2344C376.705 80.593 376.014 80.6965 375.541 80.4673Z" fill="#FCCC4F"/>
</g>
</g>
<path d="M387.093 72.8819H387.089C387.093 72.8744 387.093 72.8632 387.086 72.8557L387.093 72.8819Z" fill="#1F2232"/>
<path d="M375.413 71.5027C376.386 71.6543 376.918 72.146 377.018 72.9814C377.166 74.2309 375.812 73.7319 374.943 73.4583C374.071 73.1811 373.287 73.4583 373.169 73.5988C372.788 74.0461 372.854 71.1331 375.413 71.5027Z" fill="#F9AF8B"/>
<path d="M381.918 78.2935C383.437 75.7908 384.783 73.8611 385.948 72.4933C387.113 71.1292 387.708 73.107 386.913 74.4896C386.115 75.8685 384.539 78.6817 381.918 78.2935Z" fill="#F9AF8B"/>
<path d="M275.571 145.903L270.513 113.302L270.213 111.372L270.247 109.916L271.374 63.7285L284.191 59.3996L284.879 59.163L287.755 58.1908L290.037 57.4219L303.571 59.2813L305.775 59.5845L306.551 59.6917L316.232 61.0262C316.32 91.6426 313.381 98.256 319.042 123.165C321.889 132.558 311.439 165.829 275.571 145.903Z" fill="#FEAC1A"/>
<path d="M282.775 137.563C282.779 137.563 282.779 137.563 282.779 137.563C292.914 134.735 300.306 127.741 304.725 122.373C309.502 116.57 311.928 111.346 311.954 111.294C312.072 111.043 311.961 110.74 311.706 110.625C311.451 110.507 311.152 110.618 311.033 110.873C311.011 110.925 308.626 116.045 303.926 121.752C299.604 126.998 292.378 133.833 282.505 136.587C282.239 136.665 282.08 136.942 282.154 137.212C282.232 137.482 282.509 137.637 282.775 137.563Z" fill="black" fill-opacity="0.2"/>
<path d="M294.297 138.107C303.101 135.693 310.504 128.266 310.84 127.926C311.036 127.726 311.033 127.408 310.837 127.209C310.637 127.013 310.315 127.017 310.119 127.216C310.031 127.305 301.322 136.037 291.901 137.604C291.62 137.648 291.438 137.911 291.483 138.184C291.531 138.462 291.79 138.647 292.067 138.602C292.818 138.477 293.561 138.31 294.297 138.107Z" fill="black" fill-opacity="0.2"/>
<path d="M288.067 72.9852C296.864 70.5454 304.249 63.1001 304.585 62.76C304.781 62.5604 304.778 62.2388 304.578 62.0429C304.378 61.8469 304.057 61.8506 303.861 62.0503C303.775 62.139 295.086 70.8929 285.668 72.4825C285.39 72.5305 285.209 72.793 285.254 73.0665C285.302 73.3438 285.56 73.5286 285.838 73.4806C286.588 73.3549 287.332 73.1885 288.067 72.9852Z" fill="black" fill-opacity="0.2"/>
<path d="M365.275 230.285L368.821 238.17L361.555 241.294L357.329 233.15L365.275 230.285Z" fill="#F9AF8B"/>
<path d="M367.235 238C367.73 235.875 368.466 234.64 369.446 234.296C370.914 233.778 385.698 237.727 389.773 236.81C393.851 235.889 394.325 238.976 394.254 240.691C394.206 241.837 384.122 246.015 364.01 253.231C360.938 247.645 359.337 243.826 359.2 241.767C358.993 238.684 364.565 239.915 367.235 238Z" fill="black"/>
<path d="M375.958 241.449C375.84 241.545 375.688 241.597 375.526 241.582C375.208 241.545 374.982 241.264 375.015 240.95C375.026 240.843 375.307 238.348 376.513 236.895C378.118 234.961 380.229 235.423 380.318 235.446C380.625 235.516 380.821 235.826 380.747 236.133C380.676 236.444 380.366 236.636 380.059 236.566C380 236.551 378.543 236.255 377.397 237.63C376.413 238.813 376.162 241.05 376.158 241.072C376.139 241.224 376.065 241.357 375.958 241.449Z" fill="white"/>
<path d="M373.739 240.652C373.624 240.748 373.469 240.8 373.306 240.781C372.992 240.748 372.763 240.467 372.796 240.149C372.807 240.045 373.088 237.55 374.294 236.097C375.902 234.16 378.01 234.626 378.099 234.648C378.409 234.718 378.601 235.025 378.527 235.336C378.457 235.646 378.15 235.838 377.84 235.765C377.78 235.753 376.324 235.454 375.177 236.829C374.19 238.02 373.942 240.249 373.939 240.271C373.924 240.426 373.85 240.559 373.739 240.652Z" fill="white"/>
<path d="M378.609 241.726C378.495 241.822 378.339 241.874 378.18 241.859C377.862 241.822 377.633 241.541 377.666 241.224C377.681 241.12 377.958 238.625 379.168 237.172C380.772 235.235 382.88 235.701 382.973 235.723C383.28 235.793 383.472 236.104 383.402 236.41C383.328 236.721 383.021 236.913 382.71 236.839C382.655 236.828 381.194 236.532 380.051 237.908C379.064 239.094 378.813 241.323 378.813 241.349C378.794 241.501 378.72 241.634 378.609 241.726Z" fill="white"/>
<path d="M367.104 231.812C366.353 232.67 364.027 233.963 361.491 235.098C361.032 235.309 360.559 235.509 360.093 235.701C359.272 236.041 358.455 236.348 357.686 236.61C346.197 215.435 338.243 197.174 333.835 181.817C294.939 177.015 274.816 167.807 273.47 154.188C273.399 153.504 273.396 152.805 273.462 152.088C273.632 150.14 274.309 148.084 275.57 145.907C276.901 143.615 296.869 145.848 307.655 148.876C327.157 156.469 340.51 164.18 347.717 172.002C351.366 175.962 357.83 195.898 367.104 231.812Z" fill="black"/>
<path d="M361.491 235.098C361.033 235.309 360.559 235.509 360.093 235.701C351.378 221.276 339.275 187.581 336.576 179.492C336.395 178.945 335.925 178.538 335.352 178.427C307.005 173.1 290.672 165.666 281.96 160.369C278.122 158.036 275.382 155.907 273.47 154.188C273.4 153.504 273.396 152.805 273.463 152.088C275.315 153.9 278.31 156.395 282.918 159.182C291.519 164.38 307.641 171.681 335.633 176.941C336.746 177.152 337.656 177.947 338.01 179.015C340.71 187.107 352.864 220.958 361.491 235.098Z" fill="#654A3F"/>
<path d="M261.717 157.962C264.365 161.552 265.578 164.272 265.36 166.132C265.034 168.915 261.436 174.165 258.563 174.416C255.69 174.671 261.865 167.673 260.408 167.899C258.645 168.172 246.738 177.939 244.223 177.939C241.709 177.939 247.182 173.4 249.312 172.254C245.555 173.932 243.24 175.207 242.367 176.083C241.054 177.392 240.104 174.583 246.657 170.594C242.648 172.871 240.507 174.024 240.234 174.061C238.899 174.239 242.715 169.766 245.998 168.15C242.785 169.714 241.018 170.501 240.688 170.505C240.012 170.52 241.465 168.945 245.044 166.964C247.189 165.773 250.018 162.45 253.534 156.99L261.717 157.962Z" fill="#F9AF8B"/>
<path d="M271.375 63.7285C262.467 80.837 256.994 98.3374 254.968 116.233L253.533 156.99C254.45 158.927 257.175 159.252 261.716 157.962L268.302 117.213L273.349 98.5629C274.88 83.2658 274.222 71.6543 271.375 63.7285Z" fill="#FCCC4F"/>
<path d="M312.42 35.9846C311.001 44.0139 303.339 49.3705 295.307 47.9509C287.28 46.5314 281.918 38.8717 283.338 30.8461C284.758 22.8168 292.419 17.4565 300.451 18.8761C308.479 20.2956 313.84 27.9553 312.42 35.9846Z" fill="black"/>
<path d="M312.643 33.3343C315.524 33.0645 317.018 31.5636 317.129 28.8354C317.266 25.3531 312.88 26.8502 313.701 24.2551C314.522 21.66 315.731 19.3828 312.41 18.1112C309.504 16.9984 309.09 19.0501 305.666 15.3608C301.624 11.0023 296.595 18.5511 292.387 18.0594C286.179 17.3348 284.788 20.673 283.694 23.3457C282.962 25.1239 283.272 26.8059 284.618 28.3844L312.643 33.3343Z" fill="black"/>
<path d="M309.262 39.6183C311.159 37.8439 312.527 37.903 313.37 39.7994C314.635 42.6385 310.889 49.7104 307.017 47.1375L309.262 39.6183Z" fill="#FC8664"/>
<path d="M308.345 44.9823C308.497 45.0118 308.659 44.9342 308.729 44.7863C309.791 42.5831 312.353 42.0692 312.379 42.0655C312.575 42.0286 312.705 41.84 312.668 41.6441C312.631 41.4482 312.442 41.3225 312.246 41.3595C312.128 41.3817 309.303 41.9399 308.082 44.4721C307.997 44.6533 308.071 44.8677 308.249 44.9527C308.282 44.9675 308.312 44.9786 308.345 44.9823Z" fill="#FD664D"/>
<path d="M310.971 44.2467C311.037 44.2578 311.108 44.2504 311.174 44.2208C311.355 44.1469 311.444 43.9362 311.367 43.7513C311.352 43.7218 311.045 43.0009 310.224 42.4464C310.061 42.3318 309.836 42.3761 309.725 42.5425C309.614 42.7052 309.658 42.9307 309.821 43.0416C310.453 43.4704 310.701 44.0249 310.701 44.0286C310.753 44.1469 310.856 44.2245 310.971 44.2467Z" fill="#FD664D"/>
<path d="M290.072 50.7048L288.752 58.1612C290.409 60.7119 292.224 62.2535 294.203 62.7784C296.174 63.307 297.978 62.49 299.62 60.3274L300.888 53.1558L290.072 50.7048Z" fill="#F9AF8B"/>
<path d="M290.07 50.7048L289.486 54.0134C291.105 56.6085 294.592 57.8026 300.035 57.9541L300.886 53.1558L290.07 50.7048Z" fill="#FC8664"/>
<path d="M285.597 30.1622C285.224 33.0863 284.858 36.7571 284.898 39.7515C284.909 40.5019 284.943 41.208 285.009 41.8476C285.608 47.6182 287.868 57.7361 299.556 55.7547C304.715 54.8786 307.921 49.8732 309.895 44.5499C311.237 40.9382 312.007 37.1823 312.435 34.4763C312.868 31.7148 311.811 28.9348 309.655 27.153C303.816 22.3325 296.727 22.4914 291.913 23.4267C288.574 24.0773 286.026 26.7944 285.597 30.1622Z" fill="#F9AF8B"/>
<path d="M303.562 39.6182C303.422 40.413 303.717 41.1302 304.224 41.2189C304.731 41.3076 305.256 40.7383 305.396 39.9399C305.537 39.1451 305.241 38.4279 304.734 38.3355C304.228 38.2468 303.703 38.8197 303.562 39.6182Z" fill="black"/>
<path d="M292.827 37.7183C292.687 38.5168 292.983 39.234 293.489 39.3227C293.996 39.4114 294.521 38.8384 294.661 38.0436C294.802 37.2488 294.506 36.5317 294 36.4392C293.493 36.3505 292.968 36.9235 292.827 37.7183Z" fill="black"/>
<path d="M308.243 35.881C305.876 34.4245 303.639 33.9477 301.531 34.4467L301.535 35.8552C303.739 35.7554 305.813 36.2766 307.751 37.4189C308.058 36.8237 308.376 36.5686 308.243 35.881Z" fill="black"/>
<path d="M290.782 32.7941C293.503 32.2396 295.77 32.5575 297.578 33.7479L297.09 35.0676C295.053 34.2211 292.926 33.9993 290.715 34.4059C290.63 33.7442 290.419 33.3967 290.782 32.7941Z" fill="black"/>
<path d="M297.48 44.3908C296.885 44.2836 296.334 43.9472 296.245 43.8954C296.079 43.7882 296.03 43.5664 296.134 43.3964C296.241 43.23 296.463 43.1783 296.63 43.2855C296.929 43.4703 297.661 43.8104 298.027 43.6699C298.101 43.644 298.201 43.5812 298.26 43.3705C298.608 42.158 299.003 37.9511 299.007 37.9067C299.026 37.7108 299.199 37.5666 299.399 37.5851C299.595 37.5999 299.739 37.7773 299.721 37.9732C299.706 38.1507 299.318 42.291 298.952 43.5701C298.815 44.0507 298.515 44.254 298.286 44.3427C298.035 44.4388 297.754 44.4388 297.48 44.3908Z" fill="#FC8664"/>
<path d="M301.553 47.3444C301.006 48.7529 299.571 51.263 296.328 50.69C293.078 50.1133 292.601 47.5034 292.582 45.7622L301.553 47.3444Z" fill="white"/>
<path d="M296.044 52.5459C295.127 52.3832 294.432 51.7807 294.402 51.7548C294.254 51.6254 294.239 51.3999 294.369 51.2483C294.502 51.1005 294.728 51.0857 294.879 51.2151C294.883 51.2188 295.456 51.7104 296.17 51.8361C296.828 51.9544 297.519 51.6882 297.527 51.6846C297.712 51.6106 297.922 51.703 297.996 51.8879C298.067 52.0727 297.978 52.2797 297.793 52.3537C297.756 52.3684 296.909 52.6975 296.044 52.5459Z" fill="#FC8664"/>
<path d="M309.204 42.0471C309.733 40.6349 310.328 38.794 310.306 37.7958C310.265 36.0214 309.026 34.7682 309.788 33.2008C310.554 31.6297 309.126 29.5484 307.891 29.0272C306.66 28.5022 303.546 28.6131 300.843 26.6871C298.259 24.8499 293.189 24.9423 292.072 26.6095C290.719 28.6279 291.995 29.0678 288.94 30.9717C287.724 31.7295 288.537 34.3985 288.434 36.0251C288.382 36.7719 288.33 37.1341 288.164 37.9178L288.082 38.3134L284.925 37.7552C285.013 35.2229 285.298 32.4615 285.59 30.1621C286.023 26.7907 288.571 24.0773 291.91 23.4266C296.724 22.4914 303.813 22.3287 309.651 27.1566C311.807 28.9348 312.865 31.7147 312.428 34.4762C312.092 36.6203 311.537 39.4298 310.653 42.3022L309.204 42.0471Z" fill="black"/>
<path d="M286.083 39.3671C286.238 38.5427 286.327 37.7072 286.327 36.8681C286.327 35.7221 286.183 34.6574 285.125 33.992C284.275 33.4597 283.298 33.2785 282.422 34.1879C280.259 36.4245 280.773 44.6608 285.288 43.574L286.083 39.3671Z" fill="#F9AF8B"/>
<path d="M284.888 41.1267C284.74 41.0713 284.644 40.9197 284.659 40.757C284.899 38.3283 282.976 36.5538 282.958 36.5354C282.81 36.4023 282.799 36.1768 282.932 36.0289C283.065 35.881 283.294 35.8699 283.439 36.003C283.531 36.0844 285.653 38.0288 285.376 40.8273C285.358 41.0269 285.18 41.1711 284.984 41.1489C284.951 41.1489 284.918 41.1378 284.888 41.1267Z" fill="#FC8664"/>
<path d="M283.027 39.1305C282.964 39.1083 282.909 39.0639 282.864 39.0085C282.75 38.8458 282.787 38.6203 282.946 38.5057C282.972 38.4835 283.615 38.0288 284.599 37.9808C284.798 37.9697 284.968 38.125 284.976 38.3246C284.987 38.5205 284.835 38.6906 284.636 38.7016C283.874 38.7386 283.375 39.0824 283.367 39.0861C283.264 39.16 283.138 39.1748 283.027 39.1305Z" fill="#FC8664"/>
<path d="M452.763 209.831C449.523 215.975 445.996 221.483 442.18 226.352C440.493 228.503 438.73 230.492 436.992 232.022C434.181 234.514 431.438 235.815 429.201 234.71C423.676 231.982 414.753 219.76 402.436 198.046L406.984 192.759C412.468 198.962 417.212 203.916 421.225 207.628C424.922 211.051 428.191 214.041 431.035 216.6C431.804 215.454 432.621 214.2 433.471 212.873C434.377 211.465 435.313 209.971 436.271 208.437C440.885 201.014 445.974 193.24 451.535 185.118L452.763 209.831Z" fill="#F9AF8B"/>
<path d="M408.189 195.957C409.443 193.905 409.824 191.961 409.343 190.124C408.618 187.366 407.912 181.133 404.898 181.3C403.796 181.362 405.405 183.969 404.665 186.379C402.517 185.344 400.72 184.294 399.281 183.229C397.381 181.824 393.446 179.547 391.62 178.505C391.117 178.22 390.536 178.767 390.828 179.259C391.298 180.054 392.444 181.24 395.096 182.9C390.703 180.442 388.14 179.481 387.404 180.02C386.669 180.564 389.076 182.32 394.626 185.296C390.144 183.488 387.719 182.911 387.353 183.577C387.127 183.98 389.216 185.469 393.609 188.053C389.242 186.704 387.467 186.541 388.277 187.565C388.632 188.013 401.071 193.639 403.663 200.175C406.082 198.852 407.59 197.447 408.189 195.957Z" fill="#F9AF8B"/>
<path d="M442.181 226.352C440.495 228.503 438.731 230.492 436.993 232.023L433.473 212.873C434.379 211.465 435.314 209.971 436.272 208.437L442.181 226.352Z" fill="#FC8664"/>
<path d="M451.786 184.26L434.27 209.52L439.843 232.022L453.587 210.104C455.303 200.327 454.704 191.713 451.786 184.26Z" fill="#BF9786"/>
<path d="M460.775 400.38V408.353L468.222 408.235L468.706 399.784L460.775 400.38Z" fill="#F9AF8B"/>
<path d="M479.678 283.877C479.626 284.823 479.371 289.374 478.979 295.718C477.929 313.151 475.966 344.123 474.816 351.08C473.632 358.222 474.168 381.634 474.549 393.888C474.608 395.973 473.799 397.866 472.442 399.256C471.939 399.766 471.351 400.21 470.715 400.572C469.602 401.189 468.33 401.54 466.973 401.54H461.297C457.018 401.54 453.587 398.077 453.72 393.888C454.038 383.526 454.43 364.625 453.69 350.023C452.98 336.127 454.008 311.54 454.8 296.213H454.811C455.129 290.091 455.406 285.459 455.517 283.566L479.678 283.877Z" fill="black"/>
<path d="M455.518 283.566L479.679 283.877C479.628 284.823 479.372 289.374 478.98 295.718C470.775 296.705 462.233 297.119 454.812 296.213C455.13 290.091 455.407 285.459 455.518 283.566Z" fill="black"/>
<path d="M462.683 408.054C461.656 406.638 460.72 405.951 459.877 405.991C458.616 406.054 448.713 413.425 445.363 413.98C442.017 414.531 442.608 416.952 443.193 418.194C443.581 419.022 452.452 419.059 469.802 418.301C470.39 413.263 470.419 409.961 469.887 408.405C469.092 406.069 465.279 408.66 462.683 408.054Z" fill="black"/>
<path d="M457.183 413.226C457.301 413.266 457.434 413.255 457.549 413.196C457.775 413.074 457.86 412.797 457.738 412.575C457.697 412.501 456.717 410.745 455.364 410.039C453.559 409.1 452.113 410.076 452.054 410.12C451.843 410.265 451.795 410.553 451.943 410.756C452.091 410.963 452.383 411.011 452.594 410.867C452.635 410.841 453.641 410.179 454.924 410.849C456.029 411.425 456.909 412.993 456.917 413.011C456.976 413.118 457.072 413.192 457.183 413.226Z" fill="white"/>
<path d="M458.604 411.969C458.722 412.006 458.855 411.998 458.97 411.935C459.199 411.817 459.284 411.54 459.162 411.318C459.118 411.24 458.142 409.488 456.785 408.782C454.98 407.84 453.538 408.819 453.475 408.86C453.264 409.008 453.216 409.292 453.364 409.499C453.516 409.706 453.808 409.754 454.015 409.607C454.056 409.581 455.061 408.923 456.345 409.588C457.454 410.168 458.33 411.736 458.338 411.751C458.397 411.858 458.497 411.935 458.604 411.969Z" fill="white"/>
<path d="M455.273 414.231C455.391 414.268 455.524 414.261 455.639 414.202C455.868 414.08 455.953 413.802 455.831 413.581C455.787 413.507 454.811 411.751 453.454 411.045C451.649 410.102 450.207 411.082 450.144 411.126C449.933 411.27 449.885 411.555 450.033 411.762C450.185 411.969 450.477 412.017 450.684 411.869C450.725 411.843 451.73 411.185 453.014 411.854C454.123 412.431 454.999 413.998 455.007 414.013C455.066 414.124 455.166 414.198 455.273 414.231Z" fill="white"/>
<path d="M497.04 400.379L497.842 408.338L504.484 408.235L504.972 399.784L497.04 400.379Z" fill="#F9AF8B"/>
<path d="M510.718 350.022C509.978 364.624 510.366 383.526 510.684 393.888C510.81 398.076 507.386 401.54 503.108 401.54H497.435C496.178 401.54 494.987 401.237 493.948 400.712C493.323 400.39 492.735 399.987 492.233 399.507C490.709 398.106 489.785 396.102 489.859 393.888C490.236 381.633 490.772 358.222 489.589 351.08C488.416 344.004 486.401 312.083 485.366 294.834C485.026 289.074 484.789 284.956 484.726 283.939L508.928 284.25C508.998 285.477 509.113 287.37 509.246 289.769C510.026 303.562 511.538 333.942 510.718 350.022Z" fill="black"/>
<path d="M509.246 289.769C504.69 290.985 495.657 293.222 485.366 294.834C485.026 289.074 484.789 284.956 484.726 283.939L508.928 284.25C508.998 285.477 509.113 287.37 509.246 289.769Z" fill="black"/>
<path d="M500.429 407.115C502.689 406.527 504.131 406.235 504.756 406.25C505.691 406.268 511.966 413.141 514.081 413.543C517.912 414.279 517.916 420.139 515.586 420.431C511.09 420.992 504.996 420.342 497.301 418.482C496.595 413.47 496.391 410.176 496.702 408.601C497.164 406.242 498.543 407.81 500.429 407.115Z" fill="black"/>
<path d="M506.013 413.536C505.895 413.562 505.765 413.54 505.654 413.469C505.44 413.325 505.381 413.044 505.525 412.834C505.573 412.763 506.719 411.107 508.139 410.534C510.025 409.765 511.367 410.874 511.423 410.922C511.619 411.085 511.641 411.377 511.471 411.565C511.305 411.758 511.009 411.78 510.813 411.614C510.776 411.584 509.84 410.834 508.498 411.377C507.341 411.846 506.313 413.329 506.302 413.344C506.231 413.443 506.128 413.51 506.013 413.536Z" fill="white"/>
<path d="M504.724 412.15C504.605 412.176 504.472 412.154 504.361 412.083C504.147 411.943 504.091 411.658 504.236 411.448C504.284 411.377 505.43 409.721 506.846 409.148C508.736 408.379 510.078 409.488 510.134 409.536C510.33 409.699 510.348 409.991 510.182 410.179C510.012 410.372 509.716 410.394 509.523 410.228C509.486 410.198 508.547 409.448 507.205 409.991C506.044 410.464 505.02 411.943 505.012 411.958C504.942 412.061 504.838 412.124 504.724 412.15Z" fill="white"/>
<path d="M507.818 414.715C507.7 414.741 507.567 414.719 507.459 414.649C507.245 414.504 507.186 414.224 507.33 414.013C507.378 413.943 508.524 412.286 509.944 411.71C511.83 410.941 513.172 412.053 513.228 412.102C513.424 412.264 513.446 412.553 513.276 412.745C513.11 412.937 512.814 412.959 512.618 412.793C512.581 412.763 511.645 412.013 510.299 412.556C509.142 413.029 508.118 414.508 508.107 414.523C508.036 414.623 507.933 414.689 507.818 414.715Z" fill="white"/>
<path d="M514.418 286.324C492.561 291.71 470.729 291.725 448.92 286.324C448.805 278.343 448.691 246.429 449.319 220.234C449.33 219.72 449.345 219.206 449.356 218.696C449.36 218.445 449.371 218.189 449.378 217.942V217.901C449.386 217.572 449.393 217.25 449.404 216.929C449.87 199.654 450.684 185.547 452.078 183.666C452.078 183.662 452.081 183.662 452.081 183.662C455.335 179.281 471.691 172.287 476.217 169.163C476.594 169.759 478.82 173.063 481.737 173.307C483.871 173.492 485.886 172.354 487.783 169.892V169.193C492.328 172.317 507.148 178.79 510.399 183.155C513.952 187.943 514.57 272.724 514.418 286.324Z" fill="#BF9786"/>
<path d="M455.982 207.938C454.104 210.423 451.364 216.053 450.132 218.655C449.966 219.014 449.825 219.313 449.722 219.539C449.581 219.838 449.504 220.012 449.496 220.023C449.459 220.112 449.397 220.186 449.319 220.234C449.33 219.72 449.345 219.206 449.356 218.696C449.36 218.445 449.371 218.189 449.378 217.942V217.901C449.629 217.369 449.925 216.748 450.258 216.064C451.66 213.206 453.653 209.354 455.169 207.351C455.331 207.129 455.649 207.084 455.875 207.247C456.101 207.406 456.145 207.72 455.982 207.938Z" fill="#D3B8AC"/>
<path d="M497.839 188.66C497.832 188.66 497.828 188.66 497.82 188.66C489.134 188.386 482.434 184.848 478.341 181.928C473.911 178.764 471.559 175.703 471.459 175.573C471.293 175.355 471.341 175.045 471.563 174.882C471.788 174.716 472.106 174.764 472.273 174.982C472.365 175.104 481.739 187.166 497.854 187.669C498.135 187.676 498.353 187.906 498.346 188.179C498.334 188.449 498.109 188.66 497.839 188.66Z" fill="#D3B8AC"/>
<path d="M530.459 285.444C530.149 289.784 527.49 293.008 527.475 295.865C527.46 298.727 524.092 296.856 525.652 291.211C527.209 285.566 524.898 280.106 523.663 280.154C522.428 280.21 524.055 286.516 522.76 288.612C521.463 290.708 520.479 286.309 519.344 283.585C518.16 280.76 518.822 274.897 519.891 270.772C520.963 266.646 515.709 240.466 516.4 233.091L514.503 223.52L513.394 217.938L513.187 212.112L523.311 208.182C523.692 210.053 524.084 211.994 524.469 213.942C524.643 214.803 524.809 215.665 524.975 216.526C526.329 223.502 527.545 230.37 528.041 234.777C528.954 242.902 528.662 255.253 527.164 271.825C529.557 278.191 530.655 282.731 530.459 285.444Z" fill="#F9AF8B"/>
<path d="M524.975 216.526C522.69 219.08 519.041 222.333 514.503 223.52L513.394 217.938L513.187 212.112L523.311 208.182C523.692 210.053 524.084 211.994 524.469 213.942C524.643 214.803 524.809 215.665 524.975 216.526Z" fill="#FC8664"/>
<path d="M527.785 210.999C526.979 211.935 525.873 212.914 524.468 213.942C521.917 215.816 518.042 217.897 513.405 217.938C512.846 201.787 512.022 188.142 510.82 184.135C512.957 186.719 523.215 199.44 527.785 210.999Z" fill="#BF9786"/>
<path d="M506.456 206.315C508.331 208.8 511.075 214.43 512.303 217.032C512.473 217.391 512.609 217.69 512.717 217.919C512.857 218.215 512.935 218.389 512.939 218.4C513.024 218.589 513.209 218.696 513.401 218.696H513.412C513.408 218.444 513.401 218.189 513.393 217.942C513.541 217.942 513.689 217.942 513.837 217.934C513.767 217.79 513.604 217.431 513.368 216.929C513.072 216.297 512.661 215.428 512.177 214.441C510.779 211.583 508.782 207.731 507.27 205.728C507.104 205.506 506.789 205.461 506.564 205.624C506.338 205.783 506.294 206.097 506.456 206.315Z" fill="#D3B8AC"/>
<path d="M497.306 143.227C497.306 151.973 491.808 158.003 482.878 158.003C473.944 158.003 467.721 151.522 467.721 142.772C467.721 134.026 473.009 127.397 481.942 127.397C492.651 127.397 497.306 134.477 497.306 143.227Z" fill="black"/>
<path d="M495.301 146.994C496.958 144.831 498.4 144.647 499.627 146.432C501.472 149.112 498.866 157.027 494.347 155.094L495.301 146.994Z" fill="#FC8664"/>
<path d="M495.332 152.65C495.498 152.65 495.65 152.539 495.698 152.377C496.401 149.933 498.985 148.942 499.011 148.931C499.207 148.857 499.307 148.643 499.229 148.451C499.155 148.258 498.937 148.159 498.737 148.232C498.619 148.277 495.772 149.36 494.962 152.173C494.907 152.373 495.025 152.58 495.228 152.635C495.262 152.643 495.299 152.65 495.332 152.65Z" fill="#FD664D"/>
<path d="M497.94 151.419C498.014 151.419 498.084 151.397 498.147 151.36C498.325 151.245 498.376 151.016 498.262 150.842C498.243 150.813 497.785 150.129 496.831 149.711C496.639 149.626 496.413 149.711 496.324 149.9C496.239 150.088 496.324 150.306 496.516 150.391C497.256 150.716 497.618 151.241 497.622 151.245C497.692 151.356 497.818 151.419 497.94 151.419Z" fill="#FD664D"/>
<path d="M469.73 146.994C468.074 144.831 466.632 144.647 465.404 146.432C463.559 149.112 466.166 157.027 470.684 155.094L469.73 146.994Z" fill="#FC8664"/>
<path d="M469.699 152.65C469.532 152.65 469.377 152.539 469.333 152.377C468.63 149.933 466.045 148.942 466.019 148.931C465.823 148.857 465.724 148.643 465.801 148.451C465.875 148.258 466.093 148.159 466.289 148.232C466.411 148.277 469.259 149.36 470.065 152.173C470.124 152.373 470.006 152.58 469.802 152.635C469.769 152.643 469.732 152.65 469.699 152.65Z" fill="#FD664D"/>
<path d="M467.088 151.419C467.018 151.419 466.948 151.397 466.885 151.36C466.707 151.245 466.656 151.016 466.77 150.842C466.789 150.813 467.247 150.129 468.201 149.711C468.394 149.626 468.619 149.711 468.708 149.9C468.793 150.088 468.708 150.306 468.516 150.391C467.776 150.716 467.414 151.241 467.41 151.245C467.34 151.356 467.214 151.419 467.088 151.419Z" fill="#FD664D"/>
<path d="M476.408 161.807V169.677C478.005 172.35 479.884 173.777 482.043 173.958C484.203 174.143 486.24 172.993 488.159 170.509V162.361L476.408 161.807Z" fill="#F9AF8B"/>
<path d="M476.408 161.807V165.3C478.582 167.662 482.443 168.254 488.159 167.426V162.361L476.408 161.807Z" fill="#FC8664"/>
<path d="M496.627 146.742C496.505 148.41 496.305 150.173 495.976 151.925C494.9 157.725 492.471 163.433 487.242 165.263C475.402 169.403 471.172 159.456 469.478 153.659C469.293 153.016 469.127 152.299 468.979 151.533C468.709 150.151 468.502 148.613 468.335 147.06C468.143 145.175 468.014 143.271 467.936 141.593C467.762 138.066 469.918 134.828 473.29 133.556C478.146 131.73 485.519 130.285 492.508 134.166C495.092 135.597 496.712 138.251 496.767 141.157C496.797 142.735 496.775 144.661 496.627 146.742Z" fill="#F9AF8B"/>
<path fill-rule="evenodd" clip-rule="evenodd" d="M496.629 146.742C496.507 148.41 496.307 150.173 495.978 151.925C494.902 157.725 492.472 163.433 487.244 165.263C475.404 169.403 471.173 159.456 469.48 153.659C469.295 153.016 469.128 152.299 468.981 151.533C468.711 150.151 468.504 148.613 468.337 147.06H470.068C470.426 148.14 472.357 154.716 472.982 155.655C473.876 153.548 476.605 153.193 481.161 154.591L481.194 154.602C481.608 154.727 482.037 154.794 482.466 154.794C482.91 154.794 483.35 154.724 483.775 154.591C488.275 153.13 490.993 153.404 491.929 155.415C492.546 154.476 494.765 147.77 495.161 147.06L496.629 146.742ZM482.485 156.021C477.33 155.341 475.159 156.358 475.973 159.075C476.831 159.844 477.615 160.402 478.14 160.69C479.826 161.611 481.486 161.962 482.692 161.906C483.875 161.855 484.2 162.095 487.203 160.505C487.732 160.224 488.268 159.814 488.789 159.322H488.793V159.319C488.922 158.524 490.231 154.716 482.485 156.021Z" fill="black"/>
<path d="M487.595 148.022C487.595 148.861 488.035 149.541 488.582 149.541C489.126 149.541 489.57 148.861 489.57 148.022C489.57 147.179 489.126 146.499 488.582 146.499C488.035 146.499 487.595 147.179 487.595 148.022Z" fill="#2E3052"/>
<path d="M475.953 147.988C475.953 148.827 476.397 149.511 476.94 149.511C477.488 149.511 477.928 148.827 477.928 147.988C477.928 147.149 477.488 146.469 476.94 146.469C476.397 146.469 475.953 147.149 475.953 147.988Z" fill="#2E3052"/>
<path d="M492.496 143.722C489.975 142.746 487.741 142.669 485.8 143.493L486.092 145.079C488.943 144.842 491.084 145.009 492.519 145.578C492.715 144.968 492.74 144.351 492.496 143.722Z" fill="#2E3052"/>
<path d="M473.683 143.722C476.205 142.746 478.434 142.669 480.376 143.493L480.087 145.079C477.236 144.842 475.092 145.009 473.657 145.578C473.465 144.968 473.435 144.351 473.683 143.722Z" fill="#2E3052"/>
<path d="M482.383 153.907C481.736 153.907 481.1 153.663 481 153.622C480.804 153.544 480.711 153.326 480.789 153.134C480.87 152.946 481.092 152.853 481.288 152.931C481.632 153.067 482.46 153.282 482.819 153.071C482.889 153.031 482.982 152.953 483.008 152.724C483.144 151.419 482.778 147.042 482.775 146.997C482.76 146.79 482.915 146.613 483.126 146.595C483.337 146.576 483.522 146.731 483.536 146.935C483.551 147.119 483.91 151.426 483.766 152.801C483.71 153.319 483.433 153.581 483.211 153.714C482.967 153.859 482.675 153.907 482.383 153.907Z" fill="#FC8664"/>
<path d="M487.595 156.65C487.281 158.188 486.246 161.016 482.751 161.016C479.25 161.016 478.266 158.428 477.929 156.65H487.595Z" fill="white"/>
<path d="M468.34 147.06H470.067C469.878 145.356 469.605 142.362 471.028 141.933C475.539 140.576 469.697 137.456 471.731 135.9C473.765 134.34 478.83 135.009 482.351 134.898C485.897 134.784 491.591 134.835 492.974 135.15C494.361 135.46 493.599 137.711 493.093 139.46C492.582 141.201 494.79 143.131 495.16 144.935C495.267 145.456 495.245 146.225 495.16 147.06H496.602C496.776 144.861 496.798 142.817 496.768 141.157C496.713 138.251 495.093 135.597 492.512 134.163C485.523 130.285 478.146 131.73 473.291 133.56C469.919 134.824 467.763 138.066 467.933 141.593C468.015 143.271 468.144 145.175 468.34 147.06Z" fill="black"/>
<path d="M214.659 338.596H126.841C128.291 329.787 135.279 323.388 143.425 323.413L170.748 323.495L198.074 323.413C206.22 323.388 213.206 329.787 214.659 338.596Z" fill="#FEAC1A"/>
<path d="M138.535 419.192H133.75V337.335H138.535V419.192Z" fill="#FEAC1A"/>
<path d="M207.753 419.192H202.969V337.335H207.753V419.192Z" fill="#FEAC1A"/>
<path d="M202.968 364.884H138.535V360.27H202.968V364.884Z" fill="#FEAC1A"/>
<path d="M149.251 228.404C139.474 241.442 133.931 253.645 132.633 265.012C131.712 273.042 137.252 283.056 149.251 295.056L155.448 291.973L149.269 278.04C147.069 271.256 144.362 268.576 146.363 261.73L150.837 252.081L149.251 228.404Z" fill="black"/>
<path d="M195.468 228.108C205.119 242.011 210.344 254.669 211.143 266.084C211.831 275.925 206.269 285.581 194.455 295.056L189.337 292.509L196.426 278.435C198.622 271.652 199.669 267.559 196.67 260.177L192.865 252.081L195.468 228.108Z" fill="black"/>
<path d="M152.237 272.938L142.516 303.858C170.574 307.436 188.897 308.064 197.479 305.75L190.938 272.077L195.468 228.108C189.167 225.453 182.488 223.76 175.67 223.269C165.716 222.548 159.429 224.189 149.249 228.403L152.237 272.938Z" fill="black"/>
<path d="M162.757 237.727C172.046 236.636 180.684 230.263 181.076 229.971C181.305 229.797 181.353 229.472 181.183 229.243C181.009 229.014 180.684 228.969 180.454 229.139C180.355 229.213 170.19 236.714 160.409 236.847C160.121 236.847 159.895 237.083 159.899 237.372C159.902 237.656 160.139 237.886 160.424 237.882C161.204 237.871 161.984 237.815 162.757 237.727Z" fill="#716B69"/>
<path d="M170.244 403.377L171.002 410.202L178.265 410.368L178.875 404.705L170.244 403.377Z" fill="#F9AF8B"/>
<path d="M169.106 295.141C156.567 294.449 148.173 295.843 143.928 299.318C137.557 304.527 138.836 319.48 145.326 323.561C149.652 326.282 155.506 330.319 162.879 335.664L169.916 405.603L179.212 405.917C184.925 359.083 186.334 331.132 183.438 322.06C180.543 312.989 175.766 304.017 169.106 295.141Z" fill="#BF9786"/>
<path d="M180.07 402.446C180.576 404.08 180.336 405.666 179.833 407.237L169.132 407C168.755 405.44 168.699 403.877 168.925 402.309L180.07 402.446Z" fill="black"/>
<path d="M195.716 294.612H146.362L141.803 267.947C141.407 265.637 143.186 263.526 145.53 263.526H196.548C198.893 263.526 200.671 265.637 200.275 267.947L195.716 294.612Z" fill="#FEAC1A"/>
<path d="M191.75 300.409H150.379C148.161 300.409 146.364 298.612 146.364 296.394V294.612H195.765V296.394C195.765 298.612 193.968 300.409 191.75 300.409Z" fill="#F3E9E5"/>
<path d="M175.439 280.169C175.439 282.535 173.52 284.453 171.149 284.453C168.783 284.453 166.864 282.535 166.864 280.169C166.864 277.803 168.783 275.884 171.149 275.884C173.52 275.884 175.439 277.803 175.439 280.169Z" fill="#F3E9E5"/>
<path d="M139.39 384.177L137.781 390.931L144.297 392.217L146.956 386.188L139.39 384.177Z" fill="#F9AF8B"/>
<path d="M178.657 293.98C170.259 291.085 163.6 292.679 158.674 298.756C153.753 304.837 147.171 333.535 138.928 384.849L147.404 388.347L174.652 319.986C189.443 328.426 197.737 326.648 199.527 314.648C200.947 305.155 193.988 298.264 178.657 293.98Z" fill="#D8B6A7"/>
<path d="M149.327 384.82C149.294 386.583 148.547 388.058 147.545 389.441L137.128 385.755C137.262 384.106 137.709 382.554 138.437 381.086L149.327 384.82Z" fill="black"/>
<path d="M142.757 389.821C140.124 388.483 138.42 387.74 137.643 387.589C136.482 387.359 126.879 394.169 124.158 394.102C119.225 393.984 117.646 401.226 120.449 402.209C125.855 404.109 133.565 404.945 143.571 404.708C145.793 398.701 146.925 394.686 146.969 392.657C147.028 389.618 144.898 391.182 142.757 389.821Z" fill="black"/>
<path d="M134.133 396.254C134.273 396.32 134.44 396.331 134.595 396.268C134.898 396.154 135.046 395.817 134.924 395.518C134.884 395.418 133.911 393.067 132.314 391.973C130.187 390.52 128.231 391.529 128.15 391.574C127.862 391.725 127.758 392.076 127.917 392.357C128.072 392.638 128.431 392.745 128.716 392.594C128.771 392.564 130.128 391.888 131.644 392.923C132.946 393.814 133.822 395.921 133.83 395.943C133.889 396.087 134 396.194 134.133 396.254Z" fill="#FCCC4F"/>
<path d="M136.1 394.89C136.244 394.952 136.41 394.964 136.565 394.904C136.869 394.786 137.017 394.45 136.895 394.154C136.854 394.054 135.881 391.699 134.284 390.609C132.154 389.152 130.198 390.161 130.117 390.206C129.832 390.357 129.728 390.709 129.884 390.993C130.043 391.274 130.401 391.378 130.686 391.226C130.738 391.2 132.099 390.524 133.615 391.555C134.92 392.45 135.789 394.553 135.796 394.575C135.856 394.72 135.966 394.83 136.1 394.89Z" fill="#FCCC4F"/>
<path d="M131.586 397.23C131.73 397.292 131.897 397.304 132.052 397.244C132.355 397.126 132.499 396.79 132.381 396.494C132.34 396.394 131.368 394.039 129.767 392.949C127.64 391.489 125.684 392.501 125.603 392.546C125.318 392.697 125.215 393.049 125.37 393.33C125.525 393.61 125.888 393.718 126.172 393.566C126.224 393.54 127.585 392.864 129.097 393.895C130.406 394.79 131.275 396.893 131.283 396.915C131.342 397.06 131.453 397.167 131.586 397.23Z" fill="#FCCC4F"/>
<path d="M173.803 409.917C176.495 409.1 178.222 408.683 178.976 408.668C180.104 408.646 187.995 416.638 190.562 417.026C195.213 417.732 195.494 424.797 192.699 425.255C187.304 426.146 179.927 425.647 170.564 423.765C169.477 417.754 169.078 413.795 169.377 411.884C169.821 409.015 171.563 410.841 173.803 409.917Z" fill="black"/>
<path d="M180.84 417.392C180.696 417.429 180.537 417.41 180.4 417.329C180.138 417.17 180.056 416.83 180.219 416.571C180.271 416.483 181.576 414.435 183.259 413.673C185.496 412.66 187.167 413.932 187.237 413.987C187.481 414.18 187.522 414.527 187.326 414.764C187.134 415.004 186.779 415.041 186.535 414.852C186.49 414.815 185.326 413.958 183.728 414.675C182.36 415.296 181.188 417.129 181.177 417.148C181.099 417.274 180.973 417.359 180.84 417.392Z" fill="#FCCC4F"/>
<path d="M179.213 415.784C179.069 415.821 178.91 415.802 178.777 415.721C178.511 415.558 178.43 415.218 178.592 414.959C178.648 414.874 179.949 412.826 181.632 412.065C183.873 411.048 185.54 412.324 185.611 412.379C185.855 412.568 185.895 412.915 185.699 413.155C185.507 413.392 185.152 413.433 184.908 413.24C184.864 413.207 183.699 412.346 182.105 413.067C180.726 413.688 179.561 415.521 179.55 415.54C179.472 415.665 179.35 415.75 179.213 415.784Z" fill="#FCCC4F"/>
<path d="M183.069 418.73C182.924 418.767 182.765 418.749 182.629 418.667C182.366 418.505 182.285 418.165 182.447 417.906C182.503 417.821 183.804 415.773 185.487 415.011C187.728 413.995 189.395 415.27 189.466 415.325C189.71 415.514 189.75 415.861 189.554 416.102C189.362 416.338 189.007 416.379 188.763 416.187C188.719 416.153 187.55 415.292 185.96 416.013C184.581 416.634 183.416 418.468 183.405 418.486C183.327 418.612 183.205 418.693 183.069 418.73Z" fill="#FCCC4F"/>
<path d="M184.782 184.305C188.772 190.482 190.547 196.789 190.111 203.225C189.456 212.881 190.995 224.027 182.353 223.535C173.711 223.047 158.299 226.999 153.4 219.48C150.135 214.467 160.595 202.741 184.782 184.305Z" fill="black"/>
<path d="M187.001 201.347C188.036 210.674 186.339 216.626 181.913 219.191C177.483 221.76 173.667 221.613 170.461 218.744C179.797 205.739 185.307 199.942 187.001 201.347Z" fill="#684B3F"/>
<path d="M159.408 201.28C157.818 199.162 156.431 198.977 155.248 200.73C153.473 203.358 155.98 211.125 160.325 209.228L159.408 201.28Z" fill="#FC8664"/>
<path d="M159.376 206.829C159.217 206.829 159.069 206.722 159.024 206.563C158.351 204.164 155.866 203.192 155.84 203.184C155.652 203.11 155.556 202.9 155.63 202.711C155.7 202.523 155.911 202.426 156.103 202.497C156.218 202.541 158.954 203.602 159.731 206.363C159.786 206.559 159.671 206.759 159.475 206.814C159.442 206.826 159.409 206.829 159.376 206.829Z" fill="#FD664D"/>
<path d="M156.869 205.62C156.802 205.62 156.732 205.602 156.673 205.565C156.499 205.454 156.451 205.225 156.562 205.055C156.58 205.029 157.02 204.356 157.937 203.946C158.122 203.864 158.34 203.946 158.422 204.131C158.507 204.315 158.422 204.534 158.237 204.615C157.527 204.933 157.183 205.45 157.179 205.454C157.109 205.561 156.991 205.62 156.869 205.62Z" fill="#FD664D"/>
<path d="M183.982 201.28C185.572 199.162 186.959 198.977 188.142 200.73C189.917 203.358 187.406 211.125 183.065 209.228L183.982 201.28Z" fill="#FC8664"/>
<path d="M184.017 206.829C184.176 206.829 184.324 206.722 184.368 206.563C185.041 204.164 187.526 203.192 187.552 203.184C187.741 203.11 187.837 202.9 187.763 202.711C187.692 202.523 187.482 202.426 187.289 202.497C187.175 202.541 184.438 203.602 183.662 206.363C183.606 206.559 183.721 206.759 183.917 206.814C183.95 206.826 183.984 206.829 184.017 206.829Z" fill="#FD664D"/>
<path d="M186.525 205.62C186.592 205.62 186.662 205.602 186.721 205.565C186.895 205.454 186.943 205.225 186.832 205.055C186.814 205.029 186.374 204.356 185.457 203.946C185.272 203.864 185.054 203.946 184.972 204.131C184.887 204.315 184.972 204.534 185.157 204.615C185.867 204.933 186.211 205.45 186.215 205.454C186.285 205.561 186.403 205.62 186.525 205.62Z" fill="#FD664D"/>
<path d="M177.567 215.816V223.535C176.028 226.156 174.224 227.557 172.146 227.734C170.071 227.915 168.115 226.788 166.27 224.348V216.356L177.567 215.816Z" fill="#F9AF8B"/>
<path d="M177.567 215.816V219.239C175.474 221.561 171.765 222.381 166.27 221.568V216.356L177.567 215.816Z" fill="#FC8664"/>
<path d="M185.71 195.983C185.565 198.985 185.281 202.737 184.708 205.739C184.563 206.485 184.401 207.192 184.223 207.82C182.596 213.509 178.532 223.269 167.151 219.202C162.125 217.409 159.792 211.812 158.757 206.12C158.051 202.253 157.943 198.345 157.995 195.554C158.051 192.704 159.607 190.102 162.088 188.697C168.804 184.889 175.892 186.309 180.562 188.102C183.802 189.344 185.872 192.527 185.71 195.983Z" fill="#F9AF8B"/>
<path d="M166.684 202.474C166.684 203.299 166.259 203.964 165.734 203.964C165.208 203.964 164.783 203.299 164.783 202.474C164.783 201.65 165.208 200.981 165.734 200.981C166.259 200.981 166.684 201.65 166.684 202.474Z" fill="#2E3052"/>
<path d="M178.405 202.474C178.405 203.299 177.98 203.964 177.455 203.964C176.933 203.964 176.508 203.299 176.508 202.474C176.508 201.65 176.933 200.981 177.455 200.981C177.98 200.981 178.405 201.65 178.405 202.474Z" fill="#2E3052"/>
<path d="M163.852 197.506C164.644 197.284 166.234 196.904 167.913 196.9C168.356 196.9 168.693 197.292 168.615 197.724V197.735C168.552 198.083 168.242 198.331 167.89 198.312C166.744 198.26 163.745 198.419 162.329 198.996C162.299 198.748 162.447 198.478 162.651 198.238C162.965 197.876 163.394 197.639 163.852 197.506Z" fill="#2E3052"/>
<path d="M179.188 197.539C178.4 197.314 176.81 196.933 175.128 196.929C174.688 196.929 174.348 197.321 174.429 197.758V197.769C174.492 198.116 174.803 198.36 175.154 198.345C176.296 198.29 179.299 198.453 180.715 199.026C180.745 198.778 180.597 198.508 180.39 198.271C180.079 197.909 179.65 197.669 179.188 197.539Z" fill="#2E3052"/>
<path d="M171.821 208.545C171.54 208.545 171.259 208.493 171.026 208.352C170.811 208.227 170.545 207.964 170.489 207.458C170.353 206.108 170.696 201.883 170.711 201.706C170.726 201.502 170.904 201.351 171.107 201.369C171.31 201.384 171.458 201.561 171.443 201.765C171.44 201.809 171.088 206.101 171.222 207.384C171.244 207.606 171.336 207.683 171.403 207.724C171.747 207.931 172.542 207.72 172.874 207.583C173.059 207.51 173.274 207.598 173.351 207.787C173.429 207.972 173.337 208.186 173.152 208.264C173.056 208.304 172.442 208.545 171.821 208.545Z" fill="#FC8664"/>
<path d="M167.163 210.859C167.44 212.256 168.365 214.822 171.471 214.822C174.584 214.822 175.457 212.478 175.756 210.859H167.163Z" fill="#492D21"/>
<path d="M171.427 216.962C170.528 216.962 169.737 216.482 169.703 216.459C169.533 216.352 169.478 216.127 169.585 215.953C169.692 215.783 169.918 215.727 170.088 215.835C170.095 215.838 170.743 216.23 171.427 216.23C172.166 216.23 172.828 215.838 172.835 215.835C173.009 215.727 173.235 215.787 173.338 215.957C173.442 216.13 173.386 216.356 173.213 216.459C173.179 216.482 172.373 216.962 171.427 216.962Z" fill="#FC8664"/>
<path d="M187.188 195.388C187.07 195.721 186.745 195.935 186.305 196.064C186.338 196.87 186.253 197.846 186.171 198.778C185.72 204.079 184.382 205.011 184.079 203.698C183.883 202.829 183.894 197.835 183.99 196.209C183.291 196.161 182.644 196.079 182.045 195.965L180.817 190.819L180.384 195.902C179.157 196.327 177.105 196.201 174.235 195.514L172.793 190.442L171.898 195.321C170.053 196.22 167.979 196.371 165.671 195.772L164.876 190.508L163.042 195.772C159.108 197.185 157.118 197.185 157.074 195.772C157.037 194.541 157.939 191.07 158.701 188.383C159.533 185.451 161.459 182.974 164.063 181.577C171.388 177.647 179.131 179.74 181.786 181.326C185.543 183.566 187.344 188.253 187.188 195.388Z" fill="black"/>
<path d="M160.329 184.697C157.086 188.549 154.934 193.917 153.869 200.796C152.268 211.118 150.057 218.744 156.276 222.152C163.01 225.842 162.426 218.274 162.33 216.219C162.234 214.164 156.506 208.545 160.329 192.715C161.15 189.307 161.15 186.634 160.329 184.697Z" fill="black"/>
<path d="M159.188 206.023C159.188 206.027 159.188 206.031 159.188 206.038C159.192 206.112 159.196 206.526 159.225 207.166C159.24 207.565 159.266 208.049 159.303 208.6C159.532 212.079 160.209 218.082 162.195 220.167C162.982 220.988 164.495 221.402 166.273 221.568V218.836C164.398 217.949 162.934 216.485 161.799 214.685C161.1 213.166 159.891 210.792 159.325 207.055L159.188 206.023Z" fill="#684B3F"/>
<path d="M185.801 209.402C185.801 209.879 185.416 210.264 184.943 210.264C184.47 210.264 184.081 209.879 184.081 209.402C184.081 208.929 184.47 208.545 184.943 208.545C185.416 208.545 185.801 208.929 185.801 209.402Z" fill="#FCCC4F"/>
<path d="M99.8103 257.615H78.7257C77.1061 257.615 75.7971 256.303 75.7971 254.688V233.605C75.7971 231.99 77.1061 230.677 78.7257 230.677H99.8103C101.43 230.677 102.743 231.99 102.743 233.605V254.688C102.743 256.303 101.43 257.615 99.8103 257.615Z" fill="#ECBCB7"/>
<path fill-rule="evenodd" clip-rule="evenodd" d="M95.1645 240.954C95.194 242.093 94.8982 243.165 94.3583 244.078C94.0995 244.518 93.8296 244.958 93.5781 245.405L89.3146 253.094L86.5191 248.056C85.7796 246.721 84.9735 245.42 84.1932 244.104C83.6682 243.224 83.3687 242.196 83.3687 241.098C83.3687 237.708 86.2307 234.984 89.6696 235.213C92.687 235.413 95.0942 237.934 95.1645 240.954ZM91.7551 240.392C91.7551 239.017 90.6421 237.904 89.2666 237.904C87.891 237.904 86.778 239.017 86.778 240.392C86.778 241.767 87.891 242.88 89.2666 242.88C90.6421 242.88 91.7551 241.767 91.7551 240.392Z" fill="#FFFEFE"/>
<path fill-rule="evenodd" clip-rule="evenodd" d="M537.458 144.266C540.775 144.266 543.475 146.964 543.475 150.28C543.475 153.596 540.775 156.295 537.458 156.295C534.141 156.295 531.446 153.596 531.446 150.28C531.446 146.964 534.141 144.266 537.458 144.266ZM537.458 154.41C539.736 154.41 541.589 152.558 541.589 150.28C541.589 148.003 539.736 146.155 537.458 146.155C535.184 146.155 533.332 148.003 533.332 150.28C533.332 152.558 535.184 154.41 537.458 154.41Z" fill="#492D21"/>
<path fill-rule="evenodd" clip-rule="evenodd" d="M515.805 123.168C519.122 123.168 521.821 125.867 521.821 129.183C521.821 132.499 519.122 135.198 515.805 135.198C512.488 135.198 509.789 132.499 509.789 129.183C509.789 125.867 512.488 123.168 515.805 123.168ZM515.805 133.309C518.083 133.309 519.935 131.46 519.935 129.183C519.935 126.906 518.083 125.057 515.805 125.057C513.531 125.057 511.678 126.906 511.678 129.183C511.678 131.46 513.531 133.309 515.805 133.309Z" fill="#BF9786"/>
<path d="M508.375 103.627C508.896 103.627 509.318 104.049 509.318 104.57V108.729C509.318 109.25 508.896 109.675 508.375 109.675C507.853 109.675 507.432 109.25 507.432 108.729V104.57C507.432 104.049 507.853 103.627 508.375 103.627Z" fill="#492D21"/>
<path d="M508.374 96.3486C508.895 96.3486 509.317 96.7701 509.317 97.2913V101.45C509.317 101.971 508.895 102.393 508.374 102.393C507.853 102.393 507.431 101.971 507.431 101.45V97.2913C507.431 96.7701 507.853 96.3486 508.374 96.3486Z" fill="#492D21"/>
<path d="M502.533 102.067H506.272C506.79 102.067 507.215 102.489 507.215 103.01C507.215 103.531 506.79 103.953 506.272 103.953H502.533C502.012 103.953 501.591 103.531 501.591 103.01C501.591 102.489 502.012 102.067 502.533 102.067Z" fill="#492D21"/>
<path d="M510.475 102.067H514.213C514.734 102.067 515.156 102.489 515.156 103.01C515.156 103.531 514.734 103.953 514.213 103.953H510.475C509.953 103.953 509.532 103.531 509.532 103.01C509.532 102.489 509.953 102.067 510.475 102.067Z" fill="#492D21"/>
<path d="M541.587 126.939C542.108 126.939 542.53 127.361 542.53 127.882V132.041C542.53 132.562 542.108 132.983 541.587 132.983C541.066 132.983 540.644 132.562 540.644 132.041V127.882C540.644 127.361 541.066 126.939 541.587 126.939Z" fill="#BF9786"/>
<path d="M541.587 119.656C542.108 119.656 542.53 120.082 542.53 120.599V124.762C542.53 125.283 542.108 125.704 541.587 125.704C541.066 125.704 540.644 125.283 540.644 124.762V120.599C540.644 120.082 541.066 119.656 541.587 119.656Z" fill="#BF9786"/>
<path d="M535.747 125.379H539.486C540.007 125.379 540.428 125.801 540.428 126.322C540.428 126.843 540.007 127.264 539.486 127.264H535.747C535.226 127.264 534.804 126.843 534.804 126.322C534.804 125.801 535.226 125.379 535.747 125.379Z" fill="#BF9786"/>
<path d="M543.689 125.379H547.427C547.949 125.379 548.374 125.801 548.374 126.322C548.374 126.843 547.949 127.264 547.427 127.264H543.689C543.171 127.264 542.746 126.843 542.746 126.322C542.746 125.801 543.171 125.379 543.689 125.379Z" fill="#BF9786"/>
<path fill-rule="evenodd" clip-rule="evenodd" d="M164.933 67.4771C168.25 67.4771 170.949 70.1757 170.949 73.4916C170.949 76.8076 168.25 79.5025 164.933 79.5025C161.616 79.5025 158.92 76.8076 158.92 73.4916C158.92 70.1757 161.616 67.4771 164.933 67.4771ZM164.933 69.3624C162.659 69.3624 160.806 71.2145 160.806 73.4916C160.806 75.7651 162.659 77.6172 164.933 77.6172C167.21 77.6172 169.063 75.7651 169.063 73.4916C169.063 71.2145 167.21 69.3624 164.933 69.3624Z" fill="#492D21"/>
<path fill-rule="evenodd" clip-rule="evenodd" d="M143.027 47.6108C146.344 47.6108 149.04 50.3095 149.04 53.6254C149.04 56.9414 146.344 59.64 143.027 59.64C139.71 59.64 137.011 56.9414 137.011 53.6254C137.011 50.3095 139.71 47.6108 143.027 47.6108ZM143.027 49.4999C140.749 49.4999 138.897 51.3519 138.897 53.6254C138.897 55.9026 140.749 57.7547 143.027 57.7547C145.301 57.7547 147.154 55.9026 147.154 53.6254C147.154 51.3519 145.301 49.4999 143.027 49.4999Z" fill="#BF9786"/>
<path d="M135.094 81.9866C135.094 82.5079 135.515 82.9293 136.036 82.9293H140.196C140.718 82.9293 141.139 82.5079 141.139 81.9866C141.139 81.4654 140.718 81.0439 140.196 81.0439H136.036C135.515 81.0439 135.094 81.4654 135.094 81.9866Z" fill="#492D21"/>
<path d="M127.809 81.9866C127.809 82.5079 128.234 82.9293 128.752 82.9293H132.915C133.437 82.9293 133.858 82.5079 133.858 81.9866C133.858 81.4654 133.437 81.0439 132.915 81.0439H128.752C128.234 81.0439 127.809 81.4654 127.809 81.9866Z" fill="#492D21"/>
<path d="M133.532 76.1495V79.8832C133.532 80.4044 133.953 80.8296 134.475 80.8296C134.996 80.8296 135.418 80.4044 135.418 79.8832V76.1495C135.418 75.6283 134.996 75.2031 134.475 75.2031C133.953 75.2031 133.532 75.6283 133.532 76.1495Z" fill="#492D21"/>
<path d="M133.531 84.0901V87.8276C133.531 88.3488 133.953 88.7702 134.474 88.7702C134.996 88.7702 135.417 88.3488 135.417 87.8276V84.0901C135.417 83.5689 134.996 83.1475 134.474 83.1475C133.953 83.1475 133.531 83.5689 133.531 84.0901Z" fill="#492D21"/>
<path d="M179.154 49.4998C179.154 50.021 179.575 50.4425 180.096 50.4425H184.26C184.778 50.4425 185.203 50.021 185.203 49.4998C185.203 48.9786 184.778 48.5571 184.26 48.5571H180.096C179.575 48.5571 179.154 48.9786 179.154 49.4998Z" fill="#BF9786"/>
<path d="M171.873 49.4998C171.873 50.021 172.294 50.4425 172.816 50.4425H176.976C177.497 50.4425 177.919 50.021 177.919 49.4998C177.919 48.9786 177.497 48.5571 176.976 48.5571H172.816C172.294 48.5571 171.873 48.9786 171.873 49.4998Z" fill="#BF9786"/>
<path d="M177.592 43.659V47.3964C177.592 47.9176 178.014 48.3391 178.535 48.3391C179.056 48.3391 179.478 47.9176 179.478 47.3964V43.659C179.478 43.1377 179.056 42.7163 178.535 42.7163C178.014 42.7163 177.592 43.1377 177.592 43.659Z" fill="#BF9786"/>
<path d="M177.591 51.5997V55.3371C177.591 55.8583 178.013 56.2834 178.534 56.2834C179.056 56.2834 179.477 55.8583 179.477 55.3371V51.5997C179.477 51.0821 179.056 50.657 178.534 50.657C178.013 50.657 177.591 51.0821 177.591 51.5997Z" fill="#BF9786"/>
<path d="M437.314 22.9404H414.507C407.6 22.9404 402 28.5409 402 35.4478V51.6341C402 57.1123 405.526 61.7538 410.427 63.45L410.829 72.1219L422.064 64.1415H437.314C444.221 64.1415 449.821 58.541 449.821 51.6341V35.4478C449.821 28.5409 444.221 22.9404 437.314 22.9404Z" fill="#BF9786"/>
<path d="M464.869 0H434.777C425.662 0 418.274 7.3883 418.274 16.4995V37.8545C418.274 46.9696 425.662 54.3579 434.777 54.3579H454.894L469.721 64.8864L470.248 53.441C476.715 51.2062 481.368 45.0824 481.368 37.8545V16.4995C481.368 7.3883 473.98 0 464.869 0Z" fill="#ECBCB7"/>
<path d="M449.566 14.7905C442.09 14.7905 436.008 20.8726 436.008 28.3483C436.008 35.8241 442.09 41.9061 449.566 41.9061C451.553 41.9061 453.58 41.4031 455.588 40.4093L454.388 37.9784C452.756 38.7851 451.133 39.1945 449.566 39.1945C443.585 39.1945 438.719 34.3287 438.719 28.3483C438.719 22.368 443.585 17.5021 449.566 17.5021C455.546 17.5021 460.412 22.368 460.412 28.3483V29.7041C460.412 30.6423 459.987 32.4157 458.378 32.4157C456.485 32.4157 456.353 29.9495 456.344 29.7041V22.9252H453.633V22.9591C452.466 22.0629 451.037 21.5746 449.566 21.5694C445.828 21.5694 442.787 24.6104 442.787 28.3483C442.787 32.0862 445.828 35.1272 449.566 35.1272C451.531 35.1272 453.291 34.2717 454.53 32.9295C455.241 34.1361 456.439 35.1272 458.378 35.1272C461.46 35.1272 463.123 32.333 463.123 29.7041V28.3483C463.123 20.8726 457.041 14.7905 449.566 14.7905ZM449.566 32.4157C447.323 32.4157 445.498 30.5908 445.498 28.3483C445.498 26.1059 447.323 24.281 449.566 24.281C451.808 24.281 453.633 26.1059 453.633 28.3483C453.633 30.5908 451.808 32.4157 449.566 32.4157Z" fill="white"/>
</svg>
