<svg width="18" height="22" viewBox="0 0 18 22" fill="none" xmlns="http://www.w3.org/2000/svg">
<path d="M16.8453 9.18182C16.8453 15.5455 8.92267 21 8.92267 21C8.92267 21 1 15.5455 1 9.18182C1 7.01187 1.83471 4.93079 3.3205 3.3964C4.80628 1.86201 6.82144 1 8.92267 1C11.0239 1 13.039 1.86201 14.5248 3.3964C16.0106 4.93079 16.8453 7.01187 16.8453 9.18182Z" stroke="#BA9639" stroke-linecap="round" stroke-linejoin="round"/>
<path d="M8.92263 11.9091C10.3811 11.9091 11.5635 10.6881 11.5635 9.18186C11.5635 7.67563 10.3811 6.45459 8.92263 6.45459C7.4641 6.45459 6.28174 7.67563 6.28174 9.18186C6.28174 10.6881 7.4641 11.9091 8.92263 11.9091Z" stroke="#BA9639" stroke-linecap="round" stroke-linejoin="round"/>
</svg>
