<svg width="256" height="80" viewBox="0 0 256 80" fill="none" xmlns="http://www.w3.org/2000/svg">
<path d="M41.375 0C64.2257 0 82.75 17.9087 82.75 40C82.75 62.0913 64.2257 80 41.375 80C18.5243 80 0 62.0913 0 40C0 17.9087 18.5243 0 41.375 0Z" fill="#492D21"/>
<path fill-rule="evenodd" clip-rule="evenodd" d="M59.4274 48.7939C59.8515 47.7599 60.9123 46.9839 62.1847 46.9839C63.7755 46.9839 65.1537 48.2769 65.1537 49.8804C65.1537 51.484 63.8279 52.777 62.1847 52.777C60.5416 52.777 59.2158 51.484 59.2158 49.8804V49.8288L45.4309 47.1387C45.2252 47.7008 44.899 48.2009 44.4856 48.6109L49.6917 54.3421C50.8787 53.4901 52.5636 53.6477 53.5574 54.7409C54.6037 55.8922 54.4862 57.6459 53.2944 58.6574C52.1035 59.6689 50.2895 59.5553 49.2433 58.4031C48.2504 57.3099 48.3057 55.6745 49.3335 54.6461L44.1323 48.9215C43.5315 49.3925 42.792 49.6984 41.9845 49.7772L42.1436 56.0883C43.681 56.1915 44.8476 57.3813 44.8476 58.8816C44.8476 60.4336 43.5752 61.6749 41.9845 61.6749C40.3937 61.6749 39.1213 60.4336 39.1213 58.8816C39.1213 57.4329 40.2355 56.2431 41.6661 56.0883L41.5079 49.7772C39.3872 49.674 37.6897 47.9663 37.6897 45.8457C37.6897 44.7592 38.1139 43.8284 38.8039 43.104L37.7965 42.0174C37.4248 42.2248 37.0006 42.3796 36.5765 42.3796C35.4099 42.3796 34.4558 41.4488 34.4558 40.3107C34.4558 39.1725 35.4099 38.2417 36.5765 38.2417C37.7431 38.2417 38.6972 39.1725 38.6972 40.3107C38.6972 40.8277 38.4856 41.2931 38.1672 41.6552L39.1747 42.7418C39.8114 42.2764 40.5529 41.9658 41.4011 41.9142L41.932 32.913L34.8275 31.7233C34.7208 31.9306 34.5616 32.1371 34.35 32.3444C33.9793 32.7066 33.4484 32.913 32.9184 32.913C32.7069 32.913 32.4409 32.8614 32.2293 32.7582L29.0478 37.827C29.207 37.9311 29.3128 38.0343 29.4196 38.1375C30.8511 39.6379 30.7978 41.9658 29.2604 43.363C29.207 43.4146 29.1546 43.453 29.1012 43.4915C29.0478 43.5309 28.9954 43.5694 28.942 43.621L32.9184 49.6215C33.1834 49.5182 33.5017 49.415 33.8201 49.415C34.9857 49.415 35.9408 50.3458 35.9408 51.484C35.9408 52.6222 34.9857 53.553 33.8201 53.553C32.6535 53.553 31.6994 52.6222 31.6994 51.484C31.6994 50.8638 31.9644 50.2942 32.4409 49.932L28.4645 44.0348C27.9346 44.3454 27.2989 44.5002 26.6622 44.5002C26.1323 44.5002 25.6548 44.397 25.2306 44.2422L23.4283 46.6217C23.9058 47.0871 24.2232 47.8115 24.2232 48.5358C24.2232 50.1394 22.9508 51.3808 21.3076 51.3808C19.6635 51.3808 18.3911 50.1394 18.3911 48.5358C18.3911 46.9323 19.7169 45.69 21.3076 45.69C21.7318 45.69 22.1559 45.7941 22.5266 45.9489L24.2232 43.621C24.064 43.5178 23.9582 43.4146 23.799 43.2588C22.6858 42.069 22.4742 40.259 23.2691 38.9135L21.3076 37.6721C20.9359 38.0859 20.3536 38.3965 19.7169 38.3965C18.5503 38.3965 17.5962 37.4657 17.5962 36.3275C17.5962 35.1894 18.5503 34.2576 19.7169 34.2576C20.8835 34.2576 21.8375 35.1894 21.8375 36.3275C21.8375 36.6372 21.7851 36.9478 21.626 37.2067L23.5875 38.4481C23.6933 38.2933 23.8524 38.1375 24.0116 37.9827C24.7007 37.3616 25.6548 36.9994 26.6088 36.9994C27.1397 36.9994 27.6696 37.1035 28.1472 37.3099L31.3811 32.2403C30.692 31.4643 30.7444 30.3787 31.3811 29.6027L27.8822 25.8776C27.5105 26.085 27.1397 26.2398 26.6622 26.2398C25.4956 26.2398 24.5415 25.309 24.5415 24.1708C24.5415 23.0327 25.4956 22.1019 26.6622 22.1019C27.8288 22.1019 28.7829 23.0327 28.7829 24.1708C28.7829 24.6362 28.5713 25.1016 28.253 25.4638L31.7518 29.1889C32.1236 28.9815 32.5477 28.8267 32.9718 28.8267C33.5551 28.8267 34.1375 29.0331 34.5092 29.4469C34.8275 29.8091 34.9857 30.2229 35.0391 30.6883L42.1436 31.9306L42.7269 23.8603C41.4545 23.5497 40.5529 22.4115 40.5529 21.1185C40.5529 19.5666 41.8253 18.3252 43.416 18.3252C45.0068 18.3252 46.2792 19.5666 46.2792 21.1185C46.2792 22.5673 45.1659 23.7571 43.7344 23.9119L43.1511 32.0855L47.605 32.8098C47.7641 32.396 48.0291 32.0339 48.3465 31.7233C48.8774 31.2063 49.5665 30.9473 50.308 30.9473C51.1038 30.9473 51.8997 31.2579 52.4296 31.8265C53.4371 32.8614 53.4371 34.465 52.5354 35.5516L53.5962 36.5856C54.3377 35.8621 55.3986 35.3958 56.5652 35.3958C56.9884 35.3958 57.4125 35.5 57.8376 35.6032L58.7917 32.2919C58.5267 32.1887 58.3141 32.0339 58.1026 31.8265C57.6784 31.4643 57.5193 30.9473 57.5193 30.3787C57.5193 29.8091 57.7308 29.2921 58.155 28.9299C58.5267 28.5677 59.0566 28.3604 59.5865 28.3604C60.1699 28.3604 60.7532 28.5677 61.1239 28.9815C61.9198 29.8091 61.8664 31.1021 61.0181 31.8781C60.6474 32.2403 60.1165 32.4476 59.5865 32.4476C59.5341 32.4476 59.4808 32.4345 59.4274 32.4214C59.375 32.4082 59.3216 32.396 59.2692 32.396L58.2617 35.758C59.7457 36.3791 60.7532 37.827 60.7532 39.4831C60.7532 41.7585 58.8441 43.621 56.5118 43.621C54.9744 43.621 53.6487 42.7934 52.9062 41.6036L45.4843 44.7592C45.5901 45.1213 45.6425 45.4835 45.6425 45.8457V46.1047L59.4274 48.7939ZM59.5865 29.3437C59.3216 29.3437 59.11 29.4469 58.8974 29.6027C58.6849 29.7575 58.5267 30.0681 58.5267 30.3261C58.5267 30.5851 58.5791 30.8441 58.7917 31.0505C59.1624 31.4643 59.8515 31.4643 60.2766 31.1021C60.6998 30.6883 60.6998 30.0681 60.329 29.6543C60.1698 29.4469 59.8515 29.3437 59.5865 29.3437ZM18.7094 36.3275C18.7094 36.8962 19.1869 37.3616 19.7702 37.3616C20.3536 37.3616 20.8301 36.8962 20.8301 36.3275C20.8301 35.758 20.3536 35.2926 19.7702 35.2926C19.1869 35.2926 18.7094 35.758 18.7094 36.3275ZM19.5053 48.4317C19.5053 49.415 20.3536 50.2426 21.36 50.2426C22.3675 50.2426 23.2157 49.415 23.2157 48.4317C23.2157 47.4493 22.3675 46.6217 21.36 46.6217C20.3536 46.6217 19.5053 47.4493 19.5053 48.4317ZM33.7667 52.5706C34.35 52.5706 34.8275 52.1052 34.8275 51.5356C34.8275 50.967 34.35 50.5016 33.7667 50.5016C33.1834 50.5016 32.7069 50.967 32.7069 51.5356C32.7069 52.1052 33.1834 52.5706 33.7667 52.5706ZM26.6622 43.363C27.3513 43.363 27.988 43.104 28.5179 42.6386C29.6311 41.6552 29.6845 39.9485 28.6237 38.8619C28.0938 38.3449 27.3513 38.0343 26.6088 38.0343C25.9197 38.0343 25.284 38.2933 24.7541 38.7587C23.6933 39.7936 23.6399 41.4488 24.6473 42.5344C25.1782 43.0524 25.9197 43.363 26.6622 43.363ZM25.6023 24.1192C25.6023 24.6879 26.0789 25.1532 26.6622 25.1532C27.2455 25.1532 27.6696 24.6879 27.723 24.1192C27.723 23.5497 27.2455 23.0843 26.6622 23.0843C26.0789 23.0843 25.6023 23.5497 25.6023 24.1192ZM32.2293 31.5685C32.6001 31.9822 33.2892 31.9822 33.7133 31.6201C34.0851 31.2063 34.1375 30.5851 33.7133 30.1713C33.5551 29.9649 33.2368 29.8607 32.9718 29.8607C32.7069 29.8607 32.4943 29.9649 32.2827 30.1197C31.8586 30.5335 31.8586 31.1547 32.2293 31.5685ZM59.6923 39.4831C59.6923 37.7753 58.2617 36.3791 56.5118 36.3791C54.7629 36.3791 53.3313 37.7753 53.3313 39.4831C53.3313 41.1898 54.7629 42.587 56.5118 42.587C58.2617 42.587 59.6923 41.1898 59.6923 39.4831ZM50.308 31.9822C49.8314 31.9822 49.3539 32.1371 49.0365 32.4476C48.2941 33.1204 48.2407 34.206 48.9298 34.982C49.2481 35.3442 49.7256 35.5516 50.2556 35.5516C50.7331 35.5516 51.2096 35.3958 51.528 35.0862C52.2705 34.4134 52.3229 33.2752 51.6338 32.5509C51.3154 32.1887 50.8389 31.9822 50.308 31.9822ZM48.1883 35.6548C47.6574 35.1378 47.3924 34.465 47.3924 33.7922L43.0453 33.0163L42.4086 41.9658C43.5218 42.1732 44.4768 42.845 45.0602 43.7768L52.482 40.6212C52.3762 40.2074 52.3229 39.8453 52.3229 39.4315C52.3229 38.4481 52.6946 37.5689 53.2245 36.8962L52.1647 35.8621C51.6338 36.2759 50.998 36.534 50.308 36.534C49.5131 36.534 48.7182 36.2234 48.1883 35.6548ZM43.3102 19.256C42.3028 19.256 41.5079 20.032 41.5079 21.0153C41.5079 21.9977 42.3028 22.7737 43.3102 22.7737C44.3177 22.7737 45.1126 21.9977 45.1126 21.0153C45.1126 20.032 44.3177 19.256 43.3102 19.256ZM35.5166 40.3107C35.5166 40.8793 35.9932 41.3447 36.5765 41.3447C37.1598 41.3447 37.6373 40.8793 37.6373 40.3107C37.6373 39.7411 37.1598 39.2757 36.5765 39.2757C35.9932 39.2757 35.5166 39.7411 35.5166 40.3107ZM41.9845 60.64C42.9919 60.64 43.7868 59.864 43.7868 58.8816C43.7868 57.8983 42.9919 57.1223 41.9845 57.1223C40.977 57.1223 40.1821 57.8983 40.1821 58.8816C40.1821 59.864 40.977 60.64 41.9845 60.64ZM38.6972 45.7941C38.6972 47.3977 40.0229 48.6907 41.6661 48.6907C43.2569 48.6907 44.5826 47.4493 44.5826 45.8457C44.5826 44.2422 43.3102 42.8966 41.6661 42.8966C40.0229 42.8966 38.6972 44.1905 38.6972 45.7941ZM60.2766 49.8288C60.2766 50.8638 61.1239 51.6914 62.1847 51.6914C63.1922 51.6914 64.0929 50.8638 64.0929 49.8288C64.0929 48.7939 63.2456 47.9663 62.1847 47.9663C61.1239 47.9663 60.2766 48.7939 60.2766 49.8288ZM52.6072 57.9001C53.3662 57.2565 53.441 56.1389 52.7742 55.4052C52.1084 54.6714 50.9524 54.5992 50.1935 55.2438C49.4345 55.8875 49.3597 57.005 50.0265 57.7388C50.6923 58.4725 51.8483 58.5448 52.6072 57.9001Z" fill="#F6DC8E"/>
<path d="M41.3746 5.51758C61.0736 5.51758 77.0427 20.956 77.0427 40.0003C77.0427 59.0447 61.0736 74.4831 41.3746 74.4831C21.6757 74.4831 5.70654 59.0447 5.70654 40.0003C5.70654 20.956 21.6757 5.51758 41.3746 5.51758Z" stroke="white" stroke-width="2"/>
<path fill-rule="evenodd" clip-rule="evenodd" d="M103.988 61.8292H102.754V57.6609H98.0627V61.8292H96.8369V52.8144H98.0627V56.6908H102.754V52.8144H103.988V61.8292ZM107.987 61.8292H106.805V55.129H107.987V61.8292ZM106.708 53.3538C106.708 53.1666 106.766 53.0116 106.882 52.8828C107.001 52.754 107.175 52.6916 107.406 52.6916C107.636 52.6916 107.811 52.754 107.929 52.8828C108.048 53.0116 108.108 53.1666 108.108 53.3538C108.108 53.5389 108.048 53.6939 107.929 53.8167C107.811 53.9415 107.636 54.0039 107.406 54.0039C107.175 54.0039 107.001 53.9415 106.882 53.8167C106.766 53.6939 106.708 53.5389 106.708 53.3538ZM113.948 56.1595C113.767 56.1293 113.574 56.1152 113.366 56.1152C112.591 56.1152 112.064 56.4352 111.787 57.0753V61.8292H110.605V55.129H111.754L111.775 55.9039C112.161 55.3061 112.712 55.0062 113.423 55.0062C113.653 55.0062 113.828 55.0364 113.948 55.0927V56.1595ZM117.044 61.8292H115.862V55.129H117.044V61.8292ZM115.766 53.3538C115.766 53.1666 115.824 53.0116 115.939 52.8828C116.059 52.754 116.234 52.6916 116.464 52.6916C116.693 52.6916 116.867 52.754 116.988 52.8828C117.106 53.0116 117.166 53.1666 117.166 53.3538C117.166 53.5389 117.106 53.6939 116.988 53.8167C116.867 53.9415 116.693 54.0039 116.464 54.0039C116.234 54.0039 116.059 53.9415 115.939 53.8167C115.824 53.6939 115.766 53.5389 115.766 53.3538ZM120.781 55.129L120.819 55.9723C121.349 55.3282 122.038 55.0062 122.89 55.0062C124.351 55.0062 125.088 55.8052 125.101 57.4033V61.8292H123.919V57.3973C123.914 56.9142 123.8 56.556 123.574 56.3245C123.354 56.0931 123.005 55.9783 122.533 55.9783C122.149 55.9783 121.812 56.0769 121.523 56.2762C121.232 56.4734 121.008 56.7331 120.846 57.0551V61.8292H119.664V55.129H120.781ZM127.324 58.4238C127.324 57.3792 127.573 56.5499 128.072 55.9341C128.57 55.3162 129.231 55.0062 130.052 55.0062C130.895 55.0062 131.554 55.294 132.028 55.8717L132.086 55.129H133.164V61.6682C133.164 62.5357 132.898 63.218 132.366 63.7172C131.839 64.2183 131.126 64.4659 130.233 64.4659C129.734 64.4659 129.246 64.3632 128.768 64.1559C128.29 63.9506 127.926 63.6668 127.675 63.3086L128.288 62.6202C128.795 63.2281 129.416 63.532 130.149 63.532C130.723 63.532 131.172 63.375 131.489 63.063C131.814 62.747 131.976 62.3062 131.976 61.7367V61.159C131.504 61.6884 130.858 61.954 130.039 61.954C129.231 61.954 128.575 61.638 128.072 61.006C127.573 60.3741 127.324 59.5126 127.324 58.4238ZM128.512 58.5546C128.512 59.3093 128.672 59.9031 128.992 60.3378C129.312 60.7665 129.759 60.9819 130.334 60.9819C131.08 60.9819 131.627 60.6518 131.976 59.9957V56.9384C131.614 56.2984 131.07 55.9783 130.347 55.9783C129.771 55.9783 129.323 56.1957 128.998 56.6284C128.674 57.0612 128.512 57.7032 128.512 58.5546ZM143.238 58.1822H141.053V61.8292H139.821V52.8144H142.9C143.949 52.8144 144.753 53.0458 145.316 53.5087C145.883 53.9697 146.166 54.6419 146.166 55.5255C146.166 56.089 146.008 56.5761 145.694 56.9947C145.383 57.4114 144.948 57.7233 144.389 57.9286L146.575 61.7548V61.8292H145.258L143.238 58.1822ZM141.053 57.2101H142.939C143.548 57.2101 144.032 57.0571 144.389 56.7512C144.751 56.4473 144.934 56.0387 144.934 55.5255C144.934 54.97 144.759 54.5433 144.414 54.2454C144.074 53.9475 143.579 53.7966 142.933 53.7925H141.053V57.2101ZM151.295 61.954C150.358 61.954 149.596 61.6562 149.008 61.0624C148.42 60.4626 148.127 59.6636 148.127 58.6653V58.4539C148.127 57.7898 148.256 57.198 148.516 56.6787C148.779 56.1534 149.147 55.7449 149.615 55.453C150.088 55.1551 150.599 55.0062 151.15 55.0062C152.048 55.0062 152.748 55.294 153.246 55.8676C153.743 56.4413 153.992 57.2624 153.992 58.3312V58.8062H149.309C149.326 59.4683 149.523 60.0037 149.903 60.4123C150.286 60.8169 150.772 61.0181 151.36 61.0181C151.777 61.0181 152.131 60.9356 152.421 60.7706C152.71 60.6055 152.964 60.3861 153.182 60.1144L153.903 60.6579C153.323 61.5213 152.455 61.954 151.295 61.954ZM151.15 55.9461C150.672 55.9461 150.271 56.1172 149.947 56.4553C149.623 56.7894 149.423 57.2604 149.347 57.8683H152.81V57.7797C152.777 57.198 152.615 56.7492 152.326 56.4312C152.035 56.1071 151.642 55.9461 151.15 55.9461ZM155.8 58.4238C155.8 57.3973 156.051 56.5721 156.554 55.9461C157.057 55.3202 157.715 55.0062 158.528 55.0062C159.338 55.0062 159.98 55.2759 160.451 55.8113V52.3192H161.634V61.8292H160.547L160.491 61.1107C160.017 61.6723 159.359 61.954 158.515 61.954C157.715 61.954 157.061 61.634 156.554 61C156.051 60.364 155.8 59.5348 155.8 58.5123V58.4238ZM156.982 58.5546C156.982 59.3134 157.144 59.9071 157.468 60.3378C157.792 60.7665 158.239 60.9819 158.81 60.9819C159.56 60.9819 160.107 60.6558 160.451 60.0037V56.9263C160.098 56.2943 159.556 55.9783 158.823 55.9783C158.243 55.9783 157.792 56.1957 157.468 56.6284C157.144 57.0612 156.982 57.7032 156.982 58.5546ZM167.065 61.954C166.128 61.954 165.365 61.6562 164.777 61.0624C164.189 60.4626 163.894 59.6636 163.894 58.6653V58.4539C163.894 57.7898 164.025 57.198 164.285 56.6787C164.549 56.1534 164.914 55.7449 165.384 55.453C165.857 55.1551 166.369 55.0062 166.917 55.0062C167.817 55.0062 168.515 55.294 169.013 55.8676C169.512 56.4413 169.761 57.2624 169.761 58.3312V58.8062H165.076C165.095 59.4683 165.292 60.0037 165.67 60.4123C166.055 60.8169 166.541 61.0181 167.129 61.0181C167.547 61.0181 167.9 60.9356 168.191 60.7706C168.479 60.6055 168.733 60.3861 168.951 60.1144L169.672 60.6579C169.092 61.5213 168.224 61.954 167.065 61.954ZM166.917 55.9461C166.441 55.9461 166.04 56.1172 165.716 56.4553C165.392 56.7894 165.193 57.2604 165.116 57.8683H168.579V57.7797C168.546 57.198 168.384 56.7492 168.093 56.4312C167.804 56.1071 167.411 55.9461 166.917 55.9461ZM172.252 61.8292V56.0166H171.16V55.129H172.252V54.5614C172.252 53.8147 172.47 53.231 172.911 52.8144C173.353 52.3977 173.979 52.1904 174.783 52.1904C175.261 52.1904 175.863 52.3152 176.59 52.5668L176.393 53.5329C175.861 53.3256 175.354 53.2229 174.872 53.2229C174.365 53.2229 173.998 53.3357 173.773 53.5571C173.551 53.7764 173.441 54.1065 173.441 54.5473V55.129H174.854V56.0166H173.441V61.8292H172.252ZM177.18 61.8292H175.99V55.129H177.18V61.8292ZM180.941 55.129L180.98 55.9723C181.508 55.3282 182.2 55.0062 183.05 55.0062C184.512 55.0062 185.25 55.8052 185.262 57.4033V61.8292H184.08V57.3973C184.076 56.9142 183.96 56.556 183.735 56.3245C183.513 56.0931 183.166 55.9783 182.692 55.9783C182.31 55.9783 181.971 56.0769 181.683 56.2762C181.394 56.4734 181.167 56.7331 181.005 57.0551V61.8292H179.823V55.129H180.941ZM190.635 61.954C189.698 61.954 188.934 61.6562 188.348 61.0624C187.76 60.4626 187.465 59.6636 187.465 58.6653V58.4539C187.465 57.7898 187.596 57.198 187.855 56.6787C188.119 56.1534 188.485 55.7449 188.952 55.453C189.428 55.1551 189.937 55.0062 190.488 55.0062C191.385 55.0062 192.085 55.294 192.584 55.8676C193.083 56.4413 193.332 57.2624 193.332 58.3312V58.8062H188.647C188.663 59.4683 188.861 60.0037 189.241 60.4123C189.625 60.8169 190.112 61.0181 190.697 61.0181C191.115 61.0181 191.468 60.9356 191.759 60.7706C192.05 60.6055 192.303 60.3861 192.522 60.1144L193.243 60.6579C192.663 61.5213 191.794 61.954 190.635 61.954ZM190.488 55.9461C190.01 55.9461 189.611 56.1172 189.287 56.4553C188.963 56.7894 188.763 57.2604 188.686 57.8683H192.15V57.7797C192.114 57.198 191.952 56.7492 191.664 56.4312C191.375 56.1071 190.982 55.9461 190.488 55.9461ZM195.137 58.4238C195.137 57.3973 195.391 56.5721 195.891 55.9461C196.394 55.3202 197.053 55.0062 197.867 55.0062C198.678 55.0062 199.317 55.2759 199.791 55.8113V52.3192H200.973V61.8292H199.887L199.829 61.1107C199.357 61.6723 198.698 61.954 197.853 61.954C197.053 61.954 196.398 61.634 195.891 61C195.391 60.364 195.137 59.5348 195.137 58.5123V58.4238ZM196.322 58.5546C196.322 59.3134 196.482 59.9071 196.806 60.3378C197.13 60.7665 197.576 60.9819 198.148 60.9819C198.898 60.9819 199.446 60.6558 199.791 60.0037V56.9263C199.438 56.2943 198.894 55.9783 198.16 55.9783C197.581 55.9783 197.13 56.1957 196.806 56.6284C196.482 57.0612 196.322 57.7032 196.322 58.5546Z" fill="black"/>
<path fill-rule="evenodd" clip-rule="evenodd" d="M104.786 28.2596V31.1101L104.611 31.2787H99.7253V33.5551H104.402L104.576 33.7237V36.5722L104.402 36.7408H99.7253V39.0514H104.611L104.786 39.22V42.0705L104.611 42.2391H96.1293L95.9548 42.0705V28.2596L96.1293 28.091H104.611L104.786 28.2596ZM122.336 28.2777L116.683 35.0727L122.336 42.0363L122.145 42.2391H117.834L117.678 42.0865L114.379 37.9212L111.08 42.0865L110.925 42.2391H106.789L106.579 42.0363L112.059 35.0727L106.579 28.2777L106.789 28.091H110.925L111.08 28.2436L114.379 32.1218L117.678 28.2436L117.834 28.091H122.145L122.336 28.2777ZM133.566 35.3758L133.41 35.5444H133.392C131.821 36.9777 129.135 37.1122 127.704 37.1303V42.0705L127.511 42.2391H124.127L123.952 42.0705V28.2596L124.127 28.091H129.517C131.281 28.1251 132.571 28.647 133.375 29.4239L133.498 29.5243C134.335 30.3332 134.701 31.4293 134.701 32.5253C134.701 33.808 134.248 34.7174 133.566 35.3758ZM127.704 34.2296C128.767 34.1955 129.833 34.0429 130.409 33.5712C130.652 33.3022 130.774 33.0312 130.774 32.5936C130.774 32.1379 130.618 31.8187 130.409 31.5818C129.833 31.1101 128.855 30.9575 127.704 30.9415V34.2296ZM145.651 28.2596V31.1101L145.476 31.2787H140.59V33.5551H145.266L145.441 33.7237V36.5722L145.266 36.7408H140.59V39.0514H145.476L145.651 39.22V42.0705L145.476 42.2391H136.994L136.82 42.0705V28.2596L136.994 28.091H145.476L145.651 28.2596ZM147.934 28.091H153.308C155.053 28.1251 156.343 28.647 157.164 29.4239L157.286 29.5243C158.142 30.3332 158.508 31.4293 158.508 32.5253C158.508 33.808 158.055 34.7355 157.357 35.3919L157.216 35.5284C156.833 35.8817 156.362 36.1687 155.907 36.3715L159.852 42.0524L159.659 42.2391H155.925L155.768 42.0865L152.278 37.046C151.98 37.062 151.719 37.0781 151.492 37.0781V42.0705L151.318 42.2391H147.934L147.759 42.0705V28.2596L147.934 28.091ZM151.492 34.2296C152.558 34.1955 153.622 34.0429 154.197 33.5712C154.442 33.3022 154.565 33.0312 154.565 32.5936C154.565 32.1379 154.407 31.8187 154.197 31.5818C153.622 31.1101 152.627 30.9575 151.492 30.9415V34.2296ZM160.294 31.1101V28.2596L160.469 28.091H170.835L171.01 28.2596V31.1101L170.835 31.2787H167.555V42.0705L167.38 42.2391H163.926L163.751 42.0705V31.2787H160.469L160.294 31.1101ZM172.74 40.6532L172.565 40.4846L174.24 37.7526L174.433 37.5679L174.485 37.6181C176.072 38.6639 178.796 39.4388 179.737 38.7141C179.895 38.5455 179.982 38.3427 179.982 38.0738C179.982 37.7365 179.789 37.4153 179.51 37.1463C178.447 36.2029 176.178 35.5103 174.886 34.2958L174.747 34.1613C174.188 33.6214 173.839 32.9991 173.839 32.2061C173.839 31.1262 174.275 30.0301 175.148 29.2212L175.306 29.0867C176.857 27.2479 179.701 26.6075 183.453 29.1529L183.628 29.3215L182.267 31.9191L182.092 32.1038L182.024 32.0536C180.366 30.7046 178.55 30.9234 177.801 31.5477C177.626 31.7344 177.539 31.903 177.539 32.0877C177.539 32.2563 177.626 32.4089 177.73 32.5434C178.638 33.3022 181.307 33.8924 182.826 35.3076L182.948 35.426C183.611 36.0664 184.031 36.8593 184.031 37.8891C184.031 38.9329 183.559 39.9788 182.687 40.8058L182.547 40.9242C180.628 42.7791 176.893 43.5037 172.74 40.6532ZM193.718 32.5253C192.932 33.3022 192.565 34.2637 192.565 35.157C192.565 36.0664 192.932 37.046 193.718 37.8048C194.503 38.4953 195.637 38.967 197.208 38.967C198.336 38.967 199.325 38.7482 200.174 38.3106L200.226 38.2765L200.417 38.4612L201.115 41.6489L200.959 41.7995C200.941 41.8175 199.877 42.492 196.701 42.492C194.503 42.492 192.39 41.6148 190.872 40.1976L190.732 40.0631C189.388 38.7824 188.551 37.0781 188.551 35.1911C188.551 33.2841 189.407 31.5477 190.768 30.2489L190.907 30.1144C192.425 28.6992 194.503 27.8381 196.701 27.8381C199.894 27.8381 200.941 28.5125 200.959 28.5306L201.115 28.6812L200.417 31.8689L200.226 32.0536L200.174 32.0195C199.325 31.5818 198.336 31.363 197.208 31.363C195.637 31.363 194.484 31.8508 193.718 32.5253ZM206.863 28.2596V42.0705L206.689 42.2391H203.338L203.164 42.0705V28.2596L203.338 28.091H206.689L206.863 28.2596ZM209.213 28.091H214.587C216.332 28.1251 217.624 28.647 218.445 29.4239L218.566 29.5243C219.421 30.3332 219.787 31.4293 219.787 32.5253C219.787 33.808 219.334 34.7355 218.636 35.3919L218.497 35.5284C218.113 35.8817 217.641 36.1687 217.188 36.3715L221.131 42.0524L220.94 42.2391H217.205L217.049 42.0865L213.559 37.046C213.262 37.062 213 37.0781 212.774 37.0781V42.0705L212.599 42.2391H209.213L209.039 42.0705V28.2596L209.213 28.091ZM212.774 34.2296C213.837 34.1955 214.901 34.0429 215.478 33.5712C215.722 33.3022 215.844 33.0312 215.844 32.5936C215.844 32.1379 215.686 31.8187 215.478 31.5818C214.901 31.1101 213.908 30.9575 212.774 30.9415V34.2296ZM226.827 32.5253C226.042 33.3022 225.676 34.2637 225.676 35.157C225.676 36.0664 226.042 37.046 226.827 37.8048C227.613 38.4953 228.747 38.967 230.317 38.967C231.445 38.967 232.434 38.7482 233.284 38.3106L233.336 38.2765L233.529 38.4612L234.227 41.6489L234.069 41.7995C234.053 41.8175 232.987 42.492 229.813 42.492C227.613 42.492 225.502 41.6148 223.983 40.1976L223.844 40.0631C222.5 38.7824 221.663 37.0781 221.663 35.1911C221.663 33.2841 222.517 31.5477 223.877 30.2489L224.019 30.1144C225.535 28.6992 227.613 27.8381 229.813 27.8381C233.006 27.8381 234.053 28.5125 234.069 28.5306L234.227 28.6812L233.529 31.8689L233.336 32.0536L233.284 32.0195C232.434 31.5818 231.445 31.363 230.317 31.363C228.747 31.363 227.596 31.8508 226.827 32.5253ZM239.836 28.2596L239.888 39.0514H244.774L244.949 39.22V42.0705L244.774 42.2391H236.292L236.118 42.0705V28.2596L236.292 28.091H239.643L239.836 28.2596ZM255.907 28.2596V31.1101L255.732 31.2787H250.846V33.5551H255.523L255.697 33.7237V36.5722L255.523 36.7408H250.846V39.0514H255.732L255.907 39.22V42.0705L255.732 42.2391H247.252L247.078 42.0705V28.2596L247.252 28.091H255.732L255.907 28.2596Z" fill="black"/>
<path d="M205.143 15.4653C206.41 15.4653 207.546 16.046 208.299 16.9482L207.667 17.4988C207.061 16.7794 206.156 16.3213 205.143 16.3213C203.298 16.3213 201.818 17.8183 201.818 19.685C201.818 21.5497 203.298 23.0467 205.143 23.0467C207.228 23.0467 208.784 21.1357 208.42 19.0882L209.13 18.4613C209.932 21.1357 207.953 23.8886 205.143 23.8886C202.845 23.8886 200.972 21.9917 200.972 19.6689C200.972 17.3461 202.845 15.4492 205.143 15.4492V15.4653ZM204.387 18.3387L205.519 19.7915L210.522 15.4492L211.201 16.259L205.369 21.3206L203.557 19.0118L204.371 18.3548L204.387 18.3387Z" fill="black"/>
</svg>
