<svg width="200" height="199" viewBox="0 0 200 199" fill="none" xmlns="http://www.w3.org/2000/svg">
<ellipse cx="100" cy="96.5732" rx="100" ry="96.5732" fill="#656565"/>
<g clip-path="url(#clip0_313_12346)">
<path opacity="0.949" d="M72.7889 103.391H27.4151C23.8294 103.391 20.9241 100.474 20.9241 96.8753V51.3272C20.9241 47.7289 23.8294 44.8114 27.4151 44.8114H72.7889C76.3735 44.8114 79.2799 47.7289 79.2799 51.3272V96.8753C79.2799 100.474 76.3735 103.391 72.7889 103.391Z" fill="#F6F4F4"/>
<path d="M63.6107 91.3942H36.5935V90.0537H63.6107V91.3942Z" fill="#96BFE6"/>
<path d="M59.7837 95.6156H40.4192V94.2762H59.7837V95.6156Z" fill="#96BFE6"/>
<path opacity="0.949" d="M161.1 159.232H96.5268C92.3038 159.232 88.8796 155.795 88.8796 151.556V72.8041C88.8796 68.565 92.3038 65.1278 96.5268 65.1278H161.1C165.323 65.1278 168.747 68.565 168.747 72.8041V151.556C168.747 155.795 165.323 159.232 161.1 159.232Z" fill="#F6F4F4"/>
<path d="M131.427 121.821H125.093V120.643H131.427V121.821Z" fill="#4598E6"/>
<path d="M137.904 133.714H101.044V131.434H137.904V133.714Z" fill="#96BFE6"/>
<path d="M130.851 144.661H101.044V142.381H130.851V144.661Z" fill="#96BFE6"/>
<path d="M118.518 139.187H101.044V136.907H118.518V139.187Z" fill="#96BFE6"/>
<path d="M147.547 74.5126V75.6642H154.301V82.0279H155.448V74.5126H147.547ZM101.678 82.0279H102.826V75.6642H109.58V74.5126H101.678V82.0279ZM154.301 114.863V121.228H147.547V122.38H155.448V114.863H154.301ZM102.826 114.863H101.678V122.38H109.58V121.228H102.826V114.863Z" fill="#4598E6"/>
<path fill-rule="evenodd" clip-rule="evenodd" d="M151.872 144.829C148.147 144.829 145.117 141.787 145.117 138.049C145.117 134.309 148.147 131.267 151.872 131.267C155.596 131.267 158.627 134.309 158.627 138.049C158.627 141.787 155.596 144.829 151.872 144.829ZM151.872 132.58C148.869 132.58 146.425 135.032 146.425 138.049C146.425 141.064 148.869 143.517 151.872 143.517C154.876 143.517 157.32 141.064 157.32 138.049C157.32 135.032 154.876 132.58 151.872 132.58Z" fill="#4598E6"/>
<path d="M151.441 140.717L148.372 137.636L149.297 136.708L151.441 138.86L154.447 135.843L155.372 136.771L151.441 140.717Z" fill="#4598E6"/>
<path opacity="0.949" d="M69.7686 47.0018V80.8789H30.4343V47.0018H69.7686Z" fill="#F6F4F4"/>
<path opacity="0.949" d="M122.551 61.8793H90.349C87.4017 61.8793 85.012 59.4816 85.012 56.523V28.4753C85.012 25.5168 87.4017 23.119 90.349 23.119H122.551C125.498 23.119 127.887 25.5168 127.887 28.4753V56.523C127.887 59.4816 125.498 61.8793 122.551 61.8793Z" fill="#F6F4F4"/>
<path d="M107.986 55.1817H104.586V54.5487H107.986V55.1817Z" fill="#4598E6"/>
<path d="M116.64 30.1335V30.751H120.266V34.1672H120.882V30.1335H116.64ZM92.0171 34.1672H92.6322V30.751H96.2589V30.1335H92.0171V34.1672ZM120.266 51.7943V55.2115H116.64V55.829H120.882V51.7943H120.266ZM92.6322 51.7943H92.0171V55.829H96.2589V55.2115H92.6322V51.7943Z" fill="#4598E6"/>
<path d="M52.373 84.3527H47.8303V83.5087H52.373V84.3527Z" fill="#4598E6"/>
<path d="M63.7136 50.8973V51.7225H68.5572V56.2859H69.3792V50.8973H63.7136ZM30.825 56.2859H31.647V51.7225H36.4906V50.8973H30.825V56.2859ZM68.5572 79.829V84.3935H63.7136V85.2197H69.3792V79.829H68.5572ZM31.647 79.829H30.825V85.2197H36.4906V84.3935H31.647V79.829Z" fill="#4598E6"/>
<path d="M152.932 110.127H145.356C145.024 107.699 144.653 105.099 144.245 102.328C144.04 104.615 143.815 107.215 143.566 110.127H113.247C112.971 106.199 112.638 103.26 112.517 103.2C112.343 103.112 111.261 106.597 110.364 110.127H102.156C104.267 100.999 108.204 86.3536 110.481 85.4774C112.641 84.6433 118.126 82.8631 126.935 80.1377H134.476C143.409 82.6965 148.291 85.3663 149.122 88.1483C150.113 91.4723 152.299 102.437 152.932 110.127Z" fill="#BF9786"/>
<path d="M131.052 55.5821C135.746 56.3251 137.735 60.382 137.021 67.754C135.949 78.8131 129.734 77.9069 129.319 77.8958C128.903 77.8847 123.081 78.0968 122.627 64.5955C122.494 57.9387 125.303 54.9346 131.052 55.5821Z" fill="#EEA987"/>
<path d="M134.339 74.6383C134.21 77.6702 134.292 79.5148 134.584 80.1712C135.023 81.1563 128.774 84.3192 124.962 80.7942C125.576 77.498 125.798 75.2669 125.627 74.0986C125.456 72.9314 128.36 73.1102 134.339 74.6383Z" fill="#EEA987"/>
<path d="M137.13 64.6311C137.643 64.0791 137.995 64.0825 138.183 64.6411C138.467 65.4773 136.987 69.2178 137.084 69.3855C136.991 69.602 136.881 69.6498 136.758 69.531C136.634 69.4121 136.758 67.7785 137.13 64.6311Z" fill="#EEA987"/>
<path d="M122.706 64.4904C122.202 63.9285 121.851 63.9251 121.652 64.4793C121.354 65.3111 122.76 69.0782 122.66 69.2448C122.75 69.4625 122.857 69.5135 122.983 69.3969C123.109 69.2803 123.016 67.6444 122.706 64.4904Z" fill="#EEA987"/>
<path d="M137.127 66.3265L136.119 67.6792C136.138 65.7024 136.094 64.5585 135.985 64.2486C135.824 63.7833 135.576 62.3629 135.441 62.0275C135.306 61.6932 129.395 60.0295 124.173 62.5128C124.326 63.9354 124.236 64.7095 123.903 64.8361C123.569 64.9616 123.483 66.1199 123.647 68.3089L122.818 67.3705C121.972 61.6987 121.655 58.5669 121.862 57.975C122.176 57.0887 123.175 51.7569 133.886 54.922C136.113 54.4489 137.45 54.9831 137.897 56.5268C138.344 58.0694 138.087 61.3367 137.127 66.3265Z" fill="#D98B52"/>
<path d="M134.585 80.171C135.643 80.3976 133.957 82.6432 129.525 86.9067C126.381 83.4161 124.861 81.3782 124.963 80.7941C125.064 80.2099 128.272 80.0022 134.585 80.171Z" fill="#EEA987"/>
<path d="M129.525 86.9065L131.34 90.0205L136.721 80.8482L134.39 79.2157L129.525 86.9065Z" fill="white"/>
<path d="M129.525 86.907L125.122 79.8749L122.626 81.4852L127.101 90.0211L129.525 86.907Z" fill="white"/>
<path d="M128.16 106.388C128.214 107.425 128.238 108.698 128.242 110.126H127.992C127.99 108.704 127.965 107.434 127.911 106.4C127.503 98.5985 129.386 89.1063 129.398 86.8807L129.641 86.9296C129.629 89.1541 127.752 98.6196 128.16 106.388Z" fill="#CEBEB6"/>
<path d="M126.282 76.5935C127.398 77.7762 128.743 78.2105 130.318 77.8951C131.894 77.5797 133.031 77.0599 133.73 76.3358C133.109 77.9006 131.887 78.7558 130.066 78.899C128.244 79.0423 126.984 78.2738 126.282 76.5935Z" fill="#C78D71"/>
<path fill-rule="evenodd" clip-rule="evenodd" d="M44.6975 51.2096C44.692 51.2096 44.6876 51.2085 44.6821 51.2074C44.5227 51.1685 44.2716 50.4044 44.2218 50.2512C44.2108 50.209 44.1864 50.1323 44.1521 50.0257C43.9541 49.4138 43.4927 47.98 43.6731 47.4314C43.7295 47.2581 43.818 47.1582 43.9364 47.1338C44.1886 47.0804 44.4774 47.4025 44.4896 47.417L44.4962 47.4236L44.4973 47.4325C44.5626 48.0355 44.8834 51.0508 44.7451 51.1885C44.7307 51.2018 44.7153 51.2096 44.6975 51.2096ZM43.9939 47.186C43.9784 47.186 43.9629 47.1871 43.9474 47.1904C43.8512 47.2104 43.7771 47.2981 43.7273 47.4492C43.5536 47.9811 44.0282 49.4538 44.2074 50.0079C44.2417 50.1146 44.2661 50.1923 44.2782 50.2345C44.3944 50.601 44.6024 51.1274 44.6953 51.1507C44.6976 51.1507 44.6998 51.1518 44.7042 51.1474C44.7916 51.0275 44.5891 48.8196 44.4398 47.4492C44.401 47.407 44.1864 47.186 43.9939 47.186Z" fill="#EEA886"/>
<path d="M49.9315 39.1912C52.5159 38.9191 54.2728 40.0353 55.2043 42.5407C56.6006 46.2978 57.916 47.5284 58.0809 49.5018C58.7458 57.4858 62.4598 55.68 61.4154 60.2811C60.7195 63.3496 60.1298 65.1155 59.6475 65.5797L50.7679 63.8316L41.7732 63.8616C44.1198 62.6855 45.0314 60.8442 44.5092 58.3398C43.7259 54.5827 41.7732 48.4246 42.8762 44.2299C43.9782 40.0353 47.6159 39.5111 49.9315 39.1912Z" fill="black"/>
<path fill-rule="evenodd" clip-rule="evenodd" d="M54.6656 51.2096C54.6479 51.2096 54.6324 51.2018 54.618 51.1885C54.4797 51.0508 54.8005 48.0355 54.8658 47.4325L54.8669 47.4236L54.8736 47.417C54.8857 47.4025 55.1745 47.0804 55.4267 47.1338C55.5451 47.1582 55.6336 47.2581 55.6901 47.4314C55.8704 47.98 55.409 49.4138 55.211 50.0257C55.1767 50.1323 55.1524 50.209 55.1413 50.25C55.0915 50.4044 54.8404 51.1685 54.6811 51.2074C54.6755 51.2085 54.6711 51.2096 54.6656 51.2096ZM54.9233 47.4492C54.774 48.8196 54.5715 51.0275 54.66 51.1485C54.6634 51.1518 54.6656 51.1507 54.6678 51.1507C54.7607 51.1274 54.9687 50.601 55.086 50.2334C55.097 50.1923 55.1214 50.1146 55.1557 50.0079C55.3349 49.4538 55.8095 47.9811 55.6358 47.4492C55.5849 47.2981 55.5119 47.2104 55.4157 47.1904C55.2132 47.1482 54.9643 47.4036 54.9233 47.4492Z" fill="#EEA886"/>
<path d="M68.1555 75.0876H62.6226C61.8581 73.6882 61.1655 72.4411 60.5438 71.346C60.047 72.2567 59.6056 73.5039 59.2194 75.0876H40.5928C40.3085 73.605 40.2919 72.1856 40.3506 71.175C39.6867 72.3789 38.9709 73.6827 38.2009 75.0876H31.9434C33.604 71.9657 36.7151 66.2829 37.422 65.5422C38.3104 64.6082 43.4572 61.0366 47.1314 59.8716C49.582 59.0953 51.5037 59.0819 52.8966 59.8316C55.4125 60.2869 57.8343 60.9777 60.161 61.9028C61.5328 62.4492 65.3232 69.4747 68.1555 75.0876Z" fill="#FCCC4F"/>
<path d="M52.724 55.3857C52.5116 58.0233 52.6587 59.7381 53.1655 60.5277C53.9244 61.7138 52.516 63.3219 49.6141 62.7722C47.679 62.4057 46.7685 61.6716 46.8803 60.571C47.4224 58.9429 47.6138 57.4769 47.4556 56.1742C47.2974 54.8715 49.0531 54.6083 52.724 55.3857Z" fill="#BF9786"/>
<path d="M50.4428 41.3887C53.8648 41.884 55.3263 44.6671 54.8251 49.738C54.0739 57.3454 49.5434 56.7413 49.2402 56.7346C48.9382 56.728 44.6953 56.8934 44.328 47.6112C44.2141 43.0356 46.2531 40.9611 50.4428 41.3887Z" fill="#EEA886"/>
<path d="M54.5264 60.1786C52.1533 66.2124 50.2448 69.754 48.8021 70.8024C46.908 64.6476 46.0263 61.1204 46.159 60.2197C49.0167 59.0958 51.8059 59.0814 54.5264 60.1786Z" fill="#BF9786"/>
<path d="M49.8563 44.1459C51.455 45.8329 52.6255 47.1045 53.3679 47.9585C54.1114 48.8126 54.5251 50.0653 54.6103 51.7156C55.8616 50.1819 56.2256 48.5216 55.7023 46.7347C54.9179 44.056 53.0603 38.8418 48.3605 40.4444C43.6596 42.0458 43.4859 49.0947 44.0369 52.5896C45.4431 47.4454 47.3836 44.6312 49.8563 44.1459Z" fill="black"/>
<path d="M46.7818 57.9432C42.551 61.7214 40.9844 64.79 42.0831 67.1477C43.4881 70.1652 48.4723 68.3138 47.6502 65.152C47.1026 63.0441 46.8127 60.6408 46.7818 57.9432Z" fill="black"/>
<path d="M47.833 56.3907C49.2912 57.0826 50.7294 56.9171 52.1489 55.8954C51.755 56.7128 51.0359 57.1792 49.9915 57.2958C48.9471 57.4113 48.2269 57.1104 47.833 56.3907Z" fill="#633029"/>
<path d="M104.159 35.454C102.756 40.7548 101.907 44.0021 101.615 45.196C101.483 45.7357 101.062 46.6686 100.526 47.7325C100.522 47.7403 100.519 47.7481 100.513 47.757C100.398 47.9913 100.343 48.2034 100.316 48.4033C100.231 49.0663 100.484 49.5883 100.045 50.3757L99.9655 50.7055H95.8C96.2868 49.2562 96.9042 47.4116 97.3976 45.9256C97.8125 44.6718 98.14 43.6745 98.2263 43.3857C98.4841 42.5228 99.4289 39.7297 100.231 37.8761C100.511 37.2298 101.59 36.5912 102.545 36.1303C103.116 35.8582 103.654 35.6328 104.159 35.454Z" fill="#492D21"/>
<path d="M101.372 24.0965C100.485 18.347 102.415 15.5261 107.158 15.6316C114.273 15.7916 114.179 20.0551 114.051 24.2875C113.924 28.5199 111.198 28.2012 114.273 34.0883C116.323 38.0131 115.436 39.9755 111.611 39.9755L107.158 33.834L101.372 24.0965Z" fill="#FCCCA2"/>
<path d="M106.38 16.4588C103.167 16.9686 101.498 19.514 101.372 24.0962C101.181 30.9696 102.671 32.4334 106.887 31.0018C111.103 29.5692 112.435 22.3782 112.53 21.2643C112.626 20.1504 112.879 15.6314 106.38 16.4588Z" fill="#EEA886"/>
<path d="M114.843 40.3671C114.859 42.7315 112.151 48.3899 111.733 50.138C111.684 50.3412 111.631 50.5289 111.578 50.7055H98.4276C98.359 49.8903 98.2949 49.194 98.2628 48.7997C98.1588 47.5081 96.8544 44.725 96.8975 43.429C96.9429 42.1085 97.589 40.969 98.4918 39.5597C98.7717 39.1221 99.0671 38.6779 99.3603 38.2448C100.318 36.8344 101.274 35.5539 101.743 35.113C102.093 34.7865 102.419 34.5355 102.703 34.3456C102.704 34.3444 102.705 34.3444 102.705 34.3444C103.099 34.0801 103.427 33.9069 103.693 33.8214L107.834 33.1561C109.555 33.7825 110.911 34.2112 111.901 34.4433C113.833 34.7265 114.813 36.7011 114.843 40.3671Z" fill="#BF9786"/>
<path d="M102.706 34.3446L100.305 38.1417L98.0891 41.6467C98.0946 41.6278 98.2418 41.0969 98.4918 39.5599C98.5405 39.2689 98.5914 38.9402 98.6456 38.5726C98.6622 38.4637 98.6854 38.356 98.7153 38.2494C99.6635 36.0549 102.595 34.4001 102.703 34.3457C102.704 34.3446 102.705 34.3446 102.706 34.3446Z" fill="#E55353"/>
<path d="M109.597 27.906C109.32 28.4335 109.033 30.3359 108.739 33.6121C104.81 35.1025 103.047 35.4268 103.449 34.5839C103.723 34.0097 103.802 33.2645 103.808 32.6226C103.813 32.1162 103.773 31.6741 103.743 31.4287C103.733 31.3421 103.724 31.2743 103.716 31.2255C107.916 28.4846 109.876 27.3784 109.597 27.906Z" fill="#EEA886"/>
<path d="M104.414 21.392C106.063 24.0851 107.637 25.9631 109.138 27.0237C110.638 28.0843 111.008 29.0394 110.247 29.8879C114.162 21.6141 114.258 17.1907 110.537 16.6187C104.954 15.7591 101.53 15.6958 101.372 24.0962C103.062 22.2505 104.077 21.3487 104.414 21.392Z" fill="#FCCCA2"/>
<path d="M107.104 30.9218C106.501 31.8147 105.402 32.3822 103.809 32.622C103.809 32.622 103.809 32.622 103.808 32.622C103.813 32.1156 103.772 31.6736 103.742 31.4282C104.767 31.6259 105.887 31.4571 107.104 30.9218Z" fill="#A77860"/>
<path d="M98.7251 38.2237C98.6399 38.4014 98.5625 38.8468 98.4917 39.5597L99.3602 38.2448C100.394 36.7578 101.087 35.8204 101.441 35.4339C101.796 35.0464 102.216 34.6843 102.702 34.3456C100.669 35.3262 99.3436 36.6189 98.7251 38.2237Z" fill="#EBEEFF"/>
<path d="M110.453 41.5512C112.975 40.5583 114.608 40.033 115.355 39.9753C114.847 35.9106 113.356 34.0937 110.879 34.5235C108.402 34.9544 108.26 37.2977 110.453 41.5512Z" fill="#E55353"/>
<path d="M103.693 33.8216C101.841 36.6792 101.229 38.2329 101.855 38.4827C102.796 38.857 107.884 37.983 110.048 33.9116C107.891 32.801 105.773 32.771 103.693 33.8216Z" fill="#EEA886"/>
<path d="M115.355 39.9752C115.162 43.3358 114.212 46.5243 113.429 49.4507C113.315 49.8738 113.205 50.2936 113.104 50.7056H105.402C105.383 49.5473 105.387 48.5244 105.422 47.6715C105.681 41.4534 106.792 36.7079 108.756 33.4384C109.383 33.6494 110.599 34.0114 112.403 34.5245C114.257 35.0509 114.958 37.4198 115.213 38.8569C115.214 38.8602 115.216 38.8657 115.217 38.8735C115.293 39.3055 115.338 39.6731 115.355 39.9752Z" fill="#492D21"/>
<path d="M103.691 33.824C103.661 33.8773 103.153 34.7324 102.546 36.1306C101.634 38.2296 100.494 41.5547 100.398 45.2174C100.367 46.3935 100.135 48.2992 99.7807 50.7059H98.244C98.088 48.6924 97.7218 47.0832 97.3976 45.9259C97.1874 45.1752 96.9949 44.6155 96.8909 44.2601C96.3997 42.5864 97.9674 40.3575 98.4918 39.5601C99.0173 38.7638 100.274 35.1011 103.691 33.824Z" fill="#492D21"/>
<path d="M117.808 50.7056H113.672C113.672 50.4357 113.58 49.9948 113.429 49.4506C112.927 47.6626 111.936 45.0294 110.454 41.55C108.235 37.9117 108.177 35.6284 110.279 34.701C113.432 33.3106 114.789 37.1976 115.213 38.8568C115.214 38.8601 115.215 38.8657 115.216 38.8735C115.322 39.2711 117.199 46.4554 117.808 50.7056Z" fill="#492D21"/>
<path d="M91.8548 101.97C91.8084 101.384 91.8183 100.955 91.8869 100.681C92.065 99.974 91.8028 98.8268 92.6901 98.2704C93.5774 97.714 96.1276 100.044 96.3278 100.695C96.5292 101.346 95.5755 102.455 93.5807 103.387C92.252 104.008 91.6767 103.536 91.8548 101.97Z" fill="#EEA886"/>
<path d="M92.4187 98.502C92.9929 97.6347 93.6578 96.7584 94.4157 95.8722C95.4136 94.7072 96.8131 93.3989 97.1085 93.6477C97.5566 94.0242 96.2865 94.9648 95.376 96.1876C94.8173 96.9383 94.6569 97.2871 94.8936 97.2337C94.825 97.2449 95.1757 96.9017 95.9458 96.2031C97.186 95.0781 98.5656 93.9209 98.8112 94.1197C99.1166 94.3651 99.1332 94.4218 98.7504 94.9049C99.0314 94.675 99.1343 94.7205 99.2427 94.8293C99.8014 95.3924 98.2381 97.3337 97.6175 98.1044C98.0976 97.5147 98.5147 97.1349 98.6342 97.7013C98.7714 98.3488 96.437 100.993 95.6924 102.02C95.1514 102.768 94.0594 101.595 92.4187 98.502Z" fill="#EEA886"/>
<path d="M62.5871 191.903C64.2046 192.863 65.3806 193.521 66.113 193.879C67.2116 194.414 71.4811 194.567 71.9037 194.969C72.3252 195.373 72.1703 196.653 71.4634 196.784C70.7553 196.915 65.5654 197.386 63.8339 196.98C62.1025 196.573 58.8642 197.257 58.1473 197.013C57.4292 196.769 57.8928 192.887 58.1694 192.016C58.3542 191.436 59.8267 191.398 62.5871 191.903Z" fill="black"/>
<path d="M62.7885 190.316L62.5872 191.903C60.4242 192.309 59.0147 192.345 58.3586 192.01L58.602 190.362L62.7885 190.316Z" fill="#22243B"/>
<path d="M75.8061 136.114C75.7718 137.213 75.5716 139.597 75.3403 142.101C75.2883 142.657 75.2341 143.22 75.1799 143.775C74.9642 146.022 74.7473 148.184 74.5294 150.261C74.12 152.943 73.2748 157.599 72.3299 161.121C72.0567 162.137 71.7768 163.059 71.4957 163.811C71.2214 164.543 70.947 165.115 70.6804 165.457C69.3395 167.176 67.1323 175.655 64.0588 190.893L57.7659 190.846C58.6886 180.526 59.6135 174.059 60.5406 171.444C62.0928 167.062 64.789 161.157 64.1197 156.931C63.8409 155.163 63.5211 151.465 63.1605 145.837C62.8097 139.514 63.4581 134.035 65.1054 129.404C65.517 128.247 69.0839 130.484 75.8061 136.114Z" fill="#472C21"/>
<path d="M80.2721 192.497C81.8785 193.477 83.0457 194.149 83.7737 194.516C84.8668 195.063 89.134 195.269 89.5511 195.676C89.9682 196.084 89.7989 197.363 89.0898 197.486C88.3806 197.608 83.1851 198.016 81.4581 197.589C79.7322 197.161 76.4862 197.807 75.7714 197.553C75.0567 197.3 75.5668 193.425 75.8533 192.557C76.0458 191.979 77.5184 191.959 80.2721 192.497Z" fill="black"/>
<path d="M80.4932 190.913L80.2719 192.496C78.1046 192.877 76.6951 192.896 76.0435 192.553L76.3068 190.907L80.4932 190.913Z" fill="#22243B"/>
<path d="M72.9703 168.246C72.8066 163.191 72.3618 159.833 71.0663 156.912C70.3405 155.276 69.6667 151.891 69.0461 146.757C67.0801 140.738 66.2957 135.279 66.6951 130.377C66.7946 129.153 70.6448 130.079 78.2443 133.158C78.4944 134.228 79.2566 137.598 79.5277 140.096C80.5566 149.615 80.8786 157.475 80.4936 163.676C79.905 165.779 80.3542 175.097 81.8389 191.635H75.422C74.3013 185.752 73.6806 180.981 73.5633 177.323C73.1263 171.855 72.9283 168.829 72.9703 168.246Z" fill="#492D21"/>
<path d="M72.8274 102.828C74.8199 106.109 76.1088 108.665 76.6908 110.495C77.5648 113.24 76.8611 121.222 77.0149 122.827C77.3347 126.145 77.7263 129.631 78.1921 133.284L68.1696 139.711C66.9703 136.899 65.8474 133.741 64.8019 130.241C63.2331 124.989 63.107 120.26 63.1213 117.101C63.1523 110.494 64.9468 105.325 68.5037 101.594L72.8274 102.828Z" fill="#CFBEB6"/>
<path d="M76.5104 89.633C77.8812 91.1045 78.3724 92.034 77.9852 92.4205C77.5061 92.9003 79.3946 95.1003 79.6635 95.4702C79.9323 95.8411 78.8249 96.453 78.6423 96.7851C78.4598 97.116 78.5671 100.58 77.6167 100.935C76.6653 101.292 71.8615 100.915 70.3358 99.9802C68.8102 99.0451 66.3496 93.6544 66.5255 91.0601C66.7026 88.4657 72.8959 85.7826 76.5104 89.633Z" fill="#EEA886"/>
<path d="M74.5678 100.187C74.5435 100.383 74.5169 100.633 74.4848 100.937C74.4671 101.128 74.4439 101.346 74.424 101.585C74.4118 101.726 74.4008 101.876 74.3853 102.029C74.3831 102.07 74.3764 102.111 74.3742 102.152C74.3676 102.223 74.362 102.293 74.3565 102.368C74.3333 102.7 74.3089 103.044 74.2912 103.385C74.2481 104.266 74.2415 105.107 74.3355 105.575C74.5037 106.43 72.7534 105.053 69.0825 101.444C69.3934 98.6441 69.4742 95.6711 69.3237 92.5248C69.171 89.3785 70.9191 91.9329 74.5678 100.187Z" fill="#EEA886"/>
<path d="M76.932 90.1169C77.5804 88.5821 76.9055 87.2816 74.9063 86.2166C71.377 84.3353 67.6342 89.0586 67.1375 89.3373C66.6418 89.615 64.3849 92.1649 66.5932 95.5443C68.4507 98.3863 69.3303 99.7601 69.2329 99.6646C69.4188 97.5678 69.5062 96.3173 69.494 95.9119C69.4719 95.1734 70.4267 94.7592 72.3595 94.6714C71.5662 93.6108 71.6105 92.8434 72.4923 92.367C73.8155 91.654 75.3643 89.9615 76.932 90.1169Z" fill="#3A3F47"/>
<path d="M70.837 94.2694C70.6257 93.9718 69.8513 92.6569 68.8556 93.8107C67.8599 94.9658 70.5306 97.1225 70.7518 97.1014C70.972 97.0803 72.6127 96.7738 70.837 94.2694Z" fill="#EEA886"/>
<path d="M78.7386 135.405C78.4066 133.836 78.2086 132.934 78.1433 132.699L63.4863 135.148L63.6368 137.049C70.6776 136.626 75.7116 136.078 78.7386 135.405Z" fill="#23263D"/>
<path d="M62.1822 125.036C63.6835 131.543 63.2587 138.593 60.9077 146.185C60.62 147.111 63.8738 147.04 70.669 145.968L62.1822 125.036Z" fill="#906A5A"/>
<path d="M75.1288 145.253C70.3029 146.316 67.2117 146.607 65.8565 146.126C63.8838 138.924 62.554 131.668 61.8658 124.357C61.7862 123.509 61.7176 122.661 61.6634 121.818C61.6634 121.817 61.6634 121.817 61.6634 121.817C61.0881 112.896 63.3495 103.845 68.504 101.594C68.6489 101.692 75.9088 108.117 75.7705 113.997C75.7605 114.396 75.755 114.796 75.7528 115.195C75.7473 115.918 75.7528 116.643 75.7683 117.366L75.7694 117.367C75.8159 119.604 75.9541 121.835 76.1511 124.001C76.171 124.227 76.192 124.453 76.2141 124.677C76.2495 125.041 76.286 125.403 76.3248 125.763C76.3768 126.242 76.4299 126.716 76.4863 127.187C77.2674 133.729 76.8149 139.752 75.1288 145.253Z" fill="#BF9786"/>
<path d="M74.8323 107.126C75.7406 110.74 76.369 114.819 76.7153 119.365C77.0051 123.168 77.3437 126.415 77.7309 129.105L78.6016 131.929L78.959 129.205C78.7465 124.296 78.4976 120.844 78.2144 118.847C77.7851 115.827 77.5981 111.993 75.1929 107.02L74.8323 107.126Z" fill="#BF9786"/>
<path d="M74.6797 107.13C74.7892 107.236 74.922 107.3 75.0769 107.324C75.3092 107.358 75.6422 106.985 74.4529 105.409L74.6797 107.13Z" fill="#D44040"/>
<path d="M69.1465 100.78C71.3935 102.905 73.1858 104.201 74.5233 104.67L74.9061 107.722L68.5037 101.594L69.1465 100.78Z" fill="#EDDAD3"/>
<path d="M71.4102 113.117C70.0814 112.642 64.5585 109.951 66.0277 106.811C67.4959 103.669 71.2829 105.34 74.1329 106.619C77.1145 107.956 84.1532 112.064 84.7108 111.681C85.2673 111.299 87.7024 107.8 88.1427 107.021C88.583 106.241 91.2405 101.259 91.4905 100.884C91.6543 100.639 93.0217 101.602 95.5962 103.771C90.9749 112.01 88.042 116.785 86.7985 118.097C85.5549 119.409 80.4259 117.749 71.4102 113.117Z" fill="#BF9786"/>
<path d="M72.3296 161.121C72.0563 162.137 71.7764 163.059 71.4954 163.811C71.4943 163.809 71.4943 163.809 71.4943 163.809L69.2993 150.666C69.6688 151.498 70.6789 154.981 72.3296 161.121Z" fill="#181929"/>
<path d="M75.7681 117.366L69.4165 112.159C71.0993 113.064 75.2349 114.959 75.7526 115.195C75.7471 115.918 75.7526 116.643 75.7681 117.366Z" fill="#8F5C28"/>
<path d="M74.4848 100.937C74.4671 101.128 74.4439 101.346 74.424 101.585C74.4118 101.726 74.4008 101.876 74.3853 102.029C72.281 101.888 70.6535 100.204 70.554 100.102C71.1248 100.557 72.4348 100.835 74.4848 100.937Z" fill="#A77860"/>
<path d="M49.6607 114.25H55.6472L53.8151 110.435H47.8286L49.6607 114.25Z" fill="url(#paint0_linear_313_12346)"/>
<path d="M46.8605 114.25H48.2865L46.4544 110.435H45.0283L46.8605 114.25Z" fill="url(#paint1_linear_313_12346)"/>
</g>
<defs>
<linearGradient id="paint0_linear_313_12346" x1="47.8291" y1="110.213" x2="55.6473" y2="110.213" gradientUnits="userSpaceOnUse">
<stop stop-color="#C5D6DE"/>
<stop offset="1" stop-color="#E5EAF5"/>
</linearGradient>
<linearGradient id="paint1_linear_313_12346" x1="45.028" y1="110.213" x2="48.2865" y2="110.213" gradientUnits="userSpaceOnUse">
<stop stop-color="#C5D6DE"/>
<stop offset="1" stop-color="#E5EAF5"/>
</linearGradient>
<clipPath id="clip0_313_12346">
<rect width="165.732" height="183.801" fill="white" transform="translate(3.11426 14.3301)"/>
</clipPath>
</defs>
</svg>
