<svg width="227" height="196" viewBox="0 0 227 196" fill="none" xmlns="http://www.w3.org/2000/svg">
<ellipse cx="111.933" cy="97.9198" rx="100.645" ry="97.1961" fill="#656565"/>
<g clip-path="url(#clip0_313_12796)">
<path d="M23.1799 168.611C23.6948 165.226 27.2357 163.077 33.8018 162.166C43.6522 160.8 52.8114 149.846 69.0561 151.437C85.2998 153.026 98.7794 163.002 117.27 159.945C135.761 156.888 147.339 160.785 151.486 163.857C155.634 166.93 172.798 163.136 174.067 168.766L23.1799 168.611Z" fill="#F6F4F4"/>
<path d="M63.6709 47.6073C56.2596 47.2431 54.5198 58.3999 58.4513 81.0768C61.0966 88.7747 60.7492 95.1035 57.4099 100.065H131.138V47.6073H63.6709Z" fill="#AFCDFB"/>
<path d="M115.494 63.1651C112.527 67.9958 112.015 73.2684 113.957 78.9828L115.147 78.6241C114.183 72.2943 114.466 67.5088 115.997 64.2648C117.528 61.0218 117.361 60.6549 115.494 63.1651Z" fill="#6BB7BF"/>
<path d="M68.3467 67.7402V168.519H145.321V67.7402H68.3467Z" fill="#9ABCEF"/>
<path d="M70.8633 67.7402V168.519H146.544V67.7402H70.8633Z" fill="#E9F3FE"/>
<path d="M146.545 67.7396C146.544 67.7396 146.544 67.7405 146.544 67.7405H70.8631C71.2817 61.9954 70.6507 57.8225 69.6399 54.8225C68.3465 50.9768 66.5842 48.5714 64.3538 47.6063H135.728C141.82 47.6063 146.544 51.2912 147.83 56.1806C147.878 56.365 147.922 56.5484 147.961 56.7309C149.182 62.3261 146.595 67.6375 146.545 67.7396Z" fill="#E9F3FE"/>
<path d="M146.544 67.7393C146.543 67.7393 146.543 67.7402 146.543 67.7402H70.8624C71.2809 61.9951 70.6499 57.8222 69.6392 54.8223C77.3735 56.2445 96.529 59.2743 117.033 58.7638C130.297 58.4331 140.78 57.5421 147.96 56.7307C149.181 62.3258 146.594 67.6372 146.544 67.7393Z" fill="#D8E8FD"/>
<path d="M142.315 81.1243H75.6113V77.2939H142.315V81.1243Z" fill="#A8C3F7"/>
<path d="M142.315 102.426H75.6113V100.669H142.315V102.426Z" fill="#A8C3F7"/>
<path d="M142.315 106.56H75.6113V104.803H142.315V106.56Z" fill="#A8C3F7"/>
<path d="M142.315 110.693H75.6113V108.936H142.315V110.693Z" fill="#A8C3F7"/>
<path d="M142.315 114.827H75.6113V113.07H142.315V114.827Z" fill="#A8C3F7"/>
<path d="M142.315 118.961H75.6113V117.203H142.315V118.961Z" fill="#A8C3F7"/>
<path d="M142.315 123.095H75.6113V121.338H142.315V123.095Z" fill="#A8C3F7"/>
<path d="M95.1443 145.345C95.1443 148.198 92.8401 150.512 89.9977 150.512C87.1543 150.512 84.8501 148.198 84.8501 145.345C84.8501 142.491 87.1543 140.178 89.9977 140.178C92.8401 140.178 95.1443 142.491 95.1443 145.345Z" fill="#A8C3F7"/>
<path d="M116.693 150.312C116.679 150.312 116.665 150.311 116.649 150.308C116.51 150.285 116.415 150.151 116.44 150.01C116.487 149.727 117.658 143.043 121.351 140.767C121.614 140.606 121.78 140.69 121.854 140.754C122.179 141.033 121.932 141.742 120.82 144.419C120.377 145.486 119.852 146.751 119.636 147.52C120.029 147.002 120.618 146.116 121.085 145.411C122.546 143.209 122.83 142.85 123.115 142.85C123.221 142.85 123.315 142.9 123.376 142.986C123.53 143.209 123.413 143.583 123.009 144.68C122.855 145.1 122.618 145.744 122.549 146.09C122.759 145.901 123.068 145.498 123.253 145.255C123.758 144.594 124.016 144.278 124.318 144.326C124.381 144.336 124.535 144.381 124.609 144.586C124.639 144.67 124.654 144.767 124.669 144.869C124.709 145.133 124.754 145.433 125.07 145.612C125.712 145.976 127.56 145.955 132.721 143.794C132.852 143.74 133.003 143.802 133.058 143.934C133.112 144.065 133.05 144.216 132.919 144.271C128.561 146.095 125.911 146.681 124.818 146.063C124.286 145.762 124.206 145.258 124.161 144.953C124.015 145.108 123.81 145.375 123.661 145.57C123.103 146.3 122.736 146.739 122.361 146.708C122.246 146.699 122.15 146.64 122.088 146.542C121.909 146.259 122.085 145.703 122.527 144.501C122.597 144.308 122.679 144.088 122.749 143.883C122.392 144.373 121.907 145.105 121.513 145.697C119.877 148.162 119.581 148.52 119.251 148.43C119.201 148.416 119.035 148.353 119.021 148.114C118.989 147.536 119.524 146.197 120.345 144.22C120.763 143.215 121.309 141.899 121.444 141.321C118.085 143.587 116.958 150.031 116.946 150.097C116.925 150.224 116.817 150.312 116.693 150.312Z" fill="#A8C3F7"/>
<path d="M59.3224 67.0064L59.3188 67.779C59.4583 69.3892 58.5402 70.3118 56.5654 70.5468C53.6024 70.901 51.173 70.854 51.2531 68.9907C51.5205 67.5477 51.9984 65.3067 52.0182 64.1131C52.0254 63.6694 51.9948 63.1986 51.9129 62.6664L57.6536 62.5516L59.3449 62.829L59.3224 67.0064Z" fill="#FFB27D"/>
<path d="M59.345 62.829L59.3225 67.0064C58.7132 67.291 58.0246 67.4654 57.2532 67.4654C54.6151 67.4654 52.9095 65.5227 52.0184 64.1131C52.0256 63.6694 51.995 63.1986 51.9131 62.6664L57.6538 62.5516L59.345 62.829Z" fill="#E2915A"/>
<path d="M51.4731 61.7395C52.1392 65.3386 56.7647 65.2202 58.7638 64.9943C59.1391 64.9518 59.4442 64.9066 59.68 64.8587C60.3146 64.6889 60.6683 63.6859 60.833 62.372C61.1589 59.7723 60.7466 55.9555 60.3092 54.9787C59.6512 53.5104 58.4109 51.9218 53.753 53.0676C49.0933 54.2152 50.6189 57.1284 51.4731 61.7395Z" fill="#FFB27D"/>
<path d="M47.6885 168.291H54.2428C54.1942 167.945 54.0268 166.895 53.7199 165.929C53.6137 165.592 53.4895 165.264 53.3491 164.981C52.9242 164.129 51.3617 163.974 48.6624 164.516C48.4121 164.731 48.1889 165.251 47.9927 166.075C47.8631 166.619 47.7479 167.342 47.6885 168.291Z" fill="#233862"/>
<path d="M67.4949 166.213C67.5129 167.109 67.6245 167.956 67.9485 168.29H80.9133C80.7486 167.819 80.2814 167.111 78.9502 166.894C77.4381 166.648 75.0808 165.917 73.7045 164.456C73.214 163.937 72.8486 163.325 72.6883 162.61C72.2815 160.792 70.6011 161.071 67.6452 163.445C67.5255 164.402 67.476 165.325 67.4949 166.213Z" fill="#233862"/>
<path d="M58.8715 136.742C59.0524 137.741 59.1667 138.559 59.1973 139.147C59.6096 147.218 65.9641 165.671 67.1009 166.101C68.8597 166.768 71.6292 165.351 73.0784 164.888C73.6787 164.695 74.0847 164.087 73.9505 163.471C70.8039 148.946 69.6473 128.03 69.226 115.647C69.0847 111.49 68.6581 107.975 67.947 105.102C57.6141 102.335 52.4161 102.701 52.3549 106.202C52.2739 110.85 57.4899 129.076 58.8715 136.742Z" fill="#492D21"/>
<path d="M58.8715 136.742L69.226 115.647C69.0847 111.49 68.6581 107.975 67.947 105.102C57.6141 102.335 52.4161 102.701 52.3549 106.202C52.2739 110.85 57.4899 129.076 58.8715 136.742Z" fill="#553426"/>
<path d="M62.3207 106.222L54.1264 165.841C51.7277 166.422 49.5954 166.48 47.7296 166.015C46.1301 144.876 45.3975 131.751 45.5307 126.641C45.7305 118.975 43.8088 106.129 45.969 104.712C47.4091 103.768 52.86 104.271 62.3207 106.222Z" fill="#492D21"/>
<path d="M61.7384 51.5542C60.372 51.4485 58.8824 51.0437 57.2704 50.3398C55.3073 49.4831 52.8312 50.4265 52.0274 50.8521C52.049 50.722 52.1003 50.544 52.2227 50.366C51.9824 50.5376 51.8447 50.7428 51.8087 50.9822C51.7718 51.0102 51.7556 51.0283 51.7646 51.0355C51.4919 50.9849 51.2678 50.9994 51.0931 51.0789C51.2156 51.0608 51.2984 51.0916 51.3425 51.1711C51.3497 51.1837 51.3596 51.1946 51.3722 51.2036C48.3101 52.6891 48.0275 57.5469 49.0131 58.671C49.8033 59.5728 50.6719 61.0385 51.6197 63.0689C51.9653 62.5891 52.0661 61.9529 51.9221 61.1595C51.707 59.9695 52.7304 59.9695 54.0238 59.4282C55.3172 58.887 54.2398 57.3725 55.3712 56.4527C56.5026 55.5337 60.652 56.074 60.598 55.371C62.138 54.8081 61.7384 51.7123 61.7384 51.5542Z" fill="#233862"/>
<path d="M50.5549 70.0262L52.4415 110.662C62.9382 110.835 68.0363 109.728 67.7365 107.343C67.4368 104.959 65.5457 92.9345 62.0615 71.2705L50.5549 70.0262Z" fill="#E9F3FE"/>
<path d="M44.9329 93.0601C45.8699 95.8812 44.1039 105.347 43.4739 108.554C43.382 109.007 43.3055 109.367 43.2434 109.634C44.698 112.008 48.0868 113.18 53.4107 113.149C54.4341 108.606 55.2118 102.716 55.7446 95.4809L49.6169 68.5145L41.9077 75.6693C42.2965 78.578 42.7322 81.512 43.2128 84.4722C43.7817 87.9872 44.4261 91.5646 44.9329 93.0601Z" fill="#BF9786"/>
<path d="M58.0359 62.3315C58.1358 62.6405 58.575 62.739 59.3527 62.6261C60.0062 62.5312 60.3086 62.3116 60.26 61.9664C59.6029 61.7721 58.8622 61.8932 58.0359 62.3315Z" fill="white"/>
<path fill-rule="evenodd" clip-rule="evenodd" d="M66.887 70.6063C66.8879 70.6108 66.8888 70.6163 66.8897 70.6235C67.2624 70.9858 77.7735 81.2309 79.8095 85.2438C81.192 87.9574 78.0336 92.0173 70.3343 97.4236C69.8393 97.6206 69.419 97.6802 69.0751 97.6034C69.6197 102.104 70.2317 106.256 69.869 108.029C69.2146 111.233 66.2624 112.309 66.2624 112.063C66.2624 111.984 65.5018 100.38 64.5963 94.3865C63.257 85.5176 61.7881 76.9216 60.1904 68.5985C62.482 68.8371 64.7142 69.5066 66.887 70.6063ZM73.1453 87.0014C73.1606 86.986 73.1606 86.9553 73.1606 86.9399C73.1606 86.3544 70.9329 85.0586 68.5225 83.5324C68.5018 83.5125 68.4865 83.4963 68.4757 83.4863C68.4748 83.4854 68.473 83.4836 68.4712 83.4827C68.5144 84.7297 68.5099 85.9532 68.4361 87.0926C68.2993 89.2044 68.4523 91.729 68.7061 94.2998C69.8546 92.5007 72.9203 87.6646 73.1453 87.0014Z" fill="#DFCBC2"/>
<path d="M50.1086 68.4673C50.096 68.2089 50.699 67.9007 51.9187 67.5438C53.3156 69.4866 55.1634 70.4751 57.464 70.5086C56.8079 71.7899 56.0941 72.5959 55.3219 72.9275C51.9223 71.489 50.1842 70.0025 50.1086 68.4673Z" fill="#D9E9F9"/>
<path d="M62.3093 97.9731C62.2247 98.9219 61.7918 99.8066 61.0924 100.453L59.9952 101.467C59.7198 101.723 59.286 101.688 59.0537 101.392L57.6937 99.6584C57.3292 99.193 57.1582 98.6048 57.214 98.0156C57.3409 96.7036 57.5776 94.1762 57.7675 91.7355C57.9223 89.7593 58.0456 87.8383 58.0555 86.6699C58.0753 84.1832 57.8395 78.9748 57.3481 71.0438L58.2383 71.0908C59.7135 74.1694 60.8368 77.8028 61.6091 81.991C61.8953 83.538 62.1158 85.1844 62.2256 86.8886C62.5352 91.4184 62.5631 95.1132 62.3093 97.9731Z" fill="#E9A788"/>
<path d="M62.3093 97.9731C62.2247 98.9219 61.7918 99.8065 61.0924 100.453L59.9952 101.467C59.7198 101.723 59.286 101.688 59.0537 101.392L57.6937 99.6583C57.3292 99.193 57.1582 98.6047 57.214 98.0156C57.3409 96.7035 57.5776 94.1761 57.7675 91.7355C60.2292 88.9596 61.2265 85.122 61.6091 81.991C61.8953 83.5379 62.1158 85.1843 62.2256 86.8885C62.5352 91.4183 62.5631 95.1132 62.3093 97.9731Z" fill="#EEA886"/>
<path d="M57.4639 70.4402C58.6826 69.7146 59.2937 68.9592 59.2973 68.1731C60.0849 68.0737 60.6501 68.2164 60.994 68.5996C61.2829 69.9468 61.2361 71.0122 60.8527 71.7947C59.0975 71.5263 57.9679 71.0745 57.4639 70.4402Z" fill="#D9E9F9"/>
<path d="M56.2225 70.2652L58.7013 69.6688C58.9174 69.6878 59.0218 69.8324 59.0164 70.1026C59.0074 70.5083 58.3179 71.692 58.0128 71.7869C57.7076 71.8818 55.6365 71.0857 56.2225 70.2652Z" fill="#EEA886"/>
<path d="M50.3973 68.2664C50.3838 68.008 50.7906 67.6122 51.616 67.08C53.2145 68.9549 55.1632 69.9091 57.4638 69.9426C56.8077 71.223 56.0939 72.0299 55.3216 72.3615C52.1147 71.1669 50.4729 69.8016 50.3973 68.2664Z" fill="#E9F3FE"/>
<path d="M57.4639 69.9424C58.6961 69.2864 59.3144 68.5653 59.3189 67.7792C60.0624 68.1081 60.606 68.4641 60.9499 68.8472C61.2685 69.6975 61.2361 70.5144 60.8527 71.2969C59.0975 71.0286 57.9679 70.5768 57.4639 69.9424Z" fill="#E9F3FE"/>
<path d="M71.0697 98.0827C71.0697 97.0472 70.1624 96.2159 69.1426 96.3713C68.8591 96.4147 68.6035 96.5321 68.4271 96.768C67.725 97.7059 67.0572 100.436 68.3011 100.563C68.8069 100.616 69.4577 100.259 69.9581 99.8764C70.4676 99.4878 71.0697 98.8806 71.0697 98.2391V98.0827Z" fill="#FFB27D"/>
<path d="M43.4744 108.555C45.7327 106.196 49.6327 101.555 49.495 97.7465C49.3717 94.1908 47.2781 89.7659 43.2134 84.4725C43.7822 87.9876 44.4267 91.5649 44.9334 93.0604C45.8704 95.8815 44.1045 105.348 43.4744 108.555Z" fill="#BF9786"/>
<path d="M43.5453 99.2762C44.6272 99.8193 45.4967 99.9548 46.1537 99.6829C47.1393 99.2762 48.2977 98.9699 49.3994 100.229C50.5002 101.487 50.7324 102.36 50.5002 102.826C50.2689 103.291 47.701 103.117 47.2752 102.826C46.8495 102.535 46.1753 101.818 45.7478 101.943C44.5687 102.287 43.575 101.384 43.0196 100.665C42.6839 100.23 43.5894 100.021 43.5453 99.2762Z" fill="#FFB27D"/>
<path d="M49.617 68.5145C45.3083 68.9934 42.645 70.1754 41.6288 72.0594C40.104 74.885 32.177 86.3382 32.4372 91.0975C32.61 94.2709 36.2148 97.636 43.2498 101.194C44.8088 100.533 45.599 99.8471 45.6224 99.1359C45.6575 98.0688 38.3264 91.6929 38.771 90.5029C39.2157 89.3128 47.2876 79.9018 48.067 76.7988C48.5864 74.7295 49.103 71.9681 49.617 68.5145Z" fill="#BF9786"/>
<path d="M68.4752 83.4863C68.486 83.4962 68.5013 83.5125 68.522 83.5324C70.9324 85.0586 73.1601 86.3543 73.1601 86.9399C73.4823 85.907 70.3491 81.5896 69.3357 80.7113C68.6498 80.1149 68.3627 81.0402 68.4752 83.4863Z" fill="#233862"/>
<path d="M51.6157 67.08C54.8875 80.8356 56.2628 90.3045 55.7426 95.4866C54.5392 89.9493 52.4906 84.9126 49.5959 80.3765C50.6526 79.444 51.1522 78.8061 51.0946 78.4618C50.3106 78.2287 49.5383 78.1907 48.7769 78.3479C48.8615 72.4185 49.1405 69.1402 49.6148 68.514C50.0892 67.8869 50.7561 67.4089 51.6157 67.08Z" fill="#906A5A"/>
<path d="M59.3193 67.7792C59.2527 67.8108 64.1824 87.9423 64.5965 94.3859C64.2688 86.7197 64.1212 81.7824 64.1536 79.573C62.7945 78.8511 62.1149 78.3631 62.1149 78.1101C62.1149 77.8562 62.8404 77.3872 64.2895 76.7023C63.3714 71.9809 62.6622 69.3605 62.1617 68.84C61.6604 68.3204 60.7126 67.9662 59.3193 67.7792Z" fill="#906A5A"/>
<path d="M16.2487 168.371L30.4726 168.355C32.3241 168.353 33.8371 166.831 33.8353 164.972L33.8281 158.784C33.8254 156.925 32.3097 155.406 30.4582 155.408L16.2343 155.425C14.3828 155.427 12.8698 156.95 12.8716 158.808L12.8788 164.996C12.8815 166.855 14.3981 168.374 16.2487 168.371Z" fill="#E3B846"/>
<path fill-rule="evenodd" clip-rule="evenodd" d="M31.9525 158.7L31.9597 164.959C31.9606 166.171 31.3215 167.24 30.3629 167.841C30.0461 168.041 29.6933 168.189 29.317 168.273C29.3161 168.273 29.3161 168.273 29.3152 168.273H29.3143C29.0794 168.327 28.8355 168.356 28.5853 168.356L14.3865 168.371C12.5288 168.374 11.0067 166.849 11.0049 164.984L10.9968 158.724C10.995 156.858 12.5135 155.33 14.3712 155.328L19.2605 155.323L19.2587 153.987C19.2578 153.37 19.7582 152.868 20.3721 152.867L20.9076 152.866L23.8824 152.862H24.6204C24.9175 152.861 25.1983 152.978 25.4089 153.189C25.6204 153.401 25.7365 153.682 25.7365 153.98L25.7383 155.316L28.5709 155.311C28.6825 155.311 28.7932 155.317 28.9012 155.327C28.9021 155.328 28.903 155.328 28.9039 155.328L28.9048 155.327C30.0146 155.437 30.9714 156.092 31.5042 157.02V157.021C31.7887 157.516 31.9516 158.089 31.9525 158.7ZM19.9589 155.321L25.0399 155.316L25.0381 153.98C25.0381 153.751 24.8508 153.564 24.6213 153.564L23.3459 153.565L21.0048 153.567L20.373 153.568C20.3298 153.569 20.2892 153.575 20.2496 153.588C20.0804 153.64 19.9571 153.799 19.9571 153.986L19.9589 155.321Z" fill="#FCCC4F"/>
<path d="M145.771 75.6768C146.406 76.9626 147.426 78.4247 148.367 78.7156C149.079 78.9361 149.599 79.2379 149.926 79.6201L150.701 79.0527L151.626 78.3741C151.603 78.3027 151.57 78.2087 151.525 78.093C151.459 77.9196 151.359 77.6792 151.23 77.4144C151.002 77.1759 150.933 76.8867 151.022 76.5461C151.156 76.0373 151.041 75.2846 150.676 74.8563C150.311 74.428 149.888 73.3238 149.702 73.378C149.249 73.5054 150.099 74.9955 149.932 75.3054C149.781 75.5864 149.548 75.5196 149.505 75.5042C149.502 75.5033 149.5 75.5024 149.497 75.5006C148.144 75.066 146.256 72.1536 145.605 72.6416C145.362 72.8241 145.501 75.1292 145.771 75.6768Z" fill="#FFB27D"/>
<path d="M172.111 72.4706C167.906 78.9377 164.858 83.1205 162.966 85.0208L151.46 77.4639C150.416 77.857 149.694 78.6043 149.293 79.7058C154.304 88.5412 159.014 93.0177 163.423 93.1333C167.833 93.249 172.769 87.465 178.233 75.7796L172.111 72.4706Z" fill="#FCCC4F"/>
<path d="M194.668 168.609H199.456C200.059 168.28 200.595 167.527 200.765 166.406C200.999 164.857 202.728 164.013 203.102 162.746C203.351 161.902 202.837 160.886 201.56 159.697L201.24 159.283L200.906 158.852L197.729 159.603C197.675 160.11 197.633 160.686 197.602 161.331C197.567 162.029 197.549 162.836 197.588 163.544C197.682 165.233 197.117 167.052 195.622 167.381C194.517 167.623 194.567 168.282 194.668 168.609Z" fill="#233862"/>
<path d="M166.881 168.608H177.831C178.357 167.963 178.164 165.582 178.084 164.805C178.073 164.7 178.064 164.618 178.056 164.556C175.564 162.555 174.146 162.321 173.804 163.853C173.788 163.926 173.769 163.996 173.748 164.066C173.101 166.215 170.199 167.193 168.523 167.465C167.433 167.642 167.031 168.211 166.881 168.608Z" fill="#233862"/>
<path d="M168.967 107.249C169.346 111.99 169.758 117.21 170.202 122.909C171.109 134.521 172.2 148.785 172.308 151.486C172.433 154.615 172.744 158.68 173.243 163.684C174.426 164.872 176.202 165.217 178.57 164.715C180.68 157.573 182.037 150.222 182.639 142.665C182.654 142.479 182.667 142.292 182.682 142.105C183.242 134.412 183.959 122.464 184.831 106.265L168.967 107.249Z" fill="#492D21"/>
<path d="M168.967 107.249C169.346 111.99 169.758 117.21 170.202 122.909L182.639 142.665C182.654 142.479 182.667 142.292 182.682 142.105C183.242 134.412 183.959 122.464 184.831 106.265L168.967 107.249Z" fill="#40281D"/>
<path d="M171.561 108.094C178.382 125.264 184.037 137.883 188.523 145.951C193.009 154.02 195.953 159.181 197.354 161.433C199.925 160.401 201.326 159.532 201.56 158.829C199.845 143.251 197.485 133.565 194.481 129.768C191.935 126.549 188.944 116.89 188.804 113.513C188.71 111.261 188.406 107.907 187.892 103.45L171.561 108.094Z" fill="#492D21"/>
<path d="M174.108 70.5495C176.774 71.3935 180.413 70.676 185.026 68.3971C182.568 66.5447 181.404 63.6938 181.532 59.8427L178.44 62.3447L176.34 64.0435C176.345 64.7113 176.425 65.6303 176.578 66.8004C176.639 67.2622 176.714 67.7772 176.81 68.3402C175.665 68.9709 174.765 69.7073 174.108 70.5495Z" fill="#FFB27D"/>
<path d="M176.34 64.0435C176.346 64.7112 176.426 65.6302 176.579 66.8004C178.13 66.5338 179.786 65.1414 181.545 62.6239C180.361 62.2796 179.323 62.2182 178.44 62.3447L176.34 64.0435Z" fill="#ED975D"/>
<path d="M175.117 63.9489C179.521 64.6836 181.929 63.6706 182.343 60.9101C182.963 56.7698 184.233 54.124 180.042 53.2457C175.851 52.3674 174.793 53.8231 174.252 55.1541C173.71 56.4852 173.415 63.555 175.117 63.9489Z" fill="#FFB27D"/>
<path d="M168.526 107.842C168.647 107.943 168.786 108.003 168.947 108.003C170.448 107.983 174.828 108.82 178.533 108.438C181.657 108.136 184.422 107.208 187.39 105.872C187.784 105.694 188.692 105.208 188.672 104.766C188.658 104.281 188.611 103.579 188.55 102.694C188.341 99.6172 187.974 94.3248 188.331 88.22C188.396 87.0833 188.429 85.9556 188.433 84.8451C188.464 76.5707 186.829 69.2931 183.545 66.8299C183.265 66.6284 181.542 67.4732 179.96 68.2567C178.498 68.9804 177.037 69.0609 175.655 68.7798L174.274 70.006C172.592 71.5738 170.75 73.7054 169.948 76.9412C169.267 79.6954 168.867 84.6625 168.647 89.8086C168.547 92.1408 168.466 94.4929 168.445 96.7248V96.8043C168.426 97.0257 168.426 97.2678 168.426 97.4883C168.345 103.218 168.426 107.761 168.526 107.842Z" fill="#FCCC4F"/>
<path d="M188.551 102.693C188.341 99.6166 187.975 94.3242 188.331 88.2194C188.396 87.0827 188.429 85.955 188.434 84.8445C187.521 82.6234 186.693 80.7078 185.947 79.0975H182.498C180.814 90.6538 182.831 98.5188 188.551 102.693Z" fill="#ED7D2B"/>
<path d="M182.348 60.5116C181.896 60.4357 181.707 60.0851 181.779 59.4607C181.889 58.5237 181.887 57.2984 181.129 57.527C180.369 57.7547 180.331 58.3646 180.02 58.0086C179.707 57.6526 179.702 56.1517 177.444 56.0469C175.185 55.9421 174.266 56.7318 173.217 56.2683C172.517 55.9592 172.148 55.2725 172.111 54.2081C172.31 54.5885 172.56 54.8388 172.861 54.959C171.692 53.3551 171.785 52.0033 173.137 50.9036C175.166 49.2536 177.235 50.3334 178.409 50.4048C180.995 50.562 182.667 50.7183 183.512 52.4243C184.356 54.1313 184.008 58.8689 182.348 60.5116Z" fill="#233862"/>
<path d="M117.625 52.6327L123.831 56.4848L124.526 55.3553L118.319 51.5032C118.009 51.3107 117.601 51.4074 117.409 51.7191C117.218 52.0309 117.314 52.4402 117.625 52.6327Z" fill="#233862"/>
<path d="M184.087 87.8953L182.422 91.9245L182.455 91.9452L182.376 92.0374L182.329 92.1495L182.297 92.1287L179.451 95.425C151.019 77.792 131.464 64.4494 120.783 55.3971C120.27 54.9615 120.153 54.2142 120.506 53.6404C120.859 53.0676 121.577 52.838 122.194 53.1046C135.034 58.6491 155.665 70.246 184.087 87.8953Z" fill="#BF9786"/>
<path d="M121.432 53.0145C121.505 53.2585 121.647 53.4844 121.853 53.6588C132.533 62.7111 152.089 76.0547 180.52 93.6877L182.77 91.0808L182.422 91.9238L182.455 91.9446L182.376 92.0368L182.329 92.1488L182.297 92.128L179.451 95.4244C151.019 77.7914 131.464 64.4488 120.783 55.3964C120.27 54.9609 120.153 54.2136 120.506 53.6398C120.717 53.2974 121.059 53.0787 121.432 53.0145Z" fill="#BF9786"/>
<path d="M223.941 120.154L216.56 115.573L218.627 112.215L226.01 116.796C226.933 117.369 227.219 118.585 226.648 119.512C226.077 120.44 224.865 120.727 223.941 120.154Z" fill="#492D21"/>
<path d="M178.265 95.7955L211.788 116.599C214.298 118.157 217.592 117.377 219.145 114.856C220.697 112.335 219.92 109.029 217.409 107.47L183.886 86.6663C183.454 86.398 182.887 86.5326 182.62 86.9663L177.966 94.5232C177.699 94.9578 177.833 95.5271 178.265 95.7955Z" fill="#BF9786"/>
<path d="M219.596 113.936C219.477 114.25 219.328 114.558 219.145 114.856C217.592 117.377 214.298 118.157 211.788 116.599L178.265 95.795C177.833 95.5267 177.699 94.9574 177.966 94.5227L178.552 93.5721L212.857 114.862C215.072 116.236 217.896 115.79 219.596 113.936Z" fill="#BF9786"/>
<path d="M188.558 88.3027L191.872 90.4181C192.203 91.572 193.139 92.7801 194.505 93.6521C195.871 94.5241 197.358 94.8629 198.539 94.6759L218.337 107.316C221.097 109.078 221.914 112.767 220.158 115.538L218.264 118.529C217.962 119.005 218.103 119.636 218.576 119.939C219.05 120.241 219.679 120.101 219.98 119.625L221.875 116.634C224.233 112.912 223.135 107.96 219.428 105.593L189.65 86.5796C189.176 86.2769 188.548 86.4169 188.246 86.8931C187.945 87.3684 188.084 88 188.558 88.3027Z" fill="#492D21"/>
<path d="M178.481 95.0233L178.551 93.5721L182.611 86.9794L176.902 93.4049L178.481 95.0233Z" fill="#BF9786"/>
<path d="M195.239 104.977C195.235 104.899 195.23 104.817 195.224 104.734C195.203 104.46 194.935 103.978 194.42 103.289L196.356 102.28L197.123 103.552C198.282 104.477 198.302 104.494 198.092 106.265C197.909 107.8 198.909 107.818 198.885 108.914C198.869 109.645 198.392 109.832 197.455 109.472C195.274 108.445 195.093 107.927 195.16 106.885C194.953 107.18 194.722 107.351 194.525 107.223C194.352 107.11 194.698 106.661 194.848 105.622C194.87 105.466 195.054 105.206 195.239 104.977Z" fill="#FFB27D"/>
<path d="M196.384 104.081C195.557 104.242 194.694 104.291 193.797 104.225C191.339 96.6033 189.952 92.4449 189.636 91.7482C189.32 91.0525 185.67 86.5841 178.687 78.3432L183.051 67.3798C190.604 80.0465 194.763 87.2691 195.531 89.0492C196.798 91.9904 197.652 96.7578 198.092 103.351C197.604 103.71 197.035 103.953 196.384 104.081Z" fill="#FCCC4F"/>
<path d="M145.496 74.0337C145.428 72.9096 145.613 72.3475 146.054 72.3475C146.494 72.3475 147.838 73.8032 150.086 76.7165L149.817 77.6562L145.496 74.0337Z" fill="#FFB27D"/>
</g>
<defs>
<clipPath id="clip0_313_12796">
<rect width="227" height="145.481" fill="white" transform="translate(0 23.2979)"/>
</clipPath>
</defs>
</svg>
