<svg width="224" height="193" viewBox="0 0 224 193" fill="none" xmlns="http://www.w3.org/2000/svg">
<ellipse cx="111.813" cy="96.5" rx="99.9242" ry="96.5" fill="#656565"/>
<path d="M221.159 52.2148H188.44C187.085 52.2148 185.986 51.1162 185.986 49.7608V42.3389C185.986 40.9835 187.085 39.8849 188.44 39.8849H221.159C222.515 39.8849 223.613 40.9835 223.613 42.3389V49.7608C223.613 51.1162 222.515 52.2148 221.159 52.2148Z" fill="#DAE5F9"/>
<path d="M189.448 47.7531L193.641 54.7482C193.908 55.1885 194.553 55.1711 194.792 54.7154L198.474 47.7531H189.448Z" fill="#DAE5F9"/>
<path d="M192.19 44.171H217.131" stroke="white" stroke-width="2.492" stroke-linecap="round" stroke-linejoin="round"/>
<path d="M192.189 47.797H200.731" stroke="white" stroke-width="2.492" stroke-linecap="round" stroke-linejoin="round"/>
<path d="M151.458 53.8757H128.452C126.251 53.8757 124.467 52.0917 124.467 49.8906V33.869C124.467 31.6679 126.251 29.8839 128.452 29.8839H151.458C153.659 29.8839 155.443 31.6679 155.443 33.869V49.8906C155.443 52.0917 153.659 53.8757 151.458 53.8757Z" fill="#492D21"/>
<path d="M134.137 48.8156L139.14 57.0291C139.456 57.5484 140.227 57.5272 140.513 56.9924L144.903 48.8156H134.137Z" fill="#492D21"/>
<path d="M140.516 36.0989L141.651 39.5897H145.321C145.893 39.5897 146.13 40.3196 145.667 40.6555L142.697 42.8141L143.833 46.305C144.008 46.8475 143.387 47.3013 142.925 46.9653L139.956 44.8067L136.986 46.9653C136.523 47.3013 135.901 46.8475 136.077 46.305L137.212 42.8141L134.242 40.6555C133.779 40.3196 134.017 39.5897 134.588 39.5897H138.26L139.394 36.0989C139.569 35.5544 140.34 35.5544 140.516 36.0989Z" fill="white"/>
<path d="M80.6484 38.7633C84.7224 45.4535 82.6004 54.1786 75.9103 58.2526C69.2202 62.3265 60.495 60.2046 56.4211 53.5144C52.3471 46.8243 54.4691 38.0991 61.1592 34.0252C67.8493 29.9513 76.5745 32.0732 80.6484 38.7633Z" fill="#FCCC4F"/>
<path d="M70.3 57.1942L77.0346 60.6715C77.4594 60.8916 77.9691 60.5634 77.944 60.0845L77.5462 52.7823L70.3 57.1942Z" fill="#ECB98E"/>
<path d="M74.6974 46.4746C74.6974 46.156 74.5815 45.8664 74.3865 45.6443C74.5159 45.4455 74.5912 45.2099 74.5912 44.955C74.5912 44.3275 74.1394 43.8024 73.5273 43.7058C73.4849 43.6942 73.4424 43.6904 73.3999 43.6904H73.3246H72.9925H70.7683C70.7992 43.5128 70.8358 43.312 70.8783 43.1092C71.0193 42.4373 71.0868 41.6283 70.5385 40.7112C70.1466 40.0605 69.6214 39.964 69.3414 39.964C69.0422 39.964 68.8201 40.0702 68.7796 40.0914C68.5923 40.1899 68.4861 40.3907 68.5093 40.5992C68.5904 41.2885 68.6579 42.138 68.6386 42.335C68.5826 42.5242 68.181 43.2579 67.9397 43.6981C67.6346 44.2542 67.372 44.7349 67.2697 45.0014V45.0033C67.2504 45.0516 67.2427 45.1037 67.2427 45.1578V49.8573C67.2427 50.1044 67.4222 50.2724 67.6288 50.4056C67.9069 50.589 68.2679 50.5581 68.3162 50.5581H71.946H72.2588H72.2646C72.8805 50.5581 73.4231 50.1218 73.5254 49.5136C73.5524 49.3591 73.5505 49.2066 73.5235 49.0599C73.9309 48.8494 74.2108 48.4227 74.2108 47.9342C74.2108 47.7913 74.1857 47.6523 74.1413 47.523C74.4773 47.2951 74.6974 46.909 74.6974 46.4746Z" fill="white"/>
<path d="M63.9149 50.5599H66.0677C66.3534 50.5599 66.5871 50.3282 66.5871 50.0405V45.1962C66.5871 44.9086 66.3534 44.6749 66.0677 44.6749H63.9149C63.6272 44.6749 63.3936 44.9086 63.3936 45.1962V50.0405C63.3936 50.3282 63.6272 50.5599 63.9149 50.5599Z" fill="white"/>
<path d="M151.73 145.941L145.963 142.429L153.24 133.748L159.007 137.26L151.73 145.941Z" fill="white"/>
<path d="M157.62 149.232C155.765 148.089 153.502 148.877 150.832 151.594C148.163 154.31 148.163 154.31 150.832 151.594L157.205 155.474C158.456 152.561 158.595 150.481 157.62 149.232Z" fill="white"/>
<path d="M146.221 140.129L153.958 144.84C153.363 146.008 153.831 147.176 155.358 148.343C157.65 150.092 158.217 152.204 157.352 154.062L142.014 144.722C142.937 143.4 144.339 141.869 146.221 140.129Z" fill="#492D21"/>
<path d="M156.684 155.159L141.348 145.818L142.014 144.723L157.352 154.062L156.684 155.159Z" fill="#070924"/>
<path d="M153.841 146.242C153.521 146.041 152.895 145.989 151.961 146.082" stroke="white" stroke-width="2.084" stroke-linecap="round" stroke-linejoin="round"/>
<path d="M154.554 147.661C153.942 147.333 153.321 147.288 152.689 147.528" stroke="white" stroke-width="2.084" stroke-linecap="round" stroke-linejoin="round"/>
<path d="M165.504 104.974L161.64 118.885L148.306 136.972L157.339 142.464L170.064 126.326C170.891 125.282 171.568 124.129 172.076 122.897L174.625 114.792L165.504 104.974Z" fill="#492D21"/>
<path d="M188.366 146.97L182.346 150.027L178.792 139.272L184.812 136.214L188.366 146.97Z" fill="white"/>
<path d="M194.266 143.692C192.318 144.669 191.796 147.007 192.704 150.707C193.609 154.406 193.609 154.406 192.704 150.707L199.357 147.328C197.537 144.731 195.839 143.518 194.266 143.692Z" fill="white"/>
<path d="M180.528 148.599L188.604 144.496C189.286 145.618 190.523 145.834 192.319 145.149C195.012 144.12 197.107 144.747 198.233 146.462L182.223 154.592C181.582 153.113 181.016 151.115 180.528 148.599Z" fill="#492D21"/>
<path d="M198.813 147.604L182.803 155.734L182.222 154.591L198.232 146.461L198.813 147.604Z" fill="#070924"/>
<path d="M189.734 145.331C189.396 145.497 189.02 146.003 188.609 146.847" stroke="white" stroke-width="2.084" stroke-linecap="round" stroke-linejoin="round"/>
<path d="M191.318 145.473C190.718 145.82 190.353 146.326 190.223 146.99" stroke="white" stroke-width="2.084" stroke-linecap="round" stroke-linejoin="round"/>
<path d="M178.492 145.59L166.218 113.973C163.112 108.864 163.04 104.509 166.006 100.906L174.648 99.8419C174.648 100.784 179.112 114.388 188.042 140.653L178.492 145.59Z" fill="#492D21"/>
<path d="M170.678 125.459L166.218 113.973" stroke="black" stroke-width="1.229" stroke-linecap="round" stroke-linejoin="round"/>
<path d="M174.494 90.0641L182.854 96.3526L190.494 89.6818" stroke="white" stroke-width="8" stroke-linecap="round" stroke-linejoin="round"/>
<path d="M195.076 82.432C194.087 83.9689 191.224 88.4657 190.384 89.7844C190.249 89.9987 189.98 90.0798 189.749 89.9833L185.671 88.2726C185.37 88.1471 185.258 87.7764 185.439 87.5061L190.312 80.231C190.451 80.0263 190.716 79.9471 190.944 80.0417L194.84 81.6752C195.137 81.8007 195.251 82.1617 195.076 82.432Z" fill="#070924"/>
<path d="M192.424 91.1017C191.019 92.1849 188.841 91.7833 187.759 90.3777C186.676 88.974 187.414 86.3347 188.819 85.2515C190.225 84.1683 192.654 85.2109 193.231 86.3598C194.027 87.9449 193.83 90.0186 192.424 91.1017Z" fill="white"/>
<path d="M172.3 92.661L176.208 96.1499L180.245 89.9328L174.866 85.1464C172.665 84.3703 170.532 85.0267 169.74 87.222C168.943 89.4308 170.09 91.8675 172.3 92.661Z" fill="#6B7DA9"/>
<path d="M174.493 84.4086C176.169 85.0187 178.658 90.1584 178.805 91.0446C179.193 93.4195 178.565 95.2248 176.917 96.4585L175.737 102.94L165.106 102.338L164.702 90.4905L163.187 87.2487C163.334 84.6769 165.876 83.4065 170.815 83.4412L174.493 84.4086Z" fill="#FCCC4F"/>
<path d="M167.178 88.6241C159.337 92.1478 153.726 96.9554 150.347 103.045" stroke="white" stroke-width="8" stroke-linecap="round" stroke-linejoin="round"/>
<path d="M152.194 103.436C152.462 103.532 152.623 103.818 152.58 104.125C152.459 105.007 152.264 105.872 151.999 106.716C151.922 107.112 151.58 107.401 151.205 107.392C150.798 107.38 150.499 107.023 150.536 106.59L150.611 105.695C149.947 105.276 149.999 104.351 150.767 102.924L152.194 103.436Z" fill="white"/>
<path d="M150.702 106.872L146.587 104.584C146.661 103.876 147.228 102.953 148.294 101.814C148.458 101.638 148.713 101.584 148.924 101.709L152.552 103.872L150.702 106.872Z" fill="white"/>
<path d="M150.971 106.206L149.753 108.652C149.567 108.996 149.168 109.137 148.851 108.969C148.55 108.809 148.43 108.419 148.579 108.075L149.633 105.447L150.971 106.206Z" fill="white"/>
<path d="M148.679 104.88L147.096 107.181C146.878 107.504 146.482 107.608 146.206 107.415C145.943 107.23 145.882 106.836 146.065 106.509L147.521 104.015L148.679 104.88Z" fill="white"/>
<path d="M147.947 104.266L146.317 105.895C146.058 106.133 145.715 106.156 145.543 105.948C145.379 105.747 145.429 105.403 145.661 105.158L147.236 103.343L147.947 104.266Z" fill="white"/>
<path d="M149.685 106.052L148.188 108.228C147.968 108.548 147.557 108.639 147.265 108.433C146.986 108.234 146.912 107.828 147.097 107.502L148.455 105.123L149.685 106.052Z" fill="white"/>
<path d="M164.575 84.857L159.52 88.0196L162.841 95.3778L168.981 92.1187C170.974 90.9023 171.611 88.3073 170.408 86.307C169.199 84.2932 166.585 83.6445 164.575 84.857Z" fill="#FCCC4F"/>
<path d="M164.832 94.3216L169.898 91.6339" stroke="black" stroke-width="1.229" stroke-linecap="round" stroke-linejoin="round"/>
<path d="M177.225 78.2073L180.508 78.0509C181.761 79.1708 182.261 80.9142 182.004 83.2852L176.581 82.1789L177.225 78.2073Z" fill="#805052"/>
<path d="M177.805 80.7561L174.755 86.2781L170.563 83.4804L174.979 75.6202L177.805 80.7561Z" fill="white"/>
<path d="M176.48 83.1331C176.511 83.079 176.351 82.0982 175.998 80.1925L177.509 81.293L176.48 83.1331Z" fill="#DAA5A4"/>
<path d="M181.284 70.6422C182.811 71.2292 183.416 72.5267 183.095 74.5347C182.848 75.9866 182.537 77.7571 182.162 79.8443C181.867 81.499 180.1 82.5319 178.565 81.8484C177.625 81.4295 176.61 80.7962 175.789 79.8462L174.677 78.2784C172.205 74.0404 176.312 68.9026 180.948 70.5187C181.058 70.5573 181.17 70.5978 181.284 70.6422Z" fill="white"/>
<path d="M182.205 77.5861L183.077 78.8353C183.197 79.0071 183.062 79.2388 182.853 79.2195L181.751 79.1133L182.205 77.5861Z" fill="white"/>
<path d="M181.555 75.2548C182.099 75.276 182.365 75.4111 182.358 75.6564C182.348 75.8205 182.107 75.89 181.634 75.8591C180.923 75.8166 180.742 75.7336 180.69 75.4922C180.639 75.2509 181.174 75.2065 181.555 75.2548Z" fill="#242233"/>
<path d="M181.421 77.1009C181.347 77.2807 181.428 77.4855 181.602 77.557C181.778 77.6286 181.979 77.5396 182.053 77.3599C182.126 77.1802 182.043 76.9753 181.869 76.9038C181.695 76.8323 181.494 76.9212 181.421 77.1009Z" fill="#242233"/>
<path d="M181.951 79.5641L180.482 79.2726C180.509 79.6665 180.745 79.8866 181.189 79.9348C181.641 79.9831 181.896 79.8595 181.951 79.5641Z" fill="white"/>
<path d="M177.031 75.3497C177.079 70.3239 178.991 69.2195 182.765 72.0384C181.829 68.9125 179.363 67.7734 175.363 68.6229C174.108 68.8894 172.407 70.2834 171.939 71.4785C171.184 73.4132 171.949 75.3536 173.088 78.8695L175.685 76.8615C175.836 76.5429 176.286 76.039 177.031 75.3497Z" fill="#805052"/>
<path d="M180.203 73.5771L177.028 76.5254L176.862 71.4532L180.203 73.5771Z" fill="#805052"/>
<path d="M176.204 76.9673L175.025 81.8618L168.383 80.128C169.532 78.7166 170.261 77.4114 170.578 76.2124C170.953 74.7894 170.893 71.3526 173.569 69.5763L173.797 74.1194L176.204 76.9673Z" fill="#805052"/>
<path d="M174.396 75.6857C174.145 76.5448 174.639 77.4427 175.498 77.6917C176.356 77.9408 177.253 77.4485 177.503 76.5893C177.754 75.732 177.259 74.8323 176.4 74.5832C175.543 74.3341 174.645 74.8284 174.396 75.6857Z" fill="white"/>
<path d="M176.549 76.6496C176.767 75.8985 176.501 75.4776 175.748 75.3868" stroke="black" stroke-width="1.311" stroke-linecap="round" stroke-linejoin="round"/>
<path d="M178.606 68.5187C182.317 68.9994 184.171 71.2005 184.169 75.1219L177.2 74.1044L178.606 68.5187Z" fill="#805052"/>
<path d="M129.605 150.673L123.197 150.667L122.04 140.042L128.446 140.046L129.605 150.673Z" fill="white"/>
<path d="M122.276 148.677L130.872 148.683C130.967 149.924 131.92 150.64 133.733 150.832C136.454 151.121 137.958 152.554 138.17 154.487L121.129 154.475C121.224 152.948 121.606 151.015 122.276 148.677Z" fill="#070924"/>
<path d="M138.171 155.705L121.13 155.691V154.475L138.171 154.486V155.705Z" fill="#492D21"/>
<path d="M131.47 149.876C131.111 149.872 130.576 150.137 129.866 150.674" stroke="white" stroke-width="1.978" stroke-linecap="round" stroke-linejoin="round"/>
<path d="M132.745 150.675C132.087 150.71 131.559 150.98 131.166 151.488" stroke="white" stroke-width="1.978" stroke-linecap="round" stroke-linejoin="round"/>
<path d="M124.663 102.199C128.677 125.162 128.694 125.1 130.553 145.254H119.189L116.781 122.231L124.663 102.199Z" fill="#492D21"/>
<path d="M107.999 148.094L101.975 145.914L106.547 135.525L112.573 137.706L107.999 148.094Z" fill="white"/>
<path d="M101.785 143.727L109.865 146.652C109.533 147.851 110.188 148.849 111.829 149.646C114.288 150.842 115.215 152.699 114.76 154.591L98.7361 148.791C99.3443 147.386 100.36 145.698 101.785 143.727Z" fill="#070924"/>
<path d="M114.346 155.734L98.3223 149.936L98.7374 148.791L114.761 154.591L114.346 155.734Z" fill="#6B7DAB"/>
<path d="M110.026 147.977C109.69 147.851 109.097 147.921 108.245 148.183" stroke="white" stroke-width="1.978" stroke-linecap="round" stroke-linejoin="round"/>
<path d="M110.954 149.163C110.323 148.972 109.736 149.048 109.194 149.391" stroke="white" stroke-width="1.978" stroke-linecap="round" stroke-linejoin="round"/>
<path d="M125.141 103.529C125.743 115.157 121.39 128.556 112.079 143.726L101.454 140.934C107.345 127.82 110.898 119.422 112.114 115.736C111.114 112.376 111.948 108.492 114.62 104.08L125.141 103.529Z" fill="#492D21"/>
<path d="M117.875 132.916C121.404 125.656 123.495 119.317 124.148 113.896" stroke="black" stroke-width="1.229" stroke-linecap="round" stroke-linejoin="round"/>
<path d="M124.462 91.8721L132.824 98.1607L136.819 90.6866" stroke="white" stroke-width="8" stroke-linecap="round" stroke-linejoin="round"/>
<path d="M137.928 92.2969C136.173 92.544 134.961 91.0669 134.714 89.3119C134.465 87.5549 135.998 85.879 137.753 85.6318C139.51 85.3828 141.108 87.4892 141.043 88.7713C140.952 90.5437 139.685 92.0478 137.928 92.2969Z" fill="white"/>
<path d="M137.441 88.4929C136.887 88.5721 136.371 88.1879 136.292 87.6338L135.375 81.3317L137.383 81.0402L138.3 87.3422C138.379 87.8963 137.995 88.4119 137.441 88.4929Z" fill="#6B7DA9"/>
<path d="M138.722 82.5835L134.83 83.1493L134.013 77.5326L137.905 76.9669L138.722 82.5835Z" fill="#7C8BBB"/>
<path d="M134.512 83.1953L134.829 83.149L134.012 77.5323L133.695 77.5768C132.145 77.8027 131.069 79.243 131.295 80.7954C131.521 82.3458 132.962 83.4212 134.512 83.1953Z" fill="#B2CBDA"/>
<path d="M144.921 75.9447L144.606 75.991L145.421 81.6096L145.738 81.5633C147.288 81.3374 148.364 79.897 148.138 78.3466C147.912 76.7942 146.472 75.7207 144.921 75.9447Z" fill="#ECB98E"/>
<path d="M138.721 82.5831L140.795 82.2819L147.445 84.5332L145.628 72.0392L139.922 76.673L137.905 76.9665L138.721 82.5831Z" fill="#B2CBDA"/>
<path d="M138.047 85.6105C138.205 86.406 137.504 87.0392 135.942 87.5104L136.815 89.3118L139.715 88.6244L139.501 86.3249L138.047 85.6105Z" fill="white"/>
<path d="M122.27 94.4686L126.178 97.9575L130.215 91.7404L124.834 86.9541C122.635 86.1779 120.501 86.8343 119.708 89.0296C118.912 91.2384 120.059 93.6751 122.27 94.4686Z" fill="#D7A175"/>
<path d="M119.653 83.4445C116.732 84.7207 114.875 86.134 114.079 87.6806C112.289 91.1656 114.162 96.6973 114.618 104.081L125.139 103.53L126.183 97.9368C127.459 95.9211 127.322 93.135 125.774 89.5747L124.121 85.4158L119.653 83.4445Z" fill="#ECB98E"/>
<path d="M117.809 88.9337C111.77 93.4093 107.966 99.7634 106.402 107.992" stroke="white" stroke-width="8" stroke-linecap="round" stroke-linejoin="round"/>
<path d="M114.51 86.8846L110.52 91.2521L116.605 97.3398L121.197 92.1209C122.631 90.2809 122.311 87.6261 120.478 86.1799C118.637 84.7241 115.962 85.0388 114.51 86.8846Z" fill="#ECB98E"/>
<path d="M121.887 91.3428L116.606 97.3398L115.316 96.05" stroke="black" stroke-width="1.229" stroke-linecap="round" stroke-linejoin="round"/>
<path d="M108.232 107.14C108.516 107.105 108.787 107.287 108.887 107.58C109.179 108.424 109.395 109.281 109.538 110.154C109.648 110.542 109.474 110.955 109.136 111.115C108.769 111.289 108.339 111.106 108.176 110.702L107.839 109.87C107.057 109.795 106.686 108.947 106.728 107.327L108.232 107.14Z" fill="white"/>
<path d="M108.457 110.878L103.751 110.695C103.496 110.03 103.587 108.949 104.024 107.451C104.091 107.221 104.294 107.059 104.537 107.074L108.752 107.366L108.457 110.878Z" fill="white"/>
<path d="M108.394 110.163L108.411 112.895C108.402 113.285 108.108 113.592 107.751 113.587C107.407 113.579 107.126 113.285 107.104 112.911L106.857 110.09L108.394 110.163Z" fill="white"/>
<path d="M105.75 110.015L105.376 112.782C105.325 113.168 105.02 113.44 104.688 113.392C104.368 113.347 104.136 113.023 104.154 112.648L104.325 109.766L105.75 110.015Z" fill="white"/>
<path d="M104.818 109.797L104.1 111.987C103.978 112.315 103.681 112.49 103.434 112.382C103.196 112.278 103.086 111.948 103.183 111.625L103.768 109.295L104.818 109.797Z" fill="white"/>
<path d="M107.176 110.607L106.823 113.223C106.771 113.61 106.444 113.876 106.091 113.822C105.751 113.772 105.502 113.444 105.522 113.069L105.659 110.333L107.176 110.607Z" fill="white"/>
<path d="M125.681 81.1211L123.995 86.3245L119.452 84.0539L121.908 76.6359L125.681 81.1211Z" fill="white"/>
<path d="M124.841 83.712C124.862 83.6521 124.513 82.7234 123.795 80.922L125.492 81.7059L124.841 83.712Z" fill="#DAA5A4"/>
<path d="M127.121 70.5246C128.735 70.8027 129.581 71.9573 129.658 73.9904C129.698 75.4636 129.737 77.2592 129.778 79.3792C129.808 81.0609 128.279 82.4163 126.638 82.0456C125.634 81.8177 124.516 81.3949 123.526 80.6226L122.13 79.3019C118.878 75.6257 121.908 69.789 126.767 70.4686C126.883 70.486 127.001 70.5034 127.121 70.5246Z" fill="white"/>
<path d="M129.428 76.6359L130.479 78.2114C130.629 78.3562 130.541 78.611 130.332 78.6323L129.231 78.7443L129.428 76.6359Z" fill="white"/>
<path d="M128.143 74.1551C128.819 74.0567 129.189 74.1725 129.251 74.5046C129.338 74.7344 129.093 74.8985 128.519 74.9989C127.658 75.1456 127.175 75.1862 127.073 74.8232C126.971 74.4583 127.668 74.2015 128.143 74.1551Z" fill="black"/>
<path d="M128.513 76.8356C128.476 77.0269 128.596 77.2105 128.781 77.2473C128.965 77.282 129.147 77.1564 129.183 76.9651C129.22 76.7757 129.1 76.5901 128.915 76.5553C128.729 76.5186 128.549 76.6442 128.513 76.8356Z" fill="black"/>
<path d="M129.397 79.5443C129.172 79.6004 128.95 79.5173 128.728 79.2931" stroke="black" stroke-width="1.311" stroke-linecap="round" stroke-linejoin="round"/>
<path d="M123.867 75.9722C123.821 73.4042 125.582 72.0971 129.15 72.0488C127.422 68.8708 124.678 68.0869 120.921 69.6972C119.741 70.205 118.345 71.9021 118.119 73.1668C117.755 75.2115 118.884 76.9665 120.685 80.1929L122.842 77.7157C122.929 77.3739 123.271 76.7928 123.867 75.9722Z" fill="black"/>
<path d="M123.94 77.1246L122.271 73.4445L123.797 70.4152L125.338 71.6007C126.768 74.1338 126.303 75.9739 123.94 77.1246Z" fill="black"/>
<path d="M121.005 76.8154C120.928 77.7055 121.586 78.4894 122.476 78.5666C123.366 78.6458 124.152 77.9854 124.229 77.0953C124.307 76.2053 123.648 75.4194 122.756 75.3422C121.866 75.265 121.082 75.9253 121.005 76.8154Z" fill="white"/>
<path d="M123.304 77.3412C123.372 76.5612 123.028 76.2002 122.271 76.2581" stroke="black" stroke-width="1.311" stroke-linecap="round" stroke-linejoin="round"/>
<path d="M120.101 71.054C120.101 73.3767 118.22 75.2592 115.898 75.2592C113.575 75.2592 111.692 73.3767 111.692 71.054C111.692 68.7332 113.575 66.8507 115.898 66.8507C118.22 66.8507 120.101 68.7332 120.101 71.054Z" fill="black"/>
<path d="M72.6695 150.946L71.177 150.911L70.7368 151.259L40.7827 72.794C40.1417 71.2764 38.6956 70.2511 37.0505 70.1546L4.65987 68.2547L3.97445 66.0363L0.993333 69.9132C0.674755 70.4288 0.576286 71.0833 0.819563 71.7224L28.1497 152.655C28.8409 154.47 30.5863 155.667 32.5306 155.659L68.3754 155.524C69.5493 155.518 70.4915 154.8 70.9047 153.838L72.6695 150.946Z" fill="#492D21"/>
<path d="M36.1778 152.594L70.2135 152.461C72.1887 152.451 73.519 150.436 72.7524 148.615L42.6208 69.7312C41.9817 68.2136 40.5336 67.1884 38.8886 67.0899L5.78742 65.1514C4.29686 65.0626 3.21177 66.5416 3.74273 67.9356L31.7949 149.59C32.4862 151.407 34.2335 152.604 36.1778 152.594Z" fill="#7B8ABA"/>
<path d="M37.6569 150.645L68.082 150.49C69.9684 150.482 71.2388 148.557 70.507 146.818L41.837 71.4055C41.2269 69.9555 39.8444 68.9766 38.2728 68.882L8.74352 67.0536C7.31861 66.9686 6.28178 68.382 6.78957 69.7142L33.4709 147.773C34.1332 149.509 35.8014 150.652 37.6569 150.645Z" fill="#FDD7B6"/>
<path d="M16.918 66.8136L18.0513 68.7444C18.3255 69.2116 18.8217 69.5032 19.3643 69.5147L32.6287 70.2156C33.038 70.2253 33.3276 69.816 33.1789 69.4337L32.4549 67.1766L16.918 66.8136Z" fill="#7B8ABA"/>
<path opacity="0.4" d="M41.8365 71.4054L16.918 98.7355L21.6155 113.093L46.6422 84.0442L41.8365 71.4054Z" fill="#EFC49E"/>
<path opacity="0.4" d="M49.2886 91.4718L24.177 120.777L26.5364 127.61L51.7156 98.1484L49.2886 91.4718Z" fill="#EFC49E"/>
<path d="M87.3636 150.352H80.5441L76.8911 139.041H83.7106L87.3636 150.352Z" fill="white"/>
<path d="M79.5606 148.232H88.7087C88.811 149.552 89.8266 150.315 91.7574 150.518C94.6535 150.823 96.2541 152.348 96.482 154.404H78.3462C78.4447 152.779 78.8501 150.722 79.5606 148.232Z" fill="#492D21"/>
<path d="M96.482 155.7H78.3462V154.404H96.482V155.7Z" fill="#070924"/>
<path d="M89.5999 149.771C88.0919 147.021 86.7481 146.027 85.5665 146.791C84.1725 147.695 85.5163 148.687 89.5999 149.771Z" stroke="white" stroke-width="2.117" stroke-linecap="round" stroke-linejoin="round"/>
<path d="M89.6003 149.772C91.0137 147.266 92.2783 146.517 93.3943 147.527C94.5084 148.537 93.2456 149.286 89.6003 149.772Z" stroke="white" stroke-width="2.117" stroke-linecap="round" stroke-linejoin="round"/>
<path d="M89.5525 149.773C89.1702 149.769 88.6026 150.053 87.8457 150.624" stroke="white" stroke-width="2.117" stroke-linecap="round" stroke-linejoin="round"/>
<path d="M90.7088 150.352C90.008 150.39 89.448 150.678 89.0291 151.219" stroke="white" stroke-width="2.117" stroke-linecap="round" stroke-linejoin="round"/>
<path d="M74.3651 104.71L87.4113 144.582L76.6241 145.38L64.8386 110.896L65.665 104.001L74.3651 104.71Z" fill="#492D21"/>
<path d="M51.4981 146.112L45.2212 143.444L50.9517 133.375L57.2287 136.042L51.4981 146.112Z" fill="white"/>
<path d="M45.1476 141.108L53.5657 144.687C53.1429 145.942 53.7801 147.041 55.4772 147.983C58.0239 149.396 58.9005 151.424 58.3058 153.407L41.6143 146.313C42.3422 144.855 43.5199 143.121 45.1476 141.108Z" fill="#492D21"/>
<path d="M57.7968 154.599L41.1052 147.506L41.613 146.313L58.3046 153.406L57.7968 154.599Z" fill="#070924"/>
<path d="M53.7813 146.45C53.4685 143.33 52.6209 141.89 51.2346 142.133C49.5973 142.419 50.4468 143.857 53.7813 146.45Z" stroke="white" stroke-width="2.117" stroke-linecap="round" stroke-linejoin="round"/>
<path d="M53.7817 146.452C56.0639 144.699 57.5197 144.504 58.1511 145.869C58.7824 147.236 57.3266 147.429 53.7817 146.452Z" stroke="white" stroke-width="2.117" stroke-linecap="round" stroke-linejoin="round"/>
<path d="M53.7385 146.435C53.389 146.282 52.7538 146.319 51.8347 146.549" stroke="white" stroke-width="2.117" stroke-linecap="round" stroke-linejoin="round"/>
<path d="M54.5741 147.419C53.9138 147.18 53.2863 147.226 52.6897 147.558" stroke="white" stroke-width="2.117" stroke-linecap="round" stroke-linejoin="round"/>
<path d="M72.539 104.321L66.9783 122.968C66.3779 124.976 65.4916 126.89 64.3428 128.645L55.9961 141.411L46.5894 137.847L55.2218 123.181L60.0391 103.701L72.539 104.321Z" fill="#492D21"/>
<path d="M67.8604 120.016L70.1676 110.787" stroke="black" stroke-width="1.217" stroke-linecap="round" stroke-linejoin="round"/>
<path d="M77.5613 87.9074L81.1622 99.0847C81.892 101.357 80.5135 103.767 78.183 104.288C76.0997 104.753 74.0106 103.524 73.4044 101.475L69.9212 90.263C69.2725 88.0658 70.599 85.7739 72.829 85.241C74.8602 84.7584 76.9222 85.9187 77.5613 87.9074Z" fill="#FCCC4F"/>
<path d="M90.1728 102.827C90.223 102.501 90.5126 102.259 90.8698 102.242C91.897 102.19 92.9184 102.222 93.934 102.344C94.3993 102.346 94.8028 102.67 94.8723 103.097C94.9457 103.56 94.604 103.978 94.1058 104.03L93.0729 104.138C92.7408 104.982 91.6827 105.121 89.8967 104.555L90.1728 102.827Z" fill="white"/>
<path d="M94.3887 103.778L92.68 108.937C91.7513 108.792 90.5812 108.345 89.1679 107.599C88.9246 107.47 88.8184 107.173 88.9169 106.908L90.587 102.326L94.3887 103.778Z" fill="white"/>
<path d="M93.5751 103.618L96.6103 104.472C97.0409 104.607 97.288 105.032 97.1645 105.425C97.0486 105.804 96.6316 106.022 96.2107 105.927L93.0017 105.298L93.5751 103.618Z" fill="white"/>
<path d="M92.5657 106.501L95.516 107.802C95.9292 107.982 96.1319 108.407 95.9736 108.76C95.821 109.1 95.3866 109.254 94.9773 109.115L91.834 108.001L92.5657 106.501Z" fill="white"/>
<path d="M92.0263 107.464L94.2274 109.101C94.5517 109.343 94.6521 109.727 94.4533 109.966C94.2621 110.196 93.8605 110.213 93.5323 110.003L91.1323 108.468L92.0263 107.464Z" fill="white"/>
<path d="M93.6766 105.11L96.4666 106.338C96.8779 106.52 97.069 106.968 96.8972 107.342C96.7311 107.704 96.2871 107.873 95.8777 107.732L92.887 106.705L93.6766 105.11Z" fill="white"/>
<path d="M94.5201 103.883C94.0645 104.134 93.5818 104.219 93.0721 104.138C92.6009 104.779 91.9059 105.084 90.9868 105.053" stroke="black" stroke-width="1.248" stroke-linecap="round" stroke-linejoin="round"/>
<path d="M90.6968 101.682L78.1256 97.461C76.2759 96.7698 74.2331 98.2256 73.7369 100.139C73.2793 101.911 74.3374 103.722 76.1079 104.192L88.9476 107.779L90.6968 101.682Z" fill="#FCCC4F"/>
<path d="M70.6853 82.0163C68.5615 81.7055 66.6597 82.1631 64.978 83.3872C61.8849 85.6404 60.2399 92.4116 60.0391 103.701L74.3673 104.709L77.6748 90.6025C78.2907 88.7489 76.9295 85.8817 75.4853 84.5669L74.8925 84.0629L70.6853 82.0163Z" fill="#FCCC4F"/>
<path d="M74.6714 103.415C75.6561 99.7771 76.4033 96.1357 76.913 92.4904" stroke="black" stroke-width="1.248" stroke-linecap="round" stroke-linejoin="round"/>
<path d="M64.5566 104.174L67.7018 104.9C68.1749 105.01 68.5803 105.315 68.8159 105.742L70.4667 108.731L69.1036 108.449L68.2115 107.348C68.1111 107.198 67.9663 107.128 67.8061 107.217C67.6362 107.311 67.6304 107.487 67.7231 107.657L70.1636 112.277C69.5554 113.581 68.395 113.517 66.6843 112.084C64.1164 109.937 64.2496 107.678 62.0002 105.585L64.5566 104.174Z" fill="white"/>
<path d="M67.59 107.647C67.4665 107.421 67.6479 107.151 67.9028 107.18L72.9402 107.779C73.0483 107.796 73.141 107.865 73.1893 107.962L75.3923 112.432C75.5062 112.665 75.3228 112.938 75.0621 112.918L70.2487 112.426L67.59 107.647Z" fill="black"/>
<path d="M67.3535 104.114L60.2675 92.0662C59.3736 90.3034 57.1513 89.703 55.4908 90.7745C53.952 91.767 53.504 93.8174 54.4887 95.362L62.0786 107.229L67.3535 104.114Z" fill="#FCCC4F"/>
<path d="M69.8255 89.4368L60.5868 96.6811C58.7062 98.1523 55.9684 97.6928 54.6728 95.6868C53.5144 93.8911 53.9449 91.5066 55.6575 90.2304L64.9735 83.0827C66.8097 81.7137 69.4201 82.1655 70.6905 84.0731C71.8471 85.8128 71.4706 88.149 69.8255 89.4368Z" fill="#FCCC4F"/>
<path d="M67.3525 104.114L62.2244 95.3944L68.2812 90.6447" stroke="black" stroke-width="1.248" stroke-linecap="round" stroke-linejoin="round"/>
<path d="M77.5115 80.5895L74.9842 85.0476L70.5781 82.3619L75.2081 75.0616L77.5115 80.5895Z" fill="white"/>
<path d="M75.8054 83.4103C75.844 83.3601 75.6606 82.0645 75.2571 79.5294L77.1917 81.1358L75.8054 83.4103Z" fill="#DAA5A4"/>
<path d="M82.1602 70.7057C83.6488 71.4703 84.118 72.8547 83.5716 74.8588C83.1584 76.305 82.6468 78.0697 82.0347 80.1472C81.552 81.7941 79.6444 82.6475 78.1597 81.7826C77.2522 81.2535 76.2907 80.4986 75.5628 79.4425L74.609 77.7279C72.5662 73.1501 77.3063 68.3907 81.8339 70.5416C81.942 70.5937 82.0502 70.6478 82.1602 70.7057Z" fill="white"/>
<path d="M82.3296 77.8594L83.0768 79.2225C83.1792 79.4098 83.017 79.6318 82.8065 79.5874L81.7002 79.3596L82.3296 77.8594Z" fill="white"/>
<path d="M82.3187 75.3438C82.869 75.4249 83.1258 75.591 83.0891 75.8401C83.0621 76.0061 82.8092 76.0486 82.3303 75.9656C81.614 75.8439 81.4402 75.7397 81.4151 75.4887C81.39 75.2377 81.9384 75.2531 82.3187 75.3438Z" fill="#161F26"/>
<path d="M81.5808 77.2785C81.4861 77.4544 81.548 77.6708 81.7161 77.7617C81.8862 77.8545 82.0988 77.7868 82.1935 77.6109C82.2882 77.437 82.2283 77.2205 82.0582 77.1297C81.8901 77.0369 81.6756 77.1045 81.5808 77.2785Z" fill="#161F26"/>
<path d="M82.0857 79.9818L81.0083 79.6613C81.155 80.0474 81.4543 80.3544 81.908 80.5822L82.0857 79.9818Z" fill="white"/>
<path d="M78.6989 75.6314C79.2955 71.6134 80.9443 70.5187 83.6455 72.3491C82.3596 69.1401 79.8554 67.7596 76.1309 68.2075C74.8296 68.3639 73.1904 69.3583 72.5841 70.5206C71.6013 72.4012 72.418 74.4633 73.1846 78.1588C74.3604 78.4889 75.376 77.9637 76.2294 76.5832C76.4186 76.2763 77.2411 75.9596 78.6989 75.6314Z" fill="#161F26"/>
<path d="M74.9596 74.772C74.6102 75.6158 75.0118 76.5831 75.8574 76.9306C76.7012 77.2782 77.6666 76.8766 78.016 76.0328C78.3636 75.1891 77.962 74.2237 77.1182 73.8742C76.2745 73.5267 75.3072 73.9283 74.9596 74.772Z" fill="white"/>
<path d="M76.8193 76.0966C77.1244 75.359 76.8985 74.9014 76.1455 74.7277" stroke="#161F26" stroke-width="1.218" stroke-linecap="round" stroke-linejoin="round"/>
<path d="M70.5781 82.3624L75.8202 88.8189L75.3935 84.3608L70.5781 82.3624Z" fill="white"/>
<path d="M83.727 72.6016L89.4614 73.426C89.556 73.4395 89.6544 73.509 89.6332 73.6577C89.61 73.8064 89.5077 73.8546 89.4189 73.8488L83.6323 73.4781C83.3891 73.4627 83.2037 73.2542 83.2192 73.0109C83.2346 72.7676 83.4451 72.5823 83.6883 72.5977C83.7019 72.5977 83.7154 72.5996 83.727 72.6016Z" fill="#060624"/>
<path d="M71.7886 72.5864L83.8327 73.4977C84.0702 69.4064 82.1626 67.2594 78.108 67.0605C74.0862 66.8617 71.9797 68.7056 71.7886 72.5864Z" fill="#B2CBDA"/>
</svg>
