<svg width="69" height="60" viewBox="0 0 69 60" fill="none" xmlns="http://www.w3.org/2000/svg">
<g filter="url(#filter0_d_313_14056)">
<path d="M10.3892 60.0002V59.1278C10.3892 56.0984 10.3892 53.0703 10.3892 50.0409C10.3892 49.4766 10.6303 48.7562 10.2865 48.3906C9.94266 48.0249 9.20703 48.2714 8.64264 48.2728C7.49467 48.2728 6.38095 48.1509 5.29599 47.7414C3.75081 47.1632 2.4174 46.13 1.47185 44.7783C0.526306 43.4266 0.0130956 41.8199 0 40.1705C0 31.4465 0 22.7229 0 13.9998C0 9.29537 3.56171 5.66469 8.27277 5.65511C20.1908 5.63182 32.1089 5.65511 44.0269 5.63867C44.5899 5.63867 44.6488 5.75919 44.4776 6.28921C41.5899 15.157 47.0215 24.3303 56.1819 26.0737C56.9199 26.2195 57.6708 26.2897 58.4231 26.2833C58.7792 26.2833 58.9491 26.3737 58.9464 26.7832C58.9286 31.4533 59.0094 36.1235 58.8984 40.7909C58.8066 44.6818 55.1668 48.2002 51.249 48.2331C43.7776 48.2947 36.3035 48.2646 28.8307 48.2536C28.2669 48.2391 27.7132 48.4046 27.2499 48.7261C21.9475 52.2979 16.6359 55.8587 11.3153 59.4086C11.0454 59.5757 10.7783 59.7496 10.3892 60.0002ZM30.0252 24.2029C34.0349 24.2029 38.0446 24.1947 42.0543 24.2125C42.5173 24.2125 42.6926 24.1125 42.6707 23.6168C42.631 22.6855 42.6255 21.7487 42.6707 20.8174C42.7008 20.2422 42.5118 20.1025 41.9501 20.1052C36.0267 20.1258 30.1033 20.1176 24.1799 20.1176C22.1073 20.1176 20.0333 20.1313 17.9606 20.108C17.4894 20.108 17.3264 20.2285 17.3442 20.7147C17.3798 21.6734 17.388 22.6321 17.3442 23.5839C17.3181 24.118 17.5058 24.2153 17.999 24.2139C22.0073 24.1933 26.0156 24.2029 30.0252 24.2029ZM30.0814 30.0632C26.0498 30.0632 22.0182 30.0728 17.9867 30.0509C17.4784 30.0509 17.3195 30.1742 17.3442 30.6905C17.3908 31.6002 17.3908 32.5117 17.3442 33.4214C17.3127 34.0089 17.4606 34.1856 18.0825 34.1815C23.1388 34.1527 28.1951 34.165 33.2513 34.165C36.1898 34.165 39.1268 34.1541 42.0652 34.176C42.546 34.176 42.6912 34.0459 42.6721 33.5665C42.6351 32.6352 42.6269 31.6985 42.6721 30.7672C42.7008 30.2057 42.5474 30.0441 41.9679 30.0482C38.0062 30.0756 34.0431 30.0632 30.0814 30.0632Z" fill="#443127"/>
</g>
<defs>
<filter id="filter0_d_313_14056" x="-10" y="-4.36133" width="78.9583" height="74.3616" filterUnits="userSpaceOnUse" color-interpolation-filters="sRGB">
<feFlood flood-opacity="0" result="BackgroundImageFix"/>
<feColorMatrix in="SourceAlpha" type="matrix" values="0 0 0 0 0 0 0 0 0 0 0 0 0 0 0 0 0 0 127 0" result="hardAlpha"/>
<feOffset/>
<feGaussianBlur stdDeviation="5"/>
<feComposite in2="hardAlpha" operator="out"/>
<feColorMatrix type="matrix" values="0 0 0 0 0 0 0 0 0 0 0 0 0 0 0 0 0 0 0.25 0"/>
<feBlend mode="normal" in2="BackgroundImageFix" result="effect1_dropShadow_313_14056"/>
<feBlend mode="normal" in="SourceGraphic" in2="effect1_dropShadow_313_14056" result="shape"/>
</filter>
</defs>
</svg>
