<svg width="696" height="475" viewBox="0 0 696 475" fill="none" xmlns="http://www.w3.org/2000/svg">
<ellipse opacity="0.05" cx="352.789" cy="444.145" rx="342.5" ry="30.5473" fill="#492D21"/>
<g opacity="0.349">
<path opacity="0.349" d="M561.461 315.432C553.34 282.145 579.157 280.856 579.721 237.967C579.96 220.423 571.549 202.556 551.315 194.359C541.364 190.334 531.457 187.566 522.606 181.161C502.444 166.567 502.805 138.801 497.302 115.125C485.225 63.1292 438.733 21.8266 391.67 23.1736C357.746 24.1405 327.07 25.3222 296.14 58.237C274.98 80.7477 261.226 108.456 241.57 131.669C220.765 156.254 195.411 168.047 166.94 175.939C140.016 183.409 110.721 192.301 90.111 214.696C70.7447 235.744 73.5722 257.759 81.8741 283.6C91.0294 312.102 71.1713 331.488 50.4672 342.587C33.039 351.933 9.83268 351.115 1.74049 373.469C-7.0387 397.706 19.0313 398.12 43.2645 398.12C67.5049 398.12 381.329 395.987 469.041 398.954C492.652 399.756 567.97 407.102 578.629 373.469C585.875 350.578 567.138 338.678 561.461 315.432Z" fill="#CAAEA2"/>
</g>
<path d="M260.077 206.177C255.485 221.093 241.861 237.777 226.298 237.777C208.631 237.777 204.321 221.415 199.173 216.234C186.503 203.507 178.577 200.541 162.45 197.4C151.957 195.351 140.741 178.526 143.46 161.833C148.421 131.372 196.482 116.853 208.653 94.5737C218.568 76.4181 218.047 65.5677 235.389 52.5439" stroke="#A1DBFF" stroke-width="2.113" stroke-dasharray="6 6"/>
<path d="M239.162 36.8235C239.206 36.7078 236.638 38.4846 231.468 42.1454L233.485 57.0781L237.289 45.9055L247.312 43.7238L261.595 28.3779L239.162 36.8235Z" fill="#80CFFF"/>
<path d="M261.594 28.3779L233.484 57.0781L237.288 45.9055L261.594 28.3779Z" fill="#A4E1FF"/>
<path d="M261.593 28.3779L224.408 37.3938L231.466 42.1454L261.593 28.3779L237.288 45.9055L249.299 54.3842L261.593 28.3779Z" fill="#C3ECFE"/>
<path d="M445.146 43.1621C446.708 47.3354 445.016 52.1697 441.364 53.9547C437.719 55.7397 433.489 53.8143 431.927 49.641C430.357 45.4678 432.05 40.6334 435.702 38.8484C439.354 37.0634 443.577 38.9971 445.146 43.1621Z" fill="#FCCC4F"/>
<path d="M435.761 48.1788L439.442 49.7903L440.91 42.7246" stroke="white" stroke-width="2.113" stroke-linecap="round" stroke-linejoin="round" stroke-dasharray="6 6"/>
<path d="M302.69 67.8956C302.69 69.5649 301.504 70.9202 300.043 70.9202C298.582 70.9202 297.396 69.5649 297.396 67.8956C297.396 66.2263 298.582 64.8711 300.043 64.8711C301.504 64.8711 302.69 66.2263 302.69 67.8956Z" fill="#FCCC4F"/>
<path d="M405.263 51.4587L368.584 37.4929L376.532 10.2471L413.203 24.2129L405.263 51.4587Z" fill="#9BDFFF"/>
<path d="M413.204 24.213L376.532 10.2471L399.898 0L413.204 24.213Z" fill="#9BDFFF"/>
<path d="M401.8 49.0049L372.44 37.8239L380.705 9.4873L410.066 20.6683L401.8 49.0049Z" fill="white"/>
<path d="M376.532 10.2471L368.584 37.4929L390.612 31.8157L376.532 10.2471Z" fill="#C2EBFF"/>
<path d="M413.203 24.2129L405.263 51.4587L390.612 31.8156L413.203 24.2129Z" fill="#C2EBFF"/>
<path d="M405.263 51.4591L368.584 37.4932L391.95 27.2461L405.263 51.4591Z" fill="#C2EBFF"/>
<path d="M368.584 37.4933C370.472 36.4603 372.388 35.5265 374.29 34.5348C376.207 33.5845 378.123 32.6424 380.054 31.7417C383.901 29.8989 387.784 28.1552 391.675 26.4363L392.261 26.1719L392.593 26.7834C394.799 30.8327 396.99 34.8819 399.109 38.989C400.172 41.0385 401.214 43.1127 402.248 45.1786C403.253 47.2776 404.294 49.3353 405.263 51.4591C404.005 49.5502 402.833 47.5751 401.611 45.6331C400.433 43.6746 399.254 41.7078 398.097 39.7162C395.775 35.7579 393.534 31.7417 391.299 27.7172L392.217 28.0643C388.32 29.7584 384.415 31.4277 380.481 33.006C378.514 33.8076 376.539 34.5679 374.558 35.3282C372.569 36.0471 370.595 36.8239 368.584 37.4933Z" fill="#9BDFFF"/>
<path d="M470.908 231.1L490.354 318.225L486.651 319.299L462.599 233.521" fill="#88D2FF"/>
<path d="M372.992 103.407C373.122 102.705 373.274 102.003 373.44 101.292" stroke="#A1DBFF" stroke-width="2.113" stroke-dasharray="6 6"/>
<path d="M374.678 97.1108C380.232 81.2443 395.649 65.4274 418.885 71.5426C435.821 75.9968 440.319 94.2185 449.409 105.928C456.149 114.614 465.724 121.737 468.862 134.001C476.101 162.296 466.244 192.93 448.628 202.557C438.866 207.887 414.669 205.532 402.158 200.599" stroke="#A1DBFF" stroke-width="2.113" stroke-dasharray="6 6"/>
<path d="M400.335 199.822C399.714 199.532 399.135 199.243 398.593 198.938" stroke="#A1DBFF" stroke-width="2.113" stroke-dasharray="6 6"/>
<path d="M520.794 216.407L510.894 214.365L512.304 205.474C512.471 204.424 513.346 203.73 514.264 203.912L520.83 205.267C521.756 205.457 522.363 206.465 522.197 207.515L520.794 216.407Z" fill="#FCCC4F"/>
<g opacity="0.502">
<g opacity="0.502">
<path opacity="0.502" d="M520.256 219.803L510.364 217.754L510.899 214.374L520.792 216.415L520.256 219.803Z" fill="#599FD2"/>
</g>
</g>
<path d="M542.646 227.621L547.968 230.026" stroke="#CCF3FF" stroke-width="2.113" stroke-dasharray="6 6"/>
<path d="M540.852 232.811L546.174 235.207" stroke="#CCF3FF" stroke-width="2.113" stroke-dasharray="6 6"/>
<path d="M539.066 238L544.389 240.396" stroke="#CCF3FF" stroke-width="2.113" stroke-dasharray="6 6"/>
<path d="M534.671 242.009L542.604 245.579" stroke="#CCF3FF" stroke-width="2.113" stroke-dasharray="6 6"/>
<path d="M535.486 248.371L540.809 250.768" stroke="#CCF3FF" stroke-width="2.113" stroke-dasharray="6 6"/>
<path d="M533.7 253.553L539.023 255.949" stroke="#CCF3FF" stroke-width="2.113" stroke-dasharray="6 6"/>
<path d="M531.907 258.742L537.229 261.139" stroke="#CCF3FF" stroke-width="2.113" stroke-dasharray="6 6"/>
<path d="M527.518 262.759L535.443 266.329" stroke="#CCF3FF" stroke-width="2.113" stroke-dasharray="6 6"/>
<path d="M528.335 269.113L533.657 271.51" stroke="#CCF3FF" stroke-width="2.113" stroke-dasharray="6 6"/>
<path d="M526.541 274.304L531.863 276.7" stroke="#CCF3FF" stroke-width="2.113" stroke-dasharray="6 6"/>
<path d="M524.755 279.484L530.078 281.881" stroke="#CCF3FF" stroke-width="2.113" stroke-dasharray="6 6"/>
<path d="M520.365 283.501L528.291 287.071" stroke="#CCF3FF" stroke-width="2.113" stroke-dasharray="6 6"/>
<path d="M521.174 289.855L526.497 292.252" stroke="#CCF3FF" stroke-width="2.113" stroke-dasharray="6 6"/>
<path d="M519.39 295.046L524.713 297.443" stroke="#CCF3FF" stroke-width="2.113" stroke-dasharray="6 6"/>
<path d="M517.603 300.227L522.925 302.631" stroke="#CCF3FF" stroke-width="2.113" stroke-dasharray="6 6"/>
<path d="M513.206 304.243L521.131 307.813" stroke="#CCF3FF" stroke-width="2.113" stroke-dasharray="6 6"/>
<path d="M514.023 310.606L519.345 313.003" stroke="#CCF3FF" stroke-width="2.113" stroke-dasharray="6 6"/>
<path d="M512.236 315.788L517.558 318.185" stroke="#CCF3FF" stroke-width="2.113" stroke-dasharray="6 6"/>
<path d="M510.443 320.978L515.766 323.374" stroke="#CCF3FF" stroke-width="2.113" stroke-dasharray="6 6"/>
<path d="M453.813 432.696C453.813 435.572 404.963 437.902 344.695 437.902C284.434 437.902 235.577 435.572 235.577 432.696C235.577 429.828 284.434 427.498 344.695 427.498C404.963 427.498 453.813 429.828 453.813 432.696Z" fill="#E9E8EE"/>
<path fill-rule="evenodd" clip-rule="evenodd" d="M357.727 82.2771C357.727 84.4752 357.727 89.8219 357.727 98.3171H335.822V82.2771C335.822 75.3685 340.725 69.7656 346.778 69.7656C352.824 69.7656 357.727 75.3685 357.727 82.2771ZM352.918 82.4423C352.918 78.5583 350.17 75.4181 346.778 75.4181C343.379 75.4181 340.631 78.5583 340.631 82.4423C340.631 86.3181 343.379 89.4583 346.778 89.4583C350.17 89.4583 352.918 86.3181 352.918 82.4423Z" fill="#492D21"/>
<g opacity="0.451">
<g opacity="0.451">
<path opacity="0.451" fill-rule="evenodd" clip-rule="evenodd" d="M357.727 96.7136C357.727 97.3664 357.727 97.8953 357.727 98.3168H335.822V82.2767C335.822 76.5582 339.185 71.7404 343.77 70.2529C340.819 72.4924 339.17 76.3268 339.17 80.6736V96.7136H357.727ZM352.918 82.4338C352.918 78.558 350.17 75.4178 346.778 75.4178C346.46 75.4178 346.156 75.4674 345.852 75.5252C346.778 75.1203 346.821 74.8393 348.347 74.8393C351.739 74.8393 354.487 77.9878 354.487 81.8636C354.487 85.3757 352.918 87.2846 350.546 87.9788C351.862 86.6896 352.918 84.5741 352.918 82.4338Z" fill="#492D21"/>
</g>
</g>
<path d="M433.811 432.638H255.588C247.807 432.638 241.494 425.432 241.494 416.54V115.258C241.494 106.366 247.807 99.1602 255.588 99.1602H433.811C441.593 99.1602 447.899 106.366 447.899 115.258V416.54C447.899 425.432 441.593 432.638 433.811 432.638Z" fill="#492D21"/>
<path d="M435.936 419.565H253.46V112.233H435.936V419.565Z" fill="#E7E2D6"/>
<path d="M428.915 410.177H260.476V121.629H428.915V410.177Z" fill="white"/>
<path d="M411.082 117.208H278.309V107.482C278.309 101.069 282.858 95.8711 288.47 95.8711H400.928C406.54 95.8711 411.082 101.069 411.082 107.482V117.208Z" fill="#492D21"/>
<path opacity="0.451" d="M283.436 114.076V105.002C283.436 101.523 284.709 98.3914 286.741 96.1602C281.918 97.3667 278.309 102.267 278.309 108.134V117.208H411.082V114.076H283.436Z" fill="#BF9786"/>
<path opacity="0.251" d="M315.847 161.296C315.847 174.964 306.157 186.037 294.203 186.037C282.242 186.037 272.552 174.964 272.552 161.296C272.552 147.627 282.242 136.554 294.203 136.554C306.157 136.554 315.847 147.627 315.847 161.296Z" fill="#0964AF"/>
<path d="M319.346 161.296C319.346 177.162 308.086 190.029 294.202 190.029C280.31 190.029 269.05 177.162 269.05 161.296C269.05 145.429 280.31 132.562 294.202 132.562C308.086 132.562 319.346 145.429 319.346 161.296Z" stroke="#FCCC4F" stroke-width="2.113" stroke-dasharray="6 6"/>
<path d="M298.454 161.667C300.588 160.073 301.998 157.337 301.998 154.214C301.998 149.288 298.505 145.297 294.202 145.297C289.892 145.297 286.399 149.288 286.399 154.214C286.399 157.337 287.81 160.073 289.943 161.667C285.09 162.981 281.475 167.931 281.475 173.881V181.286C285.047 184.261 289.437 186.037 294.202 186.037C298.961 186.037 303.35 184.261 306.923 181.286V173.881C306.923 167.931 303.307 162.981 298.454 161.667Z" fill="white"/>
<path d="M329.335 138.496L330.391 140.926L332.734 141.314L331.034 143.207L331.439 145.876L329.335 144.62L327.238 145.876L327.643 143.207L325.943 141.314L328.286 140.926L329.335 138.496Z" fill="#0964AF"/>
<path d="M339.582 138.496L340.63 140.926L342.98 141.314L341.281 143.207L341.679 145.876L339.582 144.62L337.484 145.876L337.882 143.207L336.183 141.314L338.533 140.926L339.582 138.496Z" fill="#0964AF"/>
<path d="M349.828 138.496L350.877 140.926L353.22 141.314L351.52 143.207L351.925 145.876L349.828 144.62L347.724 145.876L348.129 143.207L346.429 141.314L348.772 140.926L349.828 138.496Z" fill="#0964AF"/>
<path d="M360.067 138.496L361.115 140.926L363.466 141.314L361.766 143.207L362.164 145.876L360.067 144.62L357.97 145.876L358.367 143.207L356.668 141.314L359.018 140.926L360.067 138.496Z" fill="#0964AF"/>
<path d="M370.315 138.496L371.363 140.926L373.707 141.314L372.007 143.207L372.412 145.876L370.315 144.62L368.21 145.876L368.615 143.207L366.916 141.314L369.259 140.926L370.315 138.496Z" fill="#0964AF"/>
<g opacity="0.149">
<path opacity="0.149" d="M327.07 152.305H348.866" stroke="#0964AF" stroke-width="4.226" stroke-linecap="round" stroke-linejoin="round" stroke-dasharray="4 4"/>
<path opacity="0.149" d="M397.776 162.271H414.351" stroke="#0964AF" stroke-width="4.226" stroke-linecap="round" stroke-linejoin="round" stroke-dasharray="4 4"/>
<path opacity="0.149" d="M327.071 162.271H390.594" stroke="#0964AF" stroke-width="4.226" stroke-linecap="round" stroke-linejoin="round" stroke-dasharray="4 4"/>
<path opacity="0.149" d="M327.071 172.237H414.349" stroke="#0964AF" stroke-width="4.226" stroke-linecap="round" stroke-linejoin="round" stroke-dasharray="4 4"/>
<path opacity="0.149" d="M386.61 182.203H414.351" stroke="#0964AF" stroke-width="4.226" stroke-linecap="round" stroke-linejoin="round" stroke-dasharray="4 4"/>
<path opacity="0.149" d="M327.071 182.203H379.703" stroke="#0964AF" stroke-width="4.226" stroke-linecap="round" stroke-linejoin="round" stroke-dasharray="4 4"/>
<path opacity="0.149" d="M356.02 152.305H414.351" stroke="#0964AF" stroke-width="4.226" stroke-linecap="round" stroke-linejoin="round" stroke-dasharray="4 4"/>
</g>
<path opacity="0.251" d="M315.848 231.2C315.848 244.86 306.157 255.942 294.203 255.942C282.242 255.942 272.552 244.86 272.552 231.2C272.552 217.532 282.242 206.458 294.203 206.458C306.157 206.458 315.848 217.532 315.848 231.2Z" fill="#0964AF"/>
<path d="M298.455 231.572C300.589 229.977 301.999 227.242 301.999 224.118C301.999 219.193 298.506 215.201 294.203 215.201C289.893 215.201 286.4 219.193 286.4 224.118C286.4 227.242 287.811 229.977 289.944 231.572C285.091 232.886 281.476 237.836 281.476 243.786V251.182C285.048 254.165 289.438 255.942 294.203 255.942C298.962 255.942 303.351 254.165 306.924 251.182V243.786C306.924 237.836 303.308 232.886 298.455 231.572Z" fill="white"/>
<path d="M329.335 208.399L330.391 210.829L332.734 211.217L331.034 213.11L331.439 215.779L329.335 214.523L327.238 215.779L327.643 213.11L325.943 211.217L328.286 210.829L329.335 208.399Z" fill="#0964AF"/>
<path d="M339.582 208.399L340.63 210.829L342.98 211.217L341.281 213.11L341.679 215.779L339.582 214.523L337.484 215.779L337.882 213.11L336.183 211.217L338.533 210.829L339.582 208.399Z" fill="#0964AF"/>
<path d="M349.828 208.399L350.877 210.829L353.22 211.217L351.52 213.11L351.925 215.779L349.828 214.523L347.724 215.779L348.129 213.11L346.429 211.217L348.772 210.829L349.828 208.399Z" fill="#0964AF"/>
<path opacity="0.251" d="M360.067 208.399L361.115 210.829L363.466 211.217L361.766 213.11L362.164 215.779L360.067 214.523L357.97 215.779L358.367 213.11L356.668 211.217L359.018 210.829L360.067 208.399Z" fill="#0964AF"/>
<path opacity="0.251" d="M370.315 208.399L371.363 210.829L373.707 211.217L372.007 213.11L372.412 215.779L370.315 214.523L368.21 215.779L368.615 213.11L366.916 211.217L369.259 210.829L370.315 208.399Z" fill="#0964AF"/>
<g opacity="0.149">
<path opacity="0.149" d="M327.07 222.2H365.839" stroke="#0964AF" stroke-width="4.226" stroke-linecap="round" stroke-linejoin="round" stroke-dasharray="4 4"/>
<path opacity="0.149" d="M350.019 232.175H414.352" stroke="#0964AF" stroke-width="4.226" stroke-linecap="round" stroke-linejoin="round" stroke-dasharray="4 4"/>
<path opacity="0.149" d="M327.071 232.175H342.836" stroke="#0964AF" stroke-width="4.226" stroke-linecap="round" stroke-linejoin="round" stroke-dasharray="4 4"/>
<path opacity="0.149" d="M327.071 242.141H414.349" stroke="#0964AF" stroke-width="4.226" stroke-linecap="round" stroke-linejoin="round" stroke-dasharray="4 4"/>
<path opacity="0.149" d="M396.473 252.107H414.349" stroke="#0964AF" stroke-width="4.226" stroke-linecap="round" stroke-linejoin="round" stroke-dasharray="4 4"/>
<path opacity="0.149" d="M327.071 252.107H389.567" stroke="#0964AF" stroke-width="4.226" stroke-linecap="round" stroke-linejoin="round" stroke-dasharray="4 4"/>
<path opacity="0.149" d="M372.993 222.2H414.35" stroke="#0964AF" stroke-width="4.226" stroke-linecap="round" stroke-linejoin="round" stroke-dasharray="4 4"/>
</g>
<path opacity="0.251" d="M315.848 301.103C315.848 314.763 306.157 325.845 294.203 325.845C282.242 325.845 272.552 314.763 272.552 301.103C272.552 287.435 282.242 276.361 294.203 276.361C306.157 276.361 315.848 287.435 315.848 301.103Z" fill="#0964AF"/>
<path d="M298.455 301.475C300.589 299.88 301.999 297.145 301.999 294.021C301.999 289.096 298.506 285.104 294.203 285.104C289.893 285.104 286.4 289.096 286.4 294.021C286.4 297.145 287.811 299.88 289.944 301.475C285.091 302.789 281.476 307.739 281.476 313.681V321.085C285.048 324.068 289.438 325.845 294.203 325.845C298.962 325.845 303.351 324.068 306.924 321.085V313.681C306.924 307.739 303.308 302.789 298.455 301.475Z" fill="white"/>
<path d="M329.335 278.303L330.391 280.732L332.734 281.121L331.034 283.013L331.439 285.682L329.335 284.418L327.238 285.682L327.643 283.013L325.943 281.121L328.286 280.732L329.335 278.303Z" fill="#0964AF"/>
<path d="M339.582 278.303L340.63 280.732L342.98 281.121L341.281 283.013L341.679 285.682L339.582 284.418L337.484 285.682L337.882 283.013L336.183 281.121L338.533 280.732L339.582 278.303Z" fill="#0964AF"/>
<path d="M349.828 278.303L350.877 280.732L353.22 281.121L351.52 283.013L351.925 285.682L349.828 284.418L347.724 285.682L348.129 283.013L346.429 281.121L348.772 280.732L349.828 278.303Z" fill="#0964AF"/>
<path d="M360.067 278.303L361.115 280.732L363.466 281.121L361.766 283.013L362.164 285.682L360.067 284.418L357.97 285.682L358.367 283.013L356.668 281.121L359.018 280.732L360.067 278.303Z" fill="#0964AF"/>
<path opacity="0.251" d="M370.315 278.303L371.363 280.732L373.707 281.121L372.007 283.013L372.412 285.682L370.315 284.418L368.21 285.682L368.615 283.013L366.916 281.121L369.259 280.732L370.315 278.303Z" fill="#0964AF"/>
<g opacity="0.149">
<path opacity="0.149" d="M327.07 292.104H348.866" stroke="#0964AF" stroke-width="4.226" stroke-linecap="round" stroke-linejoin="round" stroke-dasharray="4 4"/>
<path opacity="0.149" d="M367.055 302.078H414.35" stroke="#0964AF" stroke-width="4.226" stroke-linecap="round" stroke-linejoin="round" stroke-dasharray="4 4"/>
<path opacity="0.149" d="M327.071 302.078H359.874" stroke="#0964AF" stroke-width="4.226" stroke-linecap="round" stroke-linejoin="round" stroke-dasharray="4 4"/>
<path opacity="0.149" d="M327.071 312.044H414.349" stroke="#0964AF" stroke-width="4.226" stroke-linecap="round" stroke-linejoin="round" stroke-dasharray="4 4"/>
<path opacity="0.149" d="M346.93 322.01H414.351" stroke="#0964AF" stroke-width="4.226" stroke-linecap="round" stroke-linejoin="round" stroke-dasharray="4 4"/>
<path opacity="0.149" d="M327.071 322.011H340.023" stroke="#0964AF" stroke-width="4.226" stroke-linecap="round" stroke-linejoin="round" stroke-dasharray="4 4"/>
<path opacity="0.149" d="M356.02 292.104H414.351" stroke="#0964AF" stroke-width="4.226" stroke-linecap="round" stroke-linejoin="round" stroke-dasharray="4 4"/>
</g>
<path opacity="0.251" d="M315.848 371.007C315.848 384.667 306.157 395.748 294.203 395.748C282.242 395.748 272.552 384.667 272.552 371.007C272.552 357.338 282.242 346.265 294.203 346.265C306.157 346.265 315.848 357.338 315.848 371.007Z" fill="#0964AF"/>
<path d="M298.455 371.378C300.589 369.784 301.999 367.048 301.999 363.924C301.999 358.999 298.506 355.008 294.203 355.008C289.893 355.008 286.4 358.999 286.4 363.924C286.4 367.048 287.811 369.784 289.944 371.378C285.091 372.692 281.476 377.642 281.476 383.584V390.988C285.048 393.972 289.438 395.748 294.203 395.748C298.962 395.748 303.351 393.963 306.924 390.988V383.584C306.924 377.642 303.308 372.692 298.455 371.378Z" fill="white"/>
<path d="M329.335 348.207L330.391 350.637L332.734 351.025L331.034 352.917L331.439 355.587L329.335 354.322L327.238 355.587L327.643 352.917L325.943 351.025L328.286 350.637L329.335 348.207Z" fill="#0964AF"/>
<path d="M339.582 348.207L340.63 350.637L342.98 351.025L341.281 352.917L341.679 355.587L339.582 354.322L337.484 355.587L337.882 352.917L336.183 351.025L338.533 350.637L339.582 348.207Z" fill="#0964AF"/>
<path d="M349.828 348.207L350.877 350.637L353.22 351.025L351.52 352.917L351.925 355.587L349.828 354.322L347.724 355.587L348.129 352.917L346.429 351.025L348.772 350.637L349.828 348.207Z" fill="#0964AF"/>
<path d="M360.067 348.207L361.115 350.637L363.466 351.025L361.766 352.917L362.164 355.587L360.067 354.322L357.97 355.587L358.367 352.917L356.668 351.025L359.018 350.637L360.067 348.207Z" fill="#0964AF"/>
<path d="M370.315 348.207L371.363 350.637L373.707 351.025L372.007 352.917L372.412 355.587L370.315 354.322L368.21 355.587L368.615 352.917L366.916 351.025L369.259 350.637L370.315 348.207Z" fill="#0964AF"/>
<g opacity="0.149">
<path opacity="0.149" d="M414.35 391.915H392.554" stroke="#0964AF" stroke-width="4.226" stroke-linecap="round" stroke-linejoin="round" stroke-dasharray="4 4"/>
<path opacity="0.149" d="M343.646 381.948H327.071" stroke="#0964AF" stroke-width="4.226" stroke-linecap="round" stroke-linejoin="round" stroke-dasharray="4 4"/>
<path opacity="0.149" d="M414.351 381.948H350.828" stroke="#0964AF" stroke-width="4.226" stroke-linecap="round" stroke-linejoin="round" stroke-dasharray="4 4"/>
<path opacity="0.149" d="M414.349 371.974H327.071" stroke="#0964AF" stroke-width="4.226" stroke-linecap="round" stroke-linejoin="round" stroke-dasharray="4 4"/>
<path opacity="0.149" d="M354.811 362.008H327.07" stroke="#0964AF" stroke-width="4.226" stroke-linecap="round" stroke-linejoin="round" stroke-dasharray="4 4"/>
<path opacity="0.149" d="M414.35 362.008H361.719" stroke="#0964AF" stroke-width="4.226" stroke-linecap="round" stroke-linejoin="round" stroke-dasharray="4 4"/>
<path opacity="0.149" d="M385.401 391.915H327.071" stroke="#0964AF" stroke-width="4.226" stroke-linecap="round" stroke-linejoin="round" stroke-dasharray="4 4"/>
</g>
<g style="mix-blend-mode:multiply" opacity="0.3">
<path fill-rule="evenodd" clip-rule="evenodd" d="M352.252 240.414C357.56 231.737 365.508 225.936 374.627 224.084C383.753 222.233 392.959 224.555 400.559 230.621C408.152 236.679 413.229 245.76 414.849 256.189C416.469 266.618 414.437 277.138 409.129 285.815C408.239 287.27 407.256 288.608 406.229 289.897L420.728 309.912C420.844 309.912 420.967 309.946 421.075 309.995C421.878 310.334 422.666 310.805 423.238 311.532C423.715 312.135 424.026 313.036 424.011 313.871C429.507 310.284 440.521 303.004 440.601 302.153C440.702 301.021 443.436 270.511 447.319 265.751C447.514 265.503 447.702 265.321 447.897 265.114V308.731C447.876 308.756 447.861 308.772 447.84 308.797C447.789 308.855 447.724 308.913 447.666 308.97C447.55 309.086 447.435 309.202 447.297 309.326C447.225 309.392 447.138 309.458 447.059 309.532C446.928 309.64 446.798 309.747 446.661 309.855C446.567 309.929 446.466 309.995 446.372 310.069C446.227 310.177 446.082 310.276 445.93 310.383C445.829 310.458 445.721 310.532 445.605 310.607C445.446 310.706 445.28 310.813 445.113 310.921C444.998 310.987 444.889 311.061 444.773 311.136C444.585 311.243 444.397 311.35 444.202 311.466C444.094 311.532 443.985 311.59 443.869 311.656C443.645 311.78 443.407 311.912 443.175 312.036C443.081 312.078 443.002 312.127 442.908 312.177C442.575 312.35 442.235 312.524 441.888 312.689C441.852 312.706 441.823 312.722 441.787 312.739C441.476 312.896 441.158 313.044 440.832 313.201C440.709 313.251 440.594 313.309 440.471 313.367C440.225 313.474 439.979 313.59 439.726 313.706C439.588 313.763 439.458 313.821 439.321 313.879C439.082 313.987 438.843 314.086 438.598 314.193C438.453 314.251 438.308 314.317 438.164 314.375C437.925 314.474 437.686 314.573 437.448 314.672C437.303 314.73 437.158 314.788 437.014 314.854C436.761 314.953 436.515 315.053 436.269 315.143C436.132 315.201 436.001 315.251 435.864 315.309C435.604 315.408 435.336 315.515 435.069 315.614C434.953 315.656 434.837 315.705 434.714 315.747C434.396 315.871 434.071 315.995 433.752 316.11C433.695 316.135 433.644 316.152 433.593 316.168C431.069 317.102 428.705 317.887 426.919 318.457L436.544 331.737C438.265 331.729 439.87 331.828 440.369 331.663C440.456 331.63 440.55 331.597 440.644 331.564L440.601 331.44C442.777 329.894 445.207 328.175 447.897 326.283V334.406C445.742 335.282 443.949 336.01 442.517 336.596L442.329 336.092C441.874 336.464 441.44 336.886 441.078 337.373C441.006 337.481 440.933 337.588 440.861 337.704L447.897 347.414V358.181C447.775 358.198 447.652 358.214 447.529 358.214C446.422 358.214 445.316 357.677 444.556 356.62L434.685 342.993C433.601 342.935 432.646 341.811 432.639 340.571C432.183 340.869 431.576 340.819 431.163 340.447C430.758 340.067 430.578 339.398 430.73 338.828C430.787 338.637 430.867 338.456 430.853 338.257C430.816 337.877 430.44 337.695 430.165 337.481C429.667 337.084 429.442 336.431 429.435 335.745L419.839 322.507C419.846 322.515 419.846 322.515 419.846 322.515C418.732 322.672 417.59 321.721 417.387 320.465C417.344 320.209 417.337 319.945 417.221 319.722C417.011 319.341 416.57 319.267 416.187 319.143C414.748 318.656 413.829 316.986 413.475 315.317C413.352 314.73 413.301 314.119 413.33 313.524L400.415 295.699C396.365 298.897 391.744 301.136 386.754 302.144C384.707 302.566 382.654 302.764 380.622 302.764C373.578 302.764 366.715 300.318 360.829 295.616C345.143 283.096 341.296 258.338 352.252 240.414ZM365.24 288.385C371.148 293.104 378.307 294.905 385.409 293.476C392.503 292.03 398.679 287.526 402.808 280.774C406.937 274.023 408.514 265.833 407.256 257.726C405.997 249.62 402.049 242.554 396.141 237.844C391.563 234.183 386.226 232.274 380.752 232.274C379.168 232.274 377.57 232.439 375.979 232.761C368.877 234.199 362.702 238.711 358.572 245.463C350.054 259.396 353.047 278.659 365.24 288.385Z" fill="#492D21"/>
</g>
<path d="M182.886 301.516C185.135 304.499 186.473 306.086 186.885 306.259C187.269 306.424 189.858 306.986 190.711 307.16C191.029 307.226 191.347 307.292 191.637 307.457C191.933 307.631 192.179 307.895 192.41 308.168C193.047 308.928 193.611 309.771 194.168 310.606C194.32 310.829 194.464 311.052 194.573 311.308C194.71 311.614 194.775 311.945 194.84 312.283C195.202 314.176 195.52 316.093 195.78 318.01C195.795 318.109 195.809 318.225 195.773 318.316C195.679 318.531 195.383 318.481 195.223 318.324C195.057 318.159 194.934 317.928 194.732 317.853C194.732 318.018 194.732 318.184 194.725 318.349C194.435 318.531 194.081 318.374 193.792 318.192C192.577 317.44 191.543 316.3 190.841 314.928C190.704 314.655 190.566 314.374 190.371 314.151C189.85 313.564 189.04 313.573 188.332 313.366C187.695 313.176 187.023 312.969 186.423 312.655C185.323 312.085 185.186 310.573 185.085 310.292C185.027 310.135 184.911 310.019 184.803 309.903C184.325 309.408 183.132 308.342 181.223 306.697" fill="#926A56"/>
<path d="M143.279 205.144C144.87 205.664 145.716 208.019 146.258 209.623C146.909 211.565 147.234 213.622 147.444 215.672C147.596 217.101 147.683 218.605 147.184 219.928C146.931 220.605 146.54 221.2 146.15 221.779C145.926 222.109 145.701 222.448 145.398 222.688C145.094 222.919 144.703 223.035 144.364 222.886C143.865 222.671 143.662 222.002 143.525 221.415C142.606 217.597 141.601 213.73 139.714 210.408" fill="#170D54"/>
<path d="M145.042 217.241C145.078 216.027 146.199 215.233 147.168 216.489C147.97 217.531 148.187 219.514 148.231 220.977C148.288 222.728 147.095 223.067 146.119 223.315" fill="#87624F"/>
<path d="M156.636 424.87C156.65 427.366 156.585 429.052 156.433 429.928C156.202 431.258 152.463 430.829 152.102 430.077C151.863 429.572 151.892 427.267 152.196 423.151" fill="#FFCCB0"/>
<path d="M151.023 431.349C150.951 432.283 150.922 433.63 150.929 435.39L154.762 436.448L155.246 435.704C155.962 436.398 156.707 436.869 157.495 437.109C158.37 437.373 160.207 437.572 161.111 437.505C164.279 437.266 166.463 436.134 166.571 435.605C167.019 433.39 162.818 433.671 161.957 433.588C159.499 433.357 157.843 431.341 157.365 429.903C157.018 428.861 157.221 428.63 156.7 428.762C156.389 428.812 156.114 429.027 155.883 429.423C155.348 430.332 154.407 430.878 153.46 430.605C152.918 430.44 152.375 430.159 152.014 429.655C151.421 429.853 151.088 430.415 151.023 431.349Z" fill="#492D21"/>
<path d="M149.316 379.047C149.555 374.675 148.13 369.56 145.042 363.709C153.388 358.47 157.625 355.041 157.748 353.404C158.891 362.404 159.672 368.494 160.077 371.667C160.793 377.179 159.947 395.665 157.539 427.126C155.789 427.68 153.757 427.713 151.435 427.225C151.001 415.069 149.917 404.88 148.174 396.649C146.944 390.798 148.882 380.675 149.316 379.047Z" fill="#492D21"/>
<path d="M148.313 303.425C153.013 315.408 158.119 354.082 159.341 367.429C159.861 373.089 155.732 379.725 150.93 374.61C145.196 368.495 137.125 340.505 134.24 335.563C131.362 330.622 120.572 326.093 127.941 301.021" fill="#492D21"/>
<path d="M127.212 425.109C126.93 428.613 126.728 430.82 126.619 431.712C126.453 433.043 122.7 432.861 122.309 432.125C122.042 431.638 121.962 429.332 122.056 425.209" fill="#FFCCB0"/>
<path d="M121.245 433.233C121.194 434.175 121.23 435.407 121.368 436.944L125.685 437.283L125.945 436.473C126.849 437.093 127.666 437.431 128.397 437.489L132.041 437.77C134.71 437.968 136.25 437.696 136.344 437.167C136.764 434.952 133.567 434.803 132.736 434.746C130.356 434.556 127.854 433.085 127.37 431.663C127.023 430.63 127.218 430.391 126.712 430.539C126.415 430.589 126.155 430.812 125.931 431.209C125.417 432.126 124.521 432.696 123.595 432.44C123.067 432.291 122.546 432.019 122.185 431.523C121.614 431.729 121.303 432.299 121.245 433.233Z" fill="#492D21"/>
<path d="M136.589 378.279C135.793 382.94 125.134 381.196 125.365 377.064C125.691 371.197 122.089 363.602 120.708 335.654C120.549 332.464 117.75 331.993 116.651 323.308C115.921 317.507 117.063 311.4 120.072 304.979L136.473 302.293C140.675 313.135 142.345 323.952 141.477 334.762C140.168 350.967 137.536 372.783 136.589 378.279Z" fill="#492D21"/>
<path d="M125.395 376.089C122.908 381.717 121.519 386.567 121.23 390.633C120.796 396.583 120.847 409.359 121.374 428.953C124.065 429.622 126.133 429.713 127.565 429.225C133.878 394.468 137.154 375.213 137.385 371.478C137.617 367.734 133.618 369.271 125.395 376.089Z" fill="#492D21"/>
<path d="M154.661 246.909C152.81 244.471 146.923 240.471 139.055 240.752C133.639 240.951 118.879 241.967 117.23 246.116C116.384 248.231 115.48 269.924 116.717 277.402C117.643 283.022 120.015 296.955 120.015 300.318C120.015 303.673 118.438 305.119 119.176 306.094C120.824 308.284 132.12 309.202 137.421 309.202C142.143 309.202 150.178 307.764 150.583 306.036C151.19 303.466 149.664 303.566 149.454 300.872C149.245 298.186 148.138 280.46 149.519 277.882C151.711 273.791 153.887 263.015 154.061 259.933C154.227 256.85 156.52 249.338 154.661 246.909Z" fill="#BF9786"/>
<g style="mix-blend-mode:multiply" opacity="0.451">
<path d="M120.86 264.453C120.484 265.346 119.023 268.131 116.478 272.808L116.326 273.651C116.42 275.105 116.543 276.386 116.716 277.403C117.642 283.022 120.014 296.955 120.014 300.318C120.014 303.673 118.438 305.119 119.175 306.095C119.833 306.971 122.046 307.64 124.787 308.127C124.172 307.301 123.608 306.466 123.514 306.045C123.297 305.053 124.743 305.309 125.004 304.475C125.271 303.648 121.728 287.394 120.86 279.584C120 271.783 121.424 263.114 120.86 264.453Z" fill="#492D21"/>
</g>
<path d="M143.683 233.116C143.719 238.108 143.828 240.702 144.001 240.901C144.175 241.099 144.695 241.438 145.556 241.901C144.941 246.239 144.16 248.239 143.213 247.917C142.258 247.594 138.65 245.628 132.373 242.008C133.262 241.587 133.703 241.182 133.703 240.777C133.703 240.38 133.284 236.256 132.438 228.414" fill="#926A56"/>
<path d="M137.147 205.945C138.521 206.375 142.137 205.524 143.135 207.234C144.133 208.945 145.008 213.077 145.377 214.217C146.122 216.482 146.606 218.911 147.148 221.25C147.857 224.299 149.014 229.886 146.404 232.431C145.659 233.166 145.319 233.406 144.393 233.596C143.157 233.852 141.927 234.141 140.691 234.398C138.774 234.794 136.655 235.249 134.753 234.546C132.215 233.596 130.819 229.605 130.169 226.894L126.423 211.366L137.147 205.945Z" fill="#926A56"/>
<path d="M143.56 249.702C143.908 268.056 144.406 282.815 145.065 293.98L141.521 299.566L139.084 292.575C138.397 279.105 139.164 264.883 141.391 249.9L143.56 249.702Z" fill="#492D21"/>
<path d="M144.377 247.289L144.298 247.669C144.139 248.38 143.893 249.066 143.56 249.702L141.39 249.901C140.4 249.306 139.843 248.694 139.713 248.058C139.583 247.43 140.393 246.595 142.143 245.554L142.461 245.694C143.191 246.025 143.842 246.562 144.348 247.248L144.377 247.289Z" fill="#492D21"/>
<path d="M133.464 238.183C132.213 239.199 131.23 240.339 130.499 241.596C131.62 244.521 134.947 249.488 137.731 251.859C138.591 249.198 140.067 247.099 142.142 245.554C136.878 244.306 133.985 241.852 133.464 238.183Z" fill="#EAEAEA"/>
<path d="M142.143 245.554C143.951 246.372 145.39 247.934 146.468 250.248C146.815 247.124 146.612 244.215 145.875 241.529C144.906 239.662 144.211 238.711 143.799 238.67C143.973 240.885 143.416 243.174 142.143 245.554Z" fill="#EAEAEA"/>
<path d="M153.07 245.298C157.865 248.347 166.066 279.651 166.977 279.998C167.584 280.221 174.086 288.675 186.473 305.343L183.523 309.904C171.019 299.508 162.971 292.038 159.384 287.493C156.853 284.287 153.201 275.535 148.421 261.239C148.327 248.579 149.874 243.265 153.07 245.298Z" fill="#BF9786"/>
<g style="mix-blend-mode:multiply" opacity="0.451">
<path d="M161.147 286.22C159.91 284.972 157.328 277.717 153.402 264.453L151.991 271.263C154.342 277.543 157.35 284.914 159.382 287.493C162.969 292.038 171.018 299.508 183.521 309.904L184.671 308.127C170.222 294.773 162.383 287.468 161.147 286.22Z" fill="#492D21"/>
</g>
<path d="M128.676 297.426L100.205 303.574C99.4241 303.74 98.9396 304.624 99.1493 305.5L102.96 328.002C103.148 328.779 103.828 329.266 104.515 329.109L132.993 322.969C133.767 322.804 134.252 321.912 134.049 321.044L130.231 298.542C130.043 297.765 129.37 297.277 128.676 297.426Z" fill="#EEA886"/>
<path d="M128.344 299.153L101.081 305.037L104.855 327.382L132.119 321.507L128.344 299.153Z" fill="#E5F8FF"/>
<path d="M129.069 320.333L126.09 301.31" stroke="#A1D2F0" stroke-width="1.056" stroke-linecap="round" stroke-linejoin="round" stroke-dasharray="5 5"/>
<path d="M126.495 320.903L123.515 301.88" stroke="#A1D2F0" stroke-width="1.056" stroke-linecap="round" stroke-linejoin="round" stroke-dasharray="5 5"/>
<path d="M122.799 321.77L119.819 302.747" stroke="#A1D2F0" stroke-width="1.056" stroke-linecap="round" stroke-linejoin="round" stroke-dasharray="5 5"/>
<path d="M119.097 322.639L116.117 303.607" stroke="#A1D2F0" stroke-width="1.056" stroke-linecap="round" stroke-linejoin="round" stroke-dasharray="5 5"/>
<path d="M115.393 323.498L112.06 304.475" stroke="#A1D2F0" stroke-width="1.056" stroke-linecap="round" stroke-linejoin="round" stroke-dasharray="5 5"/>
<path d="M111.698 324.365L108.357 305.342" stroke="#A1D2F0" stroke-width="1.056" stroke-linecap="round" stroke-linejoin="round" stroke-dasharray="5 5"/>
<path d="M107.995 325.233L104.524 306.21" stroke="#A1D2F0" stroke-width="1.056" stroke-linecap="round" stroke-linejoin="round" stroke-dasharray="5 5"/>
<path d="M113.585 313.788C114.329 315.54 114.908 316.854 115.313 317.746C115.703 318.614 118.697 321.531 119.898 323.845C120.476 324.969 120.982 326.233 120.838 327.522C120.686 328.812 119.63 330.026 118.516 329.754C118.198 329.679 117.837 329.506 117.584 329.729C117.453 329.845 117.396 330.035 117.316 330.2C117.07 330.704 116.535 331.002 116.036 330.927C115.537 330.845 115.096 330.39 114.98 329.828C114.214 330.646 112.883 330.63 112.138 329.795C112.579 329.374 112.912 328.729 112.825 328.076C112.731 327.448 112.29 326.977 111.95 326.473C111.357 325.589 111.032 324.457 111.061 323.341C111.075 322.539 111.27 321.763 111.343 320.961C111.502 319.333 111.176 317.647 110.424 316.251" fill="#926A56"/>
<path d="M122.162 261.213C121.584 263.552 116.934 272.403 108.191 287.773L115.212 317.003L111.206 319.862C102.89 304.07 98.7243 293.946 98.6954 289.484C98.6593 282.799 107.822 258.272 114.518 248.248C115.943 246.124 118.076 244.521 120.925 243.446" fill="#BF9786"/>
<path d="M128.756 224.2C129.623 223.63 130.282 223.018 130.846 223.96C131.142 224.464 131.323 225.15 131.829 225.324C132.335 225.497 132.856 224.977 132.986 224.39C133.109 223.803 132.95 223.192 132.791 222.622C132.451 221.349 132.104 220.068 131.757 218.795C131.417 217.548 131.077 216.176 131.511 214.969C131.735 214.358 132.133 213.854 132.567 213.424C133.999 212.027 135.857 211.35 137.701 210.912C139.545 210.482 141.433 210.267 143.226 209.623C143.986 209.35 144.73 208.995 145.331 208.408C146.307 207.466 146.813 205.978 146.828 204.524C146.842 203.061 146.401 201.631 145.743 200.375C145.613 200.879 145.425 201.359 145.193 201.813C144.969 201.144 144.622 200.524 144.188 200.012C143.653 203.433 131.041 202.293 128.098 203.797C126.058 204.846 124.366 205.524 124.431 209.309C124.366 209.556 124.192 209.738 124.026 209.912C122.218 211.812 121.437 214.118 121.206 217.548C120.931 221.746 123.072 226.291 125.169 229.753C125.689 230.621 125.986 231.241 126.724 231.877C127.461 232.522 128.741 232.836 129.652 232.637C130.564 232.439 132.35 232.522 132.371 231.464C132.386 230.712 130.969 229.357 130.578 228.753" fill="#444952"/>
<path d="M132.063 228.166C132.164 228.638 132.085 229.059 131.824 229.423C131.492 229.91 130.805 229.836 130.334 229.662C128.997 229.175 128.071 227.679 127.818 226.142C127.521 224.324 128.375 222.506 129.828 222.977C130.682 223.258 131.209 224.357 131.202 225.373" fill="#926A56"/>
<path d="M143.676 233.762L139.633 234.613C140.537 235.762 141.897 236.34 143.733 236.34" fill="#87624F"/>
<path d="M152.659 378.965C153.396 376.221 151.335 371.965 150.323 368.792C149.643 366.685 146.765 357.165 141.681 340.257L140.003 350.487C141.587 354.876 143.308 359.569 145.044 363.71V363.718C145.716 365.313 146.382 366.817 147.04 368.205C148.247 371.304 149.513 375.502 149.318 379.047C148.884 380.675 146.946 390.798 148.175 396.649C149.918 404.88 151.003 415.069 151.437 427.225C152.102 427.366 152.717 427.432 153.31 427.473C153.085 422.978 152.702 415.028 152.659 413.458C152.601 411.235 150.142 398.459 150.323 393.41C150.496 388.352 151.928 381.7 152.659 378.965Z" fill="#563526"/>
<path d="M133.328 314.366L130.862 315.027L129.083 304.499L131.556 303.904L133.328 314.366Z" fill="#EEA886"/>
<path fill-rule="evenodd" clip-rule="evenodd" d="M134.97 311.118C134.587 311.209 133.646 311.407 132.15 311.73L131.318 306.697L134.138 306.085C135.36 305.821 136.532 306.738 136.763 308.127C136.988 309.515 136.192 310.862 134.97 311.118ZM134.76 310.019C135.447 309.879 135.896 309.127 135.765 308.342C135.635 307.565 134.977 307.052 134.297 307.201C133.61 307.342 133.162 308.094 133.292 308.879C133.422 309.655 134.08 310.168 134.76 310.019Z" fill="#EEA886"/>
<g style="mix-blend-mode:multiply" opacity="0.451">
<path d="M260.792 262.189L241.317 259.197V303.805L251.883 305.425C252.794 305.565 253.655 304.937 253.857 303.979L262.268 264.478C262.499 263.404 261.819 262.346 260.792 262.189Z" fill="#5AB5E2"/>
</g>
<path d="M236.22 257.106L229.205 292.31C229.017 293.269 229.581 294.211 230.434 294.351L252.267 297.938C253.026 298.062 253.742 297.5 253.915 296.64L260.923 261.436C261.118 260.478 260.554 259.536 259.701 259.395L237.868 255.817C237.109 255.693 236.393 256.255 236.22 257.106Z" fill="#57C6F2"/>
<path d="M237.587 258.246L230.876 291.946L252.55 295.508L259.261 261.8L237.587 258.246Z" fill="#E5F8FF"/>
<path d="M256.967 264.287L238.548 261.263" stroke="#A1D2F0" stroke-width="1.056" stroke-linecap="round" stroke-linejoin="round" stroke-dasharray="5 5"/>
<path d="M256.346 267.469L237.927 264.444" stroke="#A1D2F0" stroke-width="1.056" stroke-linecap="round" stroke-linejoin="round" stroke-dasharray="5 5"/>
<path d="M248.68 270.113L237.167 268.221" stroke="#A1D2F0" stroke-width="1.056" stroke-linecap="round" stroke-linejoin="round" stroke-dasharray="5 5"/>
<path d="M247.863 272.849L236.35 270.965" stroke="#A1D2F0" stroke-width="1.056" stroke-linecap="round" stroke-linejoin="round" stroke-dasharray="5 5"/>
<path d="M247.038 275.584L235.533 273.7" stroke="#A1D2F0" stroke-width="1.056" stroke-linecap="round" stroke-linejoin="round" stroke-dasharray="5 5"/>
<path d="M251.261 290.723L239.748 288.831" stroke="#A1D2F0" stroke-width="1.056" stroke-linecap="round" stroke-linejoin="round" stroke-dasharray="5 5"/>
<path d="M227.823 292.731C229.06 292.07 229.978 290.839 230.853 289.641C231.721 288.459 232.589 287.277 233.457 286.104C233.797 285.633 234.158 285.129 234.194 284.517C232.741 284.385 231.808 286.542 230.354 286.674C231.027 283.93 232.003 281.294 233.24 278.832C233.544 278.228 233.869 277.526 233.659 276.873C232.083 277.559 230.759 278.84 229.617 280.245C228.814 281.236 228.076 282.302 227.426 283.426C225.509 286.748 224.316 290.558 223.513 294.425" fill="#F2A181"/>
<path d="M221.56 321.085L205.975 306.062C201.137 313.557 199.633 320.92 201.456 328.151C202.801 333.481 204.486 336.125 205.216 338.654C205.903 341.026 210.596 374.486 210.242 376.932C209.895 379.378 207.371 386.229 206.409 393.427C205.259 402.087 205.455 430.3 204.558 437.779C203.661 445.257 209.707 446.522 210.04 443.993C212.874 422.367 220.381 388.658 221.429 377.841C222.485 367.032 222.059 347.232 221.56 321.085Z" fill="#926A56"/>
<path d="M221.612 342.406L214.829 360.173C217.686 365.693 219.342 372.205 219.559 378.808C219.674 382.237 219.407 385.675 219.493 389.105C219.501 389.344 219.53 389.609 219.58 389.848C220.491 384.766 221.171 380.576 221.431 377.841C222.176 370.205 222.176 358.057 221.945 342.381C221.836 342.389 221.721 342.381 221.612 342.406Z" fill="#F2A181"/>
<path d="M211.088 437.052C210.119 442.283 209.765 445.233 210.025 445.894C210.416 446.894 211.819 449.803 213.258 450.852C214.769 451.96 218.11 453.265 218.378 453.745C218.645 454.224 218.66 454.918 218.183 455.348C216.953 456.455 214.82 456.992 213.417 456.728C208.89 455.877 208.42 453.588 205.781 453.216C205.325 453.158 204.479 453.926 203.221 453.191C201.962 452.455 201.348 451.117 201.456 449.869C201.644 447.704 202.707 445.919 203.459 444.324C203.965 443.258 204.392 440.283 204.746 435.407" fill="#926A56"/>
<path d="M218.539 455.728C218.871 455.083 218.951 454.108 218.647 453.868C218.221 453.538 216.702 452.389 215.827 451.926C214.945 451.463 213.556 451.059 214.048 451.356C214.532 451.662 213.628 452.794 212.811 452.736C209.969 452.538 207.872 450.381 206.259 449.918C203.924 449.257 202.947 446.1 202.839 445.588C202.398 445.91 201.371 448.447 201.161 449.249C200.973 449.968 200.64 451.282 200.821 452.034C200.944 452.554 201.219 453.595 201.074 454.695C201.385 454.967 201.942 455.199 202.759 455.389C203.273 455.513 203.873 455.521 204.56 455.414L204.762 453.744C205.189 453.719 205.666 453.777 206.209 453.901C207.019 454.091 208.335 454.976 208.414 455.083C208.74 455.521 209 456.331 209.427 456.579C210.562 457.232 211.705 457.546 213.151 457.636C216.196 457.843 217.975 456.835 218.539 455.728Z" fill="#492D21"/>
<path d="M242.843 455.397C242.511 454.976 238.902 454.306 237.21 453.496C235.597 452.728 233.638 450.249 233.262 449.199C232.878 448.15 232.965 442.828 233.016 440.588C233.356 425.185 235.843 387.551 236.205 378.535C236.827 362.867 235.048 346.695 229.776 321.548L210.135 304.326C206.468 312.111 205.246 319.73 206.476 327.184C207.546 333.663 212.247 334.663 213.042 337.183C213.577 338.861 217.8 353.24 225.726 380.32C224.179 386.171 223.369 392.303 223.275 398.724C223.166 406.93 226.42 431.705 227.028 441.142C227.1 442.993 227.375 447.406 226.898 448.811C226.319 450.53 224.83 452.554 224.909 454.728C224.952 455.984 225.748 457.19 227.136 457.678C228.532 458.174 229.306 457.256 229.783 457.232C232.553 457.099 233.319 459.281 238.1 459.273C239.575 459.273 241.715 458.347 242.843 457.025C243.285 456.513 243.183 455.827 242.843 455.397Z" fill="#926A56"/>
<path d="M243.254 457.331C243.514 456.628 243.485 455.645 243.138 455.471C242.654 455.223 240.947 454.372 239.985 454.075C239.023 453.785 237.534 453.645 238.076 453.851C238.618 454.058 237.83 455.347 236.977 455.446C234.019 455.777 231.589 454.033 229.861 453.885C227.373 453.661 226.455 450.728 226.288 450.24C225.876 450.645 224.64 453.339 224.524 454.166C224.423 454.918 224.235 456.281 224.517 456.992C224.705 457.479 225.117 458.463 225.11 459.57C225.457 459.785 226.064 459.909 226.925 459.942C227.474 459.967 228.096 459.868 228.798 459.636V457.942C229.232 457.843 229.738 457.81 230.309 457.835C231.163 457.868 232.226 458.372 232.739 458.818C233.151 459.165 233.578 459.752 234.055 459.892C235.436 460.289 236.427 460.405 237.931 460.223C241.099 459.859 242.813 458.529 243.254 457.331Z" fill="#492D21"/>
<path d="M206.388 304.169C205.057 305.846 200.306 314.887 200.255 322.25C200.205 329.613 202.497 334.332 202.7 335.869C204.204 347.116 205.664 360.685 205.664 361.42C205.664 362.156 211.247 366.412 218.761 365.875C228.017 365.205 234.446 363.495 238.048 360.718C237.607 342.554 236.674 329.001 235.249 320.044C234.533 315.556 232.617 309.697 229.507 302.475" fill="#492D21"/>
<path d="M193.718 274.75C195.208 283.212 196.155 288.203 196.546 289.707C197.132 291.963 200.031 306.309 202.779 306.061C204.616 305.896 210.546 301.02 220.591 291.443L218.458 286.567L205.202 293.79C204.399 282.856 203.654 276.088 202.953 273.485" fill="#926A56"/>
<path d="M198.844 282.567C200.247 288.236 203.126 294.211 203.986 298.599C204.153 299.483 213.337 295.674 213.358 291.732" fill="#F2A181"/>
<path d="M202.7 257.156C199.771 257.512 197.566 258.338 196.076 259.635C192.287 262.949 191.86 270.618 194.789 282.642C194.601 283.286 195.78 283.526 198.325 283.361C200.871 283.196 203.163 282.708 205.202 281.873L204.096 267.098" fill="#FCCC4F"/>
<path d="M197.667 267.37C197.348 274.436 197.746 279.758 198.867 283.319C199.973 283.295 201.015 283.138 201.977 282.857L197.667 267.37Z" fill="#E9BD4C"/>
<path d="M223.707 223.878C226.354 227.803 225.833 233.323 225.175 238.223C224.85 240.694 224.517 243.173 224.184 245.653C224.032 246.826 223.823 248.115 223.02 248.876C222.21 249.636 221.053 249.628 220.004 249.57C220.012 251.627 220.026 253.677 220.033 255.726C216.967 255.809 213.894 255.825 210.827 255.768C210.827 254.33 210.553 252.9 210.032 251.586C208.528 251.553 207.523 249.834 206.937 248.256C206.257 246.438 205.765 244.529 205.288 242.628C204.659 240.108 204.044 237.538 203.986 234.91C203.928 232.29 204.478 229.555 205.939 227.53C206.93 226.142 208.289 225.167 209.678 224.332C211.58 223.2 213.865 222.299 215.832 223.299" fill="#926A56"/>
<path d="M220.534 242.57C220.172 240.513 220.194 239.347 220.787 237.976C220.982 237.521 221.243 237.091 221.59 236.81C222.067 236.422 222.703 236.348 223.231 236.612C223.578 236.786 223.86 237.108 224.056 237.496C224.685 234.728 224.815 231.778 224.634 228.902C224.345 224.34 221.944 220.812 218.43 219.167C211.928 216.118 202.585 219.134 199.946 226.423C197.95 231.935 198.962 239.885 202.78 244.496C206.165 248.586 211.024 249.19 215.508 248.347C217.808 247.917 221.351 248.173 222.537 244.603C222.631 244.331 222.421 244.058 222.175 244.074C221.25 244.157 220.599 242.95 220.534 242.57Z" fill="#444952"/>
<path d="M221.034 232.876C221.272 233.306 221.214 233.885 221.446 234.331C221.822 235.075 222.328 235.339 223.015 235.703C224.121 236.289 223.861 238.124 223.825 238.95C224.664 238.314 224.794 236.595 224.997 235.719C225.221 234.736 225.365 233.728 225.618 232.752C225.864 231.81 226.284 230.918 226.363 229.918C226.631 226.472 224.736 222.423 222.451 220.489C220.788 219.084 218.249 219.142 216.369 220.572C215.581 221.175 214.981 222.084 214.634 223.092C214.482 223.53 214.38 224.034 214.561 224.447" fill="#444952"/>
<path d="M206.259 257.198C206.411 255.999 206.7 254.603 207.676 254.123C207.944 253.991 208.247 253.958 208.537 253.917C211.531 253.537 214.546 253.371 217.562 253.429C218.806 253.454 220.093 253.528 221.206 254.165C222.956 255.165 223.918 257.313 224.764 259.33" fill="#E9BD4C"/>
<path d="M231.619 301.218C231.199 300.516 230.237 299.665 229.89 298.888C229.059 297.02 228.328 289.145 228.618 287.137C228.921 284.98 230.592 283.823 231.344 279.03C232.313 272.848 230.1 268.047 228.856 265.99C227.106 263.081 228.148 263.097 227.547 259.535C227.439 258.891 227.309 258.205 226.925 257.759C226.549 257.321 223.939 255.957 223.425 255.866C218.551 255.007 215.695 255.676 210.77 255.924C208.333 256.048 205.903 256.37 203.509 256.974C200.87 257.643 198.563 258.445 198.021 262.543C197.174 268.89 197.883 275.311 199.568 281.327C200.689 285.319 207.371 299.119 205.715 301.788C205.339 302.4 204.392 303.557 204.276 304.325C203.856 307.11 209.374 308.094 211.732 308.317C215.333 308.647 219.455 308.424 223.064 308.234C225.797 308.085 231.771 306.995 232.19 303.144C232.277 302.383 231.951 301.772 231.619 301.218Z" fill="#FCCC4F"/>
<path d="M230.586 280.22C230.586 281.344 230.037 282.848 229.856 283.443C229.176 283.84 226.457 284.509 224.895 283.699C224.671 281.22 223.919 277.609 222.653 272.849C227.939 277.071 230.586 279.526 230.586 280.22Z" fill="#E9BD4C"/>
<path d="M207.856 245.793C205.983 245.181 203.965 246.388 202.714 248.099C201.268 250.074 200.646 253.14 201.991 255.197C202.497 255.966 203.213 256.511 203.951 256.974C206.178 258.395 208.825 259.23 211.306 258.536C213.786 257.842 215.963 255.305 215.934 252.379C215.912 249.743 214.22 247.537 212.513 245.752" fill="#444952"/>
<path d="M227.094 277.634C233.096 294.194 237.392 302.475 239.995 302.475C241.882 302.475 245.151 294.831 249.794 279.543L245.397 277.163L240.487 286.765L235.526 268.857" fill="#926A56"/>
<path d="M244.521 278.873C245.491 277.121 245.946 275.634 245.874 274.394C245.83 273.684 245.462 270.304 245.773 269.643C246.076 268.973 246.821 266.8 247.241 266.378C247.667 265.957 249.229 265.279 249.605 265.577C249.989 265.883 250.466 264.494 251.102 264.618C251.731 264.734 252.259 265.337 252.259 266.007C252.259 266.668 253.106 266.792 253.214 267.271C253.315 267.75 253.265 268.18 253.424 268.535C253.583 268.899 254.053 268.725 254.219 269.626C254.371 270.452 254.161 270.527 254.219 270.957C254.27 271.378 254.588 271.337 254.48 272.138C254.378 272.948 253.894 273.989 253.467 274.89C253.048 275.799 252.173 276.931 251.016 277.733C250.444 278.13 250.133 278.815 249.584 279.989" fill="#926A56"/>
<path d="M246.938 259.684C246.83 259.486 246.519 259.156 246.164 259.445C245.803 259.734 245.911 260.23 245.991 260.428C246.041 260.56 246.931 262.849 248.652 267.304C248.797 267.494 248.999 267.452 249.274 267.171C249.578 266.874 249.679 266.651 249.578 266.502C247.893 262.089 247.01 259.808 246.938 259.684Z" fill="#1B227A"/>
<path d="M249.743 266.056C249.237 267.089 248.651 267.42 248.116 267.99C247.704 268.436 247.754 268.717 247.299 269.18C248.101 269.105 247.964 268.568 248.998 267.717C249.483 267.32 249.974 266.891 250.068 266.213C250.104 265.982 249.866 265.858 249.743 266.056Z" fill="#F2A181"/>
<path d="M218.82 255.487C221.163 255.619 227.982 254.255 231.772 258.784C234.946 262.577 236.769 272.527 238.049 276.559C234.867 280.27 231.801 283.253 226.984 282.055C226.804 281.898 224.41 273.295 222.667 272.535" fill="#FCCC4F"/>
<path d="M221.422 365.635C220.539 359.099 215.058 338.836 214.826 338.282C211.847 335.638 209.873 332.911 208.882 330.704C208.21 335.15 209.981 339.538 211.645 343.629C214.544 350.769 216.266 358.537 218.76 365.875" fill="#492D21"/>
<path d="M452.625 262.478C448.749 267.246 446.008 297.756 445.907 298.888C445.842 299.64 439.297 304.21 426.273 312.581L429.021 316.176C442.898 312.185 451.085 308.458 453.58 305.012C455.698 302.086 459.206 288.666 464.094 264.75C460.739 257.974 456.913 257.214 452.625 262.478Z" fill="#BF9786"/>
<path d="M512.293 443.877C513.356 446.216 514.152 447.753 514.687 448.497C515.49 449.604 518.968 447.092 518.99 446.183C519.011 445.579 517.977 443.439 515.902 439.762" fill="#926A56"/>
<path d="M520.537 446.529C521.036 447.339 521.701 448.554 522.526 450.165L519.452 453.372L518.65 452.975C518.31 454.025 517.832 454.892 517.211 455.57C516.516 456.322 514.904 457.578 514.029 458.049C510.97 459.677 508.41 459.925 508.055 459.504C506.595 457.752 510.644 455.545 511.404 454.967C513.58 453.322 514.173 450.513 513.949 448.918C513.783 447.761 513.479 447.67 514.036 447.488C514.347 447.348 514.701 447.389 515.106 447.612C516.032 448.124 517.16 448.083 517.912 447.273C518.346 446.81 518.715 446.232 518.816 445.563C519.46 445.397 520.031 445.72 520.537 446.529Z" fill="#1B227A"/>
<path d="M455.048 455.909C454.535 457.347 454.311 458.537 454.376 459.488C454.477 460.909 458.606 461.017 459.091 460.273C459.409 459.785 459.648 457.364 459.807 453.009" fill="#926A56"/>
<path d="M460.182 461.529C460.182 462.521 460.052 463.818 459.806 465.43H455.04L454.802 464.554C453.775 465.14 452.856 465.43 452.046 465.43H448.026C445.082 465.43 443.412 465.016 443.339 464.446C443.029 462.083 446.543 462.19 447.454 462.19C450.087 462.19 452.936 460.835 453.551 459.38C454.006 458.314 453.804 458.05 454.346 458.248C454.679 458.323 454.946 458.579 455.163 459.017C455.669 460.025 456.617 460.703 457.651 460.504C458.237 460.389 458.83 460.141 459.264 459.653C459.871 459.918 460.182 460.546 460.182 461.529Z" fill="#1B227A"/>
<path d="M479.333 357.049C479.304 357.247 475.442 352.189 475.399 352.404C473.865 361.255 466.721 390.839 464.349 398.599V398.616C464.002 399.698 462.165 402.045 460.646 402.483C457.16 403.524 451.592 402.161 451.144 394.533C451.093 393.699 451.259 392.781 451.173 391.781C450.182 380.039 460.01 328.266 460.256 324.968C460.494 321.663 466.178 324.043 467.769 323.431C475.71 320.423 481.408 344.669 479.333 357.049Z" fill="#492D21"/>
<path d="M464.803 402.789C463.733 399.12 464.008 395.129 465.642 390.823C456.501 382.799 451.7 381.237 451.237 386.138C451.164 386.716 450.658 391.691 450.658 394.501C450.665 404.549 453.724 436.382 453.5 455.818V457.082C455.026 457.429 457.123 457.586 459.806 457.562C459.987 457.562 460.182 457.562 460.378 457.545C461.52 445.439 464.001 428.985 465.172 412.425C465.461 408.359 465.071 403.698 464.803 402.789Z" fill="#492D21"/>
<path d="M499.776 400.31C497.035 396.418 494.135 394.674 493.282 391.707C491.286 384.815 491.828 356.842 491.64 349.074C492.204 347.488 497.483 331.613 486.766 319.911C480.344 323.06 474.559 324.828 469.417 325.208C465.368 325.506 462.316 325.423 460.255 324.969C464.08 331.555 466.105 336.315 466.329 339.24C466.901 346.686 479.086 391.674 480.012 394.137C482.131 399.756 484.474 401.963 485.247 403.111C490.649 411.144 503.29 428.035 512.872 444.215L513.523 445.265C514.81 444.761 516.647 443.571 519.034 441.695C513.87 430.927 508.468 412.656 499.776 400.31Z" fill="#492D21"/>
<path d="M452.625 262.477C454.548 259.957 462.807 256.056 470.971 256.354C476.59 256.561 494.474 258.66 496.181 262.957C497.056 265.155 496.969 286.021 495.689 293.781C494.727 299.615 491.82 314.614 491.82 318.101C491.82 321.589 493.462 323.084 492.695 324.101C490.981 326.365 478.167 327.381 472.664 327.381C467.768 327.381 459.43 325.894 459.01 324.101C458.381 321.44 459.965 321.539 460.182 318.746C460.392 315.961 461.549 297.557 460.117 294.88C457.839 290.641 454.382 278.608 454.209 275.41C454.028 272.212 450.701 265.006 452.625 262.477Z" fill="#BF9786"/>
<path d="M466.17 248.438C466.134 253.611 466.018 256.305 465.837 256.511C465.656 256.718 465.114 257.065 464.225 257.544C464.861 262.048 465.671 264.131 466.662 263.792C467.645 263.461 471.391 261.412 477.907 257.652C476.981 257.222 476.518 256.801 476.518 256.387C476.518 255.966 476.959 251.685 477.834 243.554" fill="#926A56"/>
<path d="M468.803 222.911C467.624 221.894 465.925 221.853 464.594 222.597C463.256 223.332 462.273 224.745 461.716 226.315C461.174 227.828 461.007 229.629 461.709 231.059C460.725 231.422 460.118 232.646 460.118 233.827C460.111 235.108 460.776 236.348 461.369 237.389C461.94 238.381 463.17 238.984 464.182 238.728C464.912 238.538 465.534 237.976 465.975 237.29C466.424 236.612 466.72 235.819 466.988 235.025C468.246 231.34 469.1 227.497 469.721 223.613" fill="#444952"/>
<path d="M472.955 220.241C471.53 220.679 467.777 219.795 466.743 221.572C465.709 223.34 464.798 227.629 464.414 228.811C463.641 231.166 463.134 233.686 462.57 236.116C461.84 239.281 459.96 245.239 462.672 247.884C463.445 248.644 464.472 248.735 465.434 248.933C466.714 249.198 467.994 249.495 469.274 249.76C471.263 250.164 473.461 250.644 475.435 249.908C478.075 248.933 479.521 244.785 480.201 241.975L484.084 225.861L472.955 220.241Z" fill="#926A56"/>
<path d="M478.776 243.587C478.725 244.082 478.848 244.504 479.152 244.851C479.55 245.305 480.251 245.132 480.714 244.892C482.044 244.198 482.84 242.537 482.941 240.909C483.057 239 481.987 237.248 480.54 237.934C479.687 238.331 479.26 239.537 479.376 240.578" fill="#926A56"/>
<path d="M482.341 234.761C481.886 236.364 480.685 240 479.412 239.645C478.14 239.29 479.926 233.596 481.032 231.315C479.427 231.307 477.452 231.026 476.874 229.315C476.744 228.935 476.643 228.431 476.288 228.348C476.006 228.274 475.746 228.538 475.5 228.728C474.372 229.555 472.839 228.745 471.942 227.605C471.74 227.348 471.501 227.043 471.197 227.067C471.009 227.084 470.843 227.216 470.691 227.348C468.847 228.844 463.937 228.77 463.951 226.134C462.338 227.076 461.29 224.787 461.391 223.225C461.485 221.655 462.512 219.043 464.739 219.109C464.624 217.184 465.947 215.986 467.285 214.812C468.623 213.639 470.329 213.11 472.014 213.027C474.676 212.887 477.698 214.143 478.61 217.002C478.675 217.209 478.74 217.44 478.906 217.556C479.087 217.68 479.326 217.605 479.528 217.547C481.546 216.928 483.874 217.291 485.429 218.886C486.991 220.481 487.512 223.407 486.311 225.365C487.873 225.786 488.705 227.902 488.466 229.712C488.22 231.522 487.179 233.05 486.102 234.397C487.794 235.017 488.466 237.653 487.606 239.43C486.752 241.207 484.554 242.165 482.797 241.876C483.202 240.042 482.507 237.943 480.96 237.612" fill="#444952"/>
<path d="M466.294 265.643C465.932 284.691 465.419 300.012 464.739 311.598L468.413 317.391L470.944 310.135C471.653 296.161 470.857 281.393 468.55 265.841L466.294 265.643Z" fill="#492D21"/>
<path d="M465.448 263.139L465.535 263.528C465.701 264.272 465.954 264.99 466.294 265.643L468.55 265.842C469.577 265.23 470.156 264.602 470.286 263.941C470.423 263.28 469.584 262.412 467.769 261.338L467.437 261.487C466.677 261.825 466.005 262.379 465.477 263.098L465.448 263.139Z" fill="#492D21"/>
<path d="M476.773 253.686C478.067 254.743 479.094 255.925 479.846 257.231C478.689 260.264 475.239 265.42 472.347 267.875C471.45 265.123 469.924 262.941 467.769 261.338C473.229 260.049 476.23 257.495 476.773 253.686Z" fill="#EAEAEA"/>
<path d="M467.769 261.337C465.896 262.188 464.399 263.808 463.285 266.213C462.924 262.965 463.126 259.949 463.893 257.164C464.905 255.222 465.621 254.23 466.048 254.197C465.874 256.495 466.445 258.875 467.769 261.337Z" fill="#EAEAEA"/>
<path d="M464.805 402.789C464.422 401.483 464.277 400.128 464.263 398.814C464.291 398.748 464.328 398.674 464.349 398.616V398.599C465.948 393.377 469.693 378.287 472.449 366.271L468.182 348.876C466.454 372.486 465.304 385.138 464.74 386.832C463.886 389.377 461.247 397.55 461.507 399.31C461.76 401.079 463.431 404.31 463.178 407.095C462.917 409.879 462.954 434.902 462.954 435.035C463.8 427.804 464.631 420.127 465.174 412.425C465.463 408.359 465.072 403.698 464.805 402.789Z" fill="#5E3A2B"/>
<path d="M411.276 280.03C401.527 295.979 382.306 299.88 368.341 288.732C354.384 277.592 350.971 255.627 360.727 239.669C370.475 223.72 389.696 219.82 403.661 230.968C417.618 242.107 421.031 264.072 411.276 280.03Z" stroke="#492D21" stroke-width="10.564" stroke-dasharray="11 11"/>
<path d="M406.914 287.162L452.834 350.546" stroke="#492D21" stroke-width="10.564" stroke-linecap="round" stroke-linejoin="round" stroke-dasharray="11 11"/>
<path d="M449.524 327.06C447.831 327.663 446.551 328.109 445.676 328.398C444.823 328.679 440.773 328.183 438.387 328.803C437.237 329.109 436.036 329.572 435.292 330.613C434.547 331.663 434.503 333.448 435.472 334.208C435.754 334.431 436.131 334.613 436.159 334.993C436.181 335.191 436.094 335.373 436.044 335.563C435.885 336.133 436.065 336.803 436.478 337.174C436.883 337.555 437.497 337.604 437.953 337.307C437.96 338.546 438.922 339.678 440.007 339.728C439.963 339.042 440.151 338.298 440.65 337.91C441.128 337.538 441.75 337.579 442.328 337.513C443.333 337.398 444.31 336.869 445.025 336.042C445.539 335.456 445.922 334.737 446.392 334.109C447.354 332.811 448.699 331.886 450.153 331.53" fill="#926A56"/>
<g style="mix-blend-mode:multiply" opacity="0.451">
<path d="M496.181 262.957C496.109 262.775 496 262.601 495.87 262.428L484.083 275.609C482.21 281.302 479.404 291.649 475.672 306.647C472.129 308.54 469.171 310.193 466.799 311.606C465.895 312.143 463.35 314.101 460.334 316.49C460.269 317.514 460.211 318.324 460.182 318.746C459.965 321.539 459.632 321.522 460.254 324.183C460.254 325.943 459.661 328.596 459.264 331.216C468.122 328.629 486.411 322.084 487.098 321.655C488.14 321.01 493.52 296.268 496.637 281.236C497.121 272.088 496.825 264.568 496.181 262.957Z" fill="#815F51"/>
</g>
<path d="M484.018 274.171C483.288 276.543 480.995 288.203 477.133 309.144C473.359 310.226 470.285 311.474 467.913 312.879C466.076 313.97 458.736 319.068 445.907 328.175L447.824 333.323C470.661 324.076 482.579 319.143 483.577 318.523C485.081 317.589 498.836 277.931 498.836 270.857C498.836 268.081 497.852 265.263 495.878 262.42" fill="#BF9786"/>
<path d="M425.153 319.25C424.047 319.407 422.897 318.448 422.694 317.192C422.658 316.944 422.644 316.68 422.528 316.457C422.318 316.077 421.877 316.002 421.501 315.878C420.055 315.391 419.136 313.721 418.789 312.052C418.601 311.159 418.543 310.209 418.782 309.341C419.021 308.465 419.599 307.68 420.366 307.432C420.518 307.383 420.684 307.35 420.836 307.416C420.98 307.482 421.089 307.623 421.183 307.771C421.631 308.441 421.964 309.209 422.166 310.019C422.311 310.614 422.42 311.283 422.854 311.639C423.143 311.887 423.526 311.936 423.852 312.118C424.502 312.482 424.828 313.316 425.074 314.101C425.435 315.291 424.951 318.01 425.153 319.25Z" fill="#926A56"/>
<path d="M429.289 311.102C429.484 310.151 429.123 308.994 428.544 308.267C427.973 307.532 427.185 307.069 426.382 306.73C426.172 306.639 425.883 306.581 425.76 306.796C425.666 306.945 425.717 307.16 425.803 307.317C426.107 307.912 426.751 308.185 427.076 308.763C427.199 308.978 427.271 309.226 427.373 309.457C427.734 310.308 428.472 310.945 429.289 311.102Z" fill="#926A56"/>
<g style="mix-blend-mode:multiply" opacity="0.451">
<path d="M458.316 290.302C456.154 284.179 454.874 279.849 454.483 277.328C452.929 286.336 453.442 302.111 452.133 303.458C451.265 304.359 446.464 307.648 437.75 313.325C443.925 311.111 451.468 307.929 453.579 305.012C454.78 303.359 456.559 297.269 458.316 290.302Z" fill="#815F51"/>
</g>
<path d="M466.164 249.082C469.844 250.008 472.014 250.404 472.665 250.28C473.648 250.098 470.539 252.206 469.96 252.28C469.577 252.338 468.311 252.189 466.164 251.859V249.082Z" fill="#87624F"/>
<path fill-rule="evenodd" clip-rule="evenodd" d="M132.069 220.043C131.997 219.613 133.515 218.927 134.629 218.539C135.743 218.15 138.708 217.117 139.452 217.208C140.197 217.299 140.277 217.58 140.602 217.465C140.92 217.349 140.826 217.084 141.398 216.531C141.976 215.977 143.683 215.382 144.797 214.994C145.91 214.605 147.009 214.324 147.161 214.729C147.313 215.126 147.429 215.894 147.255 216.101C147.089 216.316 147.082 216.291 146.923 218.225C146.843 219.307 146.344 220.134 144.854 220.539C142.967 221.043 142.15 219.497 141.716 218.894C141.282 218.283 141.116 218.241 140.834 218.34C140.552 218.44 140.407 218.588 140.342 219.365C140.277 220.15 140.667 221.696 138.91 222.605C136.603 223.811 135.301 223.638 134.441 222.58C133.277 221.142 133.371 221.092 133.132 221.026C133.016 220.993 132.43 221.051 132.322 220.836C132.206 220.588 132.105 220.274 132.069 220.043ZM142.642 219.051C143.039 219.811 143.849 220.299 144.977 219.902C146.033 219.539 146.308 218.894 146.395 217.605C146.467 216.481 146.171 215.754 145.889 215.58C145.607 215.415 145.071 215.671 143.791 216.192C142.504 216.713 142.078 216.886 142.07 217.423C142.07 217.622 142.251 218.291 142.642 219.051ZM134.68 221.663C135.374 222.671 136.111 222.968 137.543 222.456C139.568 221.745 139.669 220.952 139.626 220.076C139.583 219.2 139.409 218.539 139.308 218.382C139.047 217.944 138.614 218.068 137.305 218.456C136.003 218.836 134.267 219.365 134.115 219.688C133.964 220.002 134.072 220.787 134.68 221.663Z" fill="#170D54"/>
<path d="M173.326 124.051H229.292C232.901 124.051 235.829 127.398 235.829 131.521V173.08C235.829 177.204 232.901 180.551 229.292 180.551H173.326C169.711 180.551 166.789 177.204 166.789 173.08V131.521C166.789 127.398 169.711 124.051 173.326 124.051Z" fill="#C3ECFE"/>
<path d="M228.071 162.246L244.631 156.908L229.864 152.503" fill="#C3ECFE"/>
<path opacity="0.251" d="M191.34 149.223H201.645V151.925H191.34V149.223Z" fill="#0964AF"/>
<path opacity="0.251" d="M184.066 145.182H201.646V147.884H184.066V145.182Z" fill="#0964AF"/>
<path opacity="0.251" d="M175.987 160.445H226.529V163.784H175.987V160.445Z" fill="#0964AF"/>
<path opacity="0.251" d="M175.987 165.437H226.529V168.775H175.987V165.437Z" fill="#0964AF"/>
<path opacity="0.251" d="M184.066 141.141H201.646V143.843H184.066V141.141Z" fill="#0964AF"/>
<path opacity="0.251" d="M195.195 137.107H201.645V139.81H195.195V137.107Z" fill="#0964AF"/>
<path opacity="0.251" d="M205.846 145.554C205.846 152.082 210.474 157.371 216.187 157.371C221.9 157.371 226.529 152.082 226.529 145.554C226.529 139.025 221.9 133.736 216.187 133.736C210.474 133.736 205.846 139.025 205.846 145.554Z" fill="#0964AF"/>
<path opacity="0.188" d="M214.156 145.736C213.136 144.975 212.464 143.661 212.464 142.174C212.464 139.819 214.127 137.918 216.188 137.918C218.249 137.918 219.912 139.819 219.912 142.174C219.912 143.661 219.24 144.975 218.22 145.736C220.541 146.364 222.27 148.727 222.27 151.57V155.107C220.556 156.528 218.466 157.371 216.188 157.371C213.91 157.371 211.82 156.528 210.106 155.107V151.57C210.106 148.727 211.835 146.364 214.156 145.736Z" fill="#0964AF"/>
<path d="M173.284 105.837C171.816 110.052 167.629 112.109 163.941 110.423C160.252 108.746 158.452 103.961 159.927 99.7466C161.395 95.5321 165.575 93.4744 169.27 95.1602C172.958 96.8378 174.752 101.622 173.284 105.837Z" fill="#FCCC4F"/>
<path d="M163.542 101.812L165.155 105.92L170.557 102.102" stroke="white" stroke-width="2.113" stroke-linecap="round" stroke-linejoin="round" stroke-dasharray="6 6"/>
<path d="M544.516 326.168C544.516 340.15 534.602 351.48 522.366 351.48C510.13 351.48 500.215 340.15 500.215 326.168C500.215 312.185 510.13 300.855 522.366 300.855C534.602 300.855 544.516 312.185 544.516 326.168Z" fill="white" stroke="#FCCC4F" stroke-width="4.226" stroke-linecap="round" stroke-linejoin="round" stroke-dasharray="4 4"/>
<path d="M537.892 326.167C537.892 335.968 530.942 343.91 522.366 343.91C513.789 343.91 506.839 335.968 506.839 326.167C506.839 316.366 513.789 308.425 522.366 308.425C530.942 308.425 537.892 316.366 537.892 326.167Z" stroke="#FCCC4F" stroke-width="4.226" stroke-linecap="round" stroke-linejoin="round" stroke-dasharray="4 4"/>
<path d="M531.131 326.167C531.131 331.704 527.212 336.183 522.367 336.183C517.529 336.183 513.602 331.704 513.602 326.167C513.602 320.63 517.529 316.151 522.367 316.151C527.212 316.151 531.131 320.63 531.131 326.167Z" stroke="#FCCC4F" stroke-width="4.226" stroke-linecap="round" stroke-linejoin="round" stroke-dasharray="4 4"/>
<path d="M526.09 326.167C526.09 328.514 524.419 330.415 522.366 330.415C520.312 330.415 518.649 328.514 518.649 326.167C518.649 323.82 520.312 321.911 522.366 321.911C524.419 321.911 526.09 323.82 526.09 326.167Z" fill="#FCCC4F"/>
<path d="M522.366 326.167L550.916 293.542" stroke="#2F3F91" stroke-width="2.113" stroke-dasharray="6 6"/>
<path d="M555.508 294.054H550.424V288.236" stroke="#2F3F91" stroke-width="2.113" stroke-dasharray="6 6"/>
<path d="M552.97 296.963H547.879V291.146" stroke="#2F3F91" stroke-width="2.113" stroke-dasharray="6 6"/>
<path d="M550.389 299.905H545.298V294.096" stroke="#2F3F91" stroke-width="2.113" stroke-dasharray="6 6"/>
<path d="M527.263 326.341H522.171V320.523" stroke="#2F3F91" stroke-width="2.113" stroke-dasharray="6 6"/>
<path d="M59.0889 243.446C59.0889 245.116 57.9029 246.471 56.4493 246.471C54.9885 246.471 53.8025 245.116 53.8025 243.446C53.8025 241.777 54.9885 240.422 56.4493 240.422C57.9029 240.422 59.0889 241.777 59.0889 243.446Z" fill="#FCCC4F"/>
<path d="M558.158 177.013C558.158 178.682 556.972 180.029 555.518 180.029C554.057 180.029 552.871 178.682 552.871 177.013C552.871 175.344 554.057 173.988 555.518 173.988C556.972 173.988 558.158 175.344 558.158 177.013Z" fill="#FCCC4F"/>
<path d="M221.487 121.695C221.017 121.695 220.641 121.266 220.641 120.728V113.936C220.641 113.398 221.017 112.969 221.487 112.969C221.95 112.969 222.326 113.398 222.326 113.936V120.728C222.326 121.266 221.95 121.695 221.487 121.695Z" fill="#FCCC4F"/>
<path d="M224.461 118.291H218.509C218.046 118.291 217.67 117.861 217.67 117.332C217.67 116.795 218.046 116.365 218.509 116.365H224.461C224.923 116.365 225.307 116.795 225.307 117.332C225.307 117.861 224.923 118.291 224.461 118.291Z" fill="#FCCC4F"/>
<path d="M75.77 380.699C75.3071 380.699 74.9238 380.269 74.9238 379.741V372.94C74.9238 372.411 75.3071 371.973 75.77 371.973C76.2328 371.973 76.6161 372.411 76.6161 372.94V379.741C76.6161 380.269 76.2328 380.699 75.77 380.699Z" fill="#FCCC4F"/>
<path d="M78.7431 377.302H72.7987C72.3287 377.302 71.9526 376.873 71.9526 376.336C71.9526 375.807 72.3287 375.377 72.7987 375.377H78.7431C79.2132 375.377 79.5892 375.807 79.5892 376.336C79.5892 376.873 79.2132 377.302 78.7431 377.302Z" fill="#FCCC4F"/>
<path d="M580.27 279.005C579.807 279.005 579.424 278.575 579.424 278.038V271.245C579.424 270.708 579.807 270.278 580.27 270.278C580.733 270.278 581.116 270.708 581.116 271.245V278.038C581.116 278.575 580.733 279.005 580.27 279.005Z" fill="#FCCC4F"/>
<path d="M583.251 275.609H577.299C576.829 275.609 576.453 275.171 576.453 274.642C576.453 274.113 576.829 273.675 577.299 273.675H583.251C583.713 273.675 584.089 274.113 584.089 274.642C584.089 275.171 583.713 275.609 583.251 275.609Z" fill="#FCCC4F"/>
</svg>
