<svg width="509" height="320" viewBox="0 0 509 320" fill="none" xmlns="http://www.w3.org/2000/svg">
<path d="M499.954 244.267C491.205 213.413 508.238 180.908 490.774 151.67C485.227 142.385 476.562 134.211 469.28 125.531C458.286 112.426 450.381 98.0182 446.073 83.2351C443.256 73.5653 441.954 63.7182 437.976 54.207C426.942 27.8252 393.98 6.10238 357.696 1.30171C328.455 -2.56869 298.198 2.38443 274.285 13.5989C166.872 63.9671 110.912 40.1411 73.4147 57.519C49.9107 68.4115 38.3353 88.6657 31.3552 108.914C24.3766 129.162 21.5796 164.723 11.4354 187.627C-22.2502 263.675 27.0741 290.737 49.0676 298.694C49.8531 298.979 53.1713 299.374 53.9802 299.623L110.022 300.446C130.989 300.446 146.574 300.376 155.676 300.376C191.239 301.367 220.705 298.814 251.713 299.141C328.965 299.953 401.307 300.247 474.077 299.805C484.727 299.741 490.898 297.011 498.806 292.157C507.234 286.985 509.358 277.783 507.987 269.327C506.617 260.869 502.332 252.66 499.954 244.267Z" fill="#F9F5F3"/>
<g opacity="0.502">
<path opacity="0.502" d="M257.955 74.0447H312.492L337.543 22.0479H283.005L257.955 74.0447Z" fill="white"/>
<path opacity="0.502" d="M345.858 22.0479L320.808 74.0447H375.345L400.396 22.0479H345.858Z" fill="white"/>
<path opacity="0.502" d="M230.395 131.253H284.932L309.982 79.2549H255.445L230.395 131.253Z" fill="white"/>
<path opacity="0.502" d="M293.246 131.253H347.783L372.833 79.2549H318.294L293.246 131.253Z" fill="white"/>
</g>
<path d="M304.153 201.969C304.02 202.101 304.085 202.331 304.269 202.37C305.695 202.672 310.178 203.65 310.183 204.03C310.191 204.483 306.163 203.706 305.952 204.067C305.739 204.43 309.685 205.088 309.614 205.573C309.544 206.057 305.964 205.337 305.863 205.531C305.762 205.724 309.117 206.782 309.247 207.091C309.376 207.401 305.658 206.709 305.468 206.909C305.28 207.11 307.686 208.442 307.596 208.661C307.506 208.88 307.482 209.042 301.204 207.597L298.757 206.923L297.057 205.293L298.114 202.667C303.162 200.418 305.784 199.354 305.975 199.475C306.25 199.649 306.212 199.928 304.153 201.969Z" fill="#FFC0BB"/>
<path d="M272.993 168.275L279.967 195.958L299.112 201.955C298.826 205.621 298.7 207.445 298.734 207.421C298.787 207.387 273.299 207.642 270.515 205.435C268.659 203.965 267.473 193.243 266.957 173.272L272.993 168.275Z" fill="#BF9786"/>
<path d="M240.253 292.235L244.228 292.219C244.548 292.218 244.825 291.961 244.892 291.605C244.937 291.368 245.127 291.21 245.332 291.238L245.385 291.234C245.793 291.287 245.388 291.46 245.385 291.928L246.678 293.342L247.462 294.053C248.348 294.854 249.433 295.321 250.564 295.386L251.744 295.455C252.101 295.477 252.434 295.659 252.67 295.96L252.784 296.105C253.232 296.678 253.476 297.421 253.471 298.188L244.282 298.302C243.969 298.3 243.664 298.196 243.403 298.003L242.137 297.096L242.128 298.288L239.558 298.271L239.595 293.411C239.6 292.759 239.682 292.236 240.253 292.235Z" fill="#3C2340"/>
<path d="M242.132 298.548L239.561 298.571L239.558 298.257L242.129 298.233L242.132 298.548Z" fill="#07085B"/>
<path d="M253.474 298.446L243.92 298.532C243.882 298.532 243.853 298.502 243.853 298.465L243.851 298.217L253.471 298.132L253.474 298.446Z" fill="#07085B"/>
<path d="M266.596 292.235L270.57 292.219C270.891 292.218 271.168 291.961 271.235 291.605C271.28 291.368 271.47 291.21 271.675 291.238L271.728 291.234C272.135 291.287 271.731 291.46 271.728 291.928L273.021 293.342L273.805 294.053C274.691 294.854 275.776 295.321 276.906 295.386L278.087 295.455C278.443 295.477 278.776 295.659 279.013 295.96L279.126 296.105C279.574 296.678 279.819 297.421 279.814 298.188L270.625 298.302C270.312 298.3 270.007 298.196 269.746 298.003L268.48 297.096L268.47 298.288L265.9 298.271L265.938 293.411C265.942 292.759 266.025 292.236 266.596 292.235Z" fill="#3C2340"/>
<path d="M268.475 298.548L265.904 298.571L265.9 298.257L268.472 298.233L268.475 298.548Z" fill="#07085B"/>
<path d="M279.819 298.446L270.264 298.532C270.227 298.532 270.197 298.502 270.197 298.465L270.196 298.217L279.816 298.132L279.819 298.446Z" fill="#07085B"/>
<path d="M252.703 152.569C251.471 147.398 252.285 143.832 255.142 141.87C259.428 138.927 263.991 139.217 267.105 140.937C270.219 142.656 272.113 148.72 270.739 152.205L260.413 148.966L252.703 152.569Z" fill="#492D21"/>
<path d="M257.671 159.481L257.315 168.247L265.006 167.544L263.782 159.849L257.671 159.481Z" fill="#FFC0BB"/>
<path d="M264.362 163.509L263.78 159.849L257.671 159.481L257.546 162.518C258.808 163.671 261.037 164.825 264.362 163.509Z" fill="#F99893"/>
<path d="M268.644 153.11C268.222 154.088 268.515 155.156 269.297 155.493C270.08 155.829 271.057 155.31 271.478 154.331C271.9 153.353 271.608 152.285 270.825 151.948C270.043 151.612 269.066 152.131 268.644 153.11Z" fill="#F99893"/>
<path d="M268.247 158.875C268.502 158.455 268.718 158.007 268.894 157.539C269.39 156.279 269.656 154.937 269.793 153.764C269.823 153.512 269.868 153.263 269.916 153.014C270.112 152.009 270.131 150.942 269.916 149.837C269.224 146.287 266.225 143.563 262.625 143.224C257.773 142.767 253.68 146.522 253.587 151.264C253.077 150.967 252.498 150.89 251.985 151.107C250.998 151.525 250.62 152.863 251.143 154.097C251.664 155.33 252.887 155.991 253.873 155.573C254.011 155.515 254.134 155.438 254.248 155.347C254.578 159.39 257.823 162.57 261.788 162.584C263.728 162.59 265.5 161.837 266.847 160.594C266.937 160.523 267.032 160.437 267.13 160.339C267.567 159.905 267.934 159.408 268.247 158.875Z" fill="#FFC0BB"/>
<path d="M263.677 151.383C263.713 151.854 263.736 152.315 263.779 152.764C263.829 153.204 263.898 153.674 264.087 153.978L264.125 154.026C264.139 154.043 264.143 154.052 264.171 154.085C264.217 154.143 264.269 154.189 264.304 154.258C264.38 154.382 264.437 154.53 264.445 154.684C264.47 154.997 264.318 155.283 264.12 155.462C263.714 155.835 263.171 155.891 262.714 155.799C263.171 155.698 263.605 155.521 263.849 155.21C263.961 155.054 264.033 154.885 263.999 154.729C263.986 154.653 263.957 154.578 263.909 154.508C263.891 154.472 263.854 154.443 263.828 154.407L263.765 154.332L263.695 154.244C263.537 153.998 263.479 153.746 263.44 153.5C263.406 153.254 263.4 153.013 263.412 152.774C263.437 152.298 263.518 151.831 263.677 151.383Z" fill="#F99893"/>
<path d="M260.972 152.125C260.97 152.523 260.647 152.844 260.25 152.842C259.853 152.842 259.531 152.519 259.533 152.12C259.534 151.724 259.858 151.402 260.255 151.403C260.653 151.405 260.973 151.728 260.972 152.125Z" fill="#333333"/>
<path d="M267.148 152.552C267.146 152.95 266.823 153.271 266.426 153.269C266.029 153.268 265.707 152.944 265.709 152.547C265.711 152.151 266.034 151.829 266.431 151.83C266.829 151.832 267.15 152.155 267.148 152.552Z" fill="#333333"/>
<path d="M261.804 150.463C261.432 150.365 261.085 150.294 260.741 150.256C260.399 150.219 260.065 150.224 259.743 150.278C259.421 150.336 259.099 150.418 258.792 150.574C258.629 150.633 258.489 150.737 258.324 150.815C258.165 150.902 258.021 151.011 257.843 151.098C257.926 150.928 258.024 150.76 258.14 150.605C258.271 150.463 258.394 150.306 258.559 150.194C258.864 149.941 259.256 149.785 259.654 149.718C260.055 149.653 260.469 149.693 260.843 149.824C261.213 149.958 261.555 150.165 261.804 150.463Z" fill="#07085B"/>
<path d="M264.984 150.682C265.264 150.413 265.626 150.243 266.009 150.151C266.393 150.061 266.81 150.066 267.202 150.175C267.591 150.285 267.963 150.481 268.238 150.767C268.391 150.895 268.496 151.066 268.61 151.22C268.71 151.386 268.789 151.565 268.853 151.743C268.686 151.637 268.552 151.512 268.405 151.408C268.249 151.315 268.122 151.195 267.964 151.119C267.678 150.931 267.367 150.814 267.053 150.722C266.739 150.634 266.407 150.592 266.062 150.592C265.717 150.593 265.363 150.626 264.984 150.682Z" fill="#07085B"/>
<path d="M253.705 151.375C253.389 151.103 253.109 150.978 252.868 150.998L253.07 148.486L253.845 146.971C255.871 144.247 256.919 142.852 256.991 142.783C257.098 142.682 259.425 141.355 259.568 141.287C259.663 141.242 260.802 141.378 262.983 141.697C266.811 140.898 268.406 141.501 267.768 143.508C266.811 146.518 262.622 148.111 262.406 147.979C262.858 147.528 263.104 146.665 263.146 145.389C260.187 148.625 254.579 151.014 253.705 151.375Z" fill="#492D21"/>
<path d="M265.489 156.839C265.327 157.741 264.49 158.441 263.464 158.469C262.437 158.496 261.566 157.839 261.357 156.948L265.489 156.839Z" fill="white"/>
<path d="M255.357 166.176L266.184 166.146L267.556 172.543L261.615 188.082C257.653 183.817 255.672 181.379 255.672 180.769C255.672 179.856 252.931 173.001 253.387 172.087C253.692 171.478 254.348 169.507 255.357 166.176Z" fill="#FFC0BB"/>
<path d="M275.062 210.392C272.007 214.988 267.427 220.603 261.321 227.233L265.543 294.046C269.619 294.486 272.358 294.165 273.758 293.083C274.827 250.855 275.261 223.292 275.062 210.392Z" fill="#492D21"/>
<path d="M273.326 212.954C273.312 211.977 275.096 214.86 275.063 214.079C274.595 203.259 266.948 202.385 252.119 211.457L247.446 210.476L238.864 293.777C242.586 294.598 245.514 294.598 247.645 293.777L261.319 228.048C264.581 226.65 268.584 221.619 273.326 212.954Z" fill="#492D21"/>
<path d="M244.967 224.686C244.842 224.545 244.611 224.596 244.561 224.778C244.172 226.183 242.923 230.598 242.543 230.581C242.091 230.56 243.111 226.589 242.763 226.354C242.414 226.119 241.518 230.018 241.037 229.918C240.558 229.818 241.496 226.29 241.308 226.178C241.121 226.065 239.861 229.349 239.544 229.459C239.227 229.57 240.144 225.9 239.956 225.699C239.768 225.498 238.292 227.819 238.079 227.717C237.864 227.613 237.704 227.58 239.528 221.401L240.35 218.999L242.08 217.401L244.637 218.616C246.575 223.792 247.479 226.472 247.345 226.657C247.154 226.922 246.879 226.864 244.967 224.686Z" fill="#FFC0BB"/>
<path d="M256.316 167.182C259.919 169.363 263.148 169.363 266.005 167.182C267.63 171.471 268.364 173.692 268.21 173.846C267.98 174.076 265.438 181.01 265.438 181.24C265.438 181.472 262.434 184.244 261.047 182.164C259.661 180.084 258.737 180.316 256.889 175.926C255.039 171.534 253.653 170.148 254.115 169.686C254.423 169.378 255.157 168.543 256.316 167.182Z" fill="#492D21"/>
<path d="M255.673 166.146C248.361 166.755 243.943 168.278 242.42 170.715C240.135 174.373 234.652 195.394 235.107 201.792C235.412 206.058 236.937 212.304 239.678 220.53C242.115 220.835 243.791 220.225 244.706 218.702C242.878 207.125 242.115 200.879 242.42 199.964C242.725 199.051 244.553 193.871 247.904 184.427L246.991 212.304C254.302 216.874 263.746 217.331 275.325 213.674C276.848 183.512 275.63 167.974 271.669 167.06L266.184 166.146L263.899 179.399L255.673 166.146Z" fill="#BF9786"/>
<path d="M335.592 159.6L335.575 161.005L335.415 164.497L342.289 163.592L343.038 162.573L343.098 159.92L343.324 157.435H338.755L335.592 159.6Z" fill="#FFC0BB"/>
<path d="M346.129 141.545C347.865 140.29 349.78 140.204 351.869 141.285C355.005 142.908 355.274 148.849 354.134 150.323C352.995 151.8 354.349 153.667 352.025 155.631C349.7 157.596 345.899 158.452 343.612 156.383C342.087 155.003 341.787 152.677 342.711 149.406L346.129 141.545Z" fill="#492D21"/>
<path d="M331.431 149.358C331.862 150.386 331.546 151.5 330.726 151.845C329.905 152.19 328.891 151.637 328.46 150.61C328.027 149.582 328.343 148.468 329.165 148.122C329.984 147.777 331 148.329 331.431 149.358Z" fill="#F99893"/>
<path d="M343.399 156.806C343.277 157.745 343.178 158.783 343.098 159.92C341.561 161.165 339.576 161.802 337.506 161.535C336.824 161.446 336.179 161.264 335.575 161.004C335.624 159.892 335.606 158.862 335.435 158.368C335.12 157.464 337.775 156.943 343.399 156.806Z" fill="#F99893"/>
<path d="M331.791 155.395C331.53 154.952 331.309 154.482 331.128 153.989C330.621 152.666 330.357 151.259 330.225 150.03C330.195 149.767 330.151 149.505 330.103 149.244C329.907 148.192 329.899 147.074 330.134 145.921C330.889 142.213 334.045 139.391 337.808 139.07C342.878 138.639 347.117 142.606 347.171 147.57C347.707 147.264 348.31 147.187 348.845 147.421C349.872 147.867 350.253 149.27 349.696 150.555C349.141 151.842 347.858 152.522 346.831 152.075C346.688 152.013 346.56 151.932 346.443 151.836C346.059 156.062 342.643 159.36 338.5 159.335C336.475 159.324 334.633 158.52 333.238 157.206C333.144 157.129 333.046 157.041 332.944 156.937C332.493 156.478 332.113 155.955 331.791 155.395Z" fill="#FFC0BB"/>
<path d="M339.255 149.113C339.253 149.561 339.613 149.925 340.059 149.929C340.506 149.932 340.87 149.571 340.873 149.123C340.876 148.675 340.515 148.311 340.068 148.308C339.622 148.306 339.258 148.667 339.255 149.113Z" fill="#333333"/>
<path d="M332.625 149.413C332.621 149.861 332.982 150.225 333.429 150.228C333.875 150.231 334.239 149.871 334.242 149.423C334.244 148.976 333.885 148.611 333.438 148.607C332.992 148.606 332.628 148.967 332.625 149.413Z" fill="#333333"/>
<path d="M336.719 147.682C336.735 147.943 336.751 148.203 336.752 148.464C336.757 148.724 336.754 148.984 336.74 149.242C336.724 149.502 336.701 149.76 336.649 150.01C336.601 150.259 336.528 150.51 336.391 150.712C336.373 150.735 336.357 150.763 336.337 150.784C336.317 150.807 336.299 150.827 336.273 150.854C336.25 150.878 336.226 150.903 336.206 150.931C336.183 150.959 336.163 150.987 336.144 151.017C336.068 151.134 336.015 151.27 336.002 151.412C335.973 151.698 336.1 151.978 336.29 152.17C336.48 152.367 336.724 152.498 336.976 152.576C337.231 152.652 337.496 152.68 337.755 152.666C337.626 152.657 337.497 152.641 337.37 152.616C337.244 152.591 337.119 152.555 336.999 152.509C336.761 152.417 336.539 152.28 336.374 152.093C336.209 151.908 336.105 151.666 336.138 151.428C336.152 151.309 336.195 151.194 336.262 151.095C336.279 151.068 336.296 151.045 336.317 151.022C336.334 150.997 336.355 150.975 336.377 150.953L336.446 150.877C336.471 150.852 336.489 150.822 336.509 150.794C336.589 150.678 336.643 150.552 336.687 150.424C336.73 150.297 336.761 150.166 336.783 150.035C336.83 149.774 336.849 149.51 336.852 149.247C336.859 148.721 336.81 148.197 336.719 147.682Z" fill="#F99893"/>
<path d="M338.516 147.794C338.875 147.583 339.25 147.421 339.635 147.306C340.019 147.195 340.416 147.142 340.808 147.163C341.004 147.17 341.2 147.201 341.391 147.247C341.487 147.265 341.581 147.298 341.677 147.326C341.724 147.34 341.77 147.36 341.817 147.376C341.864 147.393 341.91 147.408 341.957 147.43C342.326 147.586 342.676 147.796 343.02 148.032C342.757 147.707 342.429 147.432 342.054 147.226C341.867 147.122 341.668 147.038 341.461 146.981C341.252 146.92 341.038 146.883 340.822 146.873C340.389 146.853 339.954 146.931 339.56 147.094C339.362 147.173 339.174 147.275 338.998 147.39C338.824 147.508 338.656 147.639 338.516 147.794Z" fill="#07085B"/>
<path d="M335.259 147.942C335.105 147.799 334.928 147.684 334.743 147.582C334.556 147.483 334.362 147.399 334.157 147.338C333.749 147.211 333.309 147.173 332.881 147.232C332.666 147.262 332.455 147.318 332.254 147.397C332.052 147.474 331.862 147.576 331.685 147.694C331.33 147.934 331.028 148.239 330.796 148.586C331.118 148.32 331.448 148.079 331.801 147.889C331.843 147.864 331.89 147.844 331.935 147.824C331.98 147.803 332.024 147.778 332.07 147.76C332.162 147.724 332.252 147.684 332.347 147.656C332.534 147.593 332.725 147.545 332.921 147.52C333.31 147.464 333.709 147.481 334.102 147.556C334.496 147.635 334.883 147.763 335.259 147.942Z" fill="#07085B"/>
<path d="M330.242 141.481C331.136 137.783 334 135.76 338.833 135.411C350.094 135.683 348.774 145.63 348.477 147.281C348.148 147.218 347.702 147.249 347.171 147.57C346.949 147.704 346.77 147.844 346.625 147.982C345.284 147.638 344.785 145.456 344.052 144.428C343.058 143.031 339 143.959 337.401 143.009C336.333 142.374 335.724 141.534 335.57 140.487C331.607 141.302 329.753 143.822 330.005 148.046C329.831 148.016 329.638 148.015 329.426 148.043C329.17 146.971 329.442 144.784 330.242 141.481Z" fill="#492D21"/>
<path d="M334.785 153.756C335.028 154.588 336.036 155.189 337.22 155.148C338.404 155.108 339.368 154.439 339.553 153.593L334.785 153.756Z" fill="white"/>
<path d="M304.421 185.293L296.918 181.815L298.506 177.905C300.894 178.731 303.31 179.551 305.757 180.363L304.421 185.293Z" fill="#FFC0BB"/>
<path d="M321.217 295.654L327.684 291.612L333.302 294.977L331.352 296.382L324.563 297.374C322.794 297.157 321.87 297.021 321.792 296.968C321.715 296.917 321.522 296.478 321.217 295.654Z" fill="#FFC0BB"/>
<path d="M336.818 237.036C336.201 251.964 335.865 260.714 335.807 263.292C335.722 267.157 333.749 295.846 332.892 298.337L328.093 297.993C325.91 260.963 325.16 240.643 325.846 237.036C326.532 233.428 330.19 233.428 336.818 237.036Z" fill="#FFC0BB"/>
<path d="M321.217 295.653L319.578 296.72C318.819 297.206 319.162 298.383 320.063 298.383H332.508C332.947 298.383 333.303 298.027 333.303 297.587V294.977C325.015 297.621 322.151 296.817 321.217 295.653Z" fill="#838CCF"/>
<path d="M351.728 295.849L357.574 290.952L363.603 293.508L361.866 295.169L355.279 297.091C353.498 297.12 352.564 297.114 352.48 297.074C352.395 297.032 352.144 296.624 351.728 295.849Z" fill="#FFC0BB"/>
<path d="M359.062 235.637C360.516 250.506 361.395 259.221 361.694 261.78C362.145 265.62 364.164 294.306 363.66 296.892L358.858 297.215C351.57 260.845 348.015 240.824 348.196 237.157C348.374 233.489 351.997 232.982 359.062 235.637Z" fill="#FFC0BB"/>
<path d="M351.726 295.849L350.249 297.134C349.565 297.719 350.067 298.839 350.96 298.713L363.285 296.991C363.719 296.93 364.023 296.527 363.962 296.092L363.601 293.508C355.758 297.274 352.811 296.873 351.726 295.849Z" fill="#07085B"/>
<path d="M357.102 203.312L361.959 197.939L358.441 194.28L352.5 201.976C354.809 208.18 356.033 211.419 356.172 211.696C356.309 211.971 356.61 211.971 357.076 211.696C356.867 210.101 356.965 205.611 357.032 203.336C357.062 203.326 357.085 203.317 357.102 203.312Z" fill="#FFC0BB"/>
<path d="M329.234 196.67C324.957 201.455 322.638 211.523 322.274 226.874C321.91 242.223 322.129 252.663 322.929 258.192C334.666 261.054 348.707 259.782 365.052 254.373C361.026 225.346 356.054 205.885 350.138 195.99C343.242 191.876 336.275 192.103 329.234 196.67Z" fill="#DCDCDC"/>
<path d="M299.561 178.771C299.543 178.531 299.211 178.256 298.57 177.942C297.755 177.596 296.097 177.178 294.594 177.237C294.123 177.254 293.805 177.726 293.973 178.167L294.818 178.203C294.795 178.228 294.762 178.248 294.723 178.258C294.495 178.307 294.168 178.38 293.793 178.469L294.143 182.265C294.887 182.106 295.851 182.831 297.264 182.49L299.143 181.954C299.009 181.725 298.885 181.492 298.783 181.247C298.636 180.866 298.517 180.476 298.43 180.078C298.346 179.681 299.595 179.175 299.561 178.771Z" fill="#FFC0BB"/>
<path fill-rule="evenodd" clip-rule="evenodd" d="M293.329 177.869L294.474 177.98C294.867 178.017 295.225 178.27 295.441 178.667C295.62 178.994 295.689 179.391 295.631 179.775L295.575 180.154C295.464 180.892 295.114 181.547 294.601 181.971L294.371 182.163C293.951 182.511 293.473 182.752 292.972 182.872L291.964 183.11L293.329 177.869ZM293.217 182.046C293.559 181.965 293.882 181.8 294.17 181.564L294.326 181.433C294.676 181.144 294.914 180.699 294.988 180.196L295.027 179.938C295.066 179.675 295.02 179.406 294.898 179.184C294.75 178.913 294.508 178.74 294.239 178.715L293.461 178.641L292.531 182.208L293.217 182.046Z" fill="#BF9786"/>
<path d="M283.092 176.99L283.146 176.982L288.295 177.133L293.499 176.98L293.508 176.987C293.519 176.993 293.524 177.007 293.524 177.027C293.527 177.565 293.289 182.798 291.122 185.007C290.134 185.16 289.192 185.225 288.295 185.207C287.399 185.225 286.388 185.074 285.26 184.752C283.101 182.553 283.064 177.601 283.065 177.033C283.067 177.01 283.075 176.996 283.092 176.99Z" fill="#ECBCB7"/>
<path d="M283.065 177.034C283.067 177.01 283.075 176.996 283.092 176.99L283.146 176.982L288.295 177.133L288.608 177.124C287.508 177.807 286.486 178.812 286.433 180.203C286.349 182.455 287.661 184.656 289.582 185.117C289.16 185.176 288.711 185.216 288.295 185.207C287.399 185.226 286.388 185.075 285.26 184.753C283.101 182.553 283.064 177.602 283.065 177.034Z" fill="#BF9786"/>
<path d="M283.069 177.034C283.069 177.807 285.416 178.432 288.302 178.432C291.188 178.432 293.526 177.807 293.526 177.034C293.526 176.262 291.188 175.637 288.302 175.637C285.416 175.637 283.069 176.262 283.069 177.034Z" fill="#BF9786"/>
<path d="M292.881 177.693L291.264 178.129L289.984 178.32L288.245 178.364L286.542 178.277L285.443 178.138L284.476 177.911L283.791 177.623C283.673 177.516 283.572 177.424 283.486 177.35C284.233 176.821 286.146 176.444 288.385 176.444C290.655 176.444 292.587 176.832 293.307 177.373L292.881 177.693Z" fill="#4C2816"/>
<g style="mix-blend-mode:screen" opacity="0.502">
<path d="M284.117 177.182C284.128 177.151 284.151 177.13 284.176 177.123C285.587 176.741 286.954 176.604 288.183 176.601C288.187 176.601 288.19 176.601 288.193 176.601C288.197 176.601 288.201 176.601 288.204 176.601C289.433 176.604 290.8 176.741 292.211 177.123C292.236 177.13 292.259 177.151 292.27 177.182C292.29 177.238 292.282 177.333 292.09 177.444C291.562 177.624 291.015 177.657 290.476 177.534C289.913 177.406 289.132 177.279 288.193 177.251C287.255 177.279 286.474 177.406 285.911 177.534C285.372 177.657 284.825 177.624 284.297 177.444C284.105 177.333 284.097 177.238 284.117 177.182Z" fill="#4C2816"/>
</g>
<path d="M292.665 177.075C292.488 176.999 292.306 176.942 292.124 176.887C291.942 176.834 291.757 176.788 291.573 176.747C291.388 176.705 291.201 176.669 291.016 176.638C290.923 176.621 290.829 176.607 290.736 176.593C290.643 176.579 290.549 176.565 290.456 176.554C290.083 176.504 289.706 176.473 289.331 176.452C288.955 176.431 288.578 176.42 288.204 176.422C287.451 176.425 286.699 176.469 285.951 176.574C285.578 176.629 285.206 176.697 284.837 176.788C284.654 176.834 284.47 176.886 284.288 176.945C284.108 177.004 283.927 177.068 283.753 177.152C283.796 177.131 283.84 177.113 283.885 177.096C283.93 177.078 283.975 177.061 284.02 177.046C284.109 177.013 284.201 176.984 284.291 176.956C284.473 176.9 284.657 176.851 284.84 176.809C285.209 176.722 285.581 176.658 285.954 176.609C286.327 176.559 286.702 176.523 287.077 176.5C287.452 176.476 287.827 176.466 288.204 176.466C288.955 176.462 289.706 176.498 290.453 176.587C290.546 176.598 290.64 176.61 290.733 176.623C290.826 176.637 290.92 176.649 291.013 176.665C291.198 176.694 291.385 176.728 291.568 176.767C291.754 176.806 291.939 176.85 292.122 176.9C292.212 176.924 292.304 176.951 292.394 176.979C292.486 177.008 292.576 177.04 292.665 177.075Z" fill="white"/>
<path d="M295.981 178.8C295.981 179.107 295.407 179.354 294.697 179.354C293.988 179.354 293.414 179.107 293.414 178.8C293.414 178.495 293.988 178.248 294.697 178.248C295.407 178.248 295.981 178.495 295.981 178.8Z" fill="#FCB7B4"/>
<path d="M295.88 179.677C295.88 179.982 295.305 180.231 294.597 180.231C293.888 180.231 293.312 179.982 293.312 179.677C293.312 179.37 293.888 179.123 294.597 179.123C295.305 179.123 295.88 179.37 295.88 179.677Z" fill="#FCB7B4"/>
<path d="M295.786 180.648C295.786 180.952 295.21 181.201 294.503 181.201C293.793 181.201 293.219 180.952 293.219 180.648C293.219 180.341 293.793 180.094 294.503 180.094C295.21 180.094 295.786 180.341 295.786 180.648Z" fill="#FCB7B4"/>
<path d="M295.723 181.618C295.723 181.923 295.148 182.172 294.439 182.172C293.73 182.172 293.156 181.923 293.156 181.618C293.156 181.312 293.73 181.064 294.439 181.064C295.148 181.064 295.723 181.312 295.723 181.618Z" fill="#FCB7B4"/>
<path d="M371.382 183.138C369.685 177.415 356.637 162.478 352.079 161.701C349.04 161.183 346.243 161.393 343.688 162.331C340.585 164.304 337.69 164.595 335.006 163.204C334.291 163.084 333.41 163.108 332.367 163.276C326.654 168.291 325.158 173.91 327.877 180.131C328.719 186.339 329.171 191.852 329.235 196.67C330.431 199.225 334.02 200.421 340.002 200.259C345.985 200.097 349.363 198.674 350.14 195.99C350.851 184.222 351.708 177.384 352.71 175.475C359.08 180.583 362.33 183.429 362.459 184.011C362.652 184.885 357.462 194.488 355.717 196.622C356.525 198.414 358.304 199.631 361.052 200.27C369.07 192.664 372.514 186.954 371.382 183.138Z" fill="#492D21"/>
<path d="M332.366 163.275C330.039 163.649 326.626 164.976 324.045 169.266C321.167 174.053 318.241 177.965 315.266 181.003L304.839 179.84C303.998 182.492 303.788 184.415 304.209 185.611C309.285 188.651 313.294 189.685 316.237 188.716C319.179 187.745 323.059 184.885 327.876 180.131C325.157 173.91 326.654 168.291 332.366 163.275Z" fill="#492D21"/>
<path d="M424.624 245.862L428.392 299.715H426.508L420.542 246.446L424.624 245.862Z" fill="white"/>
<path d="M385.05 245.862L381.281 299.715H383.165L389.132 246.446L385.05 245.862Z" fill="white"/>
<path d="M441.069 190.62C420.991 190.026 410.3 189.774 409.001 189.868C407.701 189.961 406.452 192.095 405.249 196.274C399.385 218.035 396.51 229.214 396.626 229.813C396.745 230.412 394.008 237.722 388.419 251.744C393.24 251.617 395.757 251.617 395.97 251.744C396.29 251.937 423.935 249.372 424.32 249.115C424.704 248.859 426.112 244.049 426.176 243.793C426.219 243.622 426.944 237.294 428.352 224.81L429.439 214.487C432.213 208.58 433.621 205.618 433.663 205.6C433.727 205.573 437.567 197.814 437.823 197.428C438.079 197.044 442.046 192.747 442.175 192.363C442.259 192.106 441.892 191.524 441.069 190.62Z" fill="#FEE4CB"/>
<g style="mix-blend-mode:multiply" opacity="0.502">
<path d="M441.069 190.621C434.147 190.415 427.695 190.238 421.717 190.087C425.203 192.139 427.157 197.874 425.706 208.079C424.474 216.752 423.105 226.163 417.643 237.45C414.83 243.263 402.72 240.007 392.795 240.583C391.368 244.282 389.911 248.003 388.419 251.744C393.24 251.617 395.757 251.617 395.97 251.744C396.29 251.937 423.935 249.372 424.32 249.115C424.704 248.859 426.112 244.049 426.176 243.793C426.219 243.622 426.944 237.294 428.352 224.81L429.439 214.487C432.213 208.58 433.621 205.618 433.663 205.6C433.727 205.573 437.567 197.814 437.823 197.428C438.079 197.044 442.046 192.747 442.175 192.363C442.259 192.106 441.892 191.524 441.069 190.621Z" fill="#FEE4CB"/>
</g>
<path d="M382.915 252.893V252.892C382.852 251.862 383.628 250.975 384.654 250.905C387.873 250.686 394.833 250.188 401.992 249.51C415.714 248.208 420.675 247.142 422.452 246.585C423.064 246.392 423.534 245.895 423.691 245.271C424.174 243.353 424.455 239.372 424.692 236.041C425.588 223.403 427.066 202.564 440.05 191.122C440.861 190.408 442.108 190.536 442.766 191.393C443.365 192.173 443.263 193.288 442.524 193.937C430.695 204.325 429.335 223.478 428.427 236.307C427.907 243.62 427.588 247.209 425.991 248.88C425.219 249.686 423.786 251.184 402.922 253.189C395.521 253.9 388.234 254.423 384.906 254.648C383.872 254.718 382.979 253.931 382.915 252.893Z" fill="#E8B891"/>
<path d="M165.971 245.862L162.204 299.715H164.087L170.053 246.446L165.971 245.862Z" fill="white"/>
<path d="M205.547 245.862L209.315 299.715H207.431L201.465 246.446L205.547 245.862Z" fill="white"/>
<path d="M149.526 190.62C169.606 190.026 180.295 189.774 181.594 189.868C182.894 189.961 184.145 192.095 185.346 196.274C191.211 218.035 194.086 229.214 193.969 229.813C193.852 230.412 196.587 237.722 202.176 251.744C197.356 251.617 194.839 251.617 194.625 251.744C194.305 251.937 166.66 249.372 166.276 249.115C165.891 248.859 164.484 244.049 164.42 243.793C164.378 243.622 163.651 237.294 162.244 224.81L161.156 214.487C158.382 208.58 156.975 205.618 156.933 205.6C156.869 205.573 153.03 197.814 152.773 197.428C152.518 197.044 148.549 192.747 148.422 192.363C148.336 192.106 148.705 191.524 149.526 190.62Z" fill="#FEE4CB"/>
<g style="mix-blend-mode:multiply" opacity="0.502">
<path d="M149.526 190.621C156.449 190.415 162.9 190.238 168.878 190.087C165.394 192.139 163.438 197.874 164.89 208.079C166.122 216.752 167.492 226.163 172.952 237.45C175.765 243.263 187.876 240.007 197.802 240.583C199.227 244.282 200.686 248.003 202.176 251.744C197.356 251.617 194.839 251.617 194.625 251.744C194.305 251.937 166.66 249.372 166.276 249.115C165.891 248.859 164.484 244.049 164.42 243.793C164.378 243.622 163.651 237.294 162.244 224.81L161.156 214.487C158.384 208.58 156.975 205.618 156.933 205.6C156.869 205.573 153.03 197.814 152.773 197.428C152.518 197.044 148.549 192.747 148.422 192.363C148.336 192.106 148.705 191.524 149.526 190.621Z" fill="#FEE4CB"/>
</g>
<path d="M205.689 254.648C202.362 254.423 195.075 253.9 187.674 253.189C166.81 251.184 165.377 249.686 164.607 248.88C163.009 247.209 162.689 243.62 162.169 236.307C161.261 223.478 159.903 204.325 148.072 193.937C147.333 193.288 147.23 192.173 147.831 191.393C148.489 190.536 149.735 190.408 150.545 191.122C163.53 202.564 165.008 223.403 165.904 236.041C166.141 239.372 166.422 243.353 166.904 245.271C167.062 245.895 167.533 246.392 168.146 246.585C169.921 247.142 174.882 248.208 188.604 249.51C195.763 250.188 202.724 250.686 205.941 250.905C206.97 250.975 207.746 251.862 207.681 252.892V252.893C207.617 253.931 206.724 254.718 205.689 254.648Z" fill="#E8B891"/>
<path d="M470.834 273.941C470.973 272.709 471.139 271.45 471.712 270.351C472.409 269.014 473.632 268.05 474.701 266.988C476.699 265.003 478.236 262.558 479.159 259.898C479.872 257.841 480.228 255.648 481.211 253.706C481.812 252.52 482.63 251.459 483.312 250.318C484.608 248.148 485.43 245.662 486.838 243.597C487.223 243.032 488.114 243.327 488.084 244.009C487.99 246.16 487.175 248.283 485.77 249.917C485.233 250.544 484.609 251.108 484.198 251.826C483.454 253.128 483.522 254.715 483.434 256.212C483.271 259.025 482.476 261.8 481.126 264.274C479.692 266.901 477.622 269.241 476.856 272.135C476.281 274.304 476.452 276.735 475.227 278.615C475.095 278.819 474.943 279.023 474.91 279.263C474.892 279.399 474.913 279.536 474.934 279.671C474.962 279.846 474.989 280.02 475.016 280.196C475.295 281.97 475.583 284.228 474.055 285.556C472.995 286.477 471.633 286.497 470.872 285.275C470.106 284.043 470.174 282.241 470.231 280.856C470.325 278.549 470.573 276.235 470.834 273.941Z" fill="#BF9786"/>
<path d="M468.257 274.8C468.829 273.147 469.716 271.573 470.161 269.893C470.592 268.263 470.595 266.578 470.597 264.909C470.599 263.08 470.599 261.25 470.601 259.422C470.602 258.283 470.604 257.138 470.83 256.014C471.314 253.598 472.818 251.364 473.073 248.924C473.183 247.868 473.055 246.802 473.194 245.748C473.273 245.147 473.458 244.532 473.791 243.999C474.15 243.424 475.141 243.45 475.466 244.038C476.196 245.359 476.659 246.788 476.364 248.204C476.187 249.054 475.746 249.845 475.418 250.663C473.953 254.301 474.731 258.329 473.597 262.05C473.256 263.173 472.738 264.274 472.678 265.432C472.534 268.203 475.012 270.735 474.785 273.502C474.598 275.771 472.645 277.649 471.825 279.817C471.367 281.031 471.268 282.327 470.776 283.532C470.394 284.467 469.506 285.604 468.126 285.32C466.816 285.05 467.212 284.158 467.271 283.304C467.468 280.419 467.283 277.619 468.257 274.8Z" fill="#ECBCB7"/>
<path d="M465.063 276.571C465.121 275.724 465.296 274.871 465.151 274.031C465.029 273.321 464.684 272.652 464.437 271.965C463.977 270.675 463.862 269.323 463.75 267.983C463.547 265.546 463.344 263.111 463.141 260.674C462.825 256.887 462.508 253.09 461.644 249.361C461.404 248.326 461.135 247.204 461.703 246.259C461.822 246.06 462.058 245.849 462.316 245.915C462.499 245.962 462.59 246.128 462.657 246.276C464.546 250.483 465.259 255.011 467.367 259.147C467.873 260.137 468.46 261.111 468.721 262.163C469.035 263.428 468.862 264.732 468.822 266.021C468.764 267.87 468.984 269.733 469.606 271.51C469.933 272.44 470.369 273.35 470.547 274.306C470.77 275.498 470.583 276.713 470.443 277.914C470.176 280.223 470.085 282.547 470.172 284.865C470.223 286.228 468.819 286.193 467.889 285.355C467.239 284.769 467.244 284.126 467.022 283.398C466.291 281.004 464.885 279.166 465.063 276.571Z" fill="#BF9786"/>
<path d="M474.034 279.052C475.318 276.993 477.877 275.822 478.697 273.538C478.907 272.957 478.988 272.332 479.244 271.77C479.81 270.521 481.098 269.815 482.365 269.24C482.541 269.16 482.741 269.288 482.744 269.481C482.748 269.788 482.602 270.081 482.347 270.252C481.371 270.908 480.629 271.91 480.299 273.039C479.908 274.378 480.078 275.845 479.592 277.152C479.183 278.248 478.343 279.145 477.948 280.247C477.587 281.255 477.625 282.356 477.455 283.412C477.286 284.469 476.815 285.59 475.843 286.037C472.325 287.655 473.204 280.382 474.034 279.052Z" fill="#ECBCB7"/>
<path d="M459.404 278.373C459.458 279.369 459.306 280.413 459.696 281.33C459.945 281.917 460.395 282.392 460.764 282.912C462.058 284.74 462.528 287.33 464.518 288.358C464.65 288.426 464.796 288.487 464.941 288.46C465.145 288.422 465.278 288.226 465.361 288.036C465.849 286.901 465.301 285.623 464.977 284.432C464.92 284.224 464.873 283.992 464.972 283.799C465.082 283.589 465.331 283.498 465.502 283.332C465.842 283.002 465.809 282.456 465.742 281.987C465.574 280.816 465.337 279.654 465.032 278.51C464.86 277.862 464.661 277.207 464.287 276.65C463.875 276.037 463.275 275.579 462.715 275.098C460.237 272.971 458.34 270.176 457.277 267.088C457.047 266.419 456.842 265.713 456.367 265.19C455.892 264.666 455.045 264.397 454.467 264.803C454.055 265.092 455.742 267.799 455.938 268.123C456.499 269.05 456.507 269.857 456.825 270.888C457.603 273.411 459.254 275.669 459.404 278.373Z" fill="#BF9786"/>
<path d="M461.364 279.523C460.996 278.574 460.625 277.612 460.504 276.601C460.369 275.476 460.548 274.327 460.356 273.211C460.108 271.777 459.269 270.514 458.855 269.119C458.556 268.112 458.482 267.053 458.302 266.018C457.787 263.056 456.392 260.162 456.792 257.183C456.879 256.535 457.173 255.78 457.817 255.67C458.4 255.569 458.932 256.101 459.083 256.673C459.235 257.246 459.122 257.849 459.08 258.44C458.964 260.086 459.435 261.768 460.389 263.115C461.305 264.409 462.635 265.383 463.46 266.738C464.471 268.4 464.609 270.428 465.125 272.303C466.152 276.033 468.727 279.287 469.197 283.127C469.383 284.655 469.023 286.513 467.611 287.122C463.524 288.888 462.289 281.913 461.364 279.523Z" fill="#ECBCB7"/>
<path d="M468.508 282.33H469.162H477.888C478.529 282.33 479.002 282.929 478.853 283.553L475.434 297.941C475.328 298.388 474.928 298.704 474.469 298.704H469.162H468.508H463.202C462.742 298.704 462.342 298.388 462.235 297.941L458.816 283.553C458.668 282.929 459.142 282.33 459.783 282.33H468.508Z" fill="white"/>
<g opacity="0.302">
<path opacity="0.302" d="M477.074 282.33H477.888C478.529 282.33 479.002 282.929 478.853 283.553L475.434 297.941C475.328 298.388 474.928 298.704 474.469 298.704H469.162H468.508H463.202C462.742 298.704 462.342 298.388 462.235 297.941L462.109 297.408C468.511 293.825 474.756 288.836 477.074 282.33Z" fill="#C9EAFD"/>
</g>
<g opacity="0.1">
<path d="M372.885 5.07227V26.4606C371.444 26.6846 370.295 28.5934 370.215 30.9548C365.643 32.9569 362.227 39.6476 362.132 47.6358L383.745 47.894C383.84 39.9059 380.585 33.1342 376.061 31.0248C376.055 30.2983 375.945 29.6138 375.757 29.004C375.461 28.1562 375.047 27.478 374.514 26.9662C374.383 26.8573 374.248 26.7655 374.108 26.6877V5.65874C373.702 5.46117 373.294 5.26516 372.885 5.07227Z" fill="#492D21"/>
</g>
<path opacity="0.2" d="M315.064 2.5287V40.9496C313.801 41.4147 312.835 43.1912 312.763 45.3489C308.191 47.3494 304.775 54.0417 304.68 62.0283L326.293 62.2866C326.387 54.3 323.133 47.5283 318.609 45.4189C318.603 44.6924 318.493 44.0064 318.304 43.3981C318.009 42.5503 317.595 41.8705 317.061 41.3603C316.82 41.158 316.561 41.0087 316.287 40.9216V2.1709C315.879 2.29068 315.47 2.41202 315.064 2.5287Z" fill="#492D21"/>
<path d="M396.059 179.07V186.547C396.059 186.962 395.851 187.342 395.521 187.517C394.523 188.053 392.287 188.93 390.199 187.531C389.918 187.343 389.753 186.988 389.753 186.615V179.862L396.059 179.07Z" fill="#FFC0BB"/>
<path d="M396.059 184.103V180.595L389.753 181.289V184.264C390.935 184.624 393.138 184.983 396.059 184.103Z" fill="#F99893"/>
<path d="M387.693 186.28C387.846 186.381 391.198 186.381 397.751 186.28C398.474 186.996 398.774 187.413 398.654 187.534C398.533 187.654 397.226 188.572 394.731 190.288L389.751 189.611L387.693 186.28Z" fill="#FFC0BB"/>
<path d="M359.35 190.141C356.762 207.004 357.317 217.164 361.016 220.618C364.714 224.073 370.052 221.21 377.027 212.035L379.262 203.042L369.49 206.102L365.954 210.459L364.126 186.991L359.35 190.141Z" fill="#FFC0BB"/>
<path d="M363.001 181.885L363.054 181.93L365.927 184.429C366.238 184.701 366.257 185.18 365.965 185.474L359.557 191.928C359.342 192.143 359.017 192.202 358.743 192.073C358.118 191.777 356.951 191.157 355.831 190.183C354.711 189.208 353.935 188.139 353.555 187.56C353.389 187.307 353.401 186.977 353.585 186.736L359.089 179.494C359.339 179.164 359.817 179.115 360.128 179.387L363.001 181.885Z" fill="#BF9786"/>
<path d="M360.222 177.861C360.536 177.651 360.886 177.635 361.101 177.82L364.195 180.511L364.246 180.556L367.342 183.248C367.555 183.434 367.588 183.783 367.425 184.125L366.875 185.261C366.721 185.58 366.308 185.665 366.04 185.433L362.605 182.445L362.554 182.4L359.117 179.413C358.851 179.18 358.878 178.758 359.172 178.561L360.222 177.861Z" fill="#F2DFDD"/>
<path d="M361.537 177.327C361.649 177.198 361.844 177.185 361.971 177.296L364.829 179.782L364.88 179.827L367.739 182.313C367.867 182.425 367.881 182.618 367.769 182.747L367.164 183.442L364.219 180.536L360.934 178.022L361.537 177.327Z" fill="#F7D8D8"/>
<path d="M365.027 186.859L362.058 189.745C362.007 189.795 361.932 189.807 361.869 189.776C361.449 189.572 359.839 188.751 358.264 187.384C356.692 186.015 355.656 184.535 355.396 184.146C355.357 184.087 355.358 184.011 355.4 183.954L357.846 180.614C357.913 180.523 358.047 180.522 358.113 180.61C359.361 182.261 363.185 185.587 364.992 186.593C365.09 186.648 365.107 186.782 365.027 186.859Z" fill="#ECBCB7"/>
<path d="M359.099 184.482C358.385 185.039 358.257 186.072 358.816 186.786C359.373 187.502 360.406 187.628 361.12 187.071C361.835 186.512 361.961 185.479 361.404 184.765C360.846 184.05 359.814 183.924 359.099 184.482Z" fill="#F3FDFF"/>
<path d="M360.975 284.252L359.972 292.316L354.577 292.735L354.661 285.257L360.975 284.252Z" fill="#FFC0BB"/>
<path d="M346.38 298.638L361.121 298.738C361.443 298.74 361.703 298.486 361.7 298.17L361.695 297.744C361.694 297.43 361.429 297.171 361.107 297.17L346.366 297.07C346.044 297.067 345.786 297.321 345.789 297.637L345.792 298.063C345.795 298.379 346.058 298.635 346.38 298.638Z" fill="white"/>
<path d="M360.918 292.406L361.484 296.769C361.552 297.307 361.25 297.794 360.846 297.791L346.828 297.696C346.464 297.695 346.103 297.469 345.907 297.049C345.708 296.62 345.663 295.973 346.284 295.108C347.522 293.379 351.643 292.983 353.647 291.513L360.175 291.558C360.541 291.559 360.855 291.919 360.918 292.406Z" fill="#EA426E"/>
<path d="M354.662 294.051C354.761 293.992 354.797 293.824 354.738 293.697C354.456 293.098 353.584 291.637 351.837 291.925C351.735 291.94 351.667 292.071 351.686 292.208L351.687 292.213C351.704 292.343 351.796 292.43 351.894 292.415C353.461 292.163 354.203 293.449 354.43 293.952C354.478 294.059 354.578 294.103 354.662 294.051Z" fill="white"/>
<path d="M353.21 294.603C353.312 294.543 353.346 294.376 353.287 294.249C353.007 293.648 352.134 292.189 350.385 292.475C350.284 292.492 350.217 292.623 350.236 292.758V292.763C350.253 292.895 350.345 292.981 350.443 292.965C352.009 292.713 352.753 294.001 352.98 294.504C353.028 294.611 353.126 294.653 353.21 294.603Z" fill="white"/>
<path d="M351.862 295.118C351.963 295.058 351.999 294.891 351.94 294.764C351.658 294.163 350.786 292.702 349.037 292.99C348.938 293.007 348.869 293.138 348.888 293.273V293.278C348.907 293.409 348.998 293.496 349.096 293.48C350.663 293.228 351.405 294.516 351.632 295.019C351.68 295.125 351.78 295.168 351.862 295.118Z" fill="white"/>
<g style="mix-blend-mode:multiply" opacity="0.302">
<g style="mix-blend-mode:multiply" opacity="0.302">
<path d="M357.11 297.766C358.183 294.25 360.084 293.873 361.125 293.962L361.489 296.769C361.557 297.307 361.256 297.794 360.851 297.791L357.11 297.766Z" fill="#E87B50"/>
</g>
</g>
<path d="M369.257 284.426L366.873 292.207L361.381 292.244L362.338 286.565L369.257 284.426Z" fill="#FFC0BB"/>
<path d="M353.495 298.782L368.235 298.881C368.558 298.885 368.817 298.629 368.813 298.315L368.81 297.889C368.807 297.573 368.544 297.317 368.221 297.313L353.481 297.214C353.159 297.212 352.899 297.466 352.902 297.782L352.905 298.206C352.909 298.522 353.173 298.78 353.495 298.782Z" fill="white"/>
<path d="M368.035 292.549L368.6 296.914C368.67 297.452 368.367 297.939 367.964 297.936L353.946 297.841C353.582 297.838 353.22 297.614 353.025 297.194C352.824 296.763 352.779 296.117 353.4 295.252C354.64 293.522 358.759 293.127 360.763 291.657L367.293 291.701C367.657 291.704 367.972 292.063 368.035 292.549Z" fill="#F76390"/>
<path d="M361.778 294.196C361.879 294.135 361.913 293.969 361.854 293.841C361.574 293.242 360.701 291.782 358.953 292.068C358.852 292.085 358.785 292.216 358.803 292.351V292.356C358.821 292.488 358.912 292.575 359.01 292.558C360.577 292.308 361.32 293.594 361.548 294.097C361.596 294.204 361.694 294.246 361.778 294.196Z" fill="white"/>
<path d="M360.327 294.748C360.428 294.688 360.463 294.521 360.403 294.392C360.123 293.793 359.25 292.332 357.502 292.62C357.4 292.636 357.334 292.768 357.352 292.903V292.908C357.371 293.039 357.463 293.126 357.561 293.11C359.127 292.858 359.869 294.146 360.096 294.649C360.145 294.754 360.243 294.798 360.327 294.748Z" fill="white"/>
<path d="M358.977 295.261C359.076 295.202 359.112 295.034 359.053 294.907C358.773 294.308 357.899 292.847 356.152 293.135C356.05 293.15 355.984 293.283 356.001 293.418L356.002 293.423C356.019 293.553 356.111 293.64 356.209 293.625C357.776 293.373 358.518 294.659 358.745 295.162C358.795 295.269 358.893 295.313 358.977 295.261Z" fill="white"/>
<g style="mix-blend-mode:multiply" opacity="0.302">
<g style="mix-blend-mode:multiply" opacity="0.302">
<path d="M364.224 297.91C365.297 294.394 367.197 294.018 368.238 294.107L368.602 296.913C368.672 297.451 368.368 297.938 367.965 297.935L364.224 297.91Z" fill="#E87B50"/>
</g>
</g>
<path d="M386.603 232.479C368.388 234.485 357.544 237.132 354.07 240.419C348.86 245.351 352.354 282.465 353.222 285.869C356.393 287.379 359.232 287.748 361.741 286.975C364.25 286.202 365.022 280.399 364.057 269.57C363.766 259.225 363.815 253.326 364.2 251.877C364.588 250.427 367.433 249.17 372.741 248.106C385.5 241.407 391.639 238.06 391.156 238.06C390.674 238.06 389.156 236.199 386.603 232.479Z" fill="#492D21"/>
<path d="M416.85 238.94C416.927 234.256 416.291 229.901 414.941 225.873L402.678 236.462L402.569 235.516C382.105 233.08 370.473 236.504 367.675 245.785C364.878 255.068 362.417 268.894 360.295 287.264C362.995 288.909 366.18 288.909 369.846 287.264C375.033 267.541 378.597 256.712 380.538 254.778C382.396 252.929 393.937 250.799 400.687 250.699C407.661 250.595 416.714 247.264 416.85 238.94Z" fill="#492D21"/>
<path d="M387.694 186.28C383.111 187.116 379.647 188.842 377.298 191.462C374.95 194.08 372.173 198.641 368.969 205.142C371.38 209.969 373.869 212.587 376.437 212.998L385.02 204.668L387.694 186.28Z" fill="#BF9786"/>
<path d="M387.694 186.28C383.427 189.802 380.989 193.155 380.379 196.337C379.771 199.522 380.007 212.051 381.092 233.926C384.341 237.448 390.844 238.633 400.596 237.482C409.738 229.083 414.412 224.784 414.615 224.58C414.819 224.376 412.753 220.202 408.418 212.054C413.362 210.788 416.443 209.341 417.663 207.717C416.173 192.68 409.536 185.535 397.751 186.28C394.839 188.855 391.486 188.855 387.694 186.28Z" fill="#BF9786"/>
<path d="M417.663 207.718C416.851 209.032 413.77 210.477 408.418 212.055C410.112 217.764 410.89 221.263 410.755 222.549C410.559 224.411 395.04 241.313 393.954 242.495L393.847 242.441C388.304 244.197 385.501 245.191 385.434 245.421C385.339 245.75 385.566 245.94 388.609 246.106C388.807 246.117 388.916 246.342 388.797 246.501C387.886 247.733 385.045 251.627 385.306 251.929C385.616 252.288 388.24 248.87 388.66 249.006C389.08 249.143 386.437 252.411 386.831 252.741C387.225 253.072 389.536 250.011 389.751 250.093C389.966 250.174 388.066 253.343 388.181 253.677C388.295 254.01 390.736 250.874 391.025 250.899C391.314 250.924 390.35 253.648 390.575 253.757C390.799 253.865 390.932 253.976 394.86 248.464L396.313 246.229L396.327 246.066C397.881 245.229 417.553 234.503 419.796 226.308C421.355 220.619 420.644 214.423 417.663 207.718Z" fill="#FFC0BB"/>
<path d="M358.941 179.775C359.698 180.517 359.955 181.483 359.515 181.932C359.075 182.382 358.104 182.146 357.346 181.403C356.589 180.663 356.332 179.697 356.772 179.247C357.213 178.798 358.183 179.034 358.941 179.775Z" fill="#FFC0BB"/>
<path d="M357.79 180.951C358.548 181.694 358.804 182.66 358.364 183.109C357.924 183.559 356.953 183.322 356.195 182.58C355.438 181.84 355.181 180.874 355.621 180.424C356.062 179.975 357.032 180.211 357.79 180.951Z" fill="#FFC0BB"/>
<path d="M356.637 182.129C357.393 182.869 357.649 183.835 357.209 184.285C356.769 184.734 355.798 184.498 355.042 183.758C354.285 183.015 354.028 182.049 354.468 181.6C354.908 181.15 355.879 181.387 356.637 182.129Z" fill="#FFC0BB"/>
<path d="M355.487 183.305C356.244 184.045 356.501 185.011 356.061 185.461C355.621 185.91 354.65 185.674 353.892 184.933C353.135 184.191 352.878 183.225 353.318 182.776C353.758 182.326 354.729 182.562 355.487 183.305Z" fill="#FFC0BB"/>
<path d="M388.314 177.761C388.45 178.724 389.305 179.501 390.39 179.571C391.476 179.643 392.423 178.983 392.68 178.047L388.314 177.761Z" fill="white"/>
<path d="M402.012 173.763C403.529 168.333 402.815 164.521 399.873 162.322C395.461 159.028 390.625 159.146 387.26 160.84C383.894 162.534 381.643 168.883 382.952 172.632L394.007 169.626L402.012 173.763Z" fill="#492D21"/>
<path d="M385.131 173.679C385.537 174.733 385.182 175.852 384.34 176.177C383.499 176.502 382.488 175.911 382.082 174.856C381.676 173.801 382.03 172.683 382.872 172.358C383.714 172.033 384.725 172.624 385.131 173.679Z" fill="#F99893"/>
<path d="M385.313 179.806C385.061 179.348 384.851 178.866 384.684 178.361C384.21 177.006 383.984 175.571 383.886 174.322C383.866 174.055 383.83 173.789 383.788 173.523C383.622 172.451 383.648 171.317 383.921 170.156C384.798 166.423 388.082 163.658 391.904 163.448C397.055 163.164 401.229 167.314 401.134 172.343C401.684 172.049 402.299 171.992 402.834 172.242C403.861 172.726 404.203 174.16 403.601 175.445C402.999 176.732 401.678 177.382 400.651 176.898C400.508 176.831 400.381 176.744 400.266 176.643C399.749 180.915 396.187 184.152 391.991 184.003C389.939 183.93 388.096 183.057 386.722 181.685C386.631 181.604 386.534 181.511 386.433 181.402C385.99 180.924 385.621 180.383 385.313 179.806Z" fill="#FFC0BB"/>
<path d="M390.456 172.055C390.399 172.552 390.355 173.039 390.29 173.514C390.22 173.977 390.128 174.472 389.915 174.786L389.873 174.836C389.857 174.855 389.853 174.864 389.821 174.897C389.772 174.956 389.714 175.004 389.674 175.074C389.588 175.203 389.523 175.359 389.507 175.521C389.468 175.85 389.618 176.16 389.82 176.359C390.232 176.77 390.806 176.854 391.291 176.774C390.812 176.648 390.361 176.443 390.115 176.102C390.003 175.934 389.935 175.749 389.977 175.588C389.993 175.507 390.027 175.429 390.081 175.357C390.101 175.318 390.143 175.289 390.171 175.253L390.24 175.175L390.318 175.085C390.495 174.831 390.568 174.565 390.619 174.307C390.665 174.047 390.682 173.794 390.679 173.539C390.672 173.033 390.605 172.534 390.456 172.055Z" fill="#F99893"/>
<path d="M393.287 172.952C393.273 173.374 393.601 173.727 394.021 173.742C394.442 173.758 394.794 173.428 394.81 173.006C394.825 172.585 394.495 172.232 394.075 172.216C393.655 172.202 393.302 172.53 393.287 172.952Z" fill="#333333"/>
<path d="M386.735 173.148C386.719 173.57 387.049 173.923 387.469 173.939C387.889 173.954 388.242 173.624 388.258 173.203C388.272 172.781 387.944 172.428 387.524 172.413C387.104 172.399 386.75 172.728 386.735 173.148Z" fill="#333333"/>
<path d="M392.475 171.155C392.871 171.068 393.242 171.008 393.607 170.981C393.97 170.955 394.323 170.975 394.663 171.045C394.999 171.12 395.337 171.221 395.654 171.398C395.825 171.467 395.969 171.583 396.14 171.672C396.305 171.771 396.454 171.894 396.637 171.994C396.557 171.809 396.46 171.627 396.342 171.459C396.211 171.303 396.087 171.13 395.917 171.006C395.605 170.724 395.197 170.544 394.779 170.455C394.357 170.368 393.917 170.395 393.518 170.519C393.12 170.645 392.75 170.85 392.475 171.155Z" fill="#07085B"/>
<path d="M389.103 171.257C388.819 170.959 388.441 170.765 388.041 170.651C387.638 170.541 387.198 170.527 386.778 170.627C386.362 170.728 385.961 170.921 385.658 171.211C385.491 171.342 385.373 171.518 385.245 171.677C385.135 171.849 385.043 172.034 384.967 172.221C385.149 172.115 385.294 171.989 385.455 171.885C385.623 171.792 385.763 171.67 385.931 171.596C386.244 171.409 386.577 171.297 386.913 171.213C387.249 171.132 387.602 171.101 387.966 171.117C388.332 171.131 388.703 171.18 389.103 171.257Z" fill="#07085B"/>
<path d="M401.003 172.456C401.348 172.182 401.649 172.06 401.904 172.093L401.793 169.422L401.037 167.783C399.007 164.813 397.954 163.29 397.882 163.215C397.772 163.103 395.365 161.6 395.218 161.523C395.118 161.471 393.909 161.569 391.59 161.817C387.573 160.81 385.86 161.384 386.453 163.537C387.34 166.767 391.707 168.63 391.94 168.498C391.481 168.002 391.255 167.076 391.265 165.723C394.259 169.274 400.093 172.039 401.003 172.456Z" fill="#492D21"/>
<path d="M388.919 178.038C389.174 178.976 390.123 179.639 391.207 179.572C392.292 179.505 393.15 178.732 393.286 177.771L388.919 178.038Z" fill="white"/>
<path d="M231.966 285.076L232.89 292.514L237.866 292.901L237.789 286.003L231.966 285.076Z" fill="#FFC0BB"/>
<path d="M245.429 298.344L231.832 298.436C231.535 298.438 231.297 298.204 231.3 297.913L231.303 297.521C231.305 297.23 231.549 296.992 231.846 296.989L245.441 296.897C245.738 296.896 245.976 297.131 245.975 297.422L245.971 297.814C245.968 298.105 245.726 298.343 245.429 298.344Z" fill="white"/>
<path d="M232.016 292.596L231.495 296.621C231.431 297.117 231.71 297.567 232.081 297.563L245.01 297.476C245.346 297.473 245.681 297.266 245.86 296.879C246.045 296.482 246.085 295.886 245.514 295.088C244.371 293.494 240.57 293.128 238.722 291.773L232.701 291.814C232.365 291.815 232.075 292.147 232.016 292.596Z" fill="#F9A435"/>
<path d="M237.79 294.115C237.698 294.059 237.664 293.905 237.72 293.789C237.978 293.235 238.784 291.888 240.396 292.152C240.489 292.168 240.551 292.289 240.534 292.414V292.418C240.517 292.54 240.433 292.619 240.343 292.605C238.898 292.373 238.213 293.56 238.003 294.024C237.958 294.122 237.868 294.162 237.79 294.115Z" fill="white"/>
<path d="M239.127 294.623C239.034 294.567 239.001 294.413 239.056 294.297C239.314 293.743 240.12 292.396 241.731 292.66C241.825 292.676 241.887 292.797 241.87 292.923V292.926C241.853 293.047 241.769 293.127 241.678 293.113C240.233 292.881 239.549 294.068 239.339 294.531C239.295 294.629 239.203 294.67 239.127 294.623Z" fill="white"/>
<path d="M240.371 295.098C240.278 295.042 240.245 294.888 240.3 294.771C240.558 294.217 241.364 292.87 242.975 293.135C243.069 293.15 243.131 293.271 243.114 293.397V293.401C243.097 293.522 243.013 293.601 242.923 293.587C241.477 293.355 240.793 294.542 240.583 295.006C240.539 295.104 240.448 295.144 240.371 295.098Z" fill="white"/>
<g style="mix-blend-mode:multiply" opacity="0.302">
<g style="mix-blend-mode:multiply" opacity="0.302">
<path d="M235.533 297.539C234.542 294.297 232.791 293.951 231.831 294.031L231.495 296.62C231.431 297.116 231.71 297.566 232.081 297.563L235.533 297.539Z" fill="#E87B50"/>
</g>
</g>
<path d="M224.325 285.235L226.525 292.413L231.59 292.447L230.708 287.208L224.325 285.235Z" fill="#FFC0BB"/>
<path d="M238.866 298.479L225.271 298.571C224.974 298.572 224.735 298.337 224.738 298.047L224.741 297.654C224.744 297.364 224.987 297.126 225.284 297.124L238.878 297.032C239.176 297.031 239.415 297.264 239.412 297.555L239.409 297.947C239.406 298.239 239.163 298.476 238.866 298.479Z" fill="white"/>
<path d="M225.454 292.729L224.932 296.755C224.869 297.251 225.149 297.699 225.52 297.698L238.448 297.609C238.784 297.608 239.118 297.399 239.297 297.013C239.482 296.615 239.523 296.019 238.952 295.221C237.808 293.627 234.008 293.263 232.16 291.906L226.138 291.947C225.802 291.95 225.513 292.281 225.454 292.729Z" fill="#FEB546"/>
<path d="M231.228 294.249C231.135 294.193 231.102 294.039 231.157 293.921C231.415 293.369 232.221 292.022 233.832 292.286C233.926 292.302 233.988 292.421 233.971 292.547V292.552C233.954 292.673 233.87 292.753 233.78 292.739C232.334 292.505 231.65 293.694 231.44 294.156C231.395 294.255 231.305 294.294 231.228 294.249Z" fill="white"/>
<path d="M232.565 294.755C232.471 294.701 232.439 294.547 232.493 294.429C232.753 293.877 233.557 292.529 235.169 292.794C235.262 292.809 235.324 292.929 235.307 293.055V293.06C235.29 293.181 235.206 293.26 235.116 293.246C233.671 293.013 232.986 294.202 232.776 294.664C232.733 294.763 232.641 294.802 232.565 294.755Z" fill="white"/>
<path d="M233.809 295.232C233.716 295.176 233.683 295.022 233.737 294.903C233.997 294.351 234.801 293.004 236.415 293.268C236.506 293.284 236.569 293.405 236.551 293.53V293.534C236.534 293.656 236.45 293.735 236.36 293.721C234.915 293.489 234.23 294.676 234.02 295.138C233.977 295.238 233.885 295.277 233.809 295.232Z" fill="white"/>
<g style="mix-blend-mode:multiply" opacity="0.302">
<g style="mix-blend-mode:multiply" opacity="0.302">
<path d="M228.971 297.674C227.98 294.431 226.228 294.084 225.268 294.167L224.932 296.755C224.869 297.251 225.149 297.699 225.52 297.698L228.971 297.674Z" fill="#E87B50"/>
</g>
</g>
<path d="M208.33 233.374C225.129 235.224 235.13 237.664 238.333 240.696C243.139 245.243 239.396 284.574 238.595 287.712C235.672 289.106 233.053 289.445 230.739 288.733C228.425 288.019 227.887 280.968 229.124 267.582C229.39 258.04 229.346 252.6 228.99 251.264C228.634 249.926 226.01 248.767 221.114 247.785C204.996 240.074 197.16 236.218 197.605 236.218C198.05 236.218 201.625 235.27 208.33 233.374Z" fill="#492D21"/>
<path d="M180.432 239.332C180.511 235.012 181.098 230.995 182.193 227.28L193.504 237.045L193.603 236.174C212.478 233.927 223.205 237.084 225.786 245.644C228.367 254.205 230.504 268.621 232.197 288.891C230.307 291.378 227.67 291.864 224.288 290.349C219.169 267.859 215.714 255.722 213.923 253.938C212.21 252.233 180.163 254.236 180.432 239.332Z" fill="#492D21"/>
<path d="M219.02 189.209C219.127 189.31 219.306 189.254 219.332 189.109C219.535 187.982 220.197 184.436 220.496 184.424C220.851 184.408 220.337 187.59 220.625 187.75C220.916 187.908 221.339 184.793 221.722 184.838C222.103 184.883 221.622 187.711 221.776 187.786C221.932 187.86 222.682 185.2 222.923 185.093C223.162 184.984 222.706 187.921 222.868 188.066C223.03 188.21 224.019 186.289 224.194 186.354C224.369 186.421 224.495 186.435 223.511 191.402L223.038 193.341L221.799 194.713L219.712 193.94C217.825 190.023 216.927 187.986 217.019 187.832C217.15 187.611 217.369 187.636 219.02 189.209Z" fill="#FFC0BB"/>
<path d="M210.401 208.9C212.974 214.993 216.461 218.073 220.861 218.14C225.262 218.208 226.175 209.712 223.602 192.649H218.627C218.156 201.722 217.801 206.292 217.562 206.361C217.324 206.428 216.156 203.923 214.057 198.845L210.401 208.9Z" fill="#FEAC1A"/>
<path d="M195.643 179.082L195.343 183.489L199.639 186.137L201.349 185.295L201.444 179.838L195.643 179.082Z" fill="#FFC0BB"/>
<path d="M201.382 183.386L201.443 179.838L195.642 179.082L195.518 180.908C196.653 181.828 198.637 183.06 201.382 183.386Z" fill="#F99893"/>
<path d="M189.671 172.431C187.792 167.746 188.195 164.298 190.88 162.089C194.908 158.776 199.604 158.455 202.994 159.662C206.383 160.871 209.045 166.308 208.059 169.752L197.117 168.055L189.671 172.431Z" fill="#333333"/>
<path d="M206.863 171.221C206.62 172.249 207.114 173.229 207.968 173.408C208.82 173.587 209.708 172.898 209.953 171.869C210.197 170.84 209.702 169.859 208.848 169.681C207.996 169.502 207.107 170.191 206.863 171.221Z" fill="#F99893"/>
<path d="M207.533 176.889C207.711 176.433 207.848 175.957 207.936 175.469C208.205 174.153 208.223 172.801 208.143 171.636C208.126 171.387 208.125 171.136 208.126 170.886C208.139 169.875 207.957 168.834 207.535 167.804C206.175 164.491 202.641 162.415 198.943 162.768C193.961 163.243 190.529 167.661 191.316 172.28C190.745 172.088 190.148 172.122 189.67 172.431C188.751 173.022 188.62 174.392 189.376 175.489C190.132 176.587 191.49 176.998 192.408 176.405C192.536 176.323 192.646 176.225 192.744 176.116C193.83 179.975 197.697 182.447 201.704 181.708C203.663 181.347 205.312 180.282 206.44 178.821C206.518 178.734 206.597 178.634 206.678 178.519C207.039 178.015 207.317 177.465 207.533 176.889Z" fill="#FFC0BB"/>
<path d="M199.242 172.346C199.321 172.761 199.034 173.162 198.601 173.242C198.17 173.321 197.756 173.049 197.679 172.635C197.599 172.22 197.887 171.818 198.318 171.739C198.75 171.658 199.164 171.93 199.242 172.346Z" fill="#333333"/>
<path d="M205.713 171.478C205.793 171.894 205.505 172.295 205.072 172.374C204.641 172.454 204.228 172.182 204.15 171.766C204.071 171.351 204.358 170.951 204.789 170.87C205.222 170.791 205.636 171.063 205.713 171.478Z" fill="#333333"/>
<path d="M199.737 170.994C199.354 170.858 198.962 170.773 198.572 170.732C198.18 170.696 197.788 170.715 197.411 170.802C197.222 170.843 197.038 170.905 196.861 170.98C196.77 171.015 196.685 171.06 196.598 171.102C196.553 171.124 196.512 171.151 196.47 171.174C196.427 171.197 196.385 171.221 196.344 171.249C196.013 171.457 195.709 171.714 195.417 171.992C195.616 171.645 195.887 171.331 196.215 171.076C196.378 170.948 196.557 170.835 196.749 170.745C196.938 170.654 197.141 170.581 197.349 170.536C197.763 170.441 198.198 170.438 198.608 170.522C198.813 170.561 199.01 170.623 199.202 170.699C199.392 170.779 199.575 170.872 199.737 170.994Z" fill="#333333"/>
<path d="M202.915 170.567C203.039 170.408 203.191 170.27 203.353 170.144C203.517 170.019 203.692 169.907 203.879 169.816C204.252 169.627 204.672 169.515 205.097 169.497C205.31 169.487 205.523 169.503 205.732 169.542C205.94 169.578 206.142 169.64 206.334 169.721C206.718 169.881 207.062 170.111 207.345 170.394C206.989 170.201 206.628 170.035 206.254 169.92C206.208 169.904 206.161 169.893 206.113 169.883C206.066 169.872 206.02 169.856 205.971 169.847C205.876 169.83 205.782 169.808 205.685 169.797C205.494 169.772 205.301 169.76 205.108 169.771C204.721 169.786 204.338 169.872 203.969 170.01C203.602 170.15 203.247 170.337 202.915 170.567Z" fill="#333333"/>
<path d="M191.318 172.279C194.925 170.29 197.592 168.036 199.314 165.515C199.433 166.754 199.309 167.619 198.94 168.109C199.16 168.211 202.902 166.172 203.427 163.148C203.777 161.132 202.201 160.738 198.701 161.966C196.612 161.914 195.524 161.917 195.44 161.973C195.313 162.056 193.29 163.614 193.202 163.725C193.142 163.8 192.33 165.273 190.764 168.146L190.226 169.705L189.672 172.43L191.318 172.279Z" fill="#333333"/>
<g style="mix-blend-mode:multiply" opacity="0.302">
<g style="mix-blend-mode:multiply" opacity="0.302">
<path d="M200.647 176.65C201.235 176.355 201.843 176.351 202.472 176.639C203.049 176.177 203.609 176.095 204.152 176.389C204.043 177.318 203.469 177.822 202.43 177.898C201.391 177.976 200.796 177.56 200.647 176.65Z" fill="#F99893"/>
</g>
</g>
<path d="M199.772 176.277C199.966 176.389 200.164 176.49 200.371 176.574C200.575 176.661 200.785 176.737 200.999 176.795C201.427 176.912 201.871 176.975 202.311 176.952C202.753 176.93 203.187 176.82 203.591 176.639C203.994 176.454 204.364 176.199 204.706 175.908C204.559 176.076 204.397 176.233 204.221 176.376C204.045 176.52 203.851 176.641 203.65 176.753C203.446 176.859 203.23 176.944 203.006 177.007C202.781 177.066 202.55 177.101 202.319 177.115C201.853 177.137 201.39 177.066 200.957 176.915C200.528 176.767 200.119 176.557 199.772 176.277Z" fill="#F99893"/>
<path d="M202.109 171.606C202.377 171.921 202.615 172.257 202.836 172.602C203.058 172.947 203.259 173.305 203.429 173.683C203.509 173.875 203.586 174.069 203.629 174.284C203.639 174.338 203.645 174.394 203.646 174.453C203.646 174.483 203.643 174.517 203.64 174.548C203.631 174.582 203.628 174.615 203.607 174.652C203.597 174.671 203.586 174.688 203.575 174.705L203.545 174.738C203.525 174.758 203.506 174.78 203.486 174.799C203.444 174.836 203.404 174.873 203.36 174.906C203.187 175.041 203.001 175.146 202.809 175.24C202.617 175.332 202.422 175.415 202.218 175.477C202.573 175.253 202.932 175.03 203.226 174.761C203.264 174.727 203.295 174.691 203.329 174.656L203.374 174.603L203.396 174.576C203.396 174.57 203.397 174.567 203.401 174.562C203.421 174.519 203.41 174.417 203.388 174.332C203.345 174.15 203.271 173.965 203.189 173.783C203.03 173.417 202.842 173.058 202.66 172.697C202.473 172.336 202.287 171.977 202.109 171.606Z" fill="#F99893"/>
<path d="M195.342 161.144C192.02 154.757 187.588 151.837 182.041 152.383C173.72 153.203 171.892 159.946 172.272 163.288C172.65 166.628 174.918 170.347 172.776 175.011C170.632 179.676 171.136 186.674 177.691 186.137C184.247 185.6 182.797 178.899 182.861 176.514C182.923 174.129 187.525 174.378 186.391 170.03C185.255 165.682 182.231 161.208 186.453 160.576C189.268 160.156 191.516 160.598 193.198 161.9L195.342 161.144Z" fill="#333333"/>
<path fill-rule="evenodd" clip-rule="evenodd" d="M220.712 183.164V184.591C222.386 184.67 223.725 186.056 223.725 187.75C223.725 189.477 222.335 190.885 220.616 190.913C220.314 191.97 219.34 192.744 218.187 192.744H214.799C213.404 192.744 212.274 191.614 212.274 190.219V183.164H220.712ZM222.644 187.75C222.644 186.653 221.79 185.751 220.712 185.675V189.827C221.79 189.749 222.644 188.848 222.644 187.75Z" fill="#70C0FD"/>
<g opacity="0.302">
<path opacity="0.302" d="M218.941 183.164H220.713V190.219C220.713 191.614 219.582 192.744 218.188 192.744H214.8C213.971 192.744 213.235 192.344 212.774 191.728C217.508 191.866 219.565 189.01 218.941 183.164Z" fill="#4188E4"/>
</g>
<path d="M212.273 183.243C212.273 183.68 214.167 184.034 216.503 184.034C218.838 184.034 220.731 183.68 220.731 183.243C220.731 182.806 218.838 182.453 216.503 182.453C214.167 182.453 212.273 182.806 212.273 183.243Z" fill="#E6F7FF"/>
<path d="M212.617 183.243C212.617 183.579 214.358 183.851 216.506 183.851C218.653 183.851 220.394 183.579 220.394 183.243C220.394 182.907 218.653 182.635 216.506 182.635C214.358 182.635 212.617 182.907 212.617 183.243Z" fill="#70C0FD"/>
<path d="M220.257 183.403C219.808 183.661 218.299 183.851 216.507 183.851C214.713 183.851 213.204 183.661 212.754 183.403C213.204 183.145 214.713 182.955 216.507 182.955C218.299 182.955 219.808 183.145 220.257 183.403Z" fill="#4C2816"/>
<g opacity="0.302">
<path opacity="0.302" d="M222.966 187.75C222.966 188.848 222.114 189.749 221.034 189.827V189.779C221.957 189.565 222.647 188.736 222.647 187.75C222.647 186.764 221.957 185.936 221.034 185.723V185.675C222.114 185.751 222.966 186.653 222.966 187.75Z" fill="#4188E4"/>
</g>
<g opacity="0.2">
<path opacity="0.2" d="M213.21 189.659C213.4 189.659 213.554 189.505 213.554 189.314V184.861C213.554 184.672 213.4 184.518 213.21 184.518C213.019 184.518 212.865 184.672 212.865 184.861V189.314C212.865 189.505 213.019 189.659 213.21 189.659Z" fill="white"/>
</g>
<path d="M212.825 189.891C212.903 190.019 213.089 190.011 213.151 189.877C213.645 188.843 215.216 185.598 215.507 185.663C215.854 185.742 214.52 188.676 214.758 188.907C214.995 189.135 216.222 186.24 216.58 186.383C216.936 186.528 215.729 189.131 215.858 189.243C215.987 189.356 217.412 186.987 217.672 186.946C217.932 186.904 216.72 189.619 216.838 189.801C216.956 189.983 218.416 188.389 218.567 188.497C218.717 188.608 218.837 188.656 216.58 193.188L215.617 194.935L214.06 195.933L212.249 194.639C211.459 190.363 211.128 188.161 211.257 188.037C211.44 187.86 211.646 187.942 212.825 189.891Z" fill="#FFC0BB"/>
<path d="M194.862 182.697C188.567 184.186 185.012 186.929 184.2 190.922C182.98 196.914 177.699 228.702 179.832 239.061C183.691 245.019 190.191 244.849 199.332 238.552C202.919 235.438 206.001 233.713 208.574 233.373L205.12 217.937L211.721 197.728C212.264 189.873 209.588 185.404 203.698 184.321C200.584 185.404 197.639 184.863 194.862 182.697Z" fill="#FCCC4F"/>
<path d="M186.891 189.043C188.358 187.662 190.755 188.116 191.712 189.889C194.066 194.257 200.777 206.653 201.362 207.071C201.836 207.409 205.187 202.831 211.417 193.333C213.651 193.419 215.275 193.869 216.291 194.681C212.906 212.961 208.166 221.391 202.073 219.969C195.082 218.337 188.683 206.068 186.062 200.391C184.874 197.814 184.555 194.902 185.266 192.154C185.577 190.949 186.082 189.804 186.891 189.043Z" fill="#FEAC1A"/>
<path d="M198.221 298.391H194.314V222.957H198.221V298.391Z" fill="#183658"/>
<path d="M235.079 298.391H231.173V222.957H235.079V298.391Z" fill="#183658"/>
<path d="M346.57 298.391H342.664V222.957H346.57V298.391Z" fill="#183658"/>
<path d="M383.434 298.391H379.526V222.957H383.434V298.391Z" fill="#183658"/>
<path d="M394.042 223.848H184.243C184.026 223.848 183.852 223.673 183.852 223.459V219.43C183.852 219.213 184.026 219.039 184.243 219.039H394.042C394.257 219.039 394.431 219.213 394.431 219.43V223.459C394.431 223.673 394.257 223.848 394.042 223.848Z" fill="white"/>
<g style="mix-blend-mode:multiply" opacity="0.2">
<g style="mix-blend-mode:multiply" opacity="0.2">
<path d="M394.045 223.848H341.69C341.476 223.848 341.3 223.673 341.3 223.459V219.43C341.3 219.213 341.476 219.039 341.69 219.039H394.045C394.26 219.039 394.434 219.213 394.434 219.43V223.459C394.434 223.673 394.26 223.848 394.045 223.848Z" fill="#E0A689"/>
</g>
</g>
<path opacity="0.1" d="M480.169 300.388C480.169 301.002 479.671 301.501 479.056 301.501H51.579C50.9642 301.501 50.4658 301.002 50.4658 300.388C50.4658 299.773 50.9642 299.274 51.579 299.274H479.056C479.671 299.274 480.169 299.773 480.169 300.388Z" fill="#492D21"/>
<path d="M256.446 199.219H229.607L221.998 217.777H209.069C208.709 217.777 208.415 218.07 208.415 218.432C208.415 218.793 208.709 219.086 209.069 219.086H247.526L256.446 199.219Z" fill="#ECBCB7"/>
<path d="M242.962 209.759C242.777 210.574 241.974 211.12 241.165 210.977C240.358 210.834 239.854 210.058 240.038 209.241C240.222 208.426 241.027 207.88 241.834 208.023C242.641 208.166 243.147 208.942 242.962 209.759Z" fill="black" fill-opacity="0.14"/>
<path d="M161.472 86.1291C161.472 96.6031 152.999 105.094 142.548 105.094C132.096 105.094 123.622 96.6031 123.622 86.1291C123.622 75.6566 132.096 67.166 142.548 67.166C152.999 67.166 161.472 75.6566 161.472 86.1291Z" fill="#492D21"/>
<path d="M158.72 85.1137C159.28 94.0633 152.494 101.775 143.562 102.336C134.631 102.898 126.935 96.098 126.375 87.1469C125.814 78.1959 132.601 70.4862 141.532 69.923C150.464 69.3615 158.158 76.1627 158.72 85.1137Z" fill="white"/>
<path d="M131.096 85.8105V86.2694H125.122V85.8105H131.096Z" fill="#142666"/>
<path d="M160.013 85.8105V86.2694H154.039V85.8105H160.013Z" fill="#142666"/>
<path d="M142.752 74.7751H142.293V68.7891H142.752V74.7751Z" fill="#142666"/>
<path d="M142.752 103.636H142.293V97.6504H142.752V103.636Z" fill="#142666"/>
<path d="M143.042 86.1294C143.042 86.4032 142.819 86.6257 142.547 86.6257C142.273 86.6257 142.052 86.4032 142.052 86.1294C142.052 85.8557 142.273 85.6348 142.547 85.6348C142.819 85.6348 143.042 85.8557 143.042 86.1294Z" fill="#142666"/>
<path d="M142.55 86.3517C142.492 86.3517 142.436 86.3299 142.393 86.2863L133.507 77.3819C133.421 77.2964 133.421 77.1564 133.507 77.0692C133.594 76.9821 133.734 76.9821 133.82 77.0692L142.705 85.9736C142.793 86.0592 142.793 86.1992 142.705 86.2863C142.662 86.3299 142.606 86.3517 142.55 86.3517Z" fill="#142666"/>
<path d="M145.405 95.1291C145.369 95.1105 145.339 95.0778 145.325 95.0358L142.452 86.3414C142.424 86.2574 142.471 86.1672 142.555 86.1392C142.639 86.1112 142.73 86.1563 142.758 86.2403L145.63 94.9347C145.658 95.0187 145.611 95.1089 145.527 95.1369C145.485 95.1509 145.442 95.1478 145.405 95.1291Z" fill="#142666"/>
<path d="M118.959 147.441H114.443V129.133H118.959V147.441Z" fill="#492D21"/>
<path d="M140.337 147.226V143.63H158.608V147.226H140.337Z" fill="#ECBCB7"/>
<path d="M142.767 143.617V140.021H161.037V143.617H142.767Z" fill="#CCCCCC"/>
<path d="M138.987 140.099V136.502H157.258V140.099H138.987Z" fill="white"/>
<path d="M124.181 147.171H119.563V121.758H124.181V147.171Z" fill="white"/>
<path d="M113.904 147.171H109.651V124.56H113.904V147.171Z" fill="#BF9786"/>
<path d="M137.908 145.089L134.086 146.961L124.186 126.639L128.01 124.77L137.908 145.089Z" fill="#BF9786"/>
<path d="M162.266 149.11H106.278V147.043H162.266V149.11Z" fill="#DEDEDE"/>
<path d="M113.907 127.806H109.654V126.339H113.907V127.806Z" fill="white"/>
<path d="M117.97 137.667H115.437V130.683H117.97V137.667Z" fill="#756664"/>
<path d="M124.181 125.663H119.563V124.56H124.181V125.663Z" fill="#492D21"/>
<path d="M124.181 145.064H119.563V143.617H124.181V145.064Z" fill="#492D21"/>
<path d="M412.535 147.441H408.019V129.133H412.535V147.441Z" fill="#492D21"/>
<path d="M433.912 147.226V143.63H452.183V147.226H433.912Z" fill="#ECBCB7"/>
<path d="M436.344 143.617V140.021H454.615V143.617H436.344Z" fill="#CCCCCC"/>
<path d="M432.562 140.099V136.502H450.833V140.099H432.562Z" fill="white"/>
<path d="M417.756 147.171H413.139V121.758H417.756V147.171Z" fill="white"/>
<path d="M407.481 147.171H403.228V124.56H407.481V147.171Z" fill="#BF9786"/>
<path d="M431.482 145.089L427.659 146.961L417.759 126.639L421.583 124.77L431.482 145.089Z" fill="#BF9786"/>
<path d="M455.842 149.11H399.853V147.043H455.842V149.11Z" fill="#DEDEDE"/>
<path d="M407.482 127.806H403.229V126.339H407.482V127.806Z" fill="white"/>
<path d="M411.545 137.667H409.012V130.683H411.545V137.667Z" fill="#756664"/>
<path d="M417.756 125.663H413.139V124.56H417.756V125.663Z" fill="#492D21"/>
<path d="M417.756 145.064H413.139V143.617H417.756V145.064Z" fill="#492D21"/>
<path d="M269.297 92.8947H237.594V61.1895H269.297V92.8947Z" fill="white"/>
<path d="M266.046 89.6459H240.839V64.4385H266.046V89.6459Z" fill="#BF9786"/>
<path d="M435.99 98.9713H410.837V73.8184H435.99V98.9713Z" fill="white"/>
<path d="M433.412 96.3956H413.413V76.3965H433.412V96.3956Z" fill="#BF9786"/>
<path d="M227.762 65.1083H206.026V43.373H227.762V65.1083Z" fill="white"/>
<path d="M225.539 62.8805H208.257V45.6006H225.539V62.8805Z" fill="#BF9786"/>
<path d="M401.762 107.498H384.793V90.5312H401.762V107.498Z" fill="white"/>
<path d="M400.025 105.761H386.534V92.2705H400.025V105.761Z" fill="#BF9786"/>
<path d="M100.934 180.901L100.929 181.962C101.121 184.174 99.86 185.441 97.1479 185.763C93.0786 186.25 89.7422 186.185 89.8523 183.626C90.2194 181.645 90.8758 178.567 90.903 176.928C90.9129 176.318 90.8708 175.672 90.7583 174.941L98.6424 174.783L100.965 175.164L100.934 180.901Z" fill="#FFB27D"/>
<path d="M100.963 175.164L100.932 180.901C100.095 181.292 99.1497 181.532 98.0903 181.532C94.4672 181.532 92.1247 178.864 90.901 176.928C90.9109 176.318 90.8688 175.672 90.7563 174.941L98.6404 174.783L100.963 175.164Z" fill="#E2915A"/>
<path d="M90.1521 173.668C91.0668 178.61 97.4193 178.448 100.165 178.138C100.68 178.079 101.099 178.017 101.423 177.951C102.295 177.718 102.78 176.341 103.007 174.536C103.454 170.966 102.888 165.724 102.287 164.383C101.384 162.366 99.6802 160.184 93.2832 161.758C86.8838 163.334 88.979 167.335 90.1521 173.668Z" fill="#FFB27D"/>
<path d="M84.9521 320H93.9536C93.8869 319.525 93.657 318.083 93.2355 316.756C93.0896 316.294 92.919 315.844 92.7262 315.454C92.1427 314.285 89.9968 314.071 86.2896 314.816C85.946 315.111 85.6394 315.825 85.37 316.957C85.192 317.704 85.0337 318.697 84.9521 320Z" fill="#233862"/>
<path d="M112.156 317.148C112.181 318.378 112.334 319.54 112.779 320H130.585C130.358 319.353 129.717 318.38 127.889 318.082C125.812 317.745 122.574 316.741 120.684 314.734C120.011 314.022 119.509 313.182 119.289 312.199C118.73 309.702 116.422 310.085 112.363 313.345C112.198 314.66 112.13 315.928 112.156 317.148Z" fill="#233862"/>
<path d="M100.312 276.673C100.561 278.044 100.718 279.169 100.76 279.975C101.326 291.06 110.053 316.403 111.614 316.994C114.03 317.909 117.833 315.964 119.823 315.327C120.648 315.063 121.205 314.228 121.021 313.381C116.7 293.434 115.111 264.709 114.533 247.703C114.339 241.993 113.753 237.165 112.776 233.22C98.5853 229.419 91.4467 229.923 91.3626 234.731C91.2514 241.114 98.4147 266.145 100.312 276.673Z" fill="#492D21"/>
<path d="M100.312 276.673L114.533 247.703C114.339 241.993 113.753 237.165 112.776 233.22C98.5853 229.419 91.4467 229.923 91.3626 234.731C91.2514 241.114 98.4147 266.145 100.312 276.673Z" fill="#553426"/>
<path d="M105.049 234.757L93.7953 316.635C90.501 317.433 87.5726 317.513 85.0101 316.875C82.8135 287.843 81.8073 269.818 81.9903 262.801C82.2647 252.272 79.6255 234.629 82.5923 232.683C84.5701 231.386 92.0561 232.078 105.049 234.757Z" fill="#492D21"/>
<path d="M104.249 159.68C102.373 159.534 100.327 158.978 98.113 158.012C95.417 156.835 92.0164 158.131 90.9125 158.715C90.9422 158.537 91.0127 158.292 91.1808 158.048C90.8507 158.283 90.6616 158.565 90.6122 158.894C90.5615 158.932 90.5392 158.957 90.5516 158.967C90.177 158.898 89.8692 158.918 89.6294 159.027C89.7976 159.002 89.9113 159.044 89.9718 159.153C89.9817 159.171 89.9953 159.186 90.0126 159.198C85.8073 161.238 85.4192 167.91 86.7727 169.453C87.8581 170.692 89.0509 172.705 90.3526 175.493C90.8272 174.834 90.9657 173.961 90.7679 172.871C90.4725 171.237 91.878 171.237 93.6543 170.493C95.4306 169.75 93.9509 167.67 95.5048 166.407C97.0586 165.145 102.757 165.887 102.683 164.921C104.798 164.148 104.249 159.897 104.249 159.68Z" fill="#492D21"/>
<path d="M88.8916 185.049L91.4825 240.857C105.898 241.094 112.9 239.574 112.488 236.299C112.076 233.024 109.479 216.51 104.694 186.758L88.8916 185.049Z" fill="#E9F3FE"/>
<path d="M81.1693 216.683C82.4561 220.557 80.0308 233.557 79.1655 237.962C79.0394 238.583 78.9344 239.077 78.8491 239.444C80.8467 242.705 85.5007 244.314 92.8124 244.272C94.2179 238.032 95.2859 229.944 96.0177 220.007L87.6021 182.973L77.0146 192.799C77.5487 196.793 78.1469 200.823 78.807 204.888C79.5883 209.716 80.4733 214.629 81.1693 216.683Z" fill="#BF9786"/>
<path d="M99.1646 174.481C99.3018 174.905 99.905 175.041 100.973 174.886C101.87 174.755 102.286 174.454 102.219 173.98C101.317 173.713 100.299 173.879 99.1646 174.481Z" fill="white"/>
<path fill-rule="evenodd" clip-rule="evenodd" d="M111.32 185.844C111.321 185.851 111.322 185.858 111.324 185.868C111.835 186.366 126.271 200.436 129.067 205.947C130.966 209.674 126.628 215.249 116.054 222.674C115.374 222.945 114.797 223.026 114.325 222.921C115.073 229.102 115.913 234.805 115.415 237.239C114.517 241.64 110.462 243.117 110.462 242.779C110.462 242.671 109.417 226.734 108.174 218.503C106.335 206.323 104.317 194.518 102.123 183.087C105.27 183.415 108.336 184.334 111.32 185.844ZM119.915 208.361C119.936 208.34 119.936 208.297 119.936 208.276C119.936 207.472 116.876 205.693 113.566 203.597C113.538 203.569 113.516 203.547 113.502 203.533C113.5 203.532 113.498 203.53 113.495 203.528C113.555 205.241 113.549 206.921 113.447 208.486C113.259 211.386 113.47 214.853 113.818 218.384C115.395 215.913 119.606 209.271 119.915 208.361Z" fill="#DFCBC2"/>
<path d="M88.2761 182.907C88.2588 182.552 89.087 182.129 90.762 181.639C92.6805 184.307 95.2183 185.664 98.3778 185.71C97.4767 187.47 96.4964 188.577 95.4358 189.032C90.7669 187.057 88.38 185.015 88.2761 182.907Z" fill="#D9E9F9"/>
<path d="M105.032 223.43C104.916 224.733 104.322 225.948 103.361 226.835L101.854 228.229C101.476 228.58 100.88 228.532 100.561 228.126L98.6936 225.744C98.193 225.105 97.9581 224.297 98.0347 223.488C98.209 221.686 98.5341 218.215 98.795 214.863C99.0076 212.149 99.1769 209.511 99.1905 207.906C99.2177 204.491 98.8938 197.338 98.2189 186.446L99.4415 186.511C101.467 190.739 103.01 195.729 104.071 201.481C104.464 203.605 104.767 205.866 104.918 208.207C105.343 214.428 105.381 219.502 105.032 223.43Z" fill="#E9A788"/>
<path d="M105.033 223.43C104.917 224.733 104.322 225.948 103.362 226.835L101.855 228.229C101.477 228.58 100.881 228.531 100.562 228.126L98.6941 225.744C98.1934 225.105 97.9586 224.297 98.0352 223.488C98.2095 221.686 98.5346 218.215 98.7954 214.863C102.176 211.051 103.546 205.78 104.071 201.48C104.464 203.605 104.767 205.866 104.918 208.207C105.343 214.428 105.382 219.502 105.033 223.43Z" fill="#EEA886"/>
<path d="M98.3779 185.618C100.052 184.621 100.891 183.584 100.896 182.504C101.978 182.367 102.754 182.564 103.226 183.09C103.623 184.94 103.559 186.403 103.032 187.478C100.622 187.109 99.0702 186.489 98.3779 185.618Z" fill="#D9E9F9"/>
<path d="M96.6729 185.377L100.077 184.558C100.374 184.584 100.517 184.782 100.51 185.153C100.498 185.71 99.5506 187.336 99.1316 187.466C98.7125 187.597 95.8682 186.503 96.6729 185.377Z" fill="#EEA886"/>
<path d="M88.6743 182.631C88.6557 182.276 89.2145 181.733 90.348 181.002C92.5434 183.577 95.2196 184.887 98.3791 184.933C97.478 186.692 96.4978 187.8 95.4372 188.255C91.0328 186.615 88.7781 184.74 88.6743 182.631Z" fill="#E9F3FE"/>
<path d="M98.3779 184.933C100.07 184.032 100.919 183.042 100.926 181.962C101.947 182.414 102.693 182.903 103.165 183.429C103.603 184.597 103.559 185.718 103.032 186.793C100.622 186.424 99.0702 185.804 98.3779 184.933Z" fill="#E9F3FE"/>
<path d="M117.065 223.58C117.065 222.158 115.819 221.016 114.418 221.23C114.029 221.289 113.678 221.451 113.436 221.775C112.471 223.063 111.554 226.812 113.263 226.987C113.957 227.059 114.851 226.569 115.538 226.044C116.238 225.51 117.065 224.676 117.065 223.795V223.58Z" fill="#FFB27D"/>
<path d="M79.1646 237.961C82.2661 234.722 87.6222 228.348 87.4331 223.118C87.2637 218.234 84.3885 212.157 78.8062 204.888C79.5874 209.715 80.4725 214.628 81.1684 216.682C82.4552 220.556 80.0299 233.557 79.1646 237.961Z" fill="#BF9786"/>
<path d="M79.2651 225.219C80.7509 225.965 81.945 226.151 82.8474 225.777C84.201 225.219 85.7919 224.798 87.3049 226.527C88.8167 228.255 89.1356 229.454 88.8167 230.093C88.499 230.732 84.9723 230.493 84.3876 230.093C83.8029 229.694 82.8771 228.71 82.2899 228.881C80.6706 229.354 79.3059 228.114 78.5432 227.126C78.0821 226.529 79.3257 226.241 79.2651 225.219Z" fill="#FFB27D"/>
<path d="M87.6026 182.973C81.6853 183.63 78.0276 185.254 76.632 187.841C74.538 191.722 63.6514 207.451 64.0086 213.987C64.2459 218.345 69.1966 222.967 78.8582 227.854C80.9992 226.945 82.0845 226.003 82.1167 225.027C82.1649 223.561 72.0966 214.805 72.7073 213.171C73.3179 211.536 84.4035 198.611 85.474 194.35C86.1873 191.508 86.8968 187.716 87.6026 182.973Z" fill="#BF9786"/>
<path d="M113.502 203.533C113.517 203.547 113.538 203.569 113.567 203.597C116.877 205.693 119.936 207.472 119.936 208.276C120.379 206.858 116.076 200.928 114.684 199.722C113.742 198.903 113.348 200.174 113.502 203.533Z" fill="#D3BBAF"/>
<path d="M90.347 181.002C94.8403 199.893 96.7291 212.897 96.0147 220.014C94.3619 212.41 91.5485 205.493 87.5731 199.263C89.0243 197.982 89.7104 197.106 89.6313 196.633C88.5546 196.313 87.494 196.261 86.4482 196.477C86.5644 188.334 86.9476 183.831 87.5991 182.971C88.2505 182.11 89.1665 181.454 90.347 181.002Z" fill="#906A5A"/>
<path d="M100.928 181.962C100.836 182.005 107.607 209.653 108.175 218.502C107.725 207.974 107.522 201.193 107.567 198.159C105.7 197.168 104.767 196.497 104.767 196.15C104.767 195.801 105.763 195.157 107.754 194.217C106.493 187.732 105.519 184.134 104.831 183.419C104.143 182.705 102.841 182.219 100.928 181.962Z" fill="#906A5A"/>
</svg>
