<svg width="520" height="501" viewBox="0 0 520 501" fill="none" xmlns="http://www.w3.org/2000/svg">
<path d="M517.717 192.16C530.18 323.3 487.09 362.756 358.266 414.632C229.441 466.509 137.756 540.923 51.0667 380.006C-11.3826 264.04 66.5103 116.666 195.366 64.8002C324.221 12.9339 501.848 25.0541 517.717 192.16Z" fill="#EBEBEB"/>
<path opacity="0.7" d="M517.717 192.16C530.18 323.3 487.09 362.756 358.266 414.632C229.441 466.509 137.756 540.923 51.0667 380.006C-11.3826 264.04 66.5103 116.666 195.366 64.8002C324.221 12.9339 501.848 25.0541 517.717 192.16Z" fill="white"/>
<path d="M278.95 415.007C278.955 416.576 278.492 418.112 277.621 419.418C276.75 420.724 275.51 421.741 274.058 422.339C272.612 422.948 271.017 423.111 269.478 422.806C267.941 422.497 266.529 421.741 265.421 420.632C264.312 419.523 263.556 418.112 263.247 416.575C262.944 415.036 263.103 413.443 263.704 411.995C264.297 410.542 265.314 409.3 266.622 408.432C267.815 407.632 269.203 407.171 270.638 407.099C272.072 407.027 273.5 407.346 274.767 408.022C276.034 408.699 277.094 409.707 277.832 410.939C278.571 412.171 278.961 413.58 278.96 415.017L278.95 415.007Z" fill="white"/>
<path d="M430.01 272.203C430.011 273.376 429.752 274.536 429.25 275.597C428.749 276.659 428.019 277.596 427.112 278.341C426.205 279.086 425.144 279.62 424.005 279.906C422.867 280.191 421.679 280.221 420.528 279.992C418.992 279.679 417.58 278.925 416.467 277.821C414.978 276.333 414.142 274.313 414.142 272.208C414.142 270.102 414.978 268.083 416.467 266.594C417.956 265.106 419.975 264.269 422.081 264.269C424.186 264.269 426.205 265.106 427.694 266.594C429.177 268.084 430.009 270.101 430.01 272.203Z" fill="white"/>
<path d="M504.278 182.74C504.275 184.31 503.809 185.843 502.936 187.148C502.064 188.453 500.825 189.47 499.376 190.073C497.926 190.665 496.334 190.82 494.796 190.519C493.646 190.289 492.561 189.807 491.619 189.107C490.677 188.408 489.901 187.509 489.348 186.474C488.795 185.439 488.478 184.295 488.42 183.123C488.362 181.952 488.564 180.782 489.011 179.697C489.713 178 490.983 176.598 492.603 175.732C494.223 174.866 496.093 174.589 497.895 174.948C499.696 175.307 501.317 176.28 502.481 177.701C503.646 179.122 504.281 180.903 504.278 182.74Z" fill="white"/>
<path d="M418.087 190.986C418.084 192.556 417.618 194.089 416.745 195.394C415.873 196.699 414.634 197.716 413.185 198.319C411.735 198.917 410.14 199.072 408.601 198.763C407.063 198.455 405.651 197.696 404.544 196.584C403.433 195.476 402.677 194.063 402.374 192.523C402.068 190.983 402.226 189.387 402.829 187.938C403.432 186.488 404.452 185.25 405.759 184.381C407.061 183.508 408.595 183.045 410.163 183.052C412.265 183.052 414.281 183.885 415.771 185.368C416.506 186.105 417.088 186.981 417.485 187.943C417.882 188.909 418.086 189.942 418.087 190.986Z" fill="white"/>
<path d="M351.162 83.4734C351.153 85.1641 350.601 86.8071 349.588 88.1606C348.575 89.5142 347.154 90.5066 345.534 90.9919C343.915 91.4773 342.182 91.4297 340.592 90.8564C339.001 90.283 337.637 89.2142 336.7 87.8072C335.762 86.4002 335.302 84.7294 335.385 83.0408C335.469 81.3522 336.092 79.735 337.164 78.4275C338.236 77.1199 339.699 76.191 341.338 75.7775C342.978 75.3641 344.706 75.4879 346.27 76.1307C347.72 76.7342 348.958 77.7538 349.829 79.0607C350.699 80.3676 351.163 81.9031 351.162 83.4734Z" fill="white"/>
<path d="M297.644 41.4534C297.642 43.2866 297.004 45.0623 295.839 46.478C294.675 47.8937 293.055 48.8617 291.257 49.2173C289.458 49.5728 287.592 49.2939 285.976 48.4279C284.361 47.5619 283.095 46.1626 282.395 44.4682C281.696 42.7737 281.605 40.8891 282.139 39.1354C282.673 37.3817 283.798 35.8674 285.324 34.8504C286.849 33.8334 288.68 33.3767 290.504 33.5581C292.328 33.7394 294.033 34.5477 295.328 35.8451C296.064 36.5819 296.647 37.4565 297.044 38.4188C297.441 39.3811 297.645 40.4123 297.644 41.4534Z" fill="white"/>
<path d="M149.752 145.652C149.755 146.828 149.498 147.989 148.998 149.053C148.498 150.116 147.768 151.055 146.861 151.803C145.953 152.55 144.892 153.086 143.752 153.372C142.612 153.659 141.423 153.689 140.27 153.46C139.117 153.23 138.03 152.748 137.086 152.047C136.143 151.347 135.367 150.445 134.814 149.408C134.262 148.371 133.946 147.224 133.891 146.05C133.836 144.876 134.042 143.704 134.495 142.62C135.089 141.167 136.106 139.926 137.413 139.057C138.716 138.185 140.249 137.719 141.817 137.718C142.861 137.716 143.894 137.92 144.859 138.32C145.823 138.719 146.699 139.305 147.436 140.044C148.918 141.534 149.751 143.55 149.752 145.652Z" fill="white"/>
<path d="M136.312 249.106C136.31 250.669 135.846 252.197 134.978 253.496C134.109 254.796 132.876 255.81 131.433 256.411C129.99 257.012 128.401 257.172 126.867 256.872C125.333 256.572 123.922 255.825 122.811 254.724C121.711 253.614 120.964 252.203 120.664 250.669C120.363 249.134 120.524 247.546 121.124 246.103C121.725 244.659 122.739 243.426 124.039 242.558C125.339 241.689 126.866 241.225 128.43 241.223C130.53 241.226 132.542 242.062 134.026 243.548C135.51 245.033 136.344 247.047 136.344 249.147L136.312 249.106Z" fill="white"/>
<path d="M152.4 311.014C152.4 312.187 152.14 313.346 151.638 314.406C151.137 315.466 150.406 316.403 149.5 317.147C148.593 317.891 147.533 318.425 146.395 318.71C145.257 318.996 144.07 319.025 142.919 318.797C141.769 318.568 140.683 318.087 139.741 317.389C138.798 316.69 138.022 315.791 137.469 314.757C136.916 313.723 136.598 312.579 136.54 311.407C136.482 310.235 136.685 309.065 137.133 307.981C137.531 307.016 138.116 306.139 138.854 305.4C139.592 304.661 140.468 304.075 141.433 303.675C142.398 303.276 143.432 303.071 144.476 303.072C145.521 303.073 146.555 303.28 147.519 303.682C148.482 304.082 149.357 304.668 150.094 305.406C151.577 306.896 152.409 308.912 152.41 311.014H152.4Z" fill="white"/>
<path d="M95.4447 394.702C97.014 394.702 98.5481 394.237 99.853 393.365C101.158 392.493 102.175 391.254 102.775 389.804C103.376 388.354 103.533 386.759 103.227 385.22C102.921 383.681 102.165 382.267 101.055 381.157C99.9457 380.047 98.5318 379.292 96.9927 378.985C95.4535 378.679 93.8581 378.836 92.4082 379.437C90.9583 380.038 89.7191 381.055 88.8472 382.359C87.9754 383.664 87.51 385.198 87.51 386.768C87.51 388.872 88.346 390.89 89.834 392.378C91.3221 393.866 93.3403 394.702 95.4447 394.702Z" fill="white"/>
<path d="M144.465 311.015L95.4448 386.769L271.015 414.956L422.044 272.183L410.163 190.988L496.364 182.742L343.227 83.4646L141.817 145.654L128.399 249.106L144.465 311.015Z" stroke="white" stroke-linecap="round" stroke-linejoin="round"/>
<path d="M289.72 41.4539L343.227 83.4641" stroke="white" stroke-linecap="round" stroke-linejoin="round"/>
<path d="M271.015 414.954L257.42 331.401" stroke="white" stroke-linecap="round" stroke-linejoin="round"/>
<path d="M141.807 145.653L188.023 187.497" stroke="white" stroke-linecap="round" stroke-linejoin="round"/>
<path d="M392.102 501.001C425.035 501.001 451.727 496.68 451.727 491.342C451.727 486.004 425.035 481.693 392.102 481.693C359.169 481.693 332.478 486.014 332.478 491.342C332.478 496.67 359.169 501.001 392.102 501.001Z" fill="#FCCC4F"/>
<path d="M362.503 315.448C379.944 298.023 391.824 275.817 396.642 251.638C401.46 227.46 398.998 202.395 389.569 179.616C380.139 156.837 364.165 137.366 343.668 123.666C323.17 109.967 299.07 102.655 274.416 102.655C249.762 102.655 225.662 109.967 205.165 123.666C184.668 137.366 168.694 156.837 159.264 179.616C149.834 202.395 147.373 227.46 152.191 251.638C157.009 275.817 168.889 298.023 186.33 315.448C209.699 338.797 241.382 351.912 274.416 351.912C307.451 351.912 339.134 338.797 362.503 315.448Z" fill="#492D21"/>
<path d="M362.503 315.448C379.944 298.023 391.824 275.817 396.642 251.638C401.46 227.46 398.998 202.395 389.569 179.616C380.139 156.837 364.165 137.366 343.668 123.666C323.17 109.967 299.07 102.655 274.416 102.655C249.762 102.655 225.662 109.967 205.165 123.666C184.668 137.366 168.694 156.837 159.264 179.616C149.834 202.395 147.373 227.46 152.191 251.638C157.009 275.817 168.889 298.023 186.33 315.448C209.699 338.797 241.382 351.912 274.416 351.912C307.451 351.912 339.134 338.797 362.503 315.448Z" stroke="#263238" stroke-linecap="round" stroke-linejoin="round"/>
<path d="M210.975 153.889C209.542 152.85 202.667 155.156 202.667 153.11C202.667 151.749 207.268 147.917 208.171 146.193C209.459 143.68 208.784 140.148 209.989 137.781C210.992 135.739 212.306 133.864 213.883 132.224C220.894 126.315 231.539 119.896 240.481 119.45C243.69 119.294 248.083 124.788 248.79 129.088C249.215 131.632 248.79 139.193 246.484 141.841C243.067 145.881 235.641 145.881 231.643 148.997C227.042 152.611 224.819 161.148 219.523 163.963C218.048 164.752 215.244 163.205 214.33 162.395C212.616 160.951 212.637 155.145 210.975 153.889Z" fill="#FCCC4F" stroke="#263238" stroke-linecap="round" stroke-linejoin="round"/>
<path d="M355.409 282.132C354.585 281.933 353.72 281.988 352.927 282.288C350.85 283.43 347.859 287.958 346.8 290.171C345.574 292.694 344.12 298.168 344.234 300.556C344.297 301.886 345.055 304.513 346.156 304.648C346.987 304.752 349.168 303.111 349.946 302.197C353.914 297.42 358.691 290.004 358.338 284.105C358.286 283.181 356.271 282.35 355.409 282.132Z" fill="#92E3A9" stroke="#263238" stroke-linecap="round" stroke-linejoin="round"/>
<path d="M279.853 168.108C281.349 167.973 284.652 167.152 285.607 165.812C287.082 163.631 287.684 157.078 286.106 155.24C285.462 154.45 283.042 154.617 282.211 155.24C281.172 156.123 281.411 159.841 280.352 160.838C279.292 161.835 276.26 160.443 275.325 161.492C274.39 162.541 274.172 165.989 274.868 167.038C275.564 168.087 278.576 168.253 279.853 168.108Z" fill="#FCCC4F" stroke="#263238" stroke-linecap="round" stroke-linejoin="round"/>
<path d="M354.194 131.632C352.999 132.558 352.198 133.901 351.951 135.392C351.899 136.43 353.955 139.328 353.696 140.232C353.062 142.433 347.942 143.981 345.304 142.6C344.505 142.174 343.819 139.764 342.999 139.224C339.8 136.991 333.651 138.508 330.536 138.321C329.053 138.363 327.57 138.279 326.101 138.071C320.846 136.441 315.373 130.999 309.982 130.801C307.313 130.698 301.3 134.519 299.431 137.324C296.826 141.312 295.388 145.949 295.276 150.711C295.276 152.694 297.073 156.942 298.641 157.981C300.209 159.019 304.592 159.258 306.036 157.981C307.074 157.119 306.462 153.473 307.261 152.424C308.061 151.375 311.416 149.371 312.402 150.295C315.383 153.079 316.079 160.826 314.303 164.212C312.382 167.837 304.374 171.586 300.23 169.644C298.704 168.938 299.96 163.215 298.652 161.844C297.343 160.473 293.459 159.539 292.181 160.743C290.644 162.208 293.22 167.878 291.994 169.665C290.603 171.648 285.088 171.015 283.146 172.531C281.744 173.684 279.365 176.883 279.199 178.69C279.043 180.248 282.45 182.896 281.609 184.215C280.466 186.126 274.526 182.595 273.061 184.319C271.109 186.625 272.521 194.082 274.702 195.951C276.333 197.353 281.681 197.249 283.447 195.951C284.704 194.975 283.935 190.758 285.212 189.813C286.895 188.587 291.34 190.852 293.282 190.343C294.819 189.958 297.135 186.708 298.693 186.988C300.77 187.352 303.751 191.589 304.146 193.687C304.436 195.286 300.822 198.714 302.006 199.814C303.46 201.165 308.373 198.319 309.089 196.491C310.014 194.185 304.81 189.325 305.641 187.009C305.992 186.488 306.467 186.062 307.024 185.772C307.581 185.482 308.202 185.336 308.83 185.347C311.821 186.064 313.649 194.559 316.681 195.421C318.831 196.024 322.57 191.651 324.741 192.171C327.295 192.783 331.419 197.446 332.197 200.001C332.758 201.788 332.062 206.056 330.827 207.178C326.516 211.01 318.488 211.903 312.579 211.54C309.785 211.363 304.073 209.068 302.017 207.064C300.583 205.682 300.272 200.739 298.693 199.794C294.539 197.363 287.892 197.717 283.302 199.264C275.242 201.933 265.365 209.65 260.816 217.127C259.186 219.838 260.816 227.108 259.186 229.798C258.677 230.639 256.351 231.107 255.894 231.979C254.523 234.638 254.855 241.513 256.361 244.099C259.629 249.179 264.431 253.086 270.07 255.253C275.741 257.195 283.509 254.101 289.512 255.43C291.413 255.856 295.494 258.068 296.533 259.906C297.904 262.305 295.796 268.62 297.083 271.05C298.122 273.054 303.99 272.992 304.79 274.934C307.739 281.955 300.698 291.416 301.788 298.925C302.152 301.459 306.067 305.385 306.389 307.784C307.054 312.219 304.603 318.243 306.327 322.241C307.479 324.869 314.126 325.918 316.64 324.547C322.03 321.722 327.95 314.909 330.453 309.488C332.758 304.523 330.785 296.755 333.298 292.434C335.375 288.986 341.856 287.241 344.027 283.731C347.236 278.538 344.764 268.921 347.786 263.489C350.092 259.231 356.999 256.749 359.304 252.283C360.197 250.517 359.751 245.221 358.473 244.224C355.358 241.679 347.963 243.445 344.972 240.63C343.653 239.394 345.564 233.869 344.764 231.854C343.964 229.84 339.976 227.762 339.301 225.831C338.626 223.899 338.263 218.561 339.841 217.024C340.548 216.359 342.957 216.587 343.746 217.024C348.077 219.454 351.702 224.792 353.166 229.601C353.665 231.242 351.411 235.23 352.346 236.704C353.01 237.743 355.97 238.46 357.237 238.273C362.794 237.4 372.307 233.246 373.211 228.926C374.363 223.629 359.875 217.605 361.412 211.654C361.901 209.774 369.254 209.837 371.393 211.218C372.889 212.184 372.754 216.411 373.844 217.667C376.794 221.116 381.395 223.421 385.549 225.633C387.501 226.672 392.715 226.932 393.805 228.749C395.239 231.055 391.053 237.286 391.863 239.727C393.051 242.94 394.764 245.934 396.932 248.586C400.663 227.019 398.655 204.849 391.107 184.304C383.56 163.759 370.74 145.562 353.935 131.539L354.194 131.632Z" fill="#FCCC4F" stroke="#263238" stroke-linecap="round" stroke-linejoin="round"/>
<path d="M209.251 307.898C204.588 303.474 199.198 296.474 198.689 290.897C198.107 284.447 210.674 281.55 211.36 274.28C211.609 271.683 205.346 264.86 205.845 262.128C206.343 259.397 213.343 256.645 213.032 253.695C212.409 247.682 206.021 240.889 200.995 237.649C198.294 235.904 190.453 238.075 188.106 235.811C186.953 234.772 188.791 231.2 187.639 230.203C186.195 228.925 181.688 230.826 179.86 230.088C177.783 229.237 175.498 224.709 173.483 224.023C166.576 221.728 156.627 227.378 149.897 224.698V227.928C151.075 228.519 152.056 229.439 152.722 230.576C152.897 231.567 152.858 232.583 152.608 233.557C152.354 234.529 151.889 235.433 151.247 236.206C150.938 236.404 150.576 236.505 150.209 236.496C150.458 240.059 150.873 243.569 151.424 247.038C154.882 249.219 159.369 250.662 161.612 253.654C162.983 255.492 160.065 259.708 161.612 261.505C164.728 264.953 171.686 265.296 175.113 268.412C183.1 275.619 184.461 290.357 193.465 298.655C195.033 300.098 198.814 301.49 200.372 303.006C202.542 305.084 203.435 309.061 205.782 311.066C209.781 314.524 216.563 320.278 220.322 319.956C221.008 319.956 218.453 314.192 216.293 311.897C214.683 310.276 210.934 309.487 209.251 307.898Z" fill="#FCCC4F" stroke="#263238" stroke-linecap="round" stroke-linejoin="round"/>
<path d="M154.498 204.945C155.577 205.312 156.754 205.264 157.8 204.81C159.389 203.574 157.998 199.513 159.306 198.101C164.852 192.14 176.069 192.545 181.272 186.116C182.736 184.298 180.504 179.625 182.487 178.264C188.719 173.965 198.606 182.959 204.058 179.022C207.268 176.717 210.144 168.637 208.659 165.012C208.379 164.337 204.889 165.968 204.173 165.448C202.76 164.41 205.128 158.126 203.84 157.69C200.122 156.423 193.911 159.705 190.027 161.844C188.989 162.436 187.067 164.804 186.018 165.137C183.796 165.843 179.434 164.327 180.607 162.727C183.204 159.175 189.955 158.23 193.652 155.374C196.913 152.85 202.656 147.626 202.584 144.926C202.48 141.27 186.932 145.393 183.017 147.346C180.711 148.499 175.747 153.276 173.41 154.419C163.205 168.514 156.081 184.601 152.504 201.632C153.075 203.003 153.542 204.54 154.498 204.945Z" fill="#FCCC4F" stroke="#263238" stroke-linecap="round" stroke-linejoin="round"/>
<path d="M196.01 363.783L211.453 340.935" stroke="#263238" stroke-linecap="round" stroke-linejoin="round"/>
<path d="M121.669 221.998L145.826 222.351" stroke="#263238" stroke-linecap="round" stroke-linejoin="round"/>
<path d="M193.413 91.7311L208.306 115.618" stroke="#263238" stroke-linecap="round" stroke-linejoin="round"/>
<path d="M433.915 225.197L403.744 225.55" stroke="#263238" stroke-linecap="round" stroke-linejoin="round"/>
<path d="M114.284 310.515L139.615 345.058L153.335 363.752" stroke="#263238" stroke-linecap="round" stroke-linejoin="round"/>
<path d="M157.728 93.4229L98.7058 168.387" stroke="#263238" stroke-linecap="round" stroke-linejoin="round"/>
<path d="M358.027 379.881L213.572 386.216" stroke="#263238" stroke-linecap="round" stroke-linejoin="round"/>
<path d="M418.087 348.029L464.054 261.349" stroke="#263238" stroke-linecap="round" stroke-linejoin="round"/>
<path d="M467.637 191.402L466.121 163.299" stroke="#263238" stroke-linecap="round" stroke-linejoin="round"/>
<path d="M365.837 135.008L380.429 124.373" stroke="#263238" stroke-linecap="round" stroke-linejoin="round"/>
<path d="M213.343 61.3207L379.826 64.1871" stroke="#263238" stroke-linecap="round" stroke-linejoin="round"/>
<path d="M497.444 239.436C500.088 233.796 501 227.499 500.064 221.341C499.129 215.183 496.388 209.441 492.189 204.84C487.99 200.24 482.521 196.989 476.473 195.497C470.426 194.005 464.072 194.341 458.215 196.461C452.358 198.58 447.262 202.39 443.57 207.406C439.878 212.423 437.757 218.422 437.475 224.644C437.193 230.866 438.762 237.032 441.985 242.362C445.208 247.693 449.939 251.947 455.58 254.589C463.141 258.126 471.798 258.517 479.648 255.676C487.498 252.835 493.898 246.993 497.444 239.436Z" fill="#BF9786"/>
<path d="M469.081 257.766C471.928 257.768 474.762 257.38 477.504 256.614L475.759 246.332L460.918 247.204L460.357 256.551C463.193 257.364 466.13 257.773 469.081 257.766Z" fill="white"/>
<path d="M458.051 246.509C460.762 251.006 464.719 253.862 469.154 253.862C473.588 253.862 477.545 251.006 480.256 246.509H458.051Z" fill="#263238" stroke="#263238" stroke-linecap="round" stroke-linejoin="round"/>
<path d="M469.081 257.766C471.928 257.768 474.762 257.38 477.504 256.614L475.759 246.332L460.918 247.204L460.357 256.551C463.192 257.371 466.129 257.787 469.081 257.787V257.766Z" stroke="#263238" stroke-linecap="round" stroke-linejoin="round"/>
<path d="M486.674 229.808C486.052 229.509 485.341 229.453 484.68 229.652C484.286 218.321 477.244 209.296 468.562 209.296C459.879 209.296 452.89 218.321 452.443 229.652C451.786 229.453 451.077 229.508 450.459 229.808C448.766 230.628 448.309 233.152 449.421 235.427C449.756 236.24 450.314 236.942 451.031 237.452C451.75 237.961 452.601 238.253 453.482 238.293C455.777 246.352 461.655 252.054 468.51 252.054C475.364 252.054 481.232 246.29 483.538 238.293C484.417 238.254 485.266 237.962 485.984 237.454C486.702 236.946 487.259 236.242 487.588 235.427C488.814 233.121 488.346 230.628 486.674 229.808Z" fill="white" stroke="#263238" stroke-linecap="round" stroke-linejoin="round"/>
<path d="M466.36 232.083L466.235 232.706C465.837 234.632 465.083 236.467 464.013 238.117V238.117L467.253 239.883" stroke="#263238" stroke-linecap="round" stroke-linejoin="round"/>
<path d="M463.649 244.12C465.015 244.709 466.487 245.013 467.975 245.013C469.463 245.013 470.935 244.709 472.301 244.12" stroke="#263238" stroke-linecap="round" stroke-linejoin="round"/>
<path d="M460.315 230.452C460.315 231.304 459.994 231.989 459.578 231.989C459.163 231.989 458.851 231.304 458.851 230.452C458.851 229.6 459.173 228.904 459.578 228.904C459.983 228.904 460.315 229.6 460.315 230.452Z" fill="#263238"/>
<path d="M472.591 230.452C472.591 231.304 472.259 231.989 471.854 231.989C471.449 231.989 471.116 231.304 471.116 230.452C471.116 229.6 471.449 228.904 471.854 228.904C472.259 228.904 472.591 229.6 472.591 230.452Z" fill="#263238"/>
<path d="M458.155 227.451C458.707 226.391 459.608 225.554 460.705 225.081C461.803 224.608 463.029 224.528 464.179 224.855" stroke="#263238" stroke-linecap="round" stroke-linejoin="round"/>
<path d="M477.171 227.451C476.619 226.391 475.719 225.554 474.621 225.081C473.524 224.608 472.297 224.528 471.148 224.855" stroke="#263238" stroke-linecap="round" stroke-linejoin="round"/>
<path d="M455.891 227.929H452.64" stroke="#263238" stroke-linecap="round" stroke-linejoin="round"/>
<path d="M465.633 227.929H456.577V233.766H465.633V227.929Z" stroke="#263238" stroke-linecap="round" stroke-linejoin="round"/>
<path d="M478.667 227.929H469.611V233.766H478.667V227.929Z" stroke="#263238" stroke-linecap="round" stroke-linejoin="round"/>
<path d="M465.643 229.622H469.611" stroke="#263238" stroke-linecap="round" stroke-linejoin="round"/>
<path d="M484.13 227.929H478.677" stroke="#263238" stroke-linecap="round" stroke-linejoin="round"/>
<path d="M453.7 229.601C454.853 229.705 458.218 222.134 456.919 217.138C455.621 212.143 468.188 215.996 476.06 215.061C483.933 214.126 478.823 226.112 483.206 228.968C487.588 231.824 486.664 211.478 482.396 210.865C482.396 210.865 479.217 204.831 466.962 205.33C454.707 205.828 453.066 213.638 453.066 213.638C453.066 213.638 447.032 228.968 453.7 229.601Z" fill="black" stroke="#263238" stroke-linecap="round" stroke-linejoin="round"/>
<path d="M174.573 93.8499C181.496 93.852 188.264 91.801 194.021 87.9564C199.778 84.1118 204.266 78.6463 206.916 72.2511C209.567 65.8559 210.262 58.8183 208.912 52.0283C207.563 45.2383 204.231 39.001 199.336 34.1051C194.442 29.2093 188.205 25.8748 181.416 24.5235C174.626 23.1722 167.588 23.8647 161.192 26.5134C154.796 29.1622 149.33 33.6482 145.483 39.4041C141.637 45.16 139.584 51.9273 139.584 58.8501C139.583 63.4458 140.487 67.9968 142.244 72.2431C144.002 76.4895 146.579 80.3479 149.828 83.5981C153.078 86.8482 156.935 89.4265 161.181 91.1855C165.427 92.9445 169.978 93.8499 174.573 93.8499Z" fill="#BF9786"/>
<path d="M174.137 94.0775C177.296 94.0716 180.44 93.642 183.484 92.8L181.542 81.3757L165.06 82.352L164.427 92.7377C167.585 93.6361 170.854 94.0871 174.137 94.0775Z" fill="white"/>
<path d="M161.841 82.9031C164.832 87.8986 169.246 91.0662 174.168 91.0662C179.091 91.0662 183.516 87.9505 186.486 82.9031H161.841Z" fill="#263238" stroke="#263238" stroke-linecap="round" stroke-linejoin="round"/>
<path d="M174.137 94.0775C177.296 94.0716 180.44 93.642 183.484 92.8L181.542 81.3757L165.06 82.352L164.427 92.7377C167.577 93.6447 170.838 94.1062 174.116 94.1086L174.137 94.0775Z" stroke="#263238" stroke-linecap="round" stroke-linejoin="round"/>
<path d="M190.505 44.1011C190.505 44.1011 206.395 76.6914 196.55 83.4006C186.081 90.5356 160.968 90.9095 153.013 82.2478C145.057 73.5861 153.075 53.3651 156.461 49.1174C158.931 46.2366 161.857 43.7806 165.122 41.8474L176.038 39.5521L187.15 43.5818L190.505 44.1011Z" fill="black" stroke="#263238" stroke-linecap="round" stroke-linejoin="round"/>
<path d="M194.254 63.0039C193.561 62.6824 192.774 62.627 192.042 62.8481C191.606 50.2399 183.734 40.2177 174.189 40.2177C164.645 40.2177 156.866 50.2399 156.367 62.8481C155.64 62.6227 154.854 62.6782 154.165 63.0039C152.286 63.9282 151.777 66.722 153.013 69.2353C153.383 70.1377 154.002 70.9159 154.799 71.4788C155.595 72.0416 156.535 72.3658 157.51 72.4134C160.075 81.3658 166.587 87.7219 174.21 87.7219C181.833 87.7219 188.345 81.3658 190.91 72.4237C191.886 72.3843 192.828 72.0593 193.621 71.489C194.419 70.9252 195.042 70.1476 195.417 69.2457C196.664 66.722 196.165 63.9282 194.254 63.0039Z" fill="white" stroke="#263238" stroke-linecap="round" stroke-linejoin="round"/>
<path d="M171.78 65.5173L169.162 72.2057L172.756 74.2206" stroke="#263238" stroke-linecap="round" stroke-linejoin="round"/>
<path d="M169.162 78.8937C170.68 79.558 172.319 79.901 173.976 79.901C175.633 79.901 177.272 79.558 178.79 78.8937" stroke="#263238" stroke-linecap="round" stroke-linejoin="round"/>
<path d="M161.519 59.3899C162.436 58.4164 163.664 57.7934 164.991 57.6285C166.318 57.4635 167.661 57.7669 168.789 58.4863" stroke="#263238" stroke-linecap="round" stroke-linejoin="round"/>
<path d="M183.235 59.5147C182.352 58.5227 181.153 57.8662 179.842 57.6562C178.53 57.4461 177.187 57.6954 176.038 58.3618" stroke="#263238" stroke-linecap="round" stroke-linejoin="round"/>
<path d="M165.174 67.3769C164.516 67.3756 163.864 67.2445 163.256 66.9911C162.647 66.7378 162.095 66.3671 161.63 65.9004C161.166 65.4336 160.797 64.8798 160.546 64.2707C160.296 63.6616 160.167 63.009 160.168 62.3502V60.8859H168.778C168.971 60.8877 169.161 60.9265 169.339 61.0001C169.514 61.0719 169.673 61.1778 169.806 61.3117C169.947 61.4457 170.057 61.6087 170.128 61.7894C170.203 61.967 170.242 62.1576 170.243 62.3502C170.242 63.0141 170.108 63.6711 169.848 64.282C169.582 64.9 169.189 65.4555 168.695 65.9125C168.222 66.363 167.664 66.7158 167.054 66.9511C166.462 67.2155 165.823 67.3603 165.174 67.3769Z" fill="#492D21" stroke="#263238" stroke-linecap="round" stroke-linejoin="round"/>
<path d="M179.61 67.3769C178.949 67.3797 178.294 67.2516 177.682 67.0001C177.07 66.7486 176.514 66.3786 176.046 65.9114C175.578 65.4442 175.207 64.8891 174.954 64.2779C174.701 63.6667 174.572 63.0116 174.573 62.3502C174.571 62.1583 174.606 61.9677 174.677 61.7894C174.753 61.6108 174.862 61.4486 174.999 61.3117C175.133 61.1778 175.292 61.0719 175.467 61.0001C175.644 60.9255 175.835 60.8867 176.027 60.8859H184.648V62.3502C184.645 63.6844 184.113 64.9629 183.169 65.9053C182.224 66.8477 180.945 67.3769 179.61 67.3769Z" fill="#492D21" stroke="#263238" stroke-linecap="round" stroke-linejoin="round"/>
<path d="M170.17 62.7965H174.573" stroke="#263238" stroke-linecap="round" stroke-linejoin="round"/>
<path d="M160.096 60.8859H156.461" stroke="#263238" stroke-linecap="round" stroke-linejoin="round"/>
<path d="M191.949 60.8859H185.229" stroke="#263238" stroke-linecap="round" stroke-linejoin="round"/>
<path d="M168.747 46.3452C168.747 46.3452 176.993 56.8763 184.648 57.6033C192.302 58.3303 187.286 73.7219 184.648 74.2204C184.648 74.2204 191.554 74.4697 192.073 62.9C192.073 62.9 201.628 47.2383 185.447 40.5707C172.984 35.4298 166.67 40.2695 166.67 40.2695C166.67 40.2695 150.79 44.2369 154.924 60.3659C154.924 60.3659 157.717 68.8614 160.677 69.8792C160.677 69.8792 156.201 60.2516 160.574 55.1003C164.946 49.949 168.373 50.1463 168.747 46.3452Z" fill="black" stroke="#263238" stroke-linecap="round" stroke-linejoin="round"/>
<path d="M230.397 34.8155H236.098C238.361 34.7374 240.506 33.7836 242.079 32.1551C243.652 30.5265 244.532 28.3507 244.532 26.0863C244.532 23.822 243.652 21.6461 242.079 20.0176C240.506 18.3891 238.361 17.4352 236.098 17.3571H235.621C234.938 15.2793 233.616 13.4701 231.844 12.1875C230.073 10.9049 227.941 10.2144 225.754 10.2144C223.567 10.2144 221.436 10.9049 219.664 12.1875C217.892 13.4701 216.571 15.2793 215.888 17.3571H215.4C213.137 17.4352 210.992 18.3891 209.419 20.0176C207.846 21.6461 206.966 23.822 206.966 26.0863C206.966 28.3507 207.846 30.5265 209.419 32.1551C210.992 33.7836 213.137 34.7374 215.4 34.8155H217.799" stroke="#263238" stroke-linecap="round" stroke-linejoin="round"/>
<path d="M234.842 32.1891L224.165 21.4918L213.468 32.1891H219.855V40.8196H228.465V32.1891H234.842Z" fill="#656565" stroke="#263238" stroke-linecap="round" stroke-linejoin="round"/>
<path d="M176.038 430.595C182.961 430.597 189.729 428.546 195.487 424.701C201.244 420.856 205.731 415.39 208.382 408.994C211.032 402.598 211.726 395.56 210.376 388.77C209.026 381.979 205.692 375.742 200.797 370.847C195.901 365.951 189.664 362.618 182.874 361.267C176.083 359.917 169.045 360.611 162.65 363.262C156.254 365.912 150.788 370.4 146.943 376.157C143.098 381.914 141.046 388.683 141.048 395.606C141.048 404.885 144.735 413.785 151.297 420.347C157.858 426.909 166.758 430.595 176.038 430.595Z" fill="#BF9786"/>
<path d="M176.038 430.596C179.197 430.595 182.341 430.165 185.385 429.319L183.432 417.894L166.961 418.871L166.327 429.256C169.484 430.161 172.754 430.612 176.038 430.596Z" fill="white"/>
<path d="M163.741 419.442C166.743 424.428 171.157 427.595 176.069 427.595C180.981 427.595 185.416 424.428 188.397 419.442H163.741Z" fill="#263238" stroke="#263238" stroke-linecap="round" stroke-linejoin="round"/>
<path d="M176.038 430.596C179.197 430.595 182.341 430.165 185.385 429.319L183.432 417.894L166.961 418.871L166.327 429.256C169.473 430.168 172.732 430.63 176.007 430.627L176.038 430.596Z" stroke="#263238" stroke-linecap="round" stroke-linejoin="round"/>
<path d="M196.103 400.197C195.41 399.875 194.622 399.82 193.891 400.041C193.455 387.433 185.582 377.39 176.038 377.39C166.493 377.39 158.631 387.433 158.195 400.041C157.464 399.82 156.676 399.875 155.983 400.197C154.103 401.121 153.594 403.915 154.83 406.428C155.2 407.331 155.82 408.109 156.616 408.672C157.413 409.235 158.353 409.559 159.327 409.606C161.903 418.538 168.404 424.905 176.027 424.905C183.651 424.905 190.162 418.538 192.728 409.606C193.705 409.561 194.649 409.236 195.449 408.672C196.243 408.106 196.862 407.329 197.235 406.428C198.492 403.915 197.983 401.121 196.103 400.197Z" fill="white" stroke="#263238" stroke-linecap="round" stroke-linejoin="round"/>
<path d="M175.664 402.709L178.281 409.398L174.688 411.35" stroke="#263238" stroke-linecap="round" stroke-linejoin="round"/>
<path d="M170.98 416.087C172.5 416.744 174.138 417.084 175.794 417.084C177.45 417.084 179.088 416.744 180.608 416.087" stroke="#263238" stroke-linecap="round" stroke-linejoin="round"/>
<path d="M170.087 401.183C170.087 402.128 169.713 402.897 169.266 402.897C168.82 402.897 168.446 402.128 168.446 401.183C168.446 400.238 168.82 399.469 169.266 399.469C169.713 399.469 170.087 400.207 170.087 401.183Z" fill="#263238"/>
<path d="M183.64 401.183C183.64 402.128 183.266 402.897 182.82 402.897C182.373 402.897 181.999 402.128 181.999 401.183C181.999 400.238 182.373 399.469 182.82 399.469C183.266 399.469 183.64 400.207 183.64 401.183Z" fill="#263238"/>
<path d="M164.987 397.58C165.596 396.399 166.596 395.466 167.815 394.94C169.035 394.413 170.399 394.326 171.676 394.692" stroke="#263238" stroke-linecap="round" stroke-linejoin="round"/>
<path d="M186.122 397.579C185.51 396.399 184.509 395.467 183.288 394.941C182.067 394.415 180.702 394.327 179.424 394.692" stroke="#263238" stroke-linecap="round" stroke-linejoin="round"/>
<path d="M156.45 397.579C156.45 397.579 159.223 403.187 160.698 402.71C162.173 402.232 160.044 391.836 163.637 389.208C167.231 386.581 179.631 389.987 184.772 385.584C184.772 385.584 184.689 391.659 188.127 394.505C191.564 397.351 190.204 403.052 191.876 402.73C193.548 402.408 193.953 398.254 194.317 396.499C195.293 391.244 196.768 376.423 187.95 376.423C187.95 376.423 185.873 373.308 172.984 373.65C160.096 373.993 159.846 370.389 159.846 370.389C159.846 370.389 150.084 383.984 156.45 397.579Z" fill="#263238" stroke="#263238" stroke-linecap="round" stroke-linejoin="round"/>
<path d="M408.304 148.873L470.514 156.6C485.148 158.417 498.317 147.834 499.189 133.564L504.455 46.179C505.317 31.9194 493.56 19.9135 478.823 20.0278L409.945 20.5367C395.799 20.6509 384.448 31.961 384.614 45.6493L386.068 124.768C386.254 130.785 388.606 136.534 392.691 140.957C396.776 145.379 402.32 148.179 408.304 148.842V148.873Z" fill="#BF9786"/>
<path d="M494.754 116.449V120.956H430.467V116.47C430.467 114.266 431.342 112.153 432.9 110.595C434.458 109.037 436.572 108.161 438.775 108.161H486.446C487.54 108.153 488.624 108.365 489.634 108.784C490.639 109.198 491.553 109.805 492.324 110.571C493.885 112.134 494.766 114.25 494.775 116.459L494.754 116.449Z" stroke="#263238" stroke-miterlimit="10"/>
<path d="M496.354 143.41V120.956H428.847V151.448" stroke="#263238" stroke-miterlimit="10"/>
<path d="M417.547 67.6772C417.547 67.6772 420.195 60.6046 426.842 61.7366C433.489 62.8687 428.411 68.425 425.212 68.9235C425.191 68.9235 424.703 66.9502 417.547 67.6772Z" fill="white" stroke="#263238" stroke-linecap="round" stroke-linejoin="round"/>
<path d="M413.112 71.6859C412.24 72.5583 410.132 72.631 411.544 70.7304C412.714 69.2099 414.286 68.0478 416.083 67.3758C419.198 65.9737 420.465 66.2334 423.353 65.631C426.24 65.0286 426.738 66.1711 427.735 66.6696C430.031 67.9574 430.643 68.1755 431.246 69.4841C431.848 70.7927 432.492 72.4648 430.643 72.4648C428.971 72.4648 428.868 69.7022 427.247 69.8061C425.627 69.9099 424.817 72.4648 423.685 72.4648H423.249C422.273 72.4648 422.21 71.6547 422.813 70.3876C423.415 69.1206 424.059 67.9782 424.059 67.9782C423.095 68.4855 422.325 69.2957 421.868 70.2838C421.089 71.9455 420.954 72.5894 419.572 72.5894C418.191 72.5894 418.233 71.5508 419.645 69.131C418.818 69.6401 418.138 70.356 417.672 71.2081C416.965 72.5375 416.633 72.444 415.688 72.444C414.535 72.444 414.535 70.4603 416.727 69.1621C416.623 69.2244 416.155 68.6428 413.112 71.6859Z" fill="white" stroke="#263238" stroke-linecap="round" stroke-linejoin="round"/>
<path d="M421.462 66.9506C421.462 66.9506 420.621 66.9506 420.092 68.3319L421.462 66.9506Z" fill="white"/>
<path d="M421.462 66.9506C421.462 66.9506 420.621 66.9506 420.092 68.3319" stroke="#263238" stroke-linecap="round" stroke-linejoin="round"/>
<path d="M438.256 158.926L442.857 166.975H446.804L448.517 164.544L444.27 154.159L438.256 158.926Z" fill="white" stroke="#263238" stroke-linecap="round" stroke-linejoin="round"/>
<path d="M449.172 89.2385L444.415 91.0144C444.415 91.0144 410.547 100.829 409.104 109.148C407.66 117.467 438.942 160.858 438.942 160.858C438.942 160.858 442.722 161.409 445.641 156.403C445.641 156.403 434.601 123.169 429.522 116.574C429.522 116.574 466.703 110.041 468.489 105.284C470.275 100.528 465.321 88.7607 465.321 88.7607L449.172 89.2385Z" fill="black" stroke="#263238" stroke-linecap="round" stroke-linejoin="round"/>
<path d="M440.396 166.808C440.472 166.663 440.587 166.541 440.728 166.455C440.871 166.362 441.035 166.308 441.206 166.3C442.624 166.211 444.002 165.796 445.233 165.086C446.463 164.376 447.513 163.391 448.299 162.208C448.438 162.002 448.649 161.858 448.891 161.803C449.13 161.739 449.383 161.773 449.597 161.896C451.347 162.935 452.816 164.386 453.876 166.123C454.27 166.739 454.408 167.484 454.26 168.2C454.119 168.904 453.709 169.526 453.118 169.935L438.422 179.832C437.637 180.351 436.715 180.626 435.774 180.621H432.087C431.89 180.618 431.697 180.564 431.526 180.466C431.35 180.367 431.201 180.229 431.09 180.061C430.976 179.897 430.904 179.708 430.882 179.51C430.852 179.311 430.87 179.109 430.934 178.918C431.081 178.473 431.338 178.073 431.682 177.755C432.027 177.44 432.444 177.215 432.897 177.101C435.275 176.457 439.876 167.743 440.396 166.808Z" fill="#263238"/>
<path d="M440.396 166.808C440.472 166.663 440.587 166.541 440.728 166.455C440.871 166.362 441.035 166.308 441.206 166.3C442.624 166.211 444.002 165.796 445.233 165.086C446.463 164.376 447.513 163.391 448.299 162.208C448.438 162.002 448.649 161.858 448.891 161.803C449.13 161.739 449.383 161.773 449.597 161.896C451.347 162.935 452.816 164.386 453.876 166.123C454.27 166.739 454.408 167.484 454.26 168.2C454.119 168.904 453.709 169.526 453.118 169.935L438.422 179.832C437.637 180.351 436.715 180.626 435.774 180.621H432.087C431.89 180.618 431.697 180.564 431.526 180.466C431.35 180.367 431.201 180.229 431.09 180.061C430.976 179.897 430.904 179.708 430.882 179.51C430.852 179.311 430.87 179.109 430.934 178.918C431.081 178.473 431.338 178.073 431.682 177.755C432.027 177.44 432.444 177.215 432.897 177.101C435.275 176.457 439.876 167.743 440.396 166.808Z" fill="#BFBFBF" stroke="#263238" stroke-linecap="round" stroke-linejoin="round"/>
<path d="M440.396 166.808C440.472 166.663 440.587 166.541 440.728 166.455C440.871 166.362 441.035 166.308 441.206 166.3C442.624 166.211 444.002 165.796 445.233 165.086C446.463 164.376 447.513 163.391 448.299 162.208C448.438 162.002 448.649 161.858 448.891 161.803C449.13 161.739 449.383 161.773 449.597 161.896C451.347 162.935 452.816 164.386 453.876 166.123C454.27 166.739 454.408 167.484 454.26 168.2C454.119 168.904 453.709 169.526 453.118 169.935L438.422 179.832C437.637 180.351 436.715 180.626 435.774 180.621H432.087C431.89 180.618 431.697 180.564 431.526 180.466C431.35 180.367 431.201 180.229 431.09 180.061C430.976 179.897 430.904 179.708 430.882 179.51C430.852 179.311 430.87 179.109 430.934 178.918C431.081 178.473 431.338 178.073 431.682 177.755C432.027 177.44 432.444 177.215 432.897 177.101C435.275 176.457 439.876 167.743 440.396 166.808Z" fill="#492D21" stroke="#263238" stroke-linecap="round" stroke-linejoin="round"/>
<path d="M422.273 112.555C422.273 112.555 424.35 112.711 427.943 115.39" stroke="#7F7F7F" stroke-linecap="round" stroke-linejoin="round"/>
<path d="M436.241 160.878L434.694 172.593L441.652 173.787L445.235 162.27L436.241 160.878Z" fill="white" stroke="#263238" stroke-linecap="round" stroke-linejoin="round"/>
<path d="M460.315 92.3635C460.741 93.9837 460.004 99.27 458.519 100.018C452.765 103.071 443.252 111.172 441.143 119.844C438.474 130.843 435.504 164.43 435.504 164.43C435.504 164.43 437.872 168.283 444.114 166.507C444.114 166.507 455.714 138.58 456.576 124.902C462.573 120.925 468.95 117.554 475.614 114.838C481.232 112.761 484.286 109.199 485.407 106.187C488.378 98.1276 482.427 85.0831 482.427 85.0831L460.44 89.5386L460.315 92.3635Z" fill="black" stroke="#263238" stroke-linecap="round" stroke-linejoin="round"/>
<path d="M451.197 121.34C452.73 121.517 454.161 122.196 455.268 123.272" stroke="#7F7F7F" stroke-linecap="round" stroke-linejoin="round"/>
<path d="M434.341 169.768C434.219 169.655 434.068 169.58 433.905 169.55C433.742 169.503 433.569 169.503 433.406 169.55C431.402 170.225 424.059 172.582 419.905 172.396C416.789 172.24 415.844 173.995 415.563 175.324C415.522 175.509 415.522 175.7 415.563 175.885C415.599 176.072 415.673 176.249 415.781 176.404C415.893 176.555 416.03 176.685 416.187 176.789C416.35 176.883 416.53 176.946 416.716 176.976L440.52 180.579C441.232 180.698 441.963 180.535 442.556 180.124C443.15 179.713 443.559 179.086 443.698 178.378C444.135 176.382 444.071 174.309 443.511 172.344C443.437 172.109 443.277 171.912 443.063 171.791C442.849 171.67 442.598 171.633 442.359 171.689C440.971 171.999 439.53 171.984 438.149 171.647C436.768 171.311 435.482 170.66 434.393 169.747L434.341 169.768Z" fill="#263238"/>
<path d="M434.341 169.768C434.219 169.655 434.068 169.58 433.905 169.55C433.742 169.503 433.569 169.503 433.406 169.55C431.402 170.225 424.059 172.582 419.905 172.396C416.789 172.24 415.844 173.995 415.563 175.324C415.522 175.509 415.522 175.7 415.563 175.885C415.599 176.072 415.673 176.249 415.781 176.404C415.893 176.555 416.03 176.685 416.187 176.789C416.35 176.883 416.53 176.946 416.716 176.976L440.52 180.579C441.232 180.698 441.963 180.535 442.556 180.124C443.15 179.713 443.559 179.086 443.698 178.378C444.135 176.382 444.071 174.309 443.511 172.344C443.437 172.109 443.277 171.912 443.063 171.791C442.849 171.67 442.598 171.633 442.359 171.689C440.971 171.999 439.53 171.984 438.149 171.647C436.768 171.311 435.482 170.66 434.393 169.747L434.341 169.768Z" fill="#492D21" stroke="#263238" stroke-linecap="round" stroke-linejoin="round"/>
<path d="M434.341 169.768C434.219 169.655 434.068 169.58 433.905 169.55C433.742 169.503 433.569 169.503 433.406 169.55C431.402 170.225 424.059 172.582 419.905 172.396C416.789 172.24 415.844 173.995 415.563 175.324C415.522 175.509 415.522 175.7 415.563 175.885C415.599 176.072 415.673 176.249 415.781 176.404C415.893 176.555 416.03 176.685 416.187 176.789C416.35 176.883 416.53 176.946 416.716 176.976L440.52 180.579C441.232 180.698 441.963 180.535 442.556 180.124C443.15 179.713 443.559 179.086 443.698 178.378C444.135 176.382 444.071 174.309 443.511 172.344C443.437 172.109 443.277 171.912 443.063 171.791C442.849 171.67 442.598 171.633 442.359 171.689C440.971 171.999 439.53 171.984 438.149 171.647C436.768 171.311 435.482 170.66 434.393 169.747L434.341 169.768Z" stroke="#263238" stroke-linecap="round" stroke-linejoin="round"/>
<path d="M445.64 111.608C449.688 105.698 455.801 101.519 462.777 99.8926" stroke="#7F7F7F" stroke-linecap="round" stroke-linejoin="round"/>
<path d="M485.729 89.7996C467.596 94.8471 444.415 90.942 444.415 90.942C444.812 87.5785 444.724 84.1754 444.155 80.8367H465.436C466.96 80.8232 468.419 80.2115 469.497 79.1335C470.575 78.0554 471.186 76.5972 471.2 75.0727H443.086C442.328 71.6246 441.289 67.6884 439.97 63.3264C438.819 59.2525 438.051 55.0802 437.675 50.8636L430.405 63.9911C430.405 63.9911 429.491 67.2418 424.88 67.2418C420.268 67.2418 420.777 65.6528 424.796 52.5564C427.312 45.0035 431.261 38.0071 436.428 31.9512C436.636 31.6902 436.931 31.5131 437.259 31.4527V31.2761C466.973 23.5492 479.768 33.0625 479.768 33.0625C471.459 57.2819 485.729 89.7996 485.729 89.7996Z" fill="#EBEBEB" stroke="#263238" stroke-linecap="round" stroke-linejoin="round"/>
<path d="M444.197 69.3593C444.197 69.3593 440.261 71.7376 441.403 72.288C443.304 73.2228 447.468 70.2836 447.468 70.2836C447.468 70.2836 451.996 69.9824 449.691 68.9438L447.385 67.9053L444.197 69.3593Z" fill="white"/>
<path opacity="0.2" d="M444.197 69.3593C444.197 69.3593 440.261 71.7376 441.403 72.288C443.304 73.2228 447.468 70.2836 447.468 70.2836C447.468 70.2836 451.996 69.9824 449.691 68.9438L447.385 67.9053L444.197 69.3593Z" fill="black"/>
<path d="M444.197 69.3593C444.197 69.3593 440.261 71.7376 441.403 72.288C443.304 73.2228 447.468 70.2836 447.468 70.2836C447.468 70.2836 451.996 69.9824 449.691 68.9438L447.385 67.9053L444.197 69.3593Z" stroke="#263238" stroke-linecap="round" stroke-linejoin="round"/>
<path d="M449.296 33.6528C449.296 33.6528 451.602 44.132 454.489 44.132C457.376 44.132 463.369 28.3665 463.369 28.3665L459.391 25.635L449.296 33.6528Z" fill="white"/>
<path d="M442.94 24.7015C443.204 26.0214 443.626 27.3046 444.197 28.5235C446.181 32.2727 448.964 38.3691 452.651 37.424C455.933 36.5724 460.772 31.6703 461.302 28.7208C461.604 27.0506 461.778 25.3597 461.821 23.663L442.94 24.7015Z" fill="#263238" stroke="#263238" stroke-linecap="round" stroke-linejoin="round"/>
<path d="M449.296 33.6528C449.296 33.6528 451.602 44.132 454.489 44.132C457.376 44.132 463.369 28.3665 463.369 28.3665L459.391 25.635L449.296 33.6528Z" stroke="#263238" stroke-linecap="round" stroke-linejoin="round"/>
<path d="M443.896 2.89113C443.896 2.89113 435.66 5.19676 437.114 18.0543C438.64 31.4622 440.572 26.2486 439.721 29.0008C438.869 31.753 451.893 31.9815 451.893 31.9815C451.893 31.9815 463.317 30.5794 466.744 33.0201C470.171 35.4607 472.197 29.5616 470.898 25.5943C469.6 21.627 464.771 14.17 463.39 8.20862C461.385 -0.33882 449.026 -0.110335 443.896 2.89113Z" fill="#263238" stroke="#263238" stroke-linecap="round" stroke-linejoin="round"/>
<path d="M441.434 13.7338C441.434 13.7338 441.434 23.2471 443.335 27.1209C445.235 30.9948 447.78 37.2159 451.726 36.4681C455.237 35.8034 460.658 31.2129 461.395 28.2738C461.834 26.5248 462.129 24.7429 462.278 22.9459C462.704 22.7589 464.044 23.7767 464.657 20.4222C464.875 19.1966 466.048 15.5928 463.389 15.0735C460.533 14.5127 460.554 18.6358 460.554 18.6358L456.327 7.93854L446.627 6.30798L443.335 7.7516L441.434 13.7338Z" fill="white" stroke="#263238" stroke-linecap="round" stroke-linejoin="round"/>
<path d="M447.551 23.0083C447.396 24.2326 447.125 25.4393 446.741 26.6121C446.688 26.8069 446.71 27.0147 446.804 27.1937C446.849 27.2849 446.913 27.3655 446.992 27.4299C447.071 27.4944 447.162 27.5413 447.261 27.5676L449.244 28.1596" stroke="#263238" stroke-linecap="round" stroke-linejoin="round"/>
<path d="M450.781 30.1639C450.781 30.1639 454.447 30.06 455.974 27.9933" stroke="#263238" stroke-linecap="round" stroke-linejoin="round"/>
<path d="M443.148 20.0069C443.235 19.8154 443.359 19.6426 443.511 19.498C443.662 19.3577 443.838 19.2483 444.031 19.176C444.418 19.0243 444.848 19.0243 445.235 19.176" stroke="#263238" stroke-linecap="round" stroke-linejoin="round"/>
<path d="M449.587 18.5938C449.587 18.5938 451.415 17.2852 453.866 19.1131" stroke="#263238" stroke-linecap="round" stroke-linejoin="round"/>
<path d="M445.152 22.9354C445.225 23.4547 445.08 23.9117 444.82 23.974C444.56 24.0363 444.29 23.6313 444.207 23.112C444.124 22.5927 444.29 22.1461 444.539 22.0734C444.789 22.0007 445.08 22.4265 445.152 22.9354Z" fill="#263238"/>
<path d="M451.758 22.5513C451.841 23.0706 451.695 23.5172 451.425 23.5899C451.155 23.6626 450.896 23.2472 450.833 22.7279C450.771 22.2086 450.896 21.762 451.155 21.6893C451.415 21.6166 451.695 22.032 451.758 22.5513Z" fill="#263238"/>
<path d="M440.78 7.94905C440.78 7.94905 437.592 16.3407 442.265 16.1226C446.939 15.9045 450.906 12.903 455.559 15.3748C460.212 17.8466 454.853 10.7947 454.853 10.7947C454.853 10.7947 459.609 15.8422 459.454 19.3318C459.298 22.8214 461.167 17.1819 460.866 15.3229C460.565 13.4639 457.418 4.33482 457.418 4.33482L452.36 3.18201L443.73 4.07518L440.78 7.94905Z" fill="#263238" stroke="#263238" stroke-linecap="round" stroke-linejoin="round"/>
<path d="M461.666 26.913C461.364 28.2632 456.473 33.0718 459.713 34.0792C462.953 35.0866 469.964 34.0792 471.023 30.4961C472.082 26.913 468.717 25.0228 468.717 25.0228C468.717 25.0228 462.071 25.1475 461.666 26.913Z" fill="#263238" stroke="#263238" stroke-linecap="round" stroke-linejoin="round"/>
<path d="M462.393 66.129L451.695 66.6379C451.695 66.6379 442.712 64.4569 439.658 64.623C437.287 64.9068 434.98 65.5879 432.835 66.6379C431.851 67.3711 431.1 68.3741 430.675 69.5251C430.581 70.0751 430.581 70.6369 430.675 71.1868C430.668 71.4751 430.772 71.7549 430.965 71.9691C431.158 72.1834 431.426 72.3159 431.713 72.3396C433.79 72.485 437.155 72.6616 437.945 71.6542C437.945 71.6542 437.27 72.4435 438.474 72.4435C439.679 72.4435 441.434 70.5325 441.434 70.5325L445.048 70.3871C445.048 70.3871 446.606 72.3189 451.28 72.4643C452.045 72.3601 452.794 72.1649 453.513 71.8827L462.206 73.0147L463.348 71.5192V66.4094L462.393 66.129Z" fill="white" stroke="#263238" stroke-linecap="round" stroke-linejoin="round"/>
<path d="M432.305 71.4782C432.305 71.4782 433.344 67.8744 434.465 67.1577C435.479 66.6591 436.519 66.2153 437.581 65.8284" stroke="#263238" stroke-linecap="round" stroke-linejoin="round"/>
<path d="M434.798 71.4783C434.915 70.6267 435.168 69.7993 435.546 69.0272C436.489 67.9689 437.671 67.1501 438.994 66.6385C439.802 66.5658 440.615 66.5658 441.424 66.6385" stroke="#263238" stroke-linecap="round" stroke-linejoin="round"/>
<path d="M438.246 70.803C438.246 70.803 438.568 69.2659 438.973 68.944C439.723 68.5054 440.546 68.2063 441.403 68.0612C442.036 68.0092 442.671 68.0092 443.304 68.0612" stroke="#263238" stroke-linecap="round" stroke-linejoin="round"/>
<path d="M460.523 73.1096C460.523 73.1096 481.108 75.7891 485.563 76.0072C490.019 76.2253 488.918 54.3946 488.471 45.0266C488.025 35.6587 478.823 32.4911 478.823 32.4911C472.363 45.9925 479.737 63.5859 479.737 63.5859L461.458 65.8188C461.458 65.8188 462.912 70.4301 460.523 73.1096Z" fill="#EBEBEB" stroke="#263238" stroke-linecap="round" stroke-linejoin="round"/>
<path d="M471.065 41.225C471.329 45.8087 473.034 50.1919 475.936 53.7501" stroke="#263238" stroke-linecap="round" stroke-linejoin="round"/>
<path d="M439.461 39.0123C438.598 43.284 438.132 47.6265 438.069 51.9841" stroke="#263238" stroke-linecap="round" stroke-linejoin="round"/>
<path d="M425.928 45.2434H421.327L427.663 75.1231H432.274C432.578 75.1331 432.88 75.0726 433.157 74.9465C433.437 74.8204 433.683 74.6279 433.873 74.3857C434.067 74.1479 434.199 73.8661 434.258 73.5652C434.33 73.2649 434.33 72.9517 434.258 72.6513L428.951 47.7256C428.787 47.0491 428.407 46.4441 427.87 46.002C427.332 45.5599 426.665 45.3046 425.97 45.2746L425.928 45.2434Z" fill="#263238"/>
<path opacity="0.2" d="M425.928 45.2434H421.327L427.663 75.1231H432.274C432.578 75.1331 432.88 75.0726 433.157 74.9465C433.437 74.8204 433.683 74.6279 433.873 74.3857C434.067 74.1479 434.199 73.8661 434.258 73.5652C434.33 73.2649 434.33 72.9517 434.258 72.6513L428.951 47.7256C428.787 47.0491 428.407 46.4441 427.87 46.002C427.332 45.5599 426.665 45.3046 425.97 45.2746L425.928 45.2434Z" fill="white"/>
<path d="M425.928 45.2434H421.327L427.663 75.1231H432.274C432.578 75.1331 432.88 75.0726 433.157 74.9465C433.437 74.8204 433.683 74.6279 433.873 74.3857C434.067 74.1479 434.199 73.8661 434.258 73.5652C434.33 73.2649 434.33 72.9517 434.258 72.6513L428.95 47.7256C428.787 47.0491 428.407 46.4441 427.87 46.002C427.332 45.5599 426.665 45.3046 425.97 45.2746L425.928 45.2434Z" stroke="#263238" stroke-linecap="round" stroke-linejoin="round"/>
<path d="M434.216 72.6527H458.394V73.8055C458.395 73.9864 458.36 74.1656 458.291 74.3327C458.222 74.4998 458.12 74.6513 457.991 74.7782C457.862 74.9051 457.709 75.0048 457.541 75.0714C457.373 75.138 457.193 75.1702 457.013 75.1661H435.566C435.384 75.1731 435.202 75.143 435.031 75.0777C434.861 75.0123 434.705 74.913 434.574 74.7859C434.443 74.6587 434.339 74.5062 434.269 74.3377C434.198 74.1692 434.163 73.9882 434.164 73.8055V72.6527H434.216Z" fill="#263238"/>
<path opacity="0.2" d="M434.216 72.6527H458.394V73.8055C458.395 73.9864 458.36 74.1656 458.291 74.3327C458.222 74.4998 458.12 74.6513 457.991 74.7782C457.862 74.9051 457.709 75.0048 457.541 75.0714C457.373 75.138 457.193 75.1702 457.013 75.1661H435.566C435.384 75.1731 435.202 75.143 435.031 75.0777C434.861 75.0123 434.705 74.913 434.574 74.7859C434.443 74.6587 434.339 74.5062 434.269 74.3377C434.198 74.1692 434.163 73.9882 434.164 73.8055V72.6527H434.216Z" fill="white"/>
<path d="M434.216 72.6527H458.394V73.8055C458.395 73.9864 458.36 74.1656 458.291 74.3327C458.222 74.4998 458.12 74.6513 457.991 74.7782C457.862 74.9051 457.709 75.0048 457.541 75.0714C457.373 75.138 457.193 75.1702 457.013 75.1661H435.566C435.384 75.1731 435.202 75.143 435.031 75.0777C434.861 75.0123 434.705 74.913 434.574 74.7859C434.443 74.6587 434.339 74.5062 434.269 74.3377C434.198 74.1692 434.163 73.9882 434.164 73.8055V72.6527H434.216Z" stroke="#263238" stroke-linecap="round" stroke-linejoin="round"/>
<path d="M430.498 75.1239H393.058C392.361 75.0912 391.694 74.8323 391.157 74.3865C390.628 73.9399 390.262 73.3296 390.118 72.6521L384.811 47.7264C384.739 47.4296 384.739 47.1196 384.811 46.8228C384.904 46.3733 385.153 45.9712 385.515 45.6879C385.876 45.4046 386.326 45.2585 386.785 45.2754H424.173C424.869 45.3054 425.535 45.5607 426.073 46.0028C426.611 46.4449 426.99 47.0499 427.154 47.7264L432.461 72.6521C432.534 72.9489 432.534 73.2588 432.461 73.5556C432.401 73.8543 432.273 74.1351 432.087 74.3761C431.9 74.6215 431.653 74.8146 431.37 74.9369C431.099 75.0696 430.8 75.1337 430.498 75.1239Z" fill="#263238"/>
<path d="M430.498 75.1239H393.058C392.361 75.0912 391.694 74.8323 391.157 74.3865C390.628 73.9399 390.262 73.3296 390.118 72.6521L384.811 47.7264C384.739 47.4296 384.739 47.1196 384.811 46.8228C384.904 46.3733 385.153 45.9712 385.515 45.6879C385.876 45.4046 386.326 45.2585 386.785 45.2754H424.173C424.869 45.3054 425.535 45.5607 426.073 46.0028C426.611 46.4449 426.99 47.0499 427.154 47.7264L432.461 72.6521C432.534 72.9489 432.534 73.2588 432.461 73.5556C432.401 73.8543 432.273 74.1351 432.087 74.3761C431.9 74.6215 431.653 74.8146 431.37 74.9369C431.099 75.0696 430.8 75.1337 430.498 75.1239Z" fill="#FCCC4F" stroke="#263238" stroke-linecap="round" stroke-linejoin="round"/>
<path d="M430.498 75.1239H393.058C392.361 75.0912 391.694 74.8323 391.157 74.3865C390.628 73.9399 390.262 73.3296 390.118 72.6521L384.811 47.7264C384.739 47.4296 384.739 47.1196 384.811 46.8228C384.904 46.3733 385.153 45.9712 385.515 45.6879C385.876 45.4046 386.326 45.2585 386.785 45.2754H424.173C424.869 45.3054 425.535 45.5607 426.073 46.0028C426.611 46.4449 426.99 47.0499 427.154 47.7264L432.461 72.6521C432.534 72.9489 432.534 73.2588 432.461 73.5556C432.401 73.8543 432.273 74.1352 432.087 74.3761C431.9 74.6215 431.653 74.8146 431.37 74.937C431.096 75.0712 430.793 75.1355 430.488 75.1239H430.498Z" stroke="#263238" stroke-linecap="round" stroke-linejoin="round"/>
<path d="M359.449 35.523C357.645 35.523 355.915 34.8063 354.639 33.5306C353.363 32.2548 352.647 30.5245 352.647 28.7204C352.647 26.9162 353.363 25.1859 354.639 23.9102C355.915 22.6344 357.645 21.9177 359.449 21.9177H410.339C412.144 21.9177 413.874 22.6344 415.15 23.9102C416.425 25.1859 417.142 26.9162 417.142 28.7204C417.142 30.5245 416.425 32.2548 415.15 33.5306C413.874 34.8063 412.144 35.523 410.339 35.523H359.449Z" fill="white"/>
<path d="M359.449 35.523C357.645 35.523 355.915 34.8063 354.639 33.5306C353.363 32.2548 352.647 30.5245 352.647 28.7204C352.647 26.9162 353.363 25.1859 354.639 23.9102C355.915 22.6344 357.645 21.9177 359.449 21.9177H410.339C412.144 21.9177 413.874 22.6344 415.15 23.9102C416.425 25.1859 417.142 26.9162 417.142 28.7204C417.142 30.5245 416.425 32.2548 415.15 33.5306C413.874 34.8063 412.144 35.523 410.339 35.523H359.449Z" stroke="#263238" stroke-miterlimit="10"/>
<path d="M389.859 24.2331H359.449C358.842 24.2031 358.234 24.2949 357.663 24.5031C357.094 24.7133 356.574 25.0386 356.136 25.4586C355.69 25.8755 355.336 26.3815 355.098 26.9438C354.858 27.5034 354.734 28.1058 354.734 28.7145C354.734 29.3233 354.858 29.9257 355.098 30.4853C355.336 31.0476 355.69 31.5536 356.136 31.9705C356.574 32.3905 357.094 32.7158 357.663 32.9259C358.234 33.1342 358.842 33.226 359.449 33.196H387.792L389.859 24.2331Z" fill="#656565"/>
<path d="M389.028 135.921V75.1021H471.241C471.228 76.6248 470.617 78.0815 469.542 79.1593C468.466 80.237 467.01 80.8499 465.487 80.8661H397.554V144.925" stroke="#263238" stroke-linecap="round" stroke-linejoin="round"/>
<path d="M406.86 347.364H369.472C368.635 347.363 367.831 347.039 367.228 346.46C366.608 345.881 366.236 345.085 366.19 344.237L363.624 275.235C363.606 274.784 363.684 274.334 363.853 273.916C364.025 273.494 364.284 273.112 364.611 272.794C364.935 272.482 365.32 272.241 365.743 272.088C366.172 271.932 366.628 271.869 367.083 271.901L410.827 275.017C411.251 275.044 411.664 275.157 412.043 275.349C412.438 275.531 412.791 275.793 413.081 276.118C413.356 276.442 413.567 276.816 413.704 277.218C413.838 277.62 413.891 278.043 413.86 278.465L410.049 344.393C409.99 345.21 409.618 345.973 409.01 346.522C408.418 347.053 407.655 347.352 406.86 347.364Z" fill="#EBEBEB" stroke="#263238" stroke-linecap="round" stroke-linejoin="round"/>
<path d="M380.335 306.206C380.606 305.273 380.79 304.317 380.886 303.35C380.834 302.706 380.543 301.346 380.013 301.045C379.483 300.743 376.752 301.242 376.752 301.242C376.752 301.242 377.396 299.165 376.949 298.625C376.503 298.085 375.132 298.344 374.644 298.625C373.751 299.019 372.691 300.785 372.089 301.564C371.486 302.343 370.105 304.524 369.42 305.5L368.09 307.401L359.782 310.371L360.228 318.804L369.575 313.134C369.575 313.134 377.998 313.134 379.774 311.233C380.574 310.215 380.159 307.432 380.335 306.206Z" fill="white" stroke="#263238" stroke-linecap="round" stroke-linejoin="round"/>
<path d="M366.782 289.122C366.314 295.8 365.317 302.82 363.334 306.85H366.782C366.782 306.85 363.666 312.458 365.629 317.755C365.629 317.755 356.126 324.142 354.007 320.061C351.889 315.979 354.34 299.445 356.51 291.5C358.681 283.555 359.356 271.341 367.124 271.923" fill="#EBEBEB"/>
<path d="M366.782 289.122C366.314 295.8 365.317 302.82 363.334 306.85H366.782C366.782 306.85 363.666 312.458 365.629 317.755C365.629 317.755 356.126 324.142 354.007 320.061C351.889 315.979 354.34 299.445 356.51 291.5C358.681 283.555 359.356 271.341 367.124 271.923" stroke="#263238" stroke-linecap="round" stroke-linejoin="round"/>
<path d="M361.89 307.399C360.315 308.02 358.967 309.107 358.027 310.515" stroke="#263238" stroke-linecap="round" stroke-linejoin="round"/>
<path d="M380.428 285.704L381.997 285.497C382.382 285.445 382.773 285.508 383.122 285.678C383.471 285.848 383.763 286.117 383.96 286.452C384.085 286.678 384.17 286.924 384.209 287.179L385.964 300.12C386.032 300.636 385.893 301.158 385.578 301.572C385.263 301.987 384.797 302.26 384.282 302.332L382.724 302.54L380.428 285.704Z" fill="white" stroke="#263238" stroke-linecap="round" stroke-linejoin="round"/>
<path d="M377.759 303.215L382.952 302.508C383.245 302.47 383.527 302.374 383.782 302.226C384.037 302.078 384.26 301.882 384.439 301.647C384.618 301.412 384.748 301.145 384.823 300.859C384.897 300.574 384.915 300.277 384.874 299.985L383.181 287.594C383.142 287.302 383.047 287.02 382.899 286.765C382.751 286.51 382.554 286.286 382.319 286.108C382.085 285.929 381.817 285.799 381.532 285.724C381.246 285.65 380.949 285.632 380.657 285.673L375.464 286.369C374.874 286.451 374.34 286.764 373.98 287.239C373.62 287.714 373.463 288.312 373.543 288.903L375.225 301.293C375.308 301.883 375.621 302.417 376.096 302.777C376.571 303.137 377.169 303.294 377.759 303.215Z" fill="#FCCC4F" stroke="#263238" stroke-linecap="round" stroke-linejoin="round"/>
<path d="M377.759 303.215L382.952 302.508C383.245 302.47 383.527 302.374 383.782 302.226C384.037 302.078 384.26 301.882 384.439 301.647C384.618 301.412 384.748 301.145 384.823 300.859C384.897 300.574 384.915 300.277 384.874 299.985L383.181 287.594C383.142 287.302 383.047 287.02 382.899 286.765C382.751 286.51 382.554 286.286 382.319 286.108C382.085 285.929 381.817 285.799 381.532 285.724C381.246 285.65 380.949 285.632 380.657 285.673L375.464 286.369C374.874 286.451 374.34 286.764 373.98 287.239C373.62 287.714 373.463 288.312 373.543 288.903L375.225 301.293C375.308 301.883 375.621 302.417 376.096 302.777C376.571 303.137 377.169 303.294 377.759 303.215V303.215Z" stroke="#263238" stroke-linecap="round" stroke-linejoin="round"/>
<path d="M374.737 288.498C374.757 288.638 374.818 288.768 374.914 288.872C375.004 288.983 375.128 289.059 375.267 289.09C375.402 289.132 375.547 289.132 375.682 289.09C375.815 289.041 375.931 288.955 376.015 288.841C376.098 288.729 376.148 288.596 376.16 288.457C376.166 288.316 376.134 288.176 376.067 288.052C375.993 287.931 375.887 287.835 375.759 287.774C375.632 287.713 375.49 287.691 375.35 287.709C375.259 287.719 375.171 287.748 375.09 287.792C375.01 287.84 374.939 287.904 374.883 287.979C374.823 288.052 374.78 288.137 374.758 288.228C374.737 288.317 374.73 288.408 374.737 288.498Z" fill="white" stroke="#263238" stroke-linecap="round" stroke-linejoin="round"/>
<path d="M376.056 301.252C375.89 300.292 375.806 299.319 375.807 298.344C375.931 297.742 376.388 296.392 376.96 296.111C377.697 295.748 380.19 296.682 380.19 296.682C380.19 296.682 379.785 294.481 380.273 294.055C380.761 293.629 382.132 293.972 382.641 294.283C383.482 294.761 384.344 296.651 384.832 297.482C385.455 298.521 386.494 300.598 387.055 301.636L388.207 303.714L395.644 307.079L392.195 313.31L386.058 309.239C386.058 309.239 377.687 308.273 376.129 306.206C375.412 305.23 376.098 302.498 376.056 301.252Z" fill="white" stroke="#263238" stroke-linecap="round" stroke-linejoin="round"/>
<path d="M410.277 278.538C410.464 277.718 410.661 276.897 410.879 276.087C410.923 275.88 411.024 275.689 411.17 275.537C411.322 275.384 411.512 275.277 411.721 275.225C411.924 275.168 412.14 275.168 412.344 275.225C412.545 275.291 412.724 275.409 412.863 275.568L413.154 275.869C414.678 277.492 415.774 279.47 416.342 281.623C418.367 289.298 422.74 308.626 419.645 322.761C419.469 323.558 419.018 324.267 418.369 324.763C417.721 325.259 416.919 325.51 416.103 325.471C410.402 325.108 400.431 323.695 389.526 312.884C389.526 312.884 391.832 307.483 394.543 305.614L409.602 311.752C408.877 306.351 408.53 300.906 408.563 295.456" fill="#EBEBEB"/>
<path d="M410.277 278.538C410.464 277.718 410.661 276.897 410.879 276.087C410.923 275.88 411.024 275.689 411.17 275.537C411.322 275.384 411.512 275.277 411.721 275.225C411.924 275.168 412.14 275.168 412.344 275.225C412.545 275.291 412.724 275.409 412.863 275.568L413.154 275.869C414.678 277.492 415.774 279.47 416.342 281.623C418.367 289.298 422.74 308.626 419.645 322.761C419.469 323.558 419.018 324.267 418.369 324.763C417.721 325.259 416.919 325.51 416.103 325.471C410.402 325.108 400.431 323.695 389.526 312.884C389.526 312.884 391.832 307.483 394.543 305.614L409.602 311.752C408.877 306.351 408.53 300.906 408.563 295.456" stroke="#263238" stroke-linecap="round" stroke-linejoin="round"/>
<path d="M410.859 312.717C411.484 313.072 412.028 313.553 412.458 314.129C412.896 314.686 413.218 315.325 413.403 316.009" stroke="#263238" stroke-linecap="round" stroke-linejoin="round"/>
<path d="M390.544 263.158L400.348 247.434C400.348 247.434 405.406 245.356 402.706 242.625C402.706 242.625 407.068 235.064 401.408 235.064C401.408 235.064 400.681 228.926 395.176 231.408C395.176 231.408 390.409 225.738 387.221 229.871C387.221 229.871 380.688 226.683 378.995 230.702C378.995 230.702 374.218 230.702 374.384 234.233C374.384 234.233 371.383 238.242 375.339 238.72C375.339 238.72 374.301 241.908 378.964 241.908C383.627 241.908 389.506 247.662 389.506 247.662L390.658 253.561L390.544 263.158Z" fill="black"/>
<path d="M390.544 263.158H390.399C390.401 263.188 390.412 263.217 390.431 263.241C390.449 263.265 390.474 263.283 390.503 263.293C390.533 263.302 390.566 263.301 390.596 263.29C390.626 263.279 390.652 263.258 390.669 263.23L390.544 263.158ZM400.348 247.434L400.286 247.299L400.224 247.361L400.348 247.434ZM402.706 242.625L402.581 242.553C402.563 242.579 402.554 242.609 402.554 242.641C402.554 242.672 402.563 242.703 402.581 242.729L402.706 242.625ZM401.408 235.064H401.262C401.267 235.099 401.285 235.131 401.312 235.154C401.338 235.177 401.372 235.189 401.408 235.189V235.064ZM395.176 231.409L395.072 231.502C395.097 231.519 395.126 231.528 395.156 231.528C395.185 231.528 395.214 231.519 395.239 231.502L395.176 231.409ZM387.221 229.872L387.159 230.007C387.184 230.026 387.215 230.036 387.247 230.036C387.279 230.036 387.31 230.026 387.335 230.007L387.221 229.872ZM378.995 230.702V230.848C379.024 230.846 379.052 230.837 379.076 230.82C379.1 230.804 379.119 230.781 379.13 230.754L378.995 230.702ZM374.384 234.234L374.498 234.327C374.507 234.297 374.507 234.264 374.498 234.234H374.384ZM375.34 238.72H375.475C375.485 238.701 375.49 238.68 375.49 238.658C375.49 238.636 375.485 238.615 375.475 238.596C375.463 238.578 375.448 238.563 375.43 238.552C375.412 238.541 375.392 238.535 375.371 238.533L375.34 238.72ZM389.506 247.662H389.651C389.657 247.635 389.657 247.607 389.651 247.579L389.506 247.662ZM390.658 253.561H390.804H390.658ZM390.71 263.23L400.515 247.517L400.265 247.361L390.472 263.075L390.71 263.23ZM400.39 247.434L400.442 247.569H400.504L400.66 247.496L401.21 247.216C401.74 246.926 402.234 246.578 402.685 246.177C403.177 245.761 403.519 245.196 403.661 244.567C403.706 244.191 403.655 243.809 403.514 243.456C403.372 243.104 403.144 242.794 402.851 242.553L402.644 242.76C402.904 242.97 403.108 243.241 403.237 243.549C403.365 243.858 403.415 244.193 403.381 244.526C403.242 245.089 402.929 245.593 402.488 245.969C402.054 246.367 401.576 246.716 401.065 247.008C400.894 247.108 400.717 247.198 400.535 247.278L400.39 247.351V247.434ZM402.747 242.625L402.872 242.698V242.636L403.007 242.397L403.423 241.535C403.812 240.693 404.111 239.812 404.316 238.907C404.553 238.01 404.484 237.06 404.118 236.207C403.828 235.763 403.419 235.41 402.938 235.188C402.457 234.966 401.923 234.883 401.397 234.95V235.199C401.871 235.13 402.355 235.198 402.791 235.395C403.227 235.592 403.598 235.91 403.859 236.311C404.203 237.097 404.261 237.978 404.025 238.803C403.832 239.689 403.54 240.549 403.153 241.369C402.997 241.722 402.851 242.012 402.747 242.22L402.612 242.459V242.521L402.747 242.625ZM401.449 235.064H401.595C401.588 235.048 401.588 235.029 401.595 235.013C401.595 235.013 401.595 234.898 401.595 234.815C401.552 234.587 401.496 234.362 401.429 234.14C401.244 233.466 400.949 232.827 400.556 232.25C400.093 231.561 399.401 231.057 398.604 230.827C397.454 230.581 396.255 230.751 395.218 231.305L395.342 231.564C396.32 231.045 397.447 230.883 398.531 231.107C399.268 231.319 399.905 231.787 400.328 232.426C400.697 232.973 400.975 233.576 401.148 234.213C401.221 234.483 401.273 234.711 401.304 234.867C401.335 235.023 401.304 235.013 401.304 235.054C401.304 235.096 401.304 235.054 401.304 235.054L401.449 235.064ZM395.218 231.409L395.332 231.315V231.263L395.166 231.087C395.031 230.941 394.834 230.734 394.574 230.495C393.961 229.916 393.285 229.407 392.559 228.978C391.759 228.488 390.838 228.233 389.9 228.241C389.361 228.282 388.839 228.445 388.371 228.717C387.903 228.988 387.503 229.362 387.2 229.809L387.429 229.986C387.707 229.574 388.075 229.229 388.505 228.977C388.934 228.726 389.415 228.573 389.911 228.532C390.798 228.527 391.669 228.772 392.424 229.238C393.133 229.648 393.789 230.143 394.377 230.713C394.626 230.941 394.823 231.149 394.958 231.284L395.114 231.461L395.218 231.409ZM387.262 229.872L387.325 229.747H387.262L387.055 229.653L386.276 229.342C385.477 229.045 384.653 228.823 383.814 228.677C382.881 228.497 381.918 228.532 381 228.781C380.532 228.922 380.101 229.167 379.741 229.498C379.382 229.829 379.102 230.237 378.923 230.692L379.193 230.796C379.356 230.381 379.612 230.009 379.942 229.708C380.271 229.407 380.665 229.186 381.093 229.061C381.971 228.827 382.891 228.795 383.783 228.968C384.601 229.108 385.404 229.323 386.182 229.612C386.504 229.737 386.764 229.84 386.94 229.924L387.148 230.007H387.21L387.262 229.872ZM379.037 230.702V230.557H378.819H378.268C377.706 230.632 377.153 230.764 376.617 230.952C375.979 231.181 375.41 231.571 374.966 232.084C374.466 232.68 374.22 233.448 374.28 234.223H374.571C374.512 233.52 374.732 232.823 375.184 232.281C375.595 231.805 376.126 231.446 376.721 231.243C377.233 231.051 377.767 230.922 378.31 230.858C378.528 230.858 378.705 230.858 378.84 230.858H379.037V230.702ZM374.426 234.234L374.311 234.151L374.218 234.275L373.927 234.742C373.656 235.204 373.45 235.7 373.314 236.217C373.228 236.485 373.198 236.768 373.225 237.049C373.252 237.329 373.335 237.601 373.47 237.848C373.699 238.143 373.992 238.384 374.326 238.551C374.66 238.718 375.028 238.808 375.402 238.814V238.523C375.072 238.523 374.746 238.448 374.45 238.304C374.153 238.16 373.892 237.951 373.688 237.692C373.574 237.477 373.504 237.241 373.483 236.998C373.461 236.756 373.489 236.511 373.564 236.28C373.695 235.792 373.89 235.324 374.145 234.888C374.231 234.734 374.325 234.585 374.426 234.441L374.519 234.317L374.426 234.234ZM375.381 238.72H375.246C375.244 238.758 375.244 238.796 375.246 238.834C375.246 238.928 375.246 239.053 375.184 239.219C375.15 239.614 375.206 240.012 375.35 240.382C375.558 240.891 375.946 241.305 376.44 241.545C377.254 241.928 378.149 242.106 379.047 242.064V241.774C378.197 241.815 377.349 241.651 376.575 241.296C376.14 241.078 375.8 240.709 375.62 240.257C375.49 239.928 375.44 239.572 375.475 239.219C375.475 239.073 375.475 238.959 375.527 238.876C375.523 238.845 375.523 238.814 375.527 238.783L375.381 238.72ZM379.006 242.054C381.301 242.054 383.887 243.466 385.923 244.91C386.788 245.519 387.62 246.174 388.415 246.873C388.727 247.143 388.966 247.372 389.132 247.527L389.319 247.704L389.371 247.756L389.475 247.652L389.578 247.548L389.381 247.361C389.215 247.205 388.966 246.977 388.654 246.707C387.854 245.999 387.015 245.337 386.141 244.723C384.064 243.28 381.457 241.815 379.058 241.815L379.006 242.054ZM389.391 247.693L390.534 253.593L390.825 253.53L389.62 247.662L389.391 247.693ZM390.534 253.561L390.461 263.158H390.752L390.825 253.561H390.534Z" fill="#263238"/>
<path d="M396.932 274.206C396.932 274.206 386.286 280.064 378.507 272.586C378.507 272.586 380.46 268.91 381.145 259.739L392.435 257.724C392.112 260.841 392.227 263.987 392.777 267.071C393.535 270.509 395.571 273.76 396.932 274.206Z" fill="white"/>
<path d="M393.255 257.985L392.933 259.137C392.735 259.819 392.415 260.46 391.988 261.028C390.264 263.323 385.403 269.087 380.678 268.568C376.285 268.131 375.08 261.36 374.737 257.964L393.255 257.985Z" fill="#263238" stroke="#263238" stroke-linecap="round" stroke-linejoin="round"/>
<path d="M396.932 274.206C396.932 274.206 386.286 280.064 378.507 272.586C378.507 272.586 380.46 268.91 381.145 259.739L392.435 257.724C392.112 260.841 392.227 263.987 392.777 267.071C393.535 270.509 395.571 273.76 396.932 274.206Z" stroke="#263238" stroke-linecap="round" stroke-linejoin="round"/>
<path d="M376.305 240.247L374.478 245.938C374.277 246.54 374.22 247.18 374.311 247.807L374.561 249.49L373.636 253.229C373.586 253.426 373.551 253.628 373.532 253.831C373.335 255.794 372.577 266.294 378.133 267.644C383.056 268.797 389.038 263.49 391.209 261.35C391.746 260.815 392.173 260.18 392.466 259.481L393.712 256.646C394.423 256.754 395.15 256.637 395.791 256.311C396.431 255.985 396.954 255.467 397.285 254.828C398.437 252.522 399.933 251.224 397.71 249.635C395.488 248.046 394.075 251.266 394.075 251.266C394.075 251.266 394.138 247.215 393.618 246C393.099 244.785 391.261 243.362 390.793 242.303C390.56 241.481 390.403 240.64 390.326 239.79C390.326 239.79 382.734 239.997 377.334 237.931L376.305 240.247Z" fill="white" stroke="#263238" stroke-linecap="round" stroke-linejoin="round"/>
<path d="M376.305 240.247L374.478 245.938C374.277 246.54 374.22 247.18 374.311 247.807L374.561 249.49L373.636 253.229C373.586 253.426 373.551 253.628 373.532 253.831C373.335 255.794 372.577 266.294 378.133 267.644C383.056 268.797 389.038 263.49 391.209 261.35C391.746 260.815 392.173 260.18 392.466 259.481L393.712 256.646C394.423 256.754 395.15 256.637 395.791 256.311C396.431 255.985 396.954 255.467 397.285 254.828C398.437 252.522 399.933 251.224 397.71 249.635C395.488 248.046 394.075 251.266 394.075 251.266C394.075 251.266 394.138 247.215 393.618 246C393.099 244.785 391.261 243.362 390.793 242.303C390.56 241.481 390.403 240.64 390.326 239.79C390.326 239.79 382.734 239.997 377.334 237.931L376.305 240.247Z" fill="white" stroke="#263238" stroke-linecap="round" stroke-linejoin="round"/>
<path d="M379.837 251.473L377.043 255.97C376.963 256.117 376.921 256.281 376.918 256.448C376.908 256.618 376.937 256.789 377.001 256.947C377.067 257.102 377.166 257.24 377.292 257.352C377.417 257.466 377.566 257.551 377.728 257.601L380.179 258.182" stroke="#263238" stroke-linecap="round" stroke-linejoin="round"/>
<path d="M383.897 260.759C382.173 262.12 380.023 262.306 378.964 261.351" stroke="#263238" stroke-linecap="round" stroke-linejoin="round"/>
<path d="M383.596 253.031C383.492 253.695 383.15 254.183 382.817 254.183C382.485 254.183 382.34 253.56 382.443 252.895C382.547 252.231 382.9 251.743 383.212 251.743C383.524 251.743 383.7 252.376 383.596 253.031Z" fill="#263238"/>
<path d="M377.386 252.014C377.271 252.678 376.929 253.167 376.617 253.115C376.305 253.063 376.129 252.491 376.233 251.827C376.337 251.162 376.7 250.674 377.012 250.674C377.323 250.674 377.489 251.349 377.386 252.014Z" fill="#263238"/>
<path d="M374.789 248.025C374.873 247.744 375.018 247.485 375.215 247.267C375.414 247.05 375.659 246.879 375.932 246.768C376.205 246.656 376.499 246.607 376.794 246.623C377.088 246.645 377.375 246.73 377.635 246.872" stroke="#263238" stroke-linecap="round" stroke-linejoin="round"/>
<path d="M382.319 247.288C383.033 247.297 383.728 247.522 384.313 247.932C384.896 248.342 385.338 248.923 385.58 249.593" stroke="#263238" stroke-linecap="round" stroke-linejoin="round"/>
<path d="M392.684 239.685C392.684 239.685 386.452 244.286 385.767 240.952C385.767 240.952 380.574 242.198 380.242 240.443C380.242 240.443 375.049 242.52 374.488 240.921C373.927 239.321 378.642 235.022 378.642 235.022L389.589 236.403L392.684 239.685Z" fill="black" stroke="#263238" stroke-linecap="round" stroke-linejoin="round"/>
<path d="M379.92 234.097C379.227 235.484 378.354 236.773 377.323 237.93" stroke="#492D21" stroke-miterlimit="10"/>
<path d="M383.202 232.612C382.291 232.489 381.368 232.723 380.626 233.267" stroke="#492D21" stroke-miterlimit="10"/>
<path d="M395.882 236.424C392.85 236.134 392.424 238.73 387.74 238.574C383.316 238.398 385.351 234.97 384.624 233.381" stroke="#492D21" stroke-miterlimit="10"/>
<path d="M398.053 246.623C398.053 246.623 403.246 239.073 398.053 237.037" stroke="#492D21" stroke-miterlimit="10"/>
<path d="M360.426 484.975C359.351 485.322 358.366 485.9 357.538 486.668C356.709 487.44 356.057 488.382 355.627 489.431C355.545 489.617 355.513 489.821 355.534 490.023C355.555 490.222 355.628 490.413 355.744 490.577C355.861 490.74 356.017 490.871 356.199 490.957C356.381 491.038 356.581 491.074 356.78 491.061H373.73C374.058 491.062 374.375 490.944 374.623 490.729C374.866 490.517 375.028 490.227 375.08 489.908C375.343 487.794 375.057 485.648 374.249 483.677L375.173 473.291H365.276L364.528 483.262L360.426 484.975Z" fill="white" stroke="#263238" stroke-linecap="round" stroke-linejoin="round"/>
<path d="M371.175 484.871C372.941 487.354 372.494 483.646 374.145 483.646C374.95 485.618 375.232 487.764 374.966 489.877C374.922 490.199 374.759 490.492 374.509 490.698C374.266 490.914 373.951 491.032 373.626 491.03H356.676C356.477 491.043 356.277 491.007 356.095 490.926C355.909 490.84 355.748 490.708 355.628 490.542C355.516 490.376 355.448 490.184 355.429 489.984C355.411 489.784 355.444 489.583 355.524 489.4C355.953 488.351 356.605 487.409 357.435 486.637C358.261 485.867 359.246 485.289 360.322 484.944L364.372 483.158C364.372 483.158 369.409 482.379 371.175 484.871Z" fill="#BF9786" stroke="#263238" stroke-linecap="round" stroke-linejoin="round"/>
<path d="M374.966 489.556V489.909C374.914 490.23 374.75 490.522 374.503 490.733C374.255 490.945 373.941 491.061 373.616 491.062H356.677C356.494 491.066 356.312 491.027 356.147 490.947C355.977 490.879 355.829 490.764 355.721 490.615C355.606 490.47 355.528 490.299 355.493 490.117C355.451 489.939 355.451 489.754 355.493 489.577H374.966V489.556Z" fill="white" stroke="#263238" stroke-linecap="round" stroke-linejoin="round"/>
<path d="M367.353 345.911L363.895 479.492H376.108C376.108 479.492 379.878 446.102 380.325 434.834C380.522 429.807 381.55 421.01 381.883 415.942C382.495 406.855 383.96 396.739 387.408 379.094C387.969 376.248 391.375 371.325 392.113 368.521C393.525 363.027 394.127 345.839 394.127 345.839L367.353 345.911Z" fill="#492D21" stroke="#263238" stroke-linecap="round" stroke-linejoin="round"/>
<path d="M375.807 425.173C375.807 425.173 373.024 428.86 369.16 428.362" stroke="#7F7F7F" stroke-linecap="round" stroke-linejoin="round"/>
<path d="M365.899 421.675C365.899 421.675 370.302 424.292 376.866 421.675" stroke="#7F7F7F" stroke-linecap="round" stroke-linejoin="round"/>
<path d="M419.884 484.975C421.462 485.671 423.893 486.689 424.807 489.794C424.838 489.945 424.838 490.1 424.807 490.251C424.771 490.402 424.704 490.544 424.609 490.667C424.515 490.789 424.394 490.888 424.256 490.957C424.117 491.025 423.964 491.06 423.81 491.061H406.891C406.489 491.061 406.101 490.913 405.801 490.646C405.497 490.38 405.304 490.009 405.261 489.607C405.06 487.576 405.356 485.527 406.123 483.635L405.188 473.25H415.096L415.844 483.22L419.884 484.975Z" fill="white" stroke="#263238" stroke-linecap="round" stroke-linejoin="round"/>
<path d="M424.817 489.794C424.849 489.945 424.849 490.101 424.817 490.251C424.782 490.402 424.714 490.544 424.62 490.667C424.525 490.789 424.405 490.888 424.267 490.957C424.127 491.025 423.975 491.06 423.82 491.061H406.891C406.489 491.061 406.101 490.913 405.801 490.646C405.497 490.38 405.304 490.009 405.261 489.607C405.061 487.573 405.357 485.521 406.123 483.625C407.712 483.366 406.694 486.814 409.301 484.664C411.908 482.514 415.844 483.147 415.844 483.147L419.884 484.934C421.463 485.671 423.893 486.689 424.817 489.794Z" fill="#BF9786" stroke="#263238" stroke-linecap="round" stroke-linejoin="round"/>
<path d="M424.724 489.556C424.724 489.639 424.786 489.712 424.807 489.795C424.838 489.946 424.838 490.101 424.807 490.252C424.771 490.403 424.704 490.545 424.609 490.668C424.515 490.79 424.394 490.889 424.256 490.958C424.117 491.026 423.964 491.061 423.81 491.062H406.891C406.489 491.062 406.101 490.914 405.801 490.647C405.497 490.381 405.304 490.01 405.261 489.608V489.546L424.724 489.556Z" fill="white" stroke="#263238" stroke-linecap="round" stroke-linejoin="round"/>
<path d="M408.927 345.91C408.927 345.91 410.651 359.183 410.89 363.649C411.046 366.277 410.807 371.584 410.89 374.232C411.222 384.368 412.479 404.673 413.476 414.736C414.016 420.064 415.979 430.595 416.342 435.923C417.059 446.797 416.342 479.481 416.342 479.481H404.046C404.046 479.481 399.071 442.622 397.814 430.253C397.357 425.87 392.279 382.271 388.81 372.768C388.145 370.95 386.65 367.897 386.037 366.069C384.791 362.216 383.887 358.261 383.337 354.25C383.15 352.173 383.025 345.858 383.025 345.858L408.927 345.91Z" fill="#492D21" stroke="#263238" stroke-linecap="round" stroke-linejoin="round"/>
<path d="M411.181 420.179C411.181 420.179 408.875 424.333 400.795 424.333" stroke="#7F7F7F" stroke-linecap="round" stroke-linejoin="round"/>
<path d="M388.571 373.714C387.896 371.969 386.411 369.103 385.798 367.316C384.832 364.637 383.326 354.313 383.015 345.922" stroke="#7F7F7F" stroke-linecap="round" stroke-linejoin="round"/>
<path d="M399.59 433.431C401.926 445.027 406.475 456.064 412.988 465.938" stroke="#7F7F7F" stroke-linecap="round" stroke-linejoin="round"/>
<path d="M365.047 431.79C365.831 442.58 368.632 453.127 373.304 462.884" stroke="#7F7F7F" stroke-linecap="round" stroke-linejoin="round"/>
<path d="M398.032 259.387H429.324C431.775 259.387 433.77 262.223 433.77 265.733V276.316C433.77 279.826 431.775 282.672 429.324 282.672H404.399L394.335 289.381L398.084 282.672C395.633 282.672 393.639 279.826 393.639 276.316V265.733C393.587 262.202 395.581 259.387 398.032 259.387Z" fill="white" stroke="#263238" stroke-linecap="round" stroke-linejoin="round"/>
<path d="M426.697 265.868H400.244" stroke="#263238" stroke-linecap="round" stroke-linejoin="round"/>
<path d="M426.697 270.583H402.28" stroke="#263238" stroke-linecap="round" stroke-linejoin="round"/>
<path d="M426.697 275.277H400.244" stroke="#263238" stroke-linecap="round" stroke-linejoin="round"/>
<path d="M94.4892 302.861L32.445 310.817C29.2688 311.219 26.0437 310.965 22.9698 310.07C19.8959 309.175 17.0386 307.658 14.5751 305.613C12.1115 303.568 10.0943 301.039 8.6483 298.183C7.20234 295.326 6.35852 292.203 6.16915 289.007L0.0415795 186.323C-0.164889 182.867 0.399406 179.408 1.69365 176.196C2.9879 172.984 4.97975 170.1 7.52515 167.753C10.0705 165.405 13.1059 163.652 16.4116 162.622C19.7173 161.591 23.2108 161.308 26.6394 161.792L98.7058 171.95C104.459 172.762 109.703 175.69 113.415 180.16C117.127 184.63 119.04 190.323 118.781 196.128L114.876 280.709C114.631 286.207 112.454 291.443 108.729 295.495C105.004 299.547 99.9687 302.156 94.51 302.861H94.4892Z" fill="#BF9786"/>
<path d="M22.6514 199.804H51.5133C52.819 199.906 54.0471 200.465 54.9817 201.382C55.9163 202.299 56.4975 203.517 56.623 204.821L63.3945 266.211C63.6533 268.582 64.7795 270.774 66.5567 272.365C68.3339 273.957 70.6366 274.835 73.0221 274.831" stroke="#263238" stroke-linecap="round" stroke-linejoin="round"/>
<path d="M101.084 282.568V288.228H32.5386C30.1039 288.221 27.7606 287.3 25.9721 285.648C24.1836 283.996 23.0801 281.733 22.8799 279.307L16.9392 205.568C16.8845 204.808 16.9913 204.045 17.2527 203.329C17.514 202.613 17.924 201.96 18.4555 201.414C18.991 200.861 19.639 200.429 20.3556 200.148C21.0723 199.866 21.841 199.742 22.6098 199.783C23.9126 199.894 25.1345 200.46 26.06 201.384C26.9854 202.308 27.5548 203.528 27.6677 204.831L34.5845 266.221C34.8477 268.59 35.9753 270.78 37.7515 272.37C39.5278 273.96 41.8279 274.84 44.2121 274.841H93.3365C94.3549 274.841 95.3636 275.039 96.3068 275.423C97.7236 276.006 98.9346 276.998 99.7854 278.273C100.636 279.547 101.088 281.046 101.084 282.578V282.568Z" fill="#263238"/>
<path d="M86.1807 342.639H68.6808V286.213H59.6556V342.639H42.1557C41.4365 342.637 40.7242 342.778 40.0595 343.053C39.3948 343.327 38.7909 343.73 38.2824 344.239C37.7739 344.747 37.3708 345.351 37.0962 346.016C36.8217 346.68 36.681 347.393 36.6824 348.112H91.6436C91.6428 346.663 91.0676 345.274 90.0442 344.248C89.5507 343.744 88.9655 343.339 88.3201 343.054C87.6624 342.779 86.9561 342.637 86.243 342.639H86.1807Z" fill="#263238"/>
<path d="M68.6807 306.195V288.165H59.6555V307.296" stroke="#263238" stroke-linecap="round" stroke-linejoin="round"/>
<path d="M100.44 326.914L101.313 339.377L110.66 339.097L110.151 325.658L100.44 326.914Z" fill="white" stroke="#263238" stroke-linecap="round" stroke-linejoin="round"/>
<path d="M100.627 343.979C100.627 343.979 115.738 344.581 120.723 343.979C122.281 343.792 125.916 343.761 126.799 342.473C127.235 341.86 126.446 339.461 126.446 339.461L118.563 337.031L113.121 334.04C112.699 333.802 112.212 333.704 111.731 333.76C111.249 333.816 110.798 334.023 110.442 334.351L109.829 334.912C109.57 335.144 109.368 335.432 109.237 335.753C109.103 336.082 109.05 336.438 109.081 336.792V337.062L108.178 336.439C107.791 336.169 107.33 336.024 106.859 336.023H100.347C99.2221 337.899 98.69 340.071 98.82 342.255C98.8333 342.724 99.0266 343.17 99.3601 343.501C99.7079 343.813 100.16 343.983 100.627 343.979Z" fill="#BF9786" stroke="#263238" stroke-miterlimit="10"/>
<path d="M70.0725 312.563L63.8411 322.855L71.4122 328.432L78.568 317.579L70.0725 312.563Z" fill="white" stroke="#263238" stroke-linecap="round" stroke-linejoin="round"/>
<path d="M96.2653 266.854C96.2653 266.854 85.8795 271.652 67.0191 315.906C68.0596 317.611 69.4621 319.068 71.1276 320.171C72.7931 321.275 74.6807 321.999 76.657 322.293C76.657 322.293 121.918 266.48 116.123 256.645C110.691 247.433 60.3203 250.891 60.3203 250.891L60.9746 273.002C60.9746 273.002 91.2593 271.403 96.2653 266.854Z" fill="black"/>
<path d="M73.1882 147.648C73.1882 147.648 64.1423 140.845 55.2833 146.734C46.4243 152.622 40.8264 166.57 45.5623 172.075C46.9902 173.698 48.7674 174.977 50.7604 175.815C52.7535 176.654 54.9105 177.029 57.0696 176.914C57.0696 176.914 66.0429 183.821 69.7402 182.668C73.4375 181.515 79.7001 171.909 80.0117 163.309C80.3232 154.71 82.9716 148.385 73.1882 147.648Z" fill="black"/>
<path d="M64.1837 178.078C64.1837 178.078 61.6808 181.536 61.8054 184.496L49.9761 180.415C49.9761 180.415 54.9301 173.238 56.0933 166.217C57.2565 159.197 64.1837 178.078 64.1837 178.078Z" fill="white"/>
<path d="M55.844 169.446C56.0206 173.009 56.9864 174.515 59.9983 177.506C63.4567 180.964 65.6793 183.737 70.6852 177.506C73.9982 173.351 75.0264 170.724 75.2964 169.446H55.844Z" fill="#263238" stroke="#263238" stroke-linecap="round" stroke-linejoin="round"/>
<path d="M64.1837 178.078C64.1837 178.078 61.6808 181.536 61.8054 184.496L49.9761 180.415C49.9761 180.415 54.9301 173.238 56.0933 166.217C57.2565 159.197 64.1837 178.078 64.1837 178.078Z" stroke="#263238" stroke-linecap="round" stroke-linejoin="round"/>
<path d="M38.2506 252.22C38.2506 252.22 29.4954 271.33 44.2328 274.508C58.9701 277.686 90.1688 270.759 90.1688 270.759C90.1688 270.759 92.7029 295.425 99.8898 331.245C103.806 331.613 107.757 331.293 111.563 330.3C111.563 330.3 111.117 263.634 105.093 255.45C99.0693 247.266 54.0473 247.91 38.2506 252.22Z" fill="black"/>
<path d="M36.0801 252.252C36.0801 252.252 38.2507 254.693 52.6972 249.811L70.893 249.105C70.893 249.105 77.6852 218.332 75.4938 206.887C74.2697 200.216 72.6395 193.626 70.6126 187.154C60.9822 183.502 50.6488 182.081 40.3901 183C40.1144 183.025 39.8465 183.105 39.6022 183.235C39.3578 183.366 39.142 183.543 38.9673 183.758C38.7822 183.976 38.6427 184.229 38.5571 184.502C38.4715 184.775 38.4414 185.062 38.4688 185.347C39.3516 193.895 41.9999 221.894 36.0801 252.252Z" fill="#492D21"/>
<path d="M70.6645 187.197C70.6645 187.197 78.2253 188.879 78.2253 197.884C78.2253 206.888 77.3425 221.532 77.3425 221.532L87.105 234.763C87.105 234.763 82.9508 237.069 82.2861 240.995C82.2861 240.995 67.6942 228.999 66.8737 224.876C66.0532 220.753 70.6645 187.197 70.6645 187.197Z" fill="#492D21"/>
<path d="M72.2222 219.236L72.9388 221.915L70.924 220.004L64.9002 209.847C64.8014 209.674 64.7717 209.47 64.8172 209.276C64.8685 209.08 64.9955 208.912 65.1703 208.809C65.2554 208.755 65.3505 208.72 65.4498 208.704C65.5492 208.689 65.6506 208.694 65.7478 208.72C65.8451 208.745 65.9361 208.79 66.0154 208.851C66.0947 208.913 66.1605 208.991 66.2088 209.079L72.2222 219.236Z" fill="white" stroke="#263238" stroke-linecap="round" stroke-linejoin="round"/>
<path d="M56.4983 220.887C58.2573 219.66 59.8342 218.192 61.1823 216.525C63.0932 214.042 63.7268 212.578 65.2223 213.066C66.7179 213.554 72.1288 215.008 71.3291 216.743C71.3592 217.495 71.1157 218.233 70.6437 218.82C70.2663 219.599 69.7156 220.281 69.0339 220.814C67.9953 221.593 67.611 221.25 67.611 221.25C67.611 221.25 66.8736 221.884 66.3855 221.728C66.3855 221.728 65.2327 223.743 61.3796 224.501L50.9939 228.925L49.9553 222.278L56.4983 220.887Z" fill="white" stroke="#263238" stroke-linecap="round" stroke-linejoin="round"/>
<path d="M63.789 215.331C64.2459 215.749 64.7318 216.134 65.243 216.484C65.9493 216.92 68.4211 218.208 68.3588 219.039C68.2964 219.87 66.5932 221.448 66.0531 221.344C65.5131 221.241 63.5917 220.503 63.6333 220.057C63.4552 220.399 63.3325 220.767 63.2698 221.147C63.2684 221.655 63.1658 222.157 62.9678 222.624C62.7698 223.091 62.4806 223.514 62.1169 223.868" stroke="#263238" stroke-linecap="round" stroke-linejoin="round"/>
<path d="M70.6645 218.789C70.5322 218.361 70.2526 217.993 69.8752 217.751C68.6525 217.057 67.4949 216.254 66.4167 215.352" stroke="#263238" stroke-linecap="round" stroke-linejoin="round"/>
<path d="M71.3188 216.754C71.0413 216.484 70.7307 216.25 70.3945 216.058C69.1377 215.206 67.8064 214.469 66.4167 213.856" stroke="#263238" stroke-linecap="round" stroke-linejoin="round"/>
<path d="M64.1628 219.559C64.1628 219.559 64.9833 219.257 65.3157 219.559C65.648 219.86 65.6065 220.254 65.97 220.649" stroke="#263238" stroke-linecap="round" stroke-linejoin="round"/>
<path d="M65.2845 219.516C64.7742 219.176 64.3394 218.734 64.0071 218.218" stroke="#263238" stroke-linecap="round" stroke-linejoin="round"/>
<path d="M41.3663 209.37C41.2209 212.257 39.6838 223.972 39.6838 223.972C44.7548 222.328 49.9714 221.174 55.2624 220.524C55.2624 220.524 54.4627 223.64 56.8202 228.023C56.8202 228.023 35.1037 236.539 30.6379 235.635C26.172 234.732 26.899 225.083 28.6127 203.678C30.3263 182.273 40.4108 183.073 40.4108 183.073" fill="#492D21"/>
<path d="M55.8753 228.012C55.8753 228.012 46.9955 231.46 39.4243 233.766" stroke="#7F7F7F" stroke-linecap="round" stroke-linejoin="round"/>
<path d="M40.3797 209.369C40.2447 212.257 38.6973 223.972 38.6973 223.972C43.7682 222.328 48.9849 221.173 54.2758 220.524" stroke="#7F7F7F" stroke-linecap="round" stroke-linejoin="round"/>
<path d="M47.2861 182.783C47.2861 182.783 49.7995 181.194 49.8929 179.117C49.9864 177.04 61.2653 183.042 63.8617 182.7C66.4582 182.357 64.9003 184.6 64.7341 185.234C64.0383 187.321 62.1377 189.97 47.2861 182.783Z" fill="#492D21" stroke="#263238" stroke-linecap="round" stroke-linejoin="round"/>
<path d="M64.6718 185.275C64.0175 187.217 62.2727 189.679 49.4983 183.842" stroke="#7F7F7F" stroke-linecap="round" stroke-linejoin="round"/>
<path d="M76.8959 159.893L75.7535 167.038C75.7535 167.038 75.9404 169.894 70.9345 176.136C65.9286 182.378 63.6645 179.594 60.2684 176.136C56.8723 172.677 56.1141 171.192 56.1141 166.249C56.1141 166.249 54.3693 165.989 53.2892 162.79C52.2091 159.591 56.1764 158.345 57.1631 160.422L63.1141 157.514L66.801 153.09L68.8781 150.286L73.1986 151.885L77.7995 154.658L76.8959 159.893Z" fill="white" stroke="#263238" stroke-linecap="round" stroke-linejoin="round"/>
<path d="M71.7029 167.275C71.7029 167.275 69.8542 169.155 71.3913 170.983C73.4685 173.455 69.0857 172.697 69.0857 173.444" stroke="#263238" stroke-linecap="round" stroke-linejoin="round"/>
<path d="M66.7282 174.256C66.7282 174.256 65.3158 174.62 62.8647 172.179" stroke="#263238" stroke-linecap="round" stroke-linejoin="round"/>
<path d="M67.5488 166.881C67.2787 167.494 66.8737 167.92 66.6244 167.805C66.3752 167.691 66.4063 167.12 66.6244 166.497C66.8425 165.874 67.2995 165.458 67.5384 165.583C67.7772 165.708 67.798 166.258 67.5488 166.881Z" fill="#263238"/>
<path d="M72.9389 169.332C72.7 169.882 72.3261 170.256 72.1184 170.163C71.9107 170.069 71.9107 169.55 72.1184 169.01C72.3261 168.47 72.7208 168.085 72.9389 168.179C73.157 168.272 73.1674 168.781 72.9389 169.332Z" fill="#263238"/>
<path d="M70.4774 162.301C69.8952 161.88 69.193 161.658 68.4747 161.668C67.7565 161.677 67.0603 161.917 66.4893 162.353" stroke="#263238" stroke-linecap="round" stroke-linejoin="round"/>
<path d="M74.1851 164.4C74.4813 164.495 74.749 164.663 74.964 164.888C75.1765 165.116 75.3267 165.395 75.4002 165.698" stroke="#263238" stroke-linecap="round" stroke-linejoin="round"/>
<path d="M57.464 157.472C57.464 157.472 54.878 164.057 58.5026 166.923C58.5026 166.923 61.4729 158.428 67.6213 157.472C73.7696 156.517 76.2933 154.616 76.2933 154.616C76.2933 154.616 75.556 162.987 77.2384 165.054C78.9209 167.121 78.8794 155.406 78.8794 155.406L77.2696 151.376L68.369 147.834L60.7355 151.417L57.464 157.472Z" fill="black"/>
<path d="M55.8753 167.412C55.8753 167.412 54.6705 174.734 57.4643 175.472C60.258 176.209 53.4554 176.344 49.9347 174.724C46.4139 173.104 54.5978 166.509 54.5978 166.509L55.8753 167.412Z" fill="black"/>
<path d="M71.9107 218.819H73.2401L68.8261 246.622H67.5487C67.3732 246.629 67.1986 246.593 67.0398 246.518C66.8837 246.445 66.7455 246.339 66.6347 246.207C66.5264 246.076 66.4484 245.924 66.4063 245.76C66.3698 245.589 66.3698 245.412 66.4063 245.241L70.3528 220.211C70.4253 219.836 70.6229 219.496 70.9133 219.247C71.2038 218.998 71.5699 218.854 71.9522 218.84L71.9107 218.819Z" fill="white" stroke="#263238" stroke-linecap="round" stroke-linejoin="round"/>
<path d="M68.4212 246.623H84.5398C84.9218 246.609 85.2878 246.466 85.5784 246.218C85.8714 245.968 86.0664 245.622 86.1288 245.242L90.0961 220.212C90.1327 220.044 90.1327 219.871 90.0961 219.703C90.0518 219.537 89.9741 219.381 89.8677 219.246C89.7566 219.117 89.6182 219.014 89.4626 218.945C89.3076 218.87 89.1363 218.834 88.9641 218.841H72.8351C72.4537 218.849 72.0867 218.988 71.7965 219.236C71.5035 219.486 71.3085 219.832 71.2461 220.212L67.2684 245.242C67.227 245.412 67.227 245.59 67.2684 245.761C67.3069 245.926 67.3853 246.08 67.4968 246.207C67.6076 246.34 67.7458 246.446 67.9019 246.519C68.0631 246.598 68.242 246.634 68.4212 246.623Z" fill="white" stroke="#263238" stroke-linecap="round" stroke-linejoin="round"/>
<path d="M85.3601 223.712H86.8349C87.0838 223.716 87.3256 223.629 87.5163 223.469C87.7069 223.309 87.8337 223.086 87.8735 222.84L88.1123 221.365C88.1384 221.256 88.1384 221.142 88.1123 221.033C88.0808 220.928 88.0317 220.83 87.9669 220.742C87.8907 220.659 87.7989 220.592 87.6969 220.545C87.5983 220.503 87.4923 220.482 87.3853 220.482H85.8794C85.6352 220.493 85.4013 220.584 85.2147 220.742C85.0306 220.906 84.9033 221.124 84.8512 221.365L84.6227 222.84C84.5968 222.946 84.5968 223.056 84.6227 223.162C84.6455 223.27 84.6956 223.37 84.7681 223.453C84.8378 223.538 84.9268 223.606 85.0278 223.65C85.1332 223.693 85.2463 223.714 85.3601 223.712V223.712Z" stroke="#263238" stroke-linecap="round" stroke-linejoin="round"/>
<path d="M85.7756 222.103C85.7652 222.172 85.7652 222.242 85.7756 222.311C85.7955 222.383 85.831 222.45 85.8795 222.508C85.9256 222.562 85.9831 222.604 86.0477 222.633C86.1124 222.662 86.1826 222.676 86.2534 222.674C86.4171 222.673 86.5753 222.614 86.6999 222.508C86.8235 222.404 86.9078 222.261 86.9388 222.103C86.9542 222.031 86.9542 221.957 86.9388 221.885C86.917 221.816 86.8817 221.753 86.835 221.698C86.7859 221.644 86.7257 221.601 86.6584 221.573C86.5865 221.558 86.5122 221.558 86.4403 221.573C86.2848 221.584 86.1363 221.642 86.0145 221.739C85.8941 221.844 85.8135 221.987 85.786 222.144L85.7756 222.103Z" stroke="#263238" stroke-linecap="round" stroke-linejoin="round"/>
<path d="M86.8662 237.349C86.8662 237.349 88.4033 232.883 89.5353 233.891C90.4389 234.711 88.9018 237.349 88.9018 237.349H86.8662Z" fill="white" stroke="#263238" stroke-linecap="round" stroke-linejoin="round"/>
<path d="M90.5945 239.082C90.8542 238.563 91.7473 237.4 91.3942 236.922C90.8334 236.029 88.2058 236.237 87.2399 236.538C86.583 236.676 85.9655 236.96 85.4328 237.369C85.277 237.566 85.0797 238.179 85.2459 238.355C85.4121 238.532 86.5649 238.21 87.0011 238.2C87.7766 238.266 88.5469 238.384 89.3067 238.553C88.4511 238.823 87.5762 239.028 86.6895 239.165C85.7652 239.165 82.4002 238.605 83.2311 240.557C83.2311 240.557 81.9952 240.941 82.7014 241.886C83.4076 242.832 85.8171 242.728 85.8171 242.728C85.2659 242.883 84.6969 242.967 84.1242 242.977C83.1584 242.977 82.4002 242.24 82.3171 242.759C82.1821 243.569 82.8987 244.223 83.9269 244.597C84.428 244.816 84.969 244.929 85.5159 244.929C86.0628 244.929 86.6038 244.816 87.1049 244.597C88.7355 243.984 89.8883 240.536 90.5945 239.082Z" fill="white" stroke="#263238" stroke-linecap="round" stroke-linejoin="round"/>
<path d="M83.9478 240.869C84.8387 241.057 85.7406 241.189 86.648 241.264C87.2763 241.275 87.8996 241.151 88.4759 240.901" stroke="#263238" stroke-linecap="round" stroke-linejoin="round"/>
<path d="M76.065 217.055C76.3769 213.667 76.2932 210.255 75.8158 206.887C74.5383 200.105 73.0635 194.424 72.0769 190.976" stroke="#7F7F7F" stroke-linecap="round" stroke-linejoin="round"/>
<path d="M59.5516 325.181C59.5516 325.181 69.7711 336.273 73.7177 339.368C74.9536 340.323 77.5292 342.826 79.0455 342.598C79.7829 342.463 80.915 340.292 80.915 340.292L77.0515 333.022L75.3067 327.081C75.1759 326.623 74.9056 326.217 74.5334 325.919C74.1612 325.621 73.7055 325.447 73.2296 325.42H72.4091C72.0541 325.401 71.6993 325.461 71.3705 325.596C71.056 325.73 70.773 325.928 70.5396 326.178L70.3735 326.386L70.1762 325.347C70.0872 324.884 69.8631 324.457 69.5322 324.121L64.921 319.521C62.8166 320.039 60.919 321.183 59.4789 322.803C59.1881 323.144 59.0329 323.58 59.0427 324.028C59.0618 324.463 59.2434 324.874 59.5516 325.181Z" fill="#BF9786" stroke="#263238" stroke-miterlimit="10"/>
<path d="M91.4358 268.122C91.4358 268.122 94.6865 263.666 96.4729 262.763" stroke="#263238" stroke-linecap="round" stroke-linejoin="round"/>
<path d="M84.8305 129.929C84.5389 129.929 84.2502 129.871 83.9811 129.759C83.7119 129.647 83.4677 129.482 83.2623 129.275C78.7025 124.727 72.5249 122.172 66.0843 122.172C59.6438 122.172 53.4661 124.727 48.9064 129.275C48.7028 129.477 48.4613 129.637 48.1958 129.746C47.9302 129.855 47.6458 129.91 47.3589 129.909C46.7756 129.905 46.2169 129.674 45.801 129.265C45.3927 128.853 45.1616 128.297 45.1571 127.717C45.1461 127.43 45.1918 127.144 45.2916 126.875C45.3914 126.606 45.5434 126.359 45.7387 126.149C51.1334 120.782 58.4333 117.77 66.0428 117.77C73.6522 117.77 80.9522 120.782 86.3468 126.149C86.6492 126.461 86.8548 126.854 86.9388 127.281C87.0224 127.706 86.979 128.147 86.8142 128.548C86.6595 128.97 86.3762 129.334 86.0041 129.587C85.6534 129.81 85.2463 129.929 84.8305 129.929Z" fill="#656565" stroke="#263238" stroke-linecap="round" stroke-linejoin="round"/>
<path d="M78.9729 135.807C78.3908 135.798 77.8339 135.568 77.4151 135.163C75.1804 132.928 72.3329 131.405 69.2328 130.787C66.1326 130.17 62.919 130.485 59.9983 131.694C58.0555 132.497 56.2907 133.676 54.8054 135.163C54.6009 135.368 54.3581 135.53 54.0908 135.641C53.8234 135.752 53.5369 135.809 53.2475 135.809C52.9582 135.809 52.6716 135.752 52.4043 135.641C52.137 135.53 51.8942 135.368 51.6897 135.163C51.4847 134.961 51.3221 134.72 51.2115 134.454C51.101 134.189 51.0446 133.904 51.0458 133.616C51.0397 133.035 51.2637 132.475 51.6689 132.058C55.4971 128.236 60.6854 126.09 66.0947 126.09C71.504 126.09 76.6922 128.236 80.5204 132.058C80.8312 132.371 81.0441 132.768 81.1332 133.2C81.2209 133.629 81.1777 134.074 81.0092 134.478C80.8406 134.882 80.5545 135.225 80.1881 135.464C79.8262 135.697 79.4031 135.816 78.9729 135.807Z" fill="#656565" stroke="#263238" stroke-linecap="round" stroke-linejoin="round"/>
<path d="M73.7802 140.928C73.4919 140.926 73.2065 140.869 72.939 140.762C72.6693 140.649 72.4254 140.483 72.2224 140.273C70.588 138.65 68.3778 137.739 66.074 137.739C63.7703 137.739 61.5601 138.65 59.9257 140.273C59.7277 140.502 59.4834 140.686 59.2091 140.813C58.9369 140.945 58.6391 141.016 58.3367 141.021C58.0347 141.032 57.7339 140.979 57.4539 140.865C57.1722 140.759 56.917 140.592 56.7061 140.377C56.4887 140.168 56.3218 139.913 56.218 139.629C56.1043 139.35 56.0512 139.049 56.0622 138.747C56.0671 138.444 56.138 138.146 56.2699 137.874C56.3973 137.6 56.5813 137.356 56.81 137.158C59.269 134.705 62.6006 133.327 66.074 133.327C69.5474 133.327 72.8791 134.705 75.3381 137.158C75.6448 137.466 75.8538 137.858 75.9387 138.285C76.0237 138.712 75.981 139.154 75.8158 139.557C75.6487 139.975 75.3636 140.336 74.9954 140.595C74.6299 140.819 74.2086 140.934 73.7802 140.928Z" fill="#656565" stroke="#263238" stroke-linecap="round" stroke-linejoin="round"/>
</svg>
