<svg width="766" height="734" viewBox="0 0 766 734" fill="none" xmlns="http://www.w3.org/2000/svg">
<path d="M727.962 175.685C684.11 91.9547 600.898 33.9382 511.162 11.957C425.556 -9.01678 322.491 -7.97635 258.059 61.105C215.627 106.587 198.598 169.888 161.187 218.986C142.573 243.379 119.268 254.543 94.889 271.636C35.4615 313.236 -8.25851 380.22 1.32124 455.99C17.3425 582.692 132.911 650.716 249.073 658.363C402.581 668.47 512.054 647.942 605.044 588.522C653.339 557.655 701.518 521.042 731.001 470.342C775.596 393.697 773.763 297.035 744.908 214.726C740.21 201.32 734.547 188.272 727.962 175.685Z" fill="#F7F4F3"/>
<path opacity="0.8" d="M727.962 175.685C684.11 91.9547 600.898 33.9382 511.162 11.957C425.556 -9.01678 322.491 -7.97635 258.059 61.105C215.627 106.587 198.598 169.888 161.187 218.986C142.573 243.379 119.268 254.543 94.889 271.636C35.4615 313.236 -8.25851 380.22 1.32124 455.99C17.3425 582.692 132.911 650.716 249.073 658.363C402.581 668.47 512.054 647.942 605.044 588.522C653.339 557.655 701.518 521.042 731.001 470.342C775.596 393.697 773.763 297.035 744.908 214.726C740.21 201.32 734.547 188.272 727.962 175.685Z" fill="#F7F4F3"/>
<path d="M376.352 732.184H360.595V46.0602C360.599 43.9723 361.431 41.9711 362.907 40.4947C364.384 39.0183 366.385 38.187 368.473 38.1826C370.563 38.1826 372.567 39.0126 374.044 40.4899C375.522 41.9672 376.352 43.9709 376.352 46.0602V732.184Z" fill="#FCCC4F" stroke="#263238" stroke-linecap="round" stroke-linejoin="round"/>
<path d="M360.149 129.575H221.92V178.244H360.149V129.575Z" fill="#443127"/>
<path d="M514.862 77.4053H376.633V126.074H514.862V77.4053Z" fill="#443127"/>
<path d="M376.633 211.522L453.816 221.332V153.043L376.633 162.853V211.522Z" fill="#443127"/>
<path d="M438.257 188.5L421.228 169.706V177.897L385.651 179.301V197.137L421.228 198.904V207.096L438.257 188.5Z" fill="#FCCC4F" stroke="#263238" stroke-linecap="round" stroke-linejoin="round"/>
<path d="M493.786 98.2142L467.508 83.0371V89.6926H398.27V106.736H467.508V113.375L493.786 98.2142Z" fill="#FCCC4F" stroke="#263238" stroke-linecap="round" stroke-linejoin="round"/>
<path d="M244.085 154.265L270.347 139.104V145.743H339.602V162.787H270.347V169.426L244.085 154.265Z" fill="#FCCC4F" stroke="#263238" stroke-linecap="round" stroke-linejoin="round"/>
<path d="M583.225 178.426C614.86 178.426 640.505 152.784 640.505 121.153C640.505 89.522 614.86 63.8799 583.225 63.8799C551.59 63.8799 525.945 89.522 525.945 121.153C525.945 152.784 551.59 178.426 583.225 178.426Z" stroke="#492D21" stroke-linecap="round" stroke-linejoin="round"/>
<path d="M620.883 158.955C617.033 162.762 612.628 165.964 607.818 168.451" stroke="#492D21" stroke-linecap="round" stroke-linejoin="round"/>
<path d="M600.221 171.755C588.361 175.733 575.481 175.416 563.831 170.86C552.181 166.304 542.504 157.798 536.491 146.83C530.478 135.862 528.512 123.13 530.937 110.86C533.362 98.5895 540.023 87.5619 549.757 79.7051C559.49 71.8483 571.675 67.6623 584.183 67.8791C596.69 68.0959 608.723 72.7016 618.178 80.891C627.633 89.0804 633.908 100.332 635.906 112.679C637.904 125.026 635.498 137.683 629.109 148.436" stroke="#492D21" stroke-linecap="round" stroke-linejoin="round"/>
<path d="M583.225 125.38C585.56 125.38 587.453 123.488 587.453 121.153C587.453 118.818 585.56 116.925 583.225 116.925C580.89 116.925 578.997 118.818 578.997 121.153C578.997 123.488 580.89 125.38 583.225 125.38Z" fill="#263238" stroke="#492D21" stroke-linecap="round" stroke-linejoin="round"/>
<path d="M589.303 144.884L583.225 121.153L618.703 96.8594" stroke="#492D21" stroke-linecap="round" stroke-linejoin="round"/>
<path d="M206.823 269.736V354.358H143.795" stroke="#492D21" stroke-linecap="round" stroke-linejoin="round"/>
<path d="M92.0811 341.064V246.665H206.823V262.272" stroke="#492D21" stroke-linecap="round" stroke-linejoin="round"/>
<path d="M134.744 354.358H92.0811V347.455" stroke="#492D21" stroke-linecap="round" stroke-linejoin="round"/>
<path d="M110.25 273.172H99.0513V284.369H110.25V273.172Z" stroke="#492D21" stroke-linecap="round" stroke-linejoin="round"/>
<path d="M125.181 273.172H113.982V284.369H125.181V273.172Z" stroke="#492D21" stroke-linecap="round" stroke-linejoin="round"/>
<path d="M140.112 273.172H128.914V284.369H140.112V273.172Z" stroke="#492D21" stroke-linecap="round" stroke-linejoin="round"/>
<path d="M155.043 273.172H143.845V284.369H155.043V273.172Z" stroke="#492D21" stroke-linecap="round" stroke-linejoin="round"/>
<path d="M169.974 273.172H158.776V284.369H169.974V273.172Z" stroke="#492D21" stroke-linecap="round" stroke-linejoin="round"/>
<path d="M184.906 273.172H173.707V284.369H184.906V273.172Z" stroke="#492D21" stroke-linecap="round" stroke-linejoin="round"/>
<path d="M199.837 273.172H188.638V284.369H199.837V273.172Z" stroke="#492D21" stroke-linecap="round" stroke-linejoin="round"/>
<path d="M110.25 290.842H99.0513V302.039H110.25V290.842Z" stroke="#492D21" stroke-linecap="round" stroke-linejoin="round"/>
<path d="M125.181 290.842H113.982V302.039H125.181V290.842Z" stroke="#492D21" stroke-linecap="round" stroke-linejoin="round"/>
<path d="M140.112 290.842H128.914V302.039H140.112V290.842Z" stroke="#492D21" stroke-linecap="round" stroke-linejoin="round"/>
<path d="M155.043 290.842H143.845V302.039H155.043V290.842Z" stroke="#492D21" stroke-linecap="round" stroke-linejoin="round"/>
<path d="M169.974 290.842H158.776V302.039H169.974V290.842Z" stroke="#492D21" stroke-linecap="round" stroke-linejoin="round"/>
<path d="M184.906 290.842H173.707V302.039H184.906V290.842Z" stroke="#492D21" stroke-linecap="round" stroke-linejoin="round"/>
<path d="M199.837 290.842H188.638V302.039H199.837V290.842Z" stroke="#492D21" stroke-linecap="round" stroke-linejoin="round"/>
<path d="M110.25 308.513H99.0513V319.71H110.25V308.513Z" stroke="#492D21" stroke-linecap="round" stroke-linejoin="round"/>
<path d="M125.181 308.513H113.982V319.71H125.181V308.513Z" stroke="#492D21" stroke-linecap="round" stroke-linejoin="round"/>
<path d="M140.112 308.513H128.914V319.71H140.112V308.513Z" stroke="#492D21" stroke-linecap="round" stroke-linejoin="round"/>
<path d="M155.043 308.513H143.845V319.71H155.043V308.513Z" stroke="#492D21" stroke-linecap="round" stroke-linejoin="round"/>
<path d="M169.974 308.514H158.776V319.711H169.974V308.514Z" stroke="#492D21" stroke-linecap="round" stroke-linejoin="round"/>
<path d="M184.906 308.513H173.707V319.71H184.906V308.513Z" stroke="#492D21" stroke-linecap="round" stroke-linejoin="round"/>
<path d="M199.837 308.513H188.638V319.71H199.837V308.513Z" stroke="#492D21" stroke-linecap="round" stroke-linejoin="round"/>
<path d="M110.25 326.184H99.0513V337.381H110.25V326.184Z" stroke="#492D21" stroke-linecap="round" stroke-linejoin="round"/>
<path d="M125.181 326.184H113.982V337.381H125.181V326.184Z" stroke="#492D21" stroke-linecap="round" stroke-linejoin="round"/>
<path d="M140.112 326.184H128.914V337.381H140.112V326.184Z" stroke="#492D21" stroke-linecap="round" stroke-linejoin="round"/>
<path d="M155.043 326.184H143.845V337.381H155.043V326.184Z" stroke="#492D21" stroke-linecap="round" stroke-linejoin="round"/>
<path d="M169.974 326.184H158.776V337.381H169.974V326.184Z" stroke="#492D21" stroke-linecap="round" stroke-linejoin="round"/>
<path d="M184.906 326.184H173.707V337.381H184.906V326.184Z" stroke="#492D21" stroke-linecap="round" stroke-linejoin="round"/>
<path d="M199.837 326.184H188.638V337.381H199.837V326.184Z" stroke="#492D21" stroke-linecap="round" stroke-linejoin="round"/>
<path d="M112.314 254.328H107.359V236.162H112.314V254.328ZM132.134 236.162H127.179V254.328H132.134V236.162ZM151.955 236.162H146.999V254.328H151.955V236.162ZM171.775 236.162H166.82V254.328H171.775V236.162ZM191.595 236.162H186.64V254.328H191.595V236.162Z" fill="#263238" stroke="#492D21" stroke-linecap="round" stroke-linejoin="round"/>
<path d="M149.444 426.742C140.789 426.749 132.33 429.321 125.136 434.134C117.942 438.947 112.338 445.784 109.03 453.781C105.722 461.779 104.86 470.577 106.553 479.065C108.245 487.552 112.416 495.347 118.539 501.464C124.662 507.581 132.461 511.746 140.95 513.432C149.44 515.118 158.239 514.249 166.235 510.936C174.23 507.623 181.064 502.013 185.872 494.817C190.68 487.621 193.247 479.161 193.247 470.506C193.247 464.756 192.113 459.063 189.912 453.751C187.71 448.439 184.483 443.613 180.415 439.549C176.347 435.484 171.518 432.261 166.204 430.064C160.89 427.867 155.195 426.738 149.444 426.742V426.742ZM149.444 498.185C143.97 498.182 138.619 496.556 134.069 493.512C129.519 490.469 125.974 486.145 123.881 481.087C121.788 476.029 121.242 470.464 122.312 465.096C123.382 459.728 126.02 454.798 129.892 450.929C133.764 447.059 138.697 444.425 144.066 443.358C149.435 442.292 155.001 442.841 160.058 444.936C165.115 447.032 169.438 450.579 172.479 455.131C175.52 459.682 177.143 465.033 177.143 470.506C177.143 474.143 176.426 477.743 175.034 481.102C173.642 484.462 171.601 487.514 169.029 490.084C166.457 492.655 163.403 494.693 160.043 496.083C156.682 497.473 153.081 498.187 149.444 498.185V498.185Z" stroke="#492D21" stroke-linecap="round" stroke-linejoin="round"/>
<path d="M150.303 426.775V442.861C155.686 443.024 160.904 444.755 165.317 447.842C169.73 450.928 173.145 455.237 175.143 460.237C177.141 465.238 177.635 470.713 176.564 475.991C175.494 481.268 172.905 486.118 169.116 489.944L181.734 500.002C187.406 493.798 191.17 486.091 192.574 477.803C193.979 469.516 192.964 460.999 189.653 453.273C186.342 445.547 180.874 438.938 173.904 434.239C166.934 429.54 158.757 426.948 150.353 426.775H150.303Z" stroke="#492D21" stroke-linecap="round" stroke-linejoin="round"/>
<path d="M133.373 468.723H164.639" stroke="#492D21" stroke-linecap="round" stroke-linejoin="round"/>
<path d="M133.373 476.75H164.639" stroke="#492D21" stroke-linecap="round" stroke-linejoin="round"/>
<path d="M546.442 274.08H631.57" stroke="#492D21" stroke-linecap="round" stroke-linejoin="round"/>
<path d="M512.5 274.08H521.27" stroke="#492D21" stroke-linecap="round" stroke-linejoin="round"/>
<path d="M574.785 287.589H631.57" stroke="#492D21" stroke-linecap="round" stroke-linejoin="round"/>
<path d="M512.5 287.589H521.964" stroke="#492D21" stroke-linecap="round" stroke-linejoin="round"/>
<path d="M602.104 301.098H631.57" stroke="#492D21" stroke-linecap="round" stroke-linejoin="round"/>
<path d="M512.5 301.098H521.27" stroke="#492D21" stroke-linecap="round" stroke-linejoin="round"/>
<path d="M626.301 314.607H631.57" stroke="#492D21" stroke-linecap="round" stroke-linejoin="round"/>
<path d="M512.5 314.607H521.27" stroke="#492D21" stroke-linecap="round" stroke-linejoin="round"/>
<path d="M626.301 330.329H631.57" stroke="#492D21" stroke-linecap="round" stroke-linejoin="round"/>
<path d="M512.5 330.329H521.27" stroke="#492D21" stroke-linecap="round" stroke-linejoin="round"/>
<path d="M626.301 346.035H631.57" stroke="#492D21" stroke-linecap="round" stroke-linejoin="round"/>
<path d="M512.5 346.035H521.27" stroke="#492D21" stroke-linecap="round" stroke-linejoin="round"/>
<path d="M543.238 264.732H523.5V347.471H543.238V264.732Z" stroke="#492D21" stroke-linecap="round" stroke-linejoin="round"/>
<path d="M570.259 280.322H550.522V347.488H570.259V280.322Z" stroke="#492D21" stroke-linecap="round" stroke-linejoin="round"/>
<path d="M597.281 294.855H577.543V347.472H597.281V294.855Z" stroke="#492D21" stroke-linecap="round" stroke-linejoin="round"/>
<path d="M624.302 313.566H604.565V347.488H624.302V313.566Z" stroke="#492D21" stroke-linecap="round" stroke-linejoin="round"/>
<path d="M178.382 79.1388C168.3 71.7334 155.751 68.4995 143.346 70.1096C130.94 71.7198 119.633 78.0501 111.776 87.7838C103.92 97.5174 100.119 109.905 101.164 122.369C102.209 134.834 108.02 146.415 117.388 154.705C126.756 162.994 138.96 167.354 151.46 166.876C163.961 166.398 175.796 161.12 184.503 152.139C193.211 143.159 198.12 131.167 198.211 118.659C198.301 106.152 193.565 94.0904 184.988 84.985" stroke="#492D21" stroke-linecap="round" stroke-linejoin="round"/>
<path d="M126.601 140.244C132.298 146.085 140.025 149.508 148.179 149.803C156.333 150.098 164.288 147.243 170.392 141.83C176.496 136.417 180.282 128.861 180.963 120.731C181.644 112.601 179.168 104.522 174.049 98.1686C168.93 91.8156 161.561 87.6773 153.471 86.6125C145.382 85.5477 137.193 87.6382 130.604 92.4501C124.015 97.2621 119.532 104.426 118.086 112.455C116.639 120.484 118.34 128.762 122.835 135.57" stroke="#492D21" stroke-linecap="round" stroke-linejoin="round"/>
<path d="M149.444 134.661C158.63 134.661 166.076 127.215 166.076 118.031C166.076 108.846 158.63 101.4 149.444 101.4C140.258 101.4 132.812 108.846 132.812 118.031C132.812 127.215 140.258 134.661 149.444 134.661Z" stroke="#492D21" stroke-linecap="round" stroke-linejoin="round"/>
<path d="M572.555 448.773C577.907 449.516 580.351 453.727 580.351 459.574V460.763H575.759V459.26C575.759 455.362 574.19 452.968 570.672 452.968C567.154 452.968 565.717 455.362 565.717 459.26C565.717 469.169 580.483 469.169 580.483 481.555C580.483 487.467 577.973 491.662 572.621 492.422V495.725H568.608V492.422C563.141 491.662 560.696 487.467 560.696 481.555V478.929H565.271V481.951C565.271 485.915 566.923 488.177 570.424 488.177C573.926 488.177 575.578 485.915 575.578 481.951C575.578 472.158 560.878 472.042 560.878 459.656C560.878 453.628 563.322 449.747 568.608 448.856V445.338H572.621L572.555 448.773Z" fill="#263238" stroke="#492D21" stroke-miterlimit="10"/>
<path d="M586.594 507.698C589.683 506.352 592.595 504.633 595.266 502.578" stroke="#492D21" stroke-linecap="round" stroke-linejoin="round"/>
<path d="M556.187 432.688C546.61 436.266 538.739 443.332 534.152 452.468C529.565 461.604 528.601 472.136 531.452 481.953C534.304 491.771 540.76 500.148 549.528 505.406C558.296 510.664 568.728 512.415 578.732 510.307" stroke="#492D21" stroke-linecap="round" stroke-linejoin="round"/>
<path d="M600.353 497.888C605.674 492.098 609.194 484.883 610.483 477.126C611.772 469.368 610.773 461.403 607.61 454.203C604.447 447.003 599.255 440.88 592.669 436.582C586.084 432.283 578.388 429.995 570.524 429.996C567.183 429.998 563.855 430.409 560.614 431.218" stroke="#492D21" stroke-linecap="round" stroke-linejoin="round"/>
<path d="M593.101 494.852C606.559 482.388 607.362 461.375 594.896 447.919C582.43 434.463 561.415 433.659 547.957 446.124C534.499 458.589 533.696 479.602 546.162 493.057C558.628 506.513 579.644 507.317 593.101 494.852Z" stroke="#492D21" stroke-linecap="round" stroke-linejoin="round"/>
<path d="M408.213 337.513L409.352 337.381C414.142 336.786 432.905 334.276 443.658 330.015C456.045 325.061 484.289 327.719 484.289 327.719L496.677 336.654L482.555 345.869C482.555 345.869 462.735 339.263 448.844 339.825C434.953 340.386 428.396 344.432 419.741 343.854C411.087 343.276 400.433 337.513 400.433 337.513H408.213Z" fill="#263238" stroke="#263238" stroke-linecap="round" stroke-linejoin="round"/>
<path d="M355.276 309.471V328.017H385.833V306.548L355.276 309.471Z" fill="white" stroke="#263238" stroke-linecap="round" stroke-linejoin="round"/>
<path d="M346.853 291.486C346.853 291.486 339.619 286.647 342.03 295.102C344.441 303.558 346.853 306.762 350.47 306.365C354.087 305.969 356.102 304.714 354.897 301.527C353.691 298.339 346.853 291.486 346.853 291.486Z" fill="white" stroke="#263238" stroke-linecap="round" stroke-linejoin="round"/>
<path d="M395.28 291.486C395.28 291.486 402.515 286.647 400.103 295.102C397.692 303.558 395.28 306.762 391.663 306.365C388.046 305.969 386.031 304.714 387.236 301.527C388.442 298.339 395.28 291.486 395.28 291.486Z" fill="white" stroke="#263238" stroke-linecap="round" stroke-linejoin="round"/>
<path d="M362.61 252.875C362.61 252.875 350.536 256.888 346.523 268.151C342.509 279.414 346.126 293.088 348.174 298.72C350.222 304.351 359.835 315.235 359.835 315.235H381.538C386.696 310.112 390.916 304.126 394.008 297.547C398.435 287.49 398.435 273.419 398.435 273.419C398.435 273.419 402.052 274.625 402.052 269.802C402.052 264.98 390.788 255.715 390.788 255.715C390.788 255.715 396.023 253.717 392.439 250.893C388.855 248.069 375.923 249.241 375.923 249.241C375.923 249.241 374.271 240.802 362.61 252.875Z" fill="#263238" stroke="#263238" stroke-linecap="round" stroke-linejoin="round"/>
<path d="M410.195 714.876L413.498 716.94C415.603 716.954 417.641 717.682 419.279 719.005C421.344 721.069 420.567 731.325 420.567 731.325C420.567 731.325 418.916 732.547 411.07 732.547C403.225 732.547 385.948 734.463 384.297 731.573C382.645 728.682 384.594 716.528 384.594 716.528L410.195 714.876Z" fill="#858585" stroke="#263238" stroke-linecap="round" stroke-linejoin="round"/>
<path d="M319.765 455.181C319.765 455.181 317.288 473.347 317.288 477.063C317.288 480.779 316.462 512.982 316.462 512.982C316.462 512.982 316.875 597.621 316.875 599.272C316.875 600.924 309.855 624.044 312.333 639.734C314.81 655.423 319.765 715.702 319.765 715.702C319.765 715.702 318.114 728.913 319.352 730.152C320.591 731.391 335.869 733.042 339.173 731.391C342.476 729.739 340.411 713.637 340.411 713.637C341.554 709.738 342.246 705.721 342.476 701.664V688.452C342.476 684.324 344.541 647.578 346.605 633.128C348.67 618.677 349.909 599.272 349.909 599.272L358.58 510.092L365.187 509.68C365.187 509.68 373.445 605.465 373.858 612.484C374.271 619.503 372.619 633.54 376.335 649.642C380.052 665.744 382.116 709.509 382.116 709.509C382.116 709.509 381.29 713.637 382.116 715.289C382.942 716.94 385.007 721.895 385.007 721.895C387.891 722.158 390.794 722.158 393.678 721.895C398.293 721.661 402.801 720.427 406.892 718.278C408.372 717.076 409.429 715.433 409.911 713.589C410.392 711.744 410.272 709.794 409.567 708.022C407.09 701.994 406 700.838 406 700.838C406 700.838 409.716 648.817 409.716 636.018C409.716 623.219 407.651 607.53 407.651 606.291C407.651 605.052 410.129 512.157 410.129 502.661C410.129 493.165 409.303 467.567 405.174 456.419C401.045 445.272 334.977 448.162 328.371 448.575C326.458 448.748 324.634 449.461 323.11 450.63C321.587 451.8 320.427 453.378 319.765 455.181Z" fill="#492D21" stroke="#263238" stroke-linecap="round" stroke-linejoin="round"/>
<path d="M344.128 509.465L379.639 507.813" stroke="#757575" stroke-linecap="round" stroke-linejoin="round"/>
<path d="M364.774 327.191L342.476 332.559C342.476 332.559 310.268 348.248 303.249 352.376C296.229 356.505 268.563 412.242 269.802 415.133C271.041 418.023 276.409 421.738 281.777 422.564C287.145 423.39 314.397 392.425 314.397 392.425C314.397 392.425 322.243 431.234 322.243 432.886C322.243 434.537 317.701 454.355 319.765 457.658C321.83 460.961 401.111 457.658 401.111 457.658C401.111 457.658 406.892 458.071 407.717 452.704C408.543 447.336 406.066 431.647 406.066 431.647L415.15 384.167C415.15 384.167 432.493 410.492 436.391 414.72C443.146 422.085 451.536 418.997 456.029 413.481C459.927 408.675 456.442 399.444 455.203 396.553C453.964 393.663 432.08 344.532 425.473 342.467C418.866 340.403 391.201 330.494 391.201 330.494L364.774 327.191Z" fill="white" stroke="#263238" stroke-linecap="round" stroke-linejoin="round"/>
<path d="M342.476 332.558C342.476 332.558 369.762 331.997 374.304 331.997C378.846 331.997 395.429 331.848 395.429 331.848L391.234 322.914C384.072 321.17 376.719 320.338 369.349 320.437C361.456 320.421 353.625 321.819 346.225 324.565L342.476 332.558Z" fill="white" stroke="#263238" stroke-linecap="round" stroke-linejoin="round"/>
<path d="M305.99 370.658L314.398 392.425L299.945 377.974" stroke="#263238" stroke-linecap="round" stroke-linejoin="round"/>
<path d="M303.249 363.523L304.24 366.116" stroke="#263238" stroke-linecap="round" stroke-linejoin="round"/>
<path d="M349.71 429.285C348.336 430.444 346.884 431.509 345.366 432.473" stroke="#263238" stroke-linecap="round" stroke-linejoin="round"/>
<path d="M387.484 366.826C387.484 366.826 372.371 408.113 352.155 427.122" stroke="#263238" stroke-linecap="round" stroke-linejoin="round"/>
<path d="M424.647 360.634L415.15 384.167L430.428 367.653" stroke="#263238" stroke-linecap="round" stroke-linejoin="round"/>
<path d="M266.086 425.454C268.436 431.98 272.588 437.706 278.06 441.969C287.145 448.988 311.507 472.109 311.507 472.109C311.257 473.335 311.257 474.598 311.507 475.824C311.92 477.889 318.527 483.256 318.527 483.256V479.127L320.178 475.824L321.83 471.696C323.668 470.979 325.46 470.152 327.198 469.219C328.001 468.656 328.699 467.957 329.262 467.154C331.718 467.602 334.201 467.878 336.695 467.98C339.585 467.98 343.715 465.09 341.237 464.264C338.76 463.438 336.282 464.264 332.979 462.613C329.675 460.961 328.024 459.31 324.72 459.31H316.049L293.338 422.151L266.086 425.454Z" fill="white" stroke="#263238" stroke-linecap="round" stroke-linejoin="round"/>
<path d="M275.831 400.071C275.831 400.071 271.024 401.508 269.785 402.747C268.547 403.985 262.353 413.481 263.592 418.436C264.83 423.39 266.482 430.409 277.218 432.473C287.954 434.538 293.735 429.996 294.561 428.757C295.386 427.519 297.418 412.92 295.766 412.92C294.115 412.92 289.606 418.436 289.606 418.436C289.606 418.436 277.301 415.645 274.823 413.58C272.346 411.516 275.831 400.071 275.831 400.071Z" fill="white" stroke="#263238" stroke-linecap="round" stroke-linejoin="round"/>
<path d="M465.295 425.454C462.945 431.98 458.793 437.706 453.32 441.969C444.236 448.988 419.874 472.109 419.874 472.109C420.123 473.335 420.123 474.598 419.874 475.824C419.461 477.889 410.36 484.247 410.36 484.247V478.219L409.733 474.421L409.551 471.696C407.713 470.979 405.92 470.152 404.183 469.219C403.38 468.656 402.681 467.957 402.118 467.154C399.663 467.602 397.179 467.878 394.686 467.98C391.795 467.98 387.666 465.09 390.144 464.264C392.621 463.438 395.099 464.264 398.402 462.613C401.705 460.961 403.357 459.31 406.66 459.31H415.332L438.042 422.151L465.295 425.454Z" fill="white" stroke="#263238" stroke-linecap="round" stroke-linejoin="round"/>
<path d="M457.235 402.103C457.235 402.103 460.34 401.508 461.579 402.747C462.817 403.985 469.011 413.481 467.772 418.436C466.534 423.39 464.882 430.409 454.146 432.473C443.41 434.538 437.629 429.996 436.803 428.757C435.977 427.519 435.3 413.465 436.39 414.72C437.925 416.291 439.747 417.553 441.758 418.436C441.758 418.436 454.559 417.792 456.624 410.542C457.164 407.763 457.369 404.93 457.235 402.103Z" fill="white" stroke="#263238" stroke-linecap="round" stroke-linejoin="round"/>
<path d="M339.173 731.391C341.766 730.086 341.039 719.831 340.609 715.504C337.675 716.876 334.542 717.779 331.327 718.179C327.302 718.73 323.211 717.854 319.765 715.702C319.765 715.702 318.427 729.987 319.551 731.325C320.674 732.663 335.869 733.043 339.173 731.391Z" fill="#858585" stroke="#263238" stroke-linecap="round" stroke-linejoin="round"/>
<path d="M632.181 733.059C632.011 733.055 631.85 732.986 631.73 732.866C631.61 732.746 631.541 732.584 631.537 732.415V647.215C631.522 647.121 631.527 647.024 631.553 646.932C631.579 646.84 631.624 646.755 631.686 646.682C631.748 646.609 631.825 646.551 631.912 646.511C631.999 646.471 632.093 646.45 632.189 646.45C632.285 646.45 632.379 646.471 632.466 646.511C632.553 646.551 632.63 646.609 632.692 646.682C632.754 646.755 632.799 646.84 632.825 646.932C632.851 647.024 632.856 647.121 632.841 647.215V732.415C632.837 732.587 632.766 732.751 632.642 732.871C632.519 732.992 632.353 733.059 632.181 733.059Z" fill="#BF9786"/>
<path d="M631.553 724.719C628.786 720.884 625.303 717.62 621.296 715.107C615.532 711.903 605.919 711.903 605.919 711.903C605.919 711.903 611.122 730.482 631.553 724.719Z" fill="#BF9786"/>
<path d="M632.181 724.719C634.965 720.871 638.471 717.601 642.504 715.091C648.268 711.887 657.881 711.887 657.881 711.887C657.881 711.887 652.695 730.482 632.181 724.719Z" fill="#BF9786"/>
<path d="M631.553 701.664C628.786 697.829 625.303 694.565 621.296 692.053C615.532 688.849 605.919 688.849 605.919 688.849C605.919 688.849 611.122 707.428 631.553 701.664Z" fill="#BF9786"/>
<path d="M632.181 701.664C634.948 697.829 638.431 694.565 642.438 692.053C648.202 688.849 657.815 688.849 657.815 688.849C657.815 688.849 652.695 707.428 632.181 701.664Z" fill="#BF9786"/>
<path d="M631.553 678.61C628.786 674.774 625.303 671.51 621.296 668.998C615.532 665.794 605.919 665.794 605.919 665.794C605.919 665.794 611.122 684.373 631.553 678.61Z" fill="#BF9786"/>
<path d="M632.181 678.61C634.948 674.774 638.431 671.51 642.438 668.998C648.202 665.794 657.815 665.794 657.815 665.794C657.815 665.794 652.695 684.373 632.181 678.61Z" fill="#BF9786"/>
<path d="M631.553 655.538C628.783 651.71 625.301 648.452 621.296 645.943C615.532 642.739 605.919 642.739 605.919 642.739C605.919 642.739 611.122 661.302 631.553 655.538Z" fill="#BF9786"/>
<path d="M632.181 655.538C634.95 651.71 638.433 648.452 642.438 645.943C648.202 642.739 657.815 642.739 657.815 642.739C657.815 642.739 652.695 661.302 632.181 655.538Z" fill="#BF9786"/>
<path d="M632.181 647.215C632.181 647.215 627.061 640.328 626.796 633.739C626.532 627.149 630.876 618.562 630.876 618.562C630.876 618.562 646.583 631.526 632.181 647.215Z" fill="#BF9786"/>
<path d="M67.7187 733.059C67.5304 733.059 67.3497 732.984 67.2165 732.851C67.0833 732.718 67.0085 732.537 67.0085 732.349V640.262C66.9929 640.161 66.9994 640.058 67.0276 639.959C67.0557 639.861 67.1048 639.77 67.1714 639.692C67.2381 639.614 67.3208 639.552 67.4138 639.509C67.5069 639.466 67.6081 639.444 67.7105 639.444C67.8129 639.444 67.9141 639.466 68.0071 639.509C68.1001 639.552 68.1828 639.614 68.2495 639.692C68.3162 639.77 68.3653 639.861 68.3934 639.959C68.4215 640.058 68.428 640.161 68.4124 640.262V732.349C68.4146 732.441 68.3983 732.533 68.3644 732.619C68.3306 732.706 68.2798 732.784 68.2152 732.85C68.1505 732.916 68.0733 732.969 67.9881 733.005C67.9028 733.041 67.8112 733.059 67.7187 733.059Z" fill="#BF9786"/>
<path d="M66.9592 724.042C63.9673 719.899 60.2043 716.372 55.8764 713.654C49.6496 710.137 39.2605 710.137 39.2605 710.137C39.2605 710.137 44.7936 730.285 66.9592 724.042Z" fill="#BF9786"/>
<path d="M67.7188 724.042C70.7039 719.899 74.4615 716.372 78.785 713.654C84.9623 710.137 95.3514 710.137 95.3514 710.137C95.3514 710.137 89.8017 730.285 67.7188 724.042Z" fill="#BF9786"/>
<path d="M66.9592 699.121C63.9738 694.955 60.2104 691.405 55.8764 688.667C49.6496 685.199 39.2605 685.199 39.2605 685.199C39.2605 685.199 44.7936 705.347 66.9592 699.121Z" fill="#BF9786"/>
<path d="M67.7188 699.121C70.7039 694.978 74.4615 691.45 78.785 688.733C85.0284 685.265 95.4174 685.265 95.4174 685.265C95.4174 685.265 89.8017 705.347 67.7188 699.121Z" fill="#BF9786"/>
<path d="M66.9592 674.2C63.9642 670.082 60.2008 666.583 55.8764 663.895C49.6496 660.427 39.2605 660.427 39.2605 660.427C39.2605 660.427 44.7936 680.41 66.9592 674.2Z" fill="#BF9786"/>
<path d="M67.7188 674.2C70.6972 670.051 74.4561 666.522 78.785 663.812C85.0284 660.344 95.4174 660.344 95.4174 660.344C95.4174 660.344 89.8017 680.409 67.7188 674.2Z" fill="#BF9786"/>
<path d="M66.9592 649.263C63.9695 645.123 60.2059 641.601 55.8764 638.892C49.6496 635.424 39.2605 635.424 39.2605 635.424C39.2605 635.424 44.7936 655.506 66.9592 649.263Z" fill="#BF9786"/>
<path d="M67.7188 649.263C70.7001 645.121 74.4587 641.599 78.785 638.892C85.0284 635.424 95.4174 635.424 95.4174 635.424C95.4174 635.424 89.8017 655.506 67.7188 649.263Z" fill="#BF9786"/>
<path d="M67.7188 640.262C67.7188 640.262 62.1691 632.814 61.8883 625.696C61.6076 618.578 66.2983 609.297 66.2983 609.297C66.2983 609.297 83.195 623.302 67.7188 640.262Z" fill="#BF9786"/>
<path d="M127.179 732.663V690.765C127.175 690.578 127.099 690.4 126.967 690.267C126.834 690.135 126.656 690.059 126.469 690.055C126.281 690.055 126.1 690.13 125.967 690.263C125.834 690.396 125.759 690.576 125.759 690.765V732.663H127.179Z" fill="#BF9786"/>
<path d="M125.759 724.702C122.772 720.554 119.008 717.026 114.676 714.314C108.449 710.846 98.0603 710.846 98.0603 710.846C98.0603 710.846 103.593 730.928 125.759 724.702Z" fill="#BF9786"/>
<path d="M126.453 724.702C129.431 720.553 133.19 717.024 137.519 714.314C143.762 710.846 154.151 710.846 154.151 710.846C154.151 710.846 148.651 730.928 126.453 724.702Z" fill="#BF9786"/>
<path d="M125.759 699.765C122.767 695.622 119.004 692.095 114.676 689.377C108.449 685.926 98.0603 685.926 98.0603 685.926C98.0603 685.926 103.593 706.008 125.759 699.765Z" fill="#BF9786"/>
<path d="M126.453 699.765C129.438 695.622 133.195 692.095 137.519 689.377C143.762 685.926 154.151 685.926 154.151 685.926C154.151 685.926 148.651 706.008 126.453 699.765Z" fill="#BF9786"/>
<path d="M126.453 690.764C126.453 690.764 120.903 683.316 120.622 676.198C120.341 669.08 125.032 659.799 125.032 659.799C125.032 659.799 142.045 673.803 126.453 690.764Z" fill="#BF9786"/>
<path d="M575.924 732.679V693.935C575.927 693.849 575.912 693.764 575.88 693.683C575.849 693.603 575.802 693.53 575.742 693.469C575.682 693.407 575.61 693.358 575.531 693.325C575.451 693.292 575.366 693.274 575.28 693.274C575.105 693.274 574.937 693.344 574.813 693.468C574.689 693.592 574.62 693.76 574.62 693.935V732.679H575.924Z" fill="#BF9786"/>
<path d="M574.636 725.313C571.867 721.485 568.384 718.227 564.379 715.718C558.615 712.514 549.002 712.514 549.002 712.514C549.002 712.514 554.139 731.094 574.636 725.313Z" fill="#BF9786"/>
<path d="M575.28 725.313C578.042 721.483 581.519 718.225 585.521 715.718C591.285 712.514 600.898 712.514 600.898 712.514C600.898 712.514 595.778 731.094 575.28 725.313Z" fill="#BF9786"/>
<path d="M574.636 702.259C571.869 698.423 568.386 695.16 564.379 692.647C558.615 689.46 549.002 689.46 549.002 689.46C549.002 689.46 554.139 708.022 574.636 702.259Z" fill="#BF9786"/>
<path d="M575.28 702.259C578.039 698.422 581.517 695.158 585.521 692.647C591.285 689.46 600.898 689.46 600.898 689.46C600.898 689.46 595.778 708.022 575.28 702.259Z" fill="#BF9786"/>
<path d="M575.28 693.935C575.28 693.935 570.144 687.016 569.83 680.41C569.516 673.804 573.893 665.249 573.893 665.249C573.893 665.249 589.65 678.246 575.28 693.935Z" fill="#BF9786"/>
<path d="M687.496 732.679V693.935C687.496 693.76 687.426 693.592 687.302 693.468C687.178 693.344 687.01 693.274 686.835 693.274C686.66 693.274 686.492 693.344 686.368 693.468C686.244 693.592 686.174 693.76 686.174 693.935V732.679H687.496Z" fill="#BF9786"/>
<path d="M686.191 725.313C683.426 721.48 679.943 718.222 675.934 715.718C670.169 712.514 660.573 712.514 660.573 712.514C660.573 712.514 665.627 731.094 686.191 725.313Z" fill="#BF9786"/>
<path d="M686.835 725.313C689.596 721.483 693.074 718.225 697.075 715.718C702.84 712.514 712.453 712.514 712.453 712.514C712.453 712.514 707.332 731.094 686.835 725.313Z" fill="#BF9786"/>
<path d="M686.191 702.259C683.43 698.418 679.946 695.153 675.934 692.647C670.169 689.46 660.573 689.46 660.573 689.46C660.573 689.46 665.627 708.022 686.191 702.259Z" fill="#BF9786"/>
<path d="M686.835 702.259C689.594 698.422 693.072 695.158 697.075 692.647C702.84 689.46 712.453 689.46 712.453 689.46C712.453 689.46 707.332 708.022 686.835 702.259Z" fill="#BF9786"/>
<path d="M686.835 693.935C686.835 693.935 681.698 687.032 681.45 680.443C681.202 673.853 685.513 665.282 685.513 665.282C685.513 665.282 701.221 678.246 686.835 693.935Z" fill="#BF9786"/>
</svg>
