<svg width="655" height="375" viewBox="0 0 655 375" fill="none" xmlns="http://www.w3.org/2000/svg">
<path d="M56.4344 373.884C-7.56891 305.745 -17.1322 239.893 27.7471 176.333C52.8678 140.755 116.999 120.777 175.951 136.985C210.773 146.557 263.582 145.144 315.183 60.763C385.552 -54.3145 677.665 -1.98887 620.646 199.63C596.628 284.557 686.148 288.422 641.805 374.067L56.4344 373.884Z" fill="white"/>
<path d="M576.26 169.13L367.139 344.387L257.114 250.492C236.522 268.657 204.717 296.699 172.72 324.835C150.856 344.065 133.152 359.602 118.806 372.178L18.8706 372.061C46.5833 348.425 158.164 250.199 233.338 183.816L256.323 163.519L367.545 258.439L530.796 121.62L576.26 169.13Z" fill="#F1EFEF"/>
<path d="M501.194 94.5572L597.706 197.61L629.299 84.1918L501.194 94.5572Z" fill="#F1EFEF"/>
<path d="M169.664 221.025L169.658 222.185C169.867 224.601 168.49 225.985 165.527 226.338C161.081 226.869 157.435 226.799 157.556 224.003C157.957 221.837 158.674 218.475 158.704 216.684C158.714 216.018 158.669 215.312 158.546 214.513L167.16 214.341L169.697 214.757L169.664 221.025Z" fill="#FFB27D"/>
<path d="M169.696 214.757L169.662 221.025C168.748 221.452 167.714 221.714 166.557 221.714C162.598 221.714 160.039 218.799 158.702 216.684C158.713 216.018 158.667 215.312 158.544 214.513L167.158 214.341L169.696 214.757Z" fill="#E2915A"/>
<path d="M157.884 213.122C158.884 218.522 165.824 218.345 168.824 218.006C169.387 217.942 169.845 217.874 170.199 217.802C171.151 217.547 171.682 216.042 171.929 214.071C172.418 210.17 171.799 204.443 171.143 202.977C170.155 200.774 168.294 198.39 161.305 200.11C154.313 201.832 156.602 206.203 157.884 213.122Z" fill="#FFB27D"/>
<path d="M152.202 373.002H162.037C161.964 372.484 161.713 370.909 161.252 369.458C161.093 368.953 160.907 368.461 160.696 368.036C160.058 366.758 157.714 366.525 153.663 367.339C153.288 367.661 152.953 368.441 152.659 369.677C152.464 370.494 152.291 371.578 152.202 373.002Z" fill="#233862"/>
<path d="M181.925 369.886C181.952 371.23 182.12 372.5 182.606 373.002H202.06C201.813 372.296 201.112 371.233 199.114 370.907C196.845 370.538 193.308 369.442 191.243 367.249C190.507 366.471 189.959 365.553 189.718 364.479C189.108 361.751 186.586 362.17 182.151 365.732C181.971 367.168 181.897 368.553 181.925 369.886Z" fill="#233862"/>
<path d="M168.985 325.665C169.256 327.163 169.428 328.391 169.474 329.273C170.092 341.383 179.627 369.073 181.333 369.718C183.972 370.719 188.128 368.593 190.302 367.897C191.203 367.609 191.812 366.696 191.611 365.771C186.889 343.977 185.154 312.593 184.522 294.012C184.31 287.773 183.67 282.499 182.603 278.189C167.098 274.036 159.298 274.586 159.206 279.839C159.085 286.814 166.912 314.161 168.985 325.665Z" fill="#492D21"/>
<path d="M168.985 325.665L184.522 294.012C184.31 287.773 183.67 282.499 182.603 278.189C167.098 274.036 159.298 274.586 159.206 279.839C159.085 286.814 166.912 314.161 168.985 325.665Z" fill="#553426"/>
<path d="M174.16 279.867L161.865 369.326C158.265 370.198 155.066 370.285 152.266 369.588C149.866 337.869 148.767 318.175 148.967 310.507C149.266 299.004 146.383 279.727 149.624 277.601C151.785 276.185 159.964 276.94 174.16 279.867Z" fill="#492D21"/>
<path d="M173.287 197.838C171.237 197.68 169.002 197.072 166.583 196.016C163.637 194.73 159.922 196.146 158.716 196.785C158.748 196.589 158.825 196.322 159.009 196.055C158.648 196.313 158.442 196.621 158.388 196.98C158.332 197.022 158.308 197.049 158.321 197.06C157.912 196.984 157.576 197.006 157.314 197.125C157.498 197.098 157.622 197.144 157.688 197.263C157.699 197.282 157.714 197.299 157.733 197.312C153.138 199.541 152.714 206.83 154.193 208.517C155.379 209.87 156.682 212.069 158.104 215.116C158.623 214.396 158.774 213.442 158.558 212.251C158.235 210.465 159.771 210.465 161.711 209.653C163.652 208.841 162.035 206.569 163.733 205.188C165.431 203.809 171.657 204.62 171.576 203.565C173.887 202.721 173.287 198.075 173.287 197.838Z" fill="#492D21"/>
<path d="M156.509 225.556L159.34 286.531C175.09 286.79 182.74 285.129 182.29 281.55C181.84 277.972 179.003 259.93 173.775 227.423L156.509 225.556Z" fill="#E9F3FE"/>
<path d="M148.071 260.119C149.477 264.352 146.827 278.556 145.881 283.368C145.744 284.047 145.629 284.587 145.536 284.988C147.718 288.55 152.803 290.309 160.792 290.263C162.327 283.445 163.494 274.608 164.294 263.751L155.099 223.288L143.531 234.024C144.115 238.388 144.768 242.791 145.49 247.233C146.343 252.507 147.31 257.875 148.071 260.119Z" fill="#BF9786"/>
<path d="M167.733 214.01C167.883 214.473 168.542 214.621 169.709 214.452C170.69 214.309 171.144 213.98 171.071 213.462C170.085 213.17 168.973 213.352 167.733 214.01Z" fill="white"/>
<path fill-rule="evenodd" clip-rule="evenodd" d="M181.014 226.425C181.015 226.432 181.017 226.44 181.018 226.451C181.577 226.994 197.349 242.367 200.404 248.389C202.479 252.46 197.74 258.552 186.187 266.664C185.444 266.96 184.813 267.049 184.297 266.934C185.115 273.688 186.033 279.918 185.489 282.578C184.507 287.386 180.077 289 180.077 288.631C180.077 288.513 178.936 271.101 177.577 262.107C175.567 248.799 173.363 235.901 170.966 223.412C174.404 223.77 177.754 224.775 181.014 226.425ZM190.405 251.026C190.428 251.003 190.428 250.957 190.428 250.934C190.428 250.055 187.085 248.111 183.468 245.821C183.437 245.791 183.414 245.766 183.398 245.751C183.397 245.75 183.394 245.747 183.391 245.746C183.456 247.617 183.449 249.453 183.338 251.163C183.133 254.331 183.363 258.12 183.744 261.977C185.467 259.278 190.067 252.021 190.405 251.026Z" fill="#DFCBC2"/>
<path d="M155.836 223.216C155.817 222.828 156.722 222.366 158.552 221.83C160.648 224.745 163.421 226.229 166.873 226.279C165.889 228.201 164.818 229.411 163.659 229.908C158.558 227.75 155.95 225.519 155.836 223.216Z" fill="#D9E9F9"/>
<path d="M174.145 267.491C174.018 268.914 173.368 270.242 172.319 271.211L170.672 272.734C170.259 273.118 169.608 273.065 169.26 272.621L167.219 270.019C166.672 269.321 166.415 268.438 166.499 267.554C166.689 265.586 167.045 261.793 167.33 258.131C167.562 255.166 167.747 252.283 167.762 250.53C167.791 246.799 167.438 238.984 166.7 227.083L168.036 227.154C170.25 231.773 171.935 237.225 173.094 243.509C173.523 245.831 173.854 248.301 174.019 250.858C174.484 257.655 174.525 263.199 174.145 267.491Z" fill="#E9A788"/>
<path d="M174.144 267.491C174.017 268.915 173.367 270.242 172.318 271.212L170.671 272.734C170.258 273.118 169.607 273.065 169.259 272.622L167.218 270.02C166.671 269.322 166.414 268.439 166.498 267.555C166.688 265.586 167.044 261.794 167.329 258.132C171.022 253.966 172.519 248.208 173.093 243.51C173.522 245.831 173.853 248.301 174.018 250.859C174.483 257.656 174.524 263.2 174.144 267.491Z" fill="#EEA886"/>
<path d="M166.875 226.177C168.703 225.089 169.62 223.955 169.626 222.775C170.807 222.626 171.656 222.841 172.171 223.415C172.605 225.437 172.535 227.036 171.959 228.21C169.326 227.807 167.631 227.129 166.875 226.177Z" fill="#D9E9F9"/>
<path d="M165.01 225.914L168.73 225.02C169.054 225.048 169.211 225.265 169.203 225.67C169.189 226.279 168.154 228.055 167.697 228.198C167.239 228.34 164.131 227.146 165.01 225.914Z" fill="#EEA886"/>
<path d="M156.271 222.915C156.251 222.527 156.861 221.933 158.1 221.135C160.498 223.948 163.422 225.38 166.874 225.43C165.89 227.351 164.819 228.562 163.66 229.06C158.848 227.267 156.384 225.219 156.271 222.915Z" fill="#E9F3FE"/>
<path d="M166.875 225.43C168.723 224.445 169.651 223.363 169.658 222.184C170.774 222.677 171.589 223.211 172.105 223.786C172.583 225.062 172.535 226.288 171.959 227.462C169.326 227.059 167.631 226.381 166.875 225.43Z" fill="#E9F3FE"/>
<path d="M187.29 267.655C187.29 266.101 185.928 264.854 184.398 265.087C183.973 265.152 183.589 265.328 183.324 265.682C182.271 267.089 181.269 271.185 183.135 271.377C183.894 271.455 184.871 270.92 185.622 270.346C186.386 269.763 187.29 268.852 187.29 267.889V267.655Z" fill="#FFB27D"/>
<path d="M145.881 283.368C149.27 279.829 155.122 272.865 154.915 267.15C154.73 261.815 151.589 255.175 145.49 247.232C146.343 252.507 147.31 257.875 148.071 260.119C149.477 264.352 146.827 278.556 145.881 283.368Z" fill="#BF9786"/>
<path d="M145.988 269.445C147.611 270.26 148.916 270.464 149.902 270.055C151.381 269.445 153.119 268.986 154.772 270.874C156.424 272.763 156.772 274.073 156.424 274.771C156.077 275.469 152.224 275.208 151.585 274.771C150.946 274.335 149.934 273.259 149.293 273.446C147.524 273.963 146.032 272.609 145.199 271.529C144.695 270.877 146.054 270.563 145.988 269.445Z" fill="#FFB27D"/>
<path d="M155.099 223.288C148.634 224.007 144.638 225.78 143.113 228.607C140.825 232.847 128.931 250.033 129.321 257.174C129.58 261.936 134.989 266.985 145.545 272.325C147.885 271.332 149.07 270.303 149.106 269.236C149.158 267.635 138.158 258.068 138.825 256.282C139.492 254.496 151.604 240.375 152.774 235.719C153.553 232.614 154.328 228.47 155.099 223.288Z" fill="#BF9786"/>
<path d="M183.396 245.752C183.413 245.767 183.436 245.791 183.467 245.821C187.084 248.111 190.426 250.056 190.426 250.934C190.91 249.384 186.208 242.906 184.688 241.588C183.659 240.693 183.228 242.082 183.396 245.752Z" fill="#233862"/>
<path d="M158.098 221.135C163.007 241.775 165.071 255.983 164.29 263.759C162.484 255.451 159.41 247.893 155.067 241.086C156.653 239.687 157.402 238.73 157.316 238.213C156.139 237.864 154.98 237.807 153.838 238.042C153.965 229.145 154.384 224.226 155.095 223.287C155.807 222.346 156.808 221.628 158.098 221.135Z" fill="#906A5A"/>
<path d="M169.657 222.185C169.557 222.232 176.954 252.439 177.575 262.108C177.084 250.605 176.862 243.197 176.911 239.881C174.871 238.798 173.852 238.066 173.852 237.686C173.852 237.305 174.94 236.602 177.115 235.574C175.737 228.489 174.673 224.557 173.922 223.776C173.17 222.997 171.747 222.465 169.657 222.185Z" fill="#906A5A"/>
<path d="M177.83 310.935C177.458 301.773 176.656 293.799 175.698 288.242C174.168 279.38 172.79 274.282 172.774 274.229C172.572 273.45 169.661 270.294 163.189 270.393C158.873 270.457 156.921 271.869 157.33 274.626C157.33 274.764 157.349 274.894 157.378 274.993C157.439 275.206 163.38 296.787 163.123 324.65C163.12 325.041 163.075 325.717 163.104 326.166C163.104 326.169 178.104 326.555 178.106 326.166C178.63 323.732 178.375 316.985 177.83 310.935Z" fill="#B7D3F3"/>
<path d="M179.714 324.512C179.712 324.9 179.507 325.211 179.258 325.211H179.25C179 325.206 178.804 324.895 178.801 324.512H165.944C165.942 324.9 165.737 325.211 165.488 325.211H165.48C165.227 325.206 165.026 324.884 165.028 324.493C165.103 316.517 164.648 309.068 163.961 302.494C162.253 286.1 159.095 275.144 159.05 274.993C159.021 274.894 159.002 274.764 159.002 274.626C158.593 271.869 160.545 270.457 164.861 270.393C171.336 270.294 174.246 273.45 174.448 274.229C174.459 274.269 175.24 277.156 176.275 282.346C176.618 284.065 176.99 286.036 177.369 288.242C178.328 293.799 179.13 301.773 179.502 310.935C180.046 316.985 180.238 322.077 179.714 324.512Z" fill="#D2E3FC"/>
<path d="M164.079 325.211H214.474C213.693 322.04 203.572 320.691 184.117 321.162C170.347 321.497 163.667 322.846 164.079 325.211Z" fill="#C5DCF8"/>
<path d="M159.978 374.906C165.82 345.274 164.317 327.09 164.312 326.861C164.296 326.404 165.135 325.991 165.586 325.975C166.043 325.967 168.062 325.84 168.293 326.231C168.601 326.742 169.777 349.145 161.069 374.906H159.978Z" fill="#B7D3F3"/>
<path d="M207.029 374.906C201.186 345.274 202.69 327.09 202.698 326.861C202.711 326.404 201.872 325.991 201.42 325.975C200.963 325.967 198.948 325.84 198.714 326.231C198.409 326.742 197.229 349.145 205.94 374.906H207.029Z" fill="#B7D3F3"/>
<path d="M216.355 374.906C210.51 345.274 212.013 327.09 212.021 326.861C212.034 326.404 211.195 325.991 210.743 325.975C210.287 325.967 208.271 325.84 208.037 326.231C207.732 326.742 206.555 349.145 215.264 374.906H216.355Z" fill="#B7D3F3"/>
<path d="M169.364 374.906C175.207 345.274 173.704 327.09 173.696 326.861C173.682 326.404 174.522 325.991 174.973 325.975C175.43 325.967 177.446 325.84 177.679 326.231C177.985 326.742 179.161 349.145 170.453 374.906H169.364Z" fill="#B7D3F3"/>
<path d="M214.504 326.73H164.111C163.543 326.73 163.078 326.264 163.078 325.695V325.016C163.078 324.447 163.543 323.981 164.111 323.981H214.504C215.072 323.981 215.537 324.447 215.537 325.016V325.695C215.537 326.264 215.072 326.73 214.504 326.73Z" fill="#B7D3F3"/>
<path d="M212.736 281.138L229.489 277.504L230.474 279.912C218.151 287.257 211.414 290.75 210.259 290.391C209.103 290.032 209.929 286.946 212.736 281.138Z" fill="#FFB27D"/>
<path d="M197.506 357.036C197.087 357.517 197.034 358.055 197.241 358.629C197.241 358.632 197.243 358.635 197.246 358.637C197.628 359.699 198.898 360.888 200.372 362.072C200.56 362.223 200.728 362.364 200.874 362.492C200.911 362.524 200.951 362.559 200.985 362.593C201.015 362.62 201.044 362.646 201.073 362.67C202.446 363.939 201.931 364.229 204.398 366.805C207.213 369.739 209.152 369.792 209.704 369.526C210.169 369.298 209.221 367.741 208.172 365.993C208.121 365.908 208.071 365.823 208.018 365.738C207.88 365.504 207.739 365.27 207.601 365.036C206.371 362.931 206.687 361.941 206.979 358.81C207.136 357.113 208.453 352.372 210.931 344.587L205.537 343.656C204.454 349.855 203.314 353.431 202.122 354.386C201.166 355.149 200.093 355.16 199.174 355.724C199.11 355.764 199.044 355.804 198.983 355.846C198.46 356.192 197.929 356.551 197.506 357.036Z" fill="#FFB27D"/>
<path d="M197.506 357.035C197.087 357.517 197.034 358.054 197.241 358.629C197.241 358.631 197.243 358.634 197.246 358.637C197.716 359.698 198.954 360.88 200.377 362.061C200.563 362.215 200.728 362.359 200.874 362.492C200.911 362.524 200.951 362.558 200.985 362.593C201.015 362.619 201.044 362.646 201.073 362.67C202.446 363.939 201.931 364.229 204.398 366.804C207.213 369.739 209.152 369.792 209.704 369.526C210.169 369.297 209.221 367.741 208.172 365.993C207.625 365.791 205.078 364.756 203.155 362.287C201.458 360.121 200.329 357.336 199.174 355.724C199.11 355.764 199.044 355.803 198.983 355.846C198.46 356.192 197.929 356.551 197.506 357.035Z" fill="#492D21"/>
<path d="M241.004 353.659C241.336 355.327 243.71 355.048 246.363 354.399C249.014 353.75 248.384 354.521 252.158 354.103C255.932 353.686 257.077 352.276 257.191 351.714C257.294 351.214 255.43 351.039 253.428 350.807C253.178 350.781 252.926 350.749 252.671 350.717C250.413 350.432 248.759 348.974 246.709 347.774C245.413 347.016 243.798 345.095 241.865 342.012L236.688 342.421C238.5 345.178 239.756 347.154 240.457 348.352C241.073 349.408 241.041 350.807 240.964 351.885C240.924 352.473 240.887 353.071 241.004 353.659Z" fill="#FFB27D"/>
<path d="M246.362 354.399C249.012 353.75 248.383 354.522 252.157 354.104C255.931 353.686 257.075 352.276 257.189 351.715C257.293 351.215 255.429 351.039 253.426 350.808L253.408 350.847C251.899 351.917 250.098 352.478 248.003 352.529C245.443 352.593 242.731 351.856 240.963 351.885C240.923 352.473 240.886 353.072 241.003 353.66C241.334 355.328 243.709 355.048 246.362 354.399Z" fill="#492D21"/>
<path d="M229.489 277.504C230.31 275.485 231.173 274.436 232.079 274.354C233.433 274.229 237.751 273.551 238.059 274.168C238.367 274.785 238.059 277.009 237.132 277.813C236.516 278.347 234.296 279.047 230.475 279.912L229.489 277.504Z" fill="#FFB27D"/>
<path d="M221.169 320.505L210.015 350.579C208.873 350.688 207.753 350.587 206.658 350.27C205.649 349.98 204.568 349.45 203.413 348.687C205.259 329.436 208.007 318.001 211.255 313.806C214.636 309.802 217.943 312.034 221.169 320.505Z" fill="#492D21"/>
<path d="M177.049 308.338C198.417 301.099 211.483 298.25 216.251 299.79C221.015 301.331 230.554 316.359 244.861 344.879C244.539 345.31 243.937 345.691 243.055 346.021C242.234 346.329 240.832 346.473 238.848 346.454C225.936 335.366 218.71 328.204 217.172 324.971C214.867 320.119 213.945 315.5 211.637 315.96C209.332 316.423 181.891 327.281 175.665 320.813C171.515 316.5 169.982 311.544 171.068 305.941L177.049 308.338Z" fill="#492D21"/>
<path d="M195.323 231.779C193.937 230.992 192.277 230.904 191.116 230.973C191.315 230.768 191.61 230.627 192.003 230.55C191.522 230.481 190.747 230.683 189.674 231.159C179.657 227.294 178.082 242.07 178.294 245.502C178.501 248.934 178.528 252.884 173.527 255.965C166.968 260.004 166.455 265.548 171.99 272.598C172.04 272.628 173.567 275.192 176.568 280.29C176.316 277.515 189.092 262.877 195.758 258.493C197.381 256.098 197.957 251.871 198 251.538C197.721 254.89 197.147 256.771 196.635 257.83C202.281 252.626 198.996 233.87 195.323 231.779Z" fill="#492D21"/>
<path d="M195.362 258.71C195.397 258.724 192.143 260.416 189.697 259.745C187.398 259.117 185.894 256.13 185.926 256.122C186.901 255.928 187.18 254.587 187.161 248.824L187.599 248.909L195.006 250.378C194.895 251.937 194.836 253.448 194.834 254.914C194.828 256.76 194.94 258.513 195.362 258.71Z" fill="#FFB27D"/>
<path d="M195.006 250.378C194.895 251.937 194.836 253.448 194.833 254.914C190.688 254.797 188.497 251.008 187.599 248.909L195.006 250.378Z" fill="#ED975D"/>
<path d="M186.834 248.104C185.387 245.81 184.489 243.685 184.142 241.724C183.77 239.628 184.837 231.846 192.64 232.969C194.151 233.118 195.617 233.671 197.038 234.634C198.732 235.778 201.178 238.255 198.443 245.042L197.734 247.335L186.834 248.104Z" fill="#492D21"/>
<path d="M196.389 252.461C189.853 252.57 186.581 250.586 186.576 246.505C186.571 240.386 185.301 236.286 191.561 235.924C197.82 235.562 199.042 237.895 199.539 239.936C200.038 241.979 198.941 252.262 196.389 252.461Z" fill="#FFB27D"/>
<path d="M196.029 235.775C194.239 240.561 191.971 243.307 189.222 244.015C186.476 244.722 184.506 244.706 183.316 243.969C185.422 242.293 186.694 239.992 187.132 237.066C191.713 233.926 194.677 233.495 196.029 235.775Z" fill="#492D21"/>
<path d="M195.362 236.358C196.701 237.425 197.532 238.479 197.856 239.519C198.345 241.078 198.565 244.284 199.5 244.175C200.846 240.921 200.764 238.375 199.248 236.537C197.641 234.584 196.348 234.525 195.362 236.358Z" fill="#492D21"/>
<path d="M173.526 285.137C172.559 281.075 175.849 273.192 179.283 266.666C182.398 260.749 185.633 255.95 185.925 256.123C191.404 259.382 194.392 259.656 194.886 256.947C194.888 256.947 202.351 257.94 204.465 261.585C207.089 266.107 209.92 278.747 212.735 281.139C212.302 282.464 212.488 283.169 212.945 284.81C213.043 285.161 213.152 285.497 213.271 285.813C213.696 286.968 214.225 287.907 214.684 288.718C213.253 289.591 210.491 291.246 208.457 290.057C205.355 288.237 202.933 282.701 201.57 280.495C201.565 280.487 201.562 280.479 201.557 280.468C198.596 297.261 202.622 301.084 200.582 302.853C198.431 304.724 195.356 301.965 188.592 304.902C184.154 306.831 177.998 309.616 173.852 310.103C171.68 310.358 170.057 309.978 169.529 308.509C167.991 304.234 175.371 292.885 173.526 285.137Z" fill="#FCCC4F"/>
<path d="M194.211 248.753C194.334 249.271 195.037 249.49 196.323 249.41C197.404 249.343 197.927 249.027 197.895 248.455C196.846 248.05 195.619 248.149 194.211 248.753Z" fill="white"/>
<path d="M169.529 308.509C170.057 309.978 171.68 310.358 173.852 310.103C176.721 308.85 189.115 304.04 188.977 300.781C188.77 295.957 186.592 295.803 188.13 289.846C189.364 285.066 177.913 276.174 176.088 274.24C172.652 280.766 172.559 281.075 173.526 285.137C175.371 292.885 167.991 304.234 169.529 308.509Z" fill="#FCCC4F"/>
<path d="M168.127 291.104C170.326 288.013 172.615 286.379 174.121 285.557C173.776 284.661 183.366 272.883 183.366 271.058C183.366 269.826 184.218 264.846 185.926 256.122C180.596 256.452 177.011 257.905 175.167 260.483C171.707 265.317 164.518 283.921 168.127 291.104Z" fill="#FCCC4F"/>
<path d="M174.121 285.558L190.09 289.732L188.592 292.427C175.635 292.336 168.815 291.895 168.127 291.105C167.442 290.314 169.439 288.465 174.121 285.558Z" fill="#FFB27D"/>
<path d="M201.57 280.495C202.933 282.701 205.355 288.237 208.457 290.057C210.491 291.246 213.253 289.591 214.684 288.719C214.225 287.907 213.696 286.968 213.271 285.813C212.13 286.077 210.738 286.409 209.838 286.681C208.674 287.034 205.918 284.973 201.57 280.495Z" fill="#FCCC4F"/>
<path d="M190.089 289.731C193.433 288.784 195.504 288.42 196.301 288.641C197.493 288.973 201.586 291.69 201.012 292.426C200.436 293.163 196.829 291.985 195.172 292.208C193.512 292.432 192.23 293.251 191.035 293.073C190.238 292.956 189.425 292.74 188.591 292.426L190.089 289.731Z" fill="#FFB27D"/>
<path d="M190.091 289.731C191.727 288.888 192.779 288.228 193.244 287.749C193.331 287.659 193.48 287.677 193.549 287.784C193.735 288.079 193.91 288.651 193.05 289.218C192.224 289.763 191.239 289.934 190.091 289.731Z" fill="#FFB27D"/>
<path d="M213.265 296.8H189.868C189.868 295.768 190.705 294.93 191.733 294.93H213.265V296.8Z" fill="#BF9786"/>
<path d="M213.2 271.271H249.374L240.698 296.8H204.288L213.2 271.271Z" fill="#BF9786"/>
<path d="M249.906 271.273L241.227 296.798H204.819L213.732 271.273H249.906Z" fill="#ECBCB7"/>
<path d="M230.403 283.799C230.177 284.775 229.208 285.565 228.233 285.565C227.258 285.565 226.653 284.775 226.876 283.799C227.102 282.825 228.074 282.032 229.046 282.032C230.02 282.032 230.628 282.825 230.403 283.799Z" fill="#F9DDBF"/>
<path d="M249.907 271.273L241.228 296.798H217.116C233.088 291.339 237.34 274.687 238.054 271.273H249.907Z" fill="#DEB5B1"/>
<path d="M144.888 374.906C145.345 374.906 145.735 374.584 145.815 374.142L150.359 348.347L156.892 311.244L158.719 300.868L154.066 300.735L153.259 306.759L147.589 349.084L144.227 374.172C144.174 374.56 144.484 374.906 144.888 374.906Z" fill="#B8B8B8"/>
<path d="M153.259 306.759C155.269 307.647 156.48 309.142 156.892 311.244L158.719 300.868L154.066 300.735L153.259 306.759Z" fill="#BFBAB7"/>
<path d="M260.662 374.906C260.205 374.906 259.815 374.584 259.735 374.142L255.194 348.347L248.658 311.244L246.831 300.868L251.484 300.735L252.291 306.759L257.964 349.084L261.323 374.172C261.377 374.56 261.066 374.906 260.662 374.906Z" fill="#B8B8B8"/>
<path d="M252.291 306.759C250.281 307.647 249.07 309.142 248.658 311.244L246.831 300.868L251.484 300.735L252.291 306.759Z" fill="#BFBAB7"/>
<path d="M141.78 304.941H260.98C262.542 304.941 263.819 303.661 263.819 302.097V299.639C263.819 298.075 262.542 296.795 260.98 296.795H141.78C140.218 296.795 138.941 298.075 138.941 299.639V302.097C138.941 303.661 140.218 304.941 141.78 304.941Z" fill="#F3F4F5"/>
<path opacity="0.1" d="M641.578 374.999H0.728555C0.32785 374.999 0 374.512 0 373.911V373.536C0 372.939 0.32785 372.447 0.728555 372.447H641.578C641.979 372.447 642.307 372.939 642.307 373.536V373.911C642.307 374.512 641.979 374.999 641.578 374.999Z" fill="#492D21"/>
<path d="M419.866 292.453C417.806 295.015 417.097 296.47 417.742 296.819C418.709 297.343 421.261 298.322 421.864 297.705C422.265 297.293 422.53 295.579 422.655 292.56L419.866 292.453Z" fill="#FFB27D"/>
<path d="M419.99 292.517C419.149 292.809 418.562 293.174 418.23 293.615C417.733 294.272 416.634 295.278 416.902 295.555C417.082 295.741 417.699 295.424 418.75 294.605L419.99 292.517Z" fill="#FFB27D"/>
<path d="M431.553 241.151C429.229 262.818 427.965 273.963 427.758 274.58C427.691 274.779 427.418 275.809 427.033 277.288C426.483 279.403 425.707 282.441 424.972 285.331C424.234 288.239 423.525 291.035 422.847 293.722L419.82 292.721C419.716 282.191 419.923 275.716 420.441 273.29C421.222 269.653 423.71 247.305 424.969 244.299C425.806 242.293 427.999 241.244 431.553 241.151Z" fill="#BF9786"/>
<path d="M421.673 297.79C422.236 296.84 422.412 296.199 422.202 295.869C421.992 295.537 421.506 296.029 420.747 297.346C421.264 296.215 421.426 295.558 421.235 295.372C421.041 295.185 420.547 295.741 419.753 297.04C420.247 295.944 420.407 295.374 420.234 295.337C420.061 295.3 419.679 295.763 419.089 296.723C419.395 295.901 419.408 295.51 419.129 295.55C418.85 295.587 418.407 295.984 417.801 296.731L421.673 297.79Z" fill="#FFB27D"/>
<path d="M427.035 277.289C426.485 279.404 425.709 282.442 424.974 285.331C424.501 283.996 423.898 281.87 423.518 278.954C423.051 275.37 423.534 269.757 424.971 262.116L427.035 277.289Z" fill="#CEB1A5"/>
<path d="M466.902 291.114C469.149 292.942 470.411 294.142 470.69 294.714C471.104 295.57 472.153 298.742 472.097 299.763C472.041 300.788 469.516 297.425 468.772 297.153C468.031 296.882 469.548 298.534 469.378 298.888C469.208 299.242 467.625 298.085 467.022 297.707C466.419 297.329 465.997 294.764 465.097 293.368C464.499 292.439 465.099 291.686 466.902 291.114Z" fill="#FFB27D"/>
<path d="M422.687 373.227H439.487C440.289 372.681 440.18 369.744 439.163 364.415C436.106 363.253 434.314 363.851 433.785 366.216C432.991 369.757 427.945 370.883 425.274 371.316C423.447 371.614 422.868 372.62 422.687 373.227Z" fill="#492D21"/>
<path d="M447.602 373.227H464.405C465.207 372.681 465.098 369.744 464.078 364.415C461.021 363.253 459.229 363.851 458.703 366.216C457.906 369.757 452.86 370.883 450.191 371.316C448.364 371.614 447.785 372.62 447.602 373.227Z" fill="#492D21"/>
<path d="M427.207 291.661C427.708 297.953 428.256 304.881 428.848 312.447C429.652 322.721 431.14 340.594 433.309 366.071C434.73 367.286 437.017 367.561 440.166 366.895C442.849 358.108 444.588 348.698 445.39 338.668C445.409 338.421 445.427 338.173 445.446 337.923C446.192 327.712 447.146 311.856 448.306 290.354L427.207 291.661Z" fill="#492D21"/>
<path d="M431.768 288.398C439.767 308.344 445.044 322.098 447.601 329.659C449.423 335.044 452.902 347.184 458.038 366.075C460.272 366.756 462.327 366.44 464.205 365.123C466.117 345.821 465.142 333.448 461.281 328.004C458.211 323.673 460.519 282.982 448.063 282.633C439.759 282.399 434.328 284.323 431.768 288.398Z" fill="#492D21"/>
<path d="M454.632 291.115C449.631 293.943 428.197 293.879 427.206 291.66C424.989 286.704 424.431 261.523 425.477 253.799C425.838 245.885 426.415 242.101 427.206 242.453C432.483 240.024 439.393 239.912 447.934 242.117C451.389 243.136 451.095 251.046 452.059 262.153C452.184 263.584 452.319 265.074 452.473 266.617C453.156 273.476 454.149 281.354 455.657 289.665C455.756 290.213 455.376 290.697 454.632 291.115Z" fill="#BF9786"/>
<path d="M442.016 240.782C441.883 242.905 439.119 242.665 435.797 241.905C433.582 241.399 432.875 240.492 433.677 239.183C433.709 238.177 433.794 237.071 433.935 235.865C434.012 235.208 434.107 234.509 434.235 233.83C434.293 233.5 434.357 233.17 434.431 232.856C434.867 230.986 441.071 232.79 441.028 233.293C440.906 234.65 441.886 239.114 442.016 240.782Z" fill="#FFB27D"/>
<path d="M434.891 244.488L434.628 241.554L438.307 242.251L436.891 244.869L434.891 244.488Z" fill="#492D21"/>
<path d="M433.754 237.802L431.555 241.151C431.555 242.524 432.192 243.708 433.464 244.706L436.471 241.902C435.175 241.407 434.269 240.039 433.754 237.802Z" fill="#F8EFEE"/>
<path d="M436.469 241.902C436.883 243.394 437.494 244.482 438.296 245.169C441.424 244.325 443.36 243.101 444.107 241.495L441.663 238.334C441.584 239.928 439.852 241.117 436.469 241.902Z" fill="#F8EFEE"/>
<path d="M441.062 234.349C439.07 235.674 436.693 236.182 433.934 235.866C434.011 235.209 434.106 234.509 434.234 233.831C434.778 233.7 435.277 233.591 435.734 233.509L441.062 234.349Z" fill="#E2915A"/>
<path d="M442.958 232.087C441.497 236.113 436.167 235.086 433.899 234.439C433.472 234.317 433.129 234.208 432.864 234.107C432.162 233.787 431.947 232.561 432.008 231.013C432.128 227.948 433.336 223.622 434.029 222.579C435.073 221.009 436.813 219.416 441.983 221.637C447.154 223.859 444.83 226.929 442.958 232.087Z" fill="#FFB27D"/>
<path d="M446.948 230.02C445.859 230.909 444.149 232.175 441.812 233.82C442.072 233.511 442.361 232.915 442.677 232.026C442.733 231.875 442.749 231.654 442.741 231.42C442.723 230.768 442.879 230.116 443.222 229.56C443.434 229.212 443.511 228.853 443.243 228.597C442.8 228.177 442.043 228.563 441.546 228.903C441.219 229.127 440.792 229.14 440.455 228.932C440.452 228.93 440.449 228.93 440.447 228.927C439.055 228.052 440.593 226.511 439.461 225.232C438.325 223.952 433.422 223.776 433.619 222.976C431.946 222.028 433 218.533 433.032 218.346C434.633 218.49 436.434 218.309 438.434 217.809C440.869 217.197 443.554 218.764 444.404 219.408C444.404 219.254 444.377 219.041 444.268 218.812C444.513 219.057 444.635 219.32 444.629 219.602C444.667 219.639 444.683 219.666 444.672 219.674C444.996 219.666 445.251 219.727 445.439 219.852C445.301 219.807 445.198 219.826 445.134 219.911C445.121 219.924 445.107 219.932 445.092 219.943C448.35 222.249 448.302 228.911 446.948 230.02Z" fill="#492D21"/>
<path d="M435.251 231.505C435.076 231.843 434.55 231.872 433.671 231.593C432.933 231.356 432.625 231.045 432.747 230.654C433.543 230.558 434.377 230.84 435.251 231.505Z" fill="white"/>
<path d="M434.891 244.488C432.934 269.262 431.97 282.682 431.997 284.746C432.023 286.811 433.107 288.934 435.25 291.115C436.955 289.245 437.975 287.322 438.307 285.347C438.641 283.373 438.169 269.88 436.891 244.869L434.891 244.488Z" fill="#492D21"/>
<path d="M447.937 242.118C451.097 242.876 453.925 245.659 456.422 250.464C460.169 257.674 463.127 272.216 464.915 276.052C466.107 278.611 467.114 283.919 467.932 291.978L465.098 293.369C460.541 285.111 457.925 279.628 457.25 276.919C456.884 275.456 453.915 268.858 448.343 257.128L447.937 242.118Z" fill="#BF9786"/>
<path d="M454.632 291.116C454.632 291.116 454.632 291.116 454.629 291.116C445.706 289.831 448.263 260.246 448.962 260.129C449.429 260.052 450.518 261.813 452.228 265.418L452.473 266.618C453.155 273.477 454.148 281.354 455.657 289.666C455.755 290.214 455.375 290.698 454.632 291.116Z" fill="#CEB1A5"/>
<path d="M575.199 355.74C577.677 358.004 578.672 359.941 578.189 361.55C577.464 363.963 574.113 365.573 573.658 368.523C573.204 371.471 571.393 373.08 569.763 373.08C568.674 373.08 566.082 373.08 561.987 373.08C561.185 371.697 561.753 370.795 563.684 370.38C566.584 369.755 567.678 366.288 567.497 363.069C567.375 360.925 567.465 358.421 567.768 355.561L573.929 354.133L575.199 355.74Z" fill="#492D21"/>
<path d="M529.62 364.525C530.064 369.679 529.742 372.525 528.656 373.06L507.782 373.017C507.782 371.408 508.898 370.426 511.134 370.067C514.488 369.532 520.376 367.566 521.374 363.184C522.038 360.266 524.787 360.713 529.62 364.525Z" fill="#492D21"/>
<path d="M511.995 255.337C512.728 264.369 513.527 274.314 514.391 285.174C516.149 307.298 518.263 334.475 518.472 339.623C518.714 345.582 519.317 353.329 520.286 362.862C522.581 365.126 526.023 365.783 530.615 364.828C534.707 351.22 537.339 337.215 538.507 322.814C538.534 322.46 538.56 322.104 538.59 321.747C539.676 307.088 541.065 284.325 542.757 253.459L511.995 255.337Z" fill="#492D21"/>
<path opacity="0.5" d="M511.995 255.337C512.728 264.369 513.527 274.314 514.391 285.174L538.507 322.814C538.534 322.46 538.56 322.104 538.59 321.747C539.676 307.088 541.065 284.325 542.757 253.459L511.995 255.337Z" fill="#5E4033"/>
<path d="M517.023 256.947C530.252 289.66 541.217 313.702 549.915 329.077C558.615 344.449 564.325 354.282 567.042 358.573C572.027 356.607 574.743 354.952 575.197 353.612C571.87 323.932 567.294 305.473 561.47 298.24C556.533 292.107 552.273 278.502 552.486 272.064C552.733 264.662 551.466 256.673 548.693 248.096L517.023 256.947Z" fill="#492D21"/>
<path d="M501.178 257.668C498.709 261.017 497.381 263.14 497.2 264.034C496.927 265.375 496.608 270.164 497.051 271.566C497.495 272.968 499.805 267.384 500.74 266.74C501.675 266.096 500.156 268.938 500.52 269.369C500.884 269.802 502.668 267.623 503.372 266.881C504.076 266.136 503.744 262.417 504.496 260.153C504.995 258.642 503.89 257.814 501.178 257.668Z" fill="#FFB27D"/>
<path d="M517.52 184.628C514.182 215.758 512.365 231.766 512.068 232.652C511.97 232.942 511.576 234.421 511.024 236.546C510.235 239.582 509.123 243.948 508.066 248.095C507.003 252.275 505.898 256.173 504.751 259.788C504.247 260.113 503.386 260.224 502.172 260.121C501.341 260.051 500.704 259.66 500.255 258.95C500.377 243.666 500.813 234.285 501.556 230.8C502.677 225.572 506.252 193.471 508.06 189.151C509.261 186.269 512.416 184.764 517.52 184.628Z" fill="#EAD5D3"/>
<path d="M511.022 236.547C510.234 239.583 509.121 243.948 508.064 248.096C507.384 246.178 506.518 243.124 505.971 238.939C505.299 233.788 505.995 225.724 508.059 214.75L511.022 236.547Z" fill="#F0DFD8"/>
<path d="M550.673 256.409C543.486 260.469 512.695 260.378 511.269 257.191C508.085 250.072 507.286 213.895 508.789 202.798C509.307 191.428 510.135 185.995 511.269 186.495C518.851 183.007 528.779 182.848 541.051 186.016C546.014 187.48 545.589 198.842 546.973 214.8C547.151 216.854 547.35 218.998 547.571 221.211C548.551 231.066 549.977 242.386 552.141 254.326C552.287 255.111 551.74 255.808 550.673 256.409Z" fill="#EAD5D3"/>
<path d="M532.547 184.099C532.356 187.148 528.386 186.802 523.608 185.711C520.427 184.985 519.412 183.681 520.565 181.8C520.61 180.356 520.735 178.768 520.937 177.036C521.045 176.094 521.184 175.088 521.364 174.114C521.449 173.636 521.542 173.167 521.651 172.712C522.275 170.028 531.188 172.619 531.124 173.34C530.951 175.29 532.359 181.702 532.547 184.099Z" fill="#FFB27D"/>
<path d="M522.312 189.422L521.935 185.208L527.22 186.206L525.186 189.97L522.312 189.422Z" fill="#492D21"/>
<path d="M520.677 179.815L517.519 184.628C517.519 186.602 518.433 188.305 520.26 189.736L524.578 185.708C522.716 184.995 521.418 183.032 520.677 179.815Z" fill="#FBEDEB"/>
<path d="M524.578 185.708C525.175 187.852 526.049 189.416 527.202 190.401C531.698 189.19 534.481 187.432 535.554 185.125L532.04 180.581C531.926 182.872 529.44 184.58 524.578 185.708Z" fill="#FBEDEB"/>
<path d="M531.174 174.856C528.314 176.761 524.899 177.487 520.937 177.035C521.045 176.093 521.184 175.088 521.364 174.114C522.148 173.922 522.867 173.768 523.521 173.648L531.174 174.856Z" fill="#E2915A"/>
<path d="M533.899 171.608C531.801 177.392 524.145 175.915 520.886 174.987C520.272 174.814 519.778 174.654 519.399 174.508C518.392 174.05 518.079 172.289 518.169 170.065C518.342 165.662 520.079 159.445 521.074 157.947C522.572 155.693 525.071 153.403 532.497 156.593C539.925 159.785 536.589 164.196 533.899 171.608Z" fill="#FFB27D"/>
<path d="M539.635 168.636C538.071 169.913 535.612 171.733 532.255 174.096C532.629 173.654 533.044 172.795 533.501 171.52C533.578 171.305 533.601 170.985 533.591 170.65C533.564 169.711 533.79 168.777 534.281 167.977C534.587 167.479 534.698 166.96 534.311 166.593C533.673 165.992 532.587 166.545 531.875 167.035C531.405 167.357 530.789 167.375 530.306 167.075C530.303 167.072 530.3 167.069 530.295 167.067C528.293 165.811 530.505 163.597 528.877 161.759C527.246 159.923 520.203 159.671 520.487 158.519C518.081 157.156 519.598 152.134 519.64 151.868C521.943 152.072 524.529 151.814 527.403 151.096C530.901 150.215 534.757 152.466 535.978 153.395C535.978 153.171 535.941 152.863 535.782 152.538C536.135 152.886 536.31 153.264 536.302 153.674C536.356 153.727 536.379 153.764 536.363 153.775C536.828 153.764 537.195 153.85 537.466 154.028C537.266 153.967 537.12 153.993 537.027 154.113C537.011 154.134 536.99 154.148 536.966 154.161C541.648 157.473 541.579 167.045 539.635 168.636Z" fill="#492D21"/>
<path d="M522.827 170.773C522.575 171.257 521.818 171.299 520.557 170.895C519.497 170.557 519.056 170.11 519.232 169.549C520.376 169.41 521.574 169.817 522.827 170.773Z" fill="white"/>
<path d="M522.311 189.423C519.498 225.014 518.112 244.292 518.152 247.258C518.192 250.222 519.748 253.273 522.826 256.41C525.277 253.72 526.741 250.959 527.219 248.123C527.699 245.284 527.019 225.9 525.184 189.971L522.311 189.423Z" fill="#492D21"/>
<path d="M550.673 256.409C550.67 256.409 550.67 256.409 550.668 256.409C537.849 254.56 541.521 212.06 542.528 211.892C543.197 211.78 544.761 214.313 547.221 219.49L547.571 221.212C548.551 231.066 549.977 242.386 552.142 254.326C552.288 255.111 551.741 255.808 550.673 256.409Z" fill="#F0DFD8"/>
<path d="M588.355 288.068L561.248 295.97C557.721 296.997 553.996 294.948 552.968 291.413L549.55 279.645C548.525 276.112 550.57 272.38 554.099 271.35L581.203 263.449C584.733 262.419 588.459 264.47 589.487 268.003L592.905 279.77C593.93 283.306 591.885 287.039 588.355 288.068Z" fill="#FCCC4F"/>
<path fill-rule="evenodd" clip-rule="evenodd" d="M553.046 275.155V275.152C553.545 273.093 555.006 271.313 557.058 270.488H557.061L557.064 270.486C557.266 270.406 557.473 270.331 557.685 270.27L563.084 268.698L562.346 266.157C562.181 265.593 562.248 264.992 562.532 264.473C562.819 263.954 563.289 263.574 563.852 263.412L565.262 262.999L570.929 261.347L571.949 261.049C573.12 260.709 574.353 261.384 574.693 262.558L575.428 265.098L584.745 262.382C588.287 261.35 592.027 263.406 593.057 266.955L596.515 278.858C597.545 282.407 595.492 286.153 591.95 287.185L564.893 295.073C564.415 295.215 563.934 295.294 563.459 295.326C563.456 295.326 563.456 295.326 563.453 295.326C562.689 295.377 561.937 295.292 561.22 295.089C559.063 294.48 557.25 292.804 556.58 290.5L553.123 278.597C552.785 277.435 552.78 276.256 553.046 275.155ZM573.359 262.946C573.256 262.592 572.934 262.358 572.581 262.353C572.502 262.35 572.419 262.361 572.337 262.385L571.131 262.733L566.672 264.037L564.24 264.744C563.804 264.872 563.552 265.332 563.679 265.769L564.415 268.309L574.098 265.484L573.359 262.946Z" fill="#FEAC1A"/>
<path d="M565.977 257.886C565.416 262.579 565.661 264.894 566.712 264.825C568.287 264.724 572.143 263.968 572.406 262.755C572.581 261.946 571.599 259.658 569.453 255.886L565.977 257.886Z" fill="#FFB27D"/>
<path d="M566.177 257.867C565.375 258.868 564.937 259.761 564.868 260.549C564.764 261.73 564.191 263.795 564.73 263.928C565.088 264.016 565.598 263.159 566.257 261.358L566.177 257.867Z" fill="#FFB27D"/>
<path d="M541.055 186.017C545.593 187.107 549.657 191.103 553.245 198.007C558.625 208.364 562.877 229.254 565.448 234.769C567.161 238.443 568.669 245.797 569.973 256.827C569.705 257.375 569.11 257.747 568.186 257.95C567.471 258.104 566.744 258.152 566.008 258.091C559.262 247.263 555.404 239.904 554.434 236.014C553.911 233.91 549.643 224.431 541.639 207.582L541.055 186.017Z" fill="#EAD5D3"/>
<path d="M101.441 366.342L100.421 358.981L104.705 355.395L106.057 365.14L101.441 366.342Z" fill="#FFB27D"/>
<path d="M115.671 372.915H98.2018C97.923 371.138 98.0876 369.574 98.6958 368.225C99.5695 366.283 100.932 365.083 101.054 363.596C102.164 364.742 103.532 365.479 106.057 365.139C106.366 365.642 108.055 368.329 109.088 369.074C110.23 369.896 115.321 369.603 115.671 372.915Z" fill="#492D21"/>
<path d="M112.161 266.958C111.019 276.163 110.084 284.844 109.325 292.932C106.613 321.667 105.524 344.816 106.058 362.377C105.861 362.896 104.924 363.159 103.243 363.167C102.292 363.173 101.352 363.072 100.423 362.864C94.3541 344.1 91.555 329.38 92.0224 318.703C92.1074 316.777 92.3331 315.027 92.7341 313.518C94.9172 305.324 84.6527 273.987 95.8095 262.315C106.966 250.647 112.687 262.733 112.161 266.958Z" fill="#492D21"/>
<path d="M125.907 179.145C125.628 177.743 125.328 176.506 125.012 175.437C124.802 174.726 126.266 170.06 127.277 169.488C128.289 168.913 130.924 172.055 130.18 174.465C129.922 175.293 129.585 177.049 129.166 179.738L125.907 179.145Z" fill="#FFB27D"/>
<path d="M125.909 179.145C125.543 178.331 125.195 177.86 124.863 177.727C124.366 177.531 123.835 175.535 123.469 174.745C123.705 174.399 124.026 174.45 124.438 174.894C124.688 175.163 125.094 175.695 125.652 176.49L125.909 179.145Z" fill="#FFB27D"/>
<path d="M53.7951 186.22C53.6889 186.44 53.5401 186.837 53.4073 187.209C53.4047 187.108 53.4047 187.007 53.402 186.909C53.3967 186.169 50.6348 182.136 49.4981 181.883C48.3641 181.63 46.76 185.408 48.1782 187.497C48.6642 188.212 49.5007 189.793 50.6879 192.24L53.6304 190.718C53.7446 189.833 53.9385 189.279 54.2173 189.056C54.6343 188.72 54.5599 186.659 54.6794 185.794C54.3528 185.533 54.058 185.674 53.7951 186.22Z" fill="#FFB27D"/>
<path d="M72.1464 364.134C71.9818 362.562 71.8782 359.707 71.8384 355.57C76.045 354.221 78.074 354.011 77.9173 354.937C77.1578 359.486 76.8789 362.886 77.0861 365.14L74.5339 366.667L72.1464 364.134Z" fill="#FFB27D"/>
<path d="M106.889 266.519C90.6309 311.167 80.8202 342.247 77.7001 362.54C76.9592 363.051 75.8969 363.221 74.5132 363.051C72.9463 362.859 71.9451 362.218 71.5149 361.125C68.9099 337.568 70.0303 322.279 75.8676 314.221C81.8829 305.915 73.273 269.443 87.2847 266.519C96.6276 264.569 103.161 264.569 106.889 266.519Z" fill="#492D21"/>
<path d="M102.558 202.096V202.094C102.552 202.064 102.547 202.038 102.536 202.009C102.396 201.418 102.239 200.838 102.072 200.263C102.072 200.261 102.072 200.261 102.072 200.261C101.562 198.499 100.953 196.823 100.297 195.342C99.9204 194.493 99.53 193.705 99.129 193.006C99.0679 192.897 99.0094 192.798 98.951 192.694L98.9484 192.692C98.0056 191.103 97.0362 190.007 96.1625 189.669C94.5691 189.052 92.795 189.222 91.5734 189.478C91.754 189.228 92.0461 189.034 92.4498 188.893C91.9292 188.89 91.1378 189.228 90.0782 189.904C78.8444 187.387 79.5004 203.304 80.2652 206.912C81.0274 210.519 77.4103 212.273 72.3113 215.965C65.8207 220.661 62.6311 225.498 62.74 230.475C62.8276 230.513 62.9232 230.555 63.0242 230.606C63.4146 229.64 64.2458 227.81 65.1169 227.424C65.093 227.509 64.3839 229.879 64.1821 231.204C65.664 232.024 67.7169 233.29 69.945 234.722C69.945 234.722 69.945 234.721 69.9477 234.724C72.9301 236.634 76.2179 238.835 78.855 240.62C78.7302 239.893 78.6054 238.856 78.7913 238.271L79.6305 240.878L79.742 241.218C81.4231 242.36 82.751 243.275 83.4256 243.743C83.4946 243.791 83.5557 243.834 83.6115 243.871C83.7416 243.959 83.8425 244.03 83.9142 244.078C83.6885 243.158 84.6711 240.755 86.3203 237.728C86.4319 237.518 86.5514 237.302 86.6735 237.084C87.2073 236.126 87.7996 235.118 88.4396 234.078C88.6706 233.703 88.9044 233.327 89.146 232.944C89.1434 232.942 89.146 232.942 89.146 232.942C89.3399 232.633 89.5364 232.327 89.7383 232.016L89.7409 232.013C90.219 231.274 90.7129 230.529 91.2175 229.784C92.5215 227.852 93.9051 225.934 95.2702 224.175C97.254 221.613 99.2007 219.387 100.831 217.929C100.884 217.82 100.935 217.708 100.98 217.594C101.235 217 101.431 216.34 101.583 215.667C101.628 215.468 101.671 215.263 101.708 215.061C102.114 212.919 102.122 210.793 102.117 210.291C102.247 212.358 102.196 213.919 102.058 215.098C102.026 215.359 101.992 215.598 101.952 215.819V215.822C101.867 216.327 101.766 216.742 101.657 217.088C101.925 216.755 102.159 216.394 102.366 215.995C102.502 215.737 102.627 215.462 102.735 215.178C104.05 211.815 103.697 206.8 102.558 202.096Z" fill="#492D21"/>
<path d="M100.447 218.224C100.487 218.235 97.3024 220.542 94.6042 220.217C92.0653 219.914 89.9991 216.982 90.0336 216.971C91.0348 216.612 91.1225 215.144 90.193 209.035L90.6737 209.056L98.7604 209.445C98.8852 211.113 99.0605 212.725 99.2889 214.282C99.5757 216.24 99.9688 218.081 100.447 218.224Z" fill="#FFB27D"/>
<path d="M98.7591 209.445C98.884 211.113 99.0592 212.725 99.2876 214.282C94.8738 214.811 91.9551 211.142 90.6724 209.057L98.7591 209.445Z" fill="#ED975D"/>
<path d="M89.7329 208.322C87.8367 206.119 86.5513 204.007 85.8741 201.982C85.1491 199.816 85.0561 191.399 93.5067 191.353C95.132 191.271 96.7759 191.627 98.4331 192.423C100.409 193.373 103.394 195.61 101.562 203.24L101.171 205.786L89.7329 208.322Z" fill="#492D21"/>
<path d="M113.181 265.234C106.167 269.408 98.2559 270.425 89.4494 268.278C89.3432 268.251 85.7181 267.668 78.5688 266.524C78.7547 266.019 80.141 257.721 80.3216 257.258C82.664 251.198 86.9477 218.315 90.5277 216.692C91.4412 217.689 94.0518 218.37 96.288 218.174C98.8614 217.945 99.7245 216.83 99.5094 215.633C101.408 216.532 103.089 217.399 104.547 218.235C106.284 220.842 109.16 236.507 113.181 265.234Z" fill="white"/>
<path d="M100.556 211.435C93.64 212.582 89.8582 210.993 89.2102 206.667C88.2409 200.181 86.2464 196.034 92.83 194.658C99.411 193.285 101.071 195.568 101.921 197.654C102.77 199.742 103.227 210.82 100.556 211.435Z" fill="#FFB27D"/>
<path d="M97.5409 193.794C96.3963 199.152 94.4231 202.424 91.6213 203.608C88.8195 204.795 86.7294 205.09 85.3511 204.494C87.3216 202.385 88.3069 199.743 88.3096 196.569C92.673 192.517 95.751 191.594 97.5409 193.794Z" fill="#492D21"/>
<path d="M96.9268 194.517C98.5123 195.44 99.5613 196.425 100.069 197.476C100.833 199.051 101.572 202.419 102.544 202.155C103.463 198.492 102.974 195.805 101.075 194.092C99.0647 192.277 97.681 192.418 96.9268 194.517Z" fill="#492D21"/>
<path d="M129.239 179.294C128.817 179.145 128.196 178.794 127.386 178.72C126.902 178.677 126.36 178.733 125.755 178.893C123.803 191.043 122.757 197.439 122.611 198.083C122.393 199.048 110.057 212.97 106.732 212.914C103.728 212.864 100.17 215.187 99.5083 215.633C104.172 225.512 106.62 231.378 106.851 233.232C107.106 235.252 108.44 251.808 110.854 282.897C110.71 284.342 111.985 284.677 114.683 283.9C117.381 283.124 119.068 282.411 119.742 281.769C117.265 257.291 115.764 241.248 115.246 233.637C115.14 232.104 114.89 230.684 114.534 229.375C114.192 228.114 114.463 226.765 115.233 225.709C120.348 218.672 128.427 207.274 128.875 204.851C129.316 202.478 129.438 193.959 129.239 179.294Z" fill="#FCCC4F"/>
<path d="M86.701 372.915H69.2316C68.9527 371.138 69.1174 369.574 69.7256 368.225C70.602 366.283 71.9617 365.083 72.0865 363.596C73.1966 364.742 74.5617 365.479 77.0873 365.139C77.3953 365.642 79.0844 368.329 80.1175 369.074C81.2594 369.896 86.3505 369.603 86.701 372.915Z" fill="#492D21"/>
<path d="M98.7006 234.671C98.3076 232.252 95.6067 226.184 90.5953 216.468C87.427 215.518 84.8005 215.422 82.7157 216.181C79.5873 217.314 63.4058 208.162 62.888 207.319C62.5427 206.757 59.4807 201.085 53.7018 190.3C53.2237 190.02 52.5996 190.082 51.8321 190.483C51.0726 190.88 50.6902 191.465 50.6875 192.239C55.1465 205.818 57.9695 213.658 59.1567 215.76C60.2296 217.66 69.2511 224.276 76.2463 229.23C77.5822 230.174 78.2833 231.787 78.0629 233.41C77.1227 240.375 76.8837 244.299 75.8028 256.249C75.2026 262.861 74.791 272.566 74.5626 285.363C79.7785 287.172 84.1897 288.196 87.7908 288.435C91.392 288.675 93.5857 286.895 94.3718 283.091C97.6596 253.299 99.1043 237.158 98.7006 234.671Z" fill="#FCCC4F"/>
<path d="M97.1553 208.226C97.9945 208.721 98.9107 208.893 99.9039 208.744C100.584 208.643 101.001 208.188 101.155 207.38C100.682 207.231 100.069 207.231 99.3144 207.385C98.5602 207.534 97.8404 207.816 97.1553 208.226Z" fill="white"/>
<path d="M428.502 84.543C425.264 78.7832 425.264 75.3166 428.502 74.1433C433.354 72.3848 435.55 74.0077 435.781 75.9737C435.935 77.288 435.319 80.5284 433.933 85.7003L428.502 84.543Z" fill="#FFB27D"/>
<path d="M432.39 139.81C423.541 141.409 415.404 142.149 408.058 142.314C401.086 142.471 394.832 142.109 389.356 141.47C387.885 141.303 386.472 141.111 385.115 140.906C375.562 139.454 368.15 137.443 362.873 134.87C371.602 116.566 379.493 107.765 386.544 108.468C398.951 109.707 419.977 120.863 422.067 117.734C423.636 115.382 425.076 104.134 426.39 83.981C430.058 81.4642 432.987 81.5333 435.175 84.1858C442.341 119.639 441.411 138.18 432.39 139.81Z" fill="#BF9786"/>
<path d="M432.391 139.81C423.542 141.409 415.404 142.149 408.059 142.314C401.087 142.471 394.833 142.109 389.357 141.471C386.056 130.954 383.682 120.211 390.321 126.689C398.129 134.303 412.154 138.677 432.391 139.81Z" fill="#D3D3D3"/>
<path d="M361.88 361.484C361.253 368.761 361.707 372.778 363.242 373.534L392.715 373.475C392.715 371.203 391.138 369.814 387.98 369.309C383.248 368.553 374.93 365.776 373.522 359.593C372.585 355.469 368.705 356.1 361.88 361.484Z" fill="#492D21"/>
<path d="M383.518 229.388C383.372 236.523 383.03 243.884 382.361 250.501C379.176 281.894 378.058 319.827 377.601 327.14C377.073 335.603 375.974 346.593 374.306 360.114C370.994 363.264 366.113 364.086 359.662 362.583C354.313 343.111 351.044 323.12 349.849 302.616C349.822 302.111 349.796 301.603 349.769 301.097C349.562 297.029 349.344 292.382 349.121 287.367C348.139 264.979 347.114 237.156 346.046 203.898L383.03 195.198C383.598 206.13 383.76 217.525 383.518 229.388Z" fill="#D2D6DE"/>
<path d="M289.87 198.005C285.859 202.73 283.671 205.749 283.31 207.061C282.768 209.027 281.804 216.109 282.322 218.238C282.837 220.366 286.839 212.302 288.295 211.443C289.75 210.581 287.203 214.649 287.7 215.327C288.196 216.005 291.07 212.954 292.191 211.919C293.311 210.887 293.203 205.326 294.546 202.038C295.444 199.846 293.885 198.5 289.87 198.005Z" fill="#FFB27D"/>
<path d="M288.458 349.081C284.961 352.276 283.553 355.011 284.236 357.283C285.258 360.691 289.993 362.963 290.633 367.126C291.273 371.293 293.831 373.565 296.133 373.565C297.671 373.565 301.331 373.565 307.115 373.565C308.243 371.609 307.444 370.338 304.714 369.75C300.621 368.866 299.076 363.971 299.333 359.43C299.503 356.399 299.376 352.866 298.948 348.828L290.248 346.809L288.458 349.081Z" fill="#492D21"/>
<path d="M377.203 204.658C354.122 254.132 336.438 289.721 324.155 311.43C311.872 333.137 303.812 347.019 299.974 353.077C292.937 350.302 289.099 347.966 288.459 346.072C293.154 304.164 299.616 278.103 307.843 267.887C314.815 259.229 323.005 233.245 323.387 224.157C323.645 218.099 326.468 207.84 331.859 193.381L377.203 204.658Z" fill="#D2D6DE"/>
<path d="M387.326 208.158C378.148 214.306 367.062 217.094 354.071 216.522C345.519 216.15 328.557 213.721 325.819 206.908C325.176 205.306 325.646 203.276 326.61 200.161C329.115 192.062 334.947 176.64 333.186 142.448C333.021 139.266 333.112 136.273 333.414 133.474C335.249 116.631 344.884 106.657 354.198 103.398C369.341 98.0955 379.436 99.1171 384.481 106.463C391.174 111.773 395.025 119.972 396.034 131.058C398.05 153.233 395.147 178.933 387.326 208.158Z" fill="#BF9786"/>
<path d="M360.853 101.487C367.8 105.72 375.043 107.236 382.577 106.039C384.067 105.661 384.447 104.594 383.714 102.841C384.402 100.721 384.319 100.912 384.718 99.3373C385.379 96.9189 385.809 95.0114 386.011 93.6173L379.597 86.8624L373.521 80.4082C372.403 90.6908 368.18 97.7171 360.853 101.487Z" fill="#FFB27D"/>
<path d="M372.549 86.2588C374.875 92.4895 378.931 96.85 384.717 99.3375C385.379 96.9192 385.923 94.445 386.353 91.9149L379.597 86.8627L372.549 86.2588Z" fill="#ED985F"/>
<path d="M393.208 93.2901C379.946 94.9502 372.849 91.6991 371.92 83.5342C370.523 71.2882 367.015 63.3627 379.656 61.2557C392.297 59.1459 395.304 63.549 396.778 67.5263C398.252 71.501 398.347 92.327 393.208 93.2901Z" fill="#FFB27D"/>
<path d="M365.637 59.2657C365.465 59.0528 365.059 58.8692 364.14 58.7841C364.642 58.4941 365.221 58.3558 365.879 58.3638C366.121 57.0868 366.886 54.8413 369.114 54.3731C368.306 54.7668 367.836 55.4133 367.698 56.3205C370.351 53.7905 375.894 52.0851 391 53.857C410.91 56.1928 403.846 68.7501 401.203 70.1788C398.558 71.6075 392.211 67.1752 387.38 67.3747C382.549 67.5769 381.37 74.5127 379.7 75.4092C378.029 76.3032 378.736 74.635 376.563 73.5522C374.388 72.4668 374.04 76.1276 374.59 78.5379C374.954 80.1448 374.085 81.9592 371.982 83.9812C371.982 83.9812 370.999 82.8399 369.037 80.5545C366.092 77.1252 363.728 62.9876 365.236 60.0505C365.369 59.7924 365.502 59.529 365.637 59.2657Z" fill="#353638"/>
<path d="M426.391 78.8096L392.62 79.1128L392.389 74.0234L426.053 71.4082L426.391 78.8096Z" fill="#492D21"/>
<path d="M451.883 79.6613L415.114 80.1934L414.694 70.9404L451.357 68.0938L451.883 79.6613Z" fill="#492D21"/>
<path d="M476.673 80.3874L445.667 80.4246L445.102 67.9339L475.982 65.1191L476.673 80.3874Z" fill="#492D21"/>
<path d="M477.116 82.4944C478.072 82.4518 478.813 81.6404 478.768 80.6826L478.04 64.6348C477.998 63.677 477.188 62.9348 476.231 62.9773C475.275 63.0226 474.534 63.834 474.577 64.7918L475.305 80.8396C475.35 81.7973 476.16 82.5396 477.116 82.4944Z" fill="#492D21"/>
<path d="M392.512 80.1985C391.662 80.2357 390.943 79.5786 390.903 78.7272L390.714 74.561C390.677 73.7097 391.333 72.9887 392.183 72.9488C393.035 72.9115 393.755 73.5713 393.792 74.4226L393.984 78.5862C394.021 79.4376 393.362 80.1586 392.512 80.1985Z" fill="#492D21"/>
<path d="M326.608 200.16C329.113 192.062 334.945 176.639 333.184 142.447C333.019 139.265 333.11 136.272 333.412 133.474H333.415C338.397 133.043 344.699 135.527 352.316 140.923C347.623 169.573 339.056 189.319 326.608 200.16Z" fill="#D3D3D3"/>
<path d="M360.852 101.487C348.075 103.687 338.355 108.862 331.69 117.011C321.693 129.236 305.613 146.473 301.812 152.509C299.279 156.535 294.493 172.239 287.456 199.626C287.92 200.506 289.123 201.203 291.065 201.714C292.921 202.206 294.522 202.071 295.872 201.31C305.193 185.329 311.61 173.346 315.118 165.362C317.303 160.384 355.118 140.678 369.335 142.722C373.055 143.256 370.23 129.51 360.852 101.487Z" fill="#BF9786"/>
<path d="M426.189 69.9496C428.938 71.6337 431.134 72.1206 432.778 71.4076C434.422 70.6946 435.171 70.0135 435.025 69.3617C430.059 67.9809 427.114 68.1777 426.189 69.9496Z" fill="#FFB27D"/>
<path d="M379.45 114.877C373.841 150.343 351.145 173.236 311.362 183.564L304.861 196.411L316.281 198.348C361.574 185.203 383.917 157.066 383.306 113.938L379.45 114.877Z" fill="#492D21"/>
<path d="M378.147 106.388L375.393 106.656V110.652L379.451 114.877L383.309 113.938V108.394L380.534 106.388H378.147Z" fill="#492D21"/>
<path d="M367.337 95.8096C365.558 96.2113 362.639 98.1029 358.573 101.487C362.615 110.08 368.901 114.89 377.426 115.92C377.291 111.932 377.53 108.755 378.146 106.387C371.387 103.964 367.783 100.439 367.337 95.8096Z" fill="#D3D3D3"/>
<path d="M378.146 106.387C382.308 108.601 384.542 111.429 384.85 114.877C386.44 112.355 387.006 110.218 386.544 108.47C386.082 106.72 385.139 104.844 383.713 102.841C383.854 104.948 382 106.129 378.146 106.387Z" fill="#D3D3D3"/>
</svg>
